<?xml version="1.0" encoding="UTF-8"?>
<svg width="100%" height="100%" viewBox="0 0 6 11" version="1.1" xmlns="http://www.w3.org/2000/svg"
  xmlns:xlink="http://www.w3.org/1999/xlink">
  <title>Path 2</title>
  <g id="Framework" stroke="none" stroke-width="1" fill="none" fill-rule="evenodd">
    <g transform="translate(-977, -352)" fill="var(--appWhite)" fill-rule="nonzero" id="Path-2">
      <path
        d="M979.799863,352.861333 C979.818341,352.860551 979.836831,352.860105 979.855332,352.859994 C979.867182,352.859994 979.87901,352.860284 979.890816,352.860864 C979.902644,352.861466 979.914449,352.862348 979.926233,352.863508 C979.938016,352.864691 979.949766,352.866164 979.961482,352.867927 C979.973199,352.869668 979.98486,352.87171 979.996464,352.874053 C980.008069,352.876374 980.019607,352.878996 980.031078,352.88192 C980.042549,352.884821 980.053953,352.888013 980.06529,352.891494 C980.076605,352.894953 980.08783,352.898702 980.098966,352.902742 C980.110103,352.906759 980.121127,352.911055 980.13204,352.91563 C980.142953,352.920205 980.153755,352.925048 980.164445,352.930158 C980.175112,352.935291 980.185657,352.940669 980.196079,352.946293 C980.206479,352.95194 980.216744,352.957831 980.226876,352.963968 C980.236986,352.970106 980.24695,352.976499 980.25677,352.98315 C980.266567,352.989778 980.276197,352.996652 980.285659,353.003771 C980.295122,353.01089 980.304406,353.018243 980.313511,353.025831 C980.322594,353.033397 980.331498,353.041185 980.340224,353.049197 C980.348928,353.057231 980.357431,353.065466 980.365733,353.073902 C980.472687,353.18243 980.537596,353.315194 980.558619,353.465599 C980.588546,353.679708 980.570034,353.97754 980.570034,354.201257 L980.569733,355.633406 L980.56913,360.209843 C980.792144,359.969221 981.011141,359.694153 981.225283,359.442584 C981.33284,359.316248 981.441234,359.165608 981.573328,359.065282 C981.657184,359.001545 981.766315,358.959332 981.869486,358.94072 C982.063878,358.905637 982.254588,358.950829 982.414936,359.065148 C982.424399,359.071843 982.433682,359.078773 982.442788,359.085936 C982.451915,359.0931 982.460853,359.100487 982.469602,359.108097 C982.47835,359.115707 982.486897,359.123529 982.495244,359.131564 C982.503613,359.139598 982.51177,359.147833 982.519715,359.156268 C982.527659,359.164704 982.535392,359.173341 982.542913,359.182178 C982.550456,359.190994 982.557754,359.199999 982.564806,359.209193 C982.571881,359.218366 982.578732,359.227716 982.58536,359.237246 C982.591966,359.246775 982.598326,359.256461 982.604441,359.266302 C982.610578,359.276144 982.616459,359.286131 982.622083,359.296263 C982.627707,359.306395 982.633085,359.316661 982.638218,359.327061 C982.643328,359.33746 982.648182,359.347983 982.65278,359.358628 C982.657377,359.369273 982.661706,359.38003 982.665768,359.390898 C982.66983,359.401744 982.673624,359.412691 982.67715,359.423738 C982.680654,359.434785 982.68389,359.44591 982.686858,359.457113 C982.689826,359.468338 982.692515,359.47962 982.694925,359.490957 C982.697336,359.502294 982.699456,359.513686 982.701286,359.525135 C982.703205,359.536785 982.704845,359.548468 982.706207,359.560184 C982.707546,359.571923 982.708595,359.583673 982.709353,359.595434 C982.710112,359.607217 982.710581,359.619012 982.710759,359.630817 C982.710938,359.642623 982.710842,359.654418 982.710424,359.666201 C982.710023,359.678007 982.70932,359.68979 982.708316,359.701551 C982.707334,359.713312 982.706062,359.72504 982.704499,359.736734 C982.702915,359.748428 982.701051,359.760077 982.698909,359.771682 C982.696744,359.783287 982.6943,359.794836 982.691578,359.806329 C982.688855,359.817823 982.685853,359.829238 982.682573,359.840575 C982.679292,359.85189 982.675722,359.863137 982.671861,359.874318 C982.668022,359.885477 982.663905,359.896524 982.659508,359.907459 C982.655112,359.918417 982.650448,359.929263 982.645515,359.939997 C982.640583,359.950709 982.635384,359.961299 982.629916,359.971765 C982.624471,359.982232 982.618757,359.992554 982.612776,360.00273 C982.606818,360.012929 982.600603,360.022961 982.594131,360.032825 C982.587659,360.042689 982.580952,360.052397 982.574012,360.061948 C982.435256,360.250516 982.266338,360.427032 982.11379,360.604955 L981.230137,361.635364 L980.665472,362.294564 C980.551689,362.427797 980.438642,362.584094 980.303301,362.695935 C980.191058,362.788663 980.061106,362.836164 979.918567,362.858024 C979.889666,362.860099 979.860744,362.860535 979.831798,362.859329 C979.631012,362.851965 979.447801,362.755221 979.313765,362.608933 C979.147124,362.427161 978.991195,362.232802 978.830613,362.045339 L977.876025,360.931642 L977.389659,360.364433 C977.292848,360.252056 977.177425,360.136565 977.099728,360.010195 C977.026149,359.890554 976.994146,359.749655 977.000875,359.609862 C977.001366,359.597877 977.002158,359.585915 977.003252,359.573976 C977.004323,359.562059 977.005706,359.550164 977.007403,359.538291 C977.009099,359.526418 977.011096,359.514601 977.013395,359.50284 C977.015693,359.491079 977.018282,359.479374 977.021161,359.467725 C977.02404,359.456097 977.02722,359.444548 977.030702,359.433077 C977.034161,359.421607 977.03791,359.410225 977.041949,359.398932 C977.046011,359.38764 977.050352,359.37647 977.054971,359.365423 C977.059569,359.354354 977.064456,359.343408 977.069634,359.332584 C977.074811,359.321783 977.080245,359.311104 977.085936,359.300548 C977.091649,359.290014 977.09763,359.279626 977.103879,359.269382 C977.110105,359.259161 977.116589,359.249096 977.123328,359.239187 C977.13009,359.229279 977.137087,359.219548 977.144317,359.209997 C977.15157,359.200423 977.159047,359.19105 977.166746,359.181877 C977.174468,359.172705 977.182413,359.163733 977.190581,359.154963 C977.198749,359.146192 977.20714,359.137634 977.215754,359.129287 C977.224346,359.120941 977.23315,359.112817 977.242166,359.104917 C977.384236,358.978815 977.564134,358.918626 977.753471,358.93051 C977.882084,358.938577 978.012003,358.981325 978.117718,359.055641 C978.280108,359.169793 978.423551,359.372922 978.552833,359.524064 C978.74708,359.752858 978.942957,359.980246 979.140462,360.206228 C979.147291,360.018363 979.141902,359.828423 979.141902,359.640324 L979.141935,358.561576 L979.141835,355.30076 L979.141332,354.119543 C979.141266,353.915744 979.12667,353.700932 979.14853,353.49874 C979.163393,353.36149 979.207647,353.240543 979.293211,353.131179 C979.424067,352.963935 979.592884,352.886774 979.799863,352.861333 Z"
        transform="translate(979.8554, 357.86) rotate(180) translate(-979.8554, -357.86)"></path>
    </g>
  </g>
</svg>
