<?xml version="1.0" encoding="UTF-8"?>
<svg width="100%" height="100%" viewBox="0 0 8 14" version="1.1" xmlns="http://www.w3.org/2000/svg"
  xmlns:xlink="http://www.w3.org/1999/xlink">
  <title>Path 2</title>
  <g id="Framework" stroke="none" stroke-width="1" fill="none" fill-rule="evenodd">
    <g transform="translate(-423, -2753)" fill="var(--appMediumGray)" fill-rule="nonzero" id="Group-A">
      <g transform="translate(170, 208)">
        <g id="Components" transform="translate(0, 61)">
          <g id="Icons" transform="translate(0, 2257)">
            <g id="Arrow-Down" transform="translate(246, 222)">
              <path
                d="M11.1780213,5.86175153 C11.202282,5.86072602 11.2265574,5.86014001 11.2508474,5.85999351 C11.2664059,5.85999351 11.2819351,5.86037441 11.297435,5.86113622 C11.3129642,5.86192733 11.3284641,5.8630847 11.3439347,5.86460832 C11.3594053,5.86616124 11.374832,5.86809506 11.3902147,5.87040979 C11.4055973,5.87269522 11.4209068,5.8753762 11.436143,5.87845274 C11.4513792,5.88149998 11.4665275,5.88494278 11.4815879,5.88878112 C11.4966483,5.89259017 11.5116208,5.89678013 11.5265053,5.90135099 C11.5413606,5.90589254 11.5560987,5.91081501 11.5707196,5.91611837 C11.5853405,5.92139244 11.5998149,5.92703276 11.6141428,5.93303934 C11.6284706,5.93904592 11.642652,5.9454041 11.6566869,5.95211388 C11.6706925,5.95885297 11.6845369,5.96591436 11.6982202,5.97329805 C11.7118742,5.98071105 11.7253523,5.98844635 11.7386547,5.99650395 C11.7519278,6.00456155 11.7650104,6.01295611 11.7779026,6.02168762 C11.7907654,6.03038983 11.8034085,6.03941435 11.8158319,6.04876117 C11.8282552,6.05810799 11.8404442,6.06776246 11.8523988,6.07772459 C11.864324,6.08765742 11.8760149,6.09788325 11.8874713,6.10840208 C11.8988985,6.11895022 11.9100619,6.12976206 11.9209616,6.1408376 C12.0613837,6.28332532 12.1466038,6.45763325 12.1742048,6.65510312 C12.2134966,6.93621091 12.1891919,7.32723906 12.1891919,7.62096067 L12.1887964,9.5012536 L12.1880052,15.5097349 C12.4808039,15.1938183 12.7683285,14.8326765 13.0494802,14.502388 C13.1906934,14.3365186 13.3330053,14.1387411 13.5064342,14.0070213 C13.6165304,13.9233394 13.7598092,13.8679177 13.8952648,13.8434812 C14.1504857,13.797421 14.4008721,13.8567543 14.6113953,14.0068455 C14.6238186,14.0156356 14.6360076,14.0247333 14.6479621,14.0341388 C14.659946,14.0435442 14.6716808,14.0532426 14.6831665,14.063234 C14.6946523,14.0732255 14.7058743,14.0834952 14.7168327,14.0940434 C14.7278203,14.1045915 14.7385296,14.1154033 14.7489605,14.1264789 C14.7593915,14.1375544 14.7695441,14.1488937 14.7794183,14.1604966 C14.7893218,14.1720703 14.798903,14.183893 14.8081619,14.1959647 C14.8174502,14.2080072 14.8264454,14.220284 14.8351476,14.2327953 C14.8438205,14.2453066 14.8521711,14.2580229 14.8601994,14.2709444 C14.868257,14.2838658 14.8759777,14.2969778 14.8833614,14.3102801 C14.890745,14.3235825 14.8978064,14.3370607 14.9045455,14.3507146 C14.9112553,14.3643686 14.9176281,14.3781837 14.923664,14.39216 C14.9296999,14.4061363 14.9353842,14.4202591 14.9407168,14.4345284 C14.9460495,14.4487684 14.9510306,14.4631402 14.95566,14.4776439 C14.9602602,14.4921476 14.9645087,14.5067538 14.9684057,14.5214626 C14.9723026,14.5362007 14.9758333,14.551012 14.9789978,14.5658966 C14.9821622,14.5807812 14.9849458,14.595739 14.9873484,14.6107701 C14.9898682,14.6260649 14.9920218,14.6414037 14.9938091,14.6567864 C14.9955671,14.6721984 14.9969443,14.687625 14.9979405,14.7030663 C14.9989367,14.7185369 14.999552,14.7340221 14.9997864,14.749522 C15.0000208,14.7650219 14.9998946,14.7805072 14.9993469,14.7959778 C14.9988195,14.8114777 14.9978965,14.8269483 14.996578,14.8423896 C14.9952888,14.8578309 14.9936187,14.8732282 14.9915676,14.8885816 C14.9894873,14.903935 14.9870407,14.9192298 14.9842279,14.934466 C14.9813858,14.9497022 14.9781774,14.9648651 14.9746027,14.9799548 C14.9710281,14.9950445 14.9670872,15.0100317 14.96278,15.0249163 C14.9584729,15.0397716 14.9537848,15.0545389 14.9487158,15.0692184 C14.9436762,15.0838686 14.9382703,15.0983723 14.9324981,15.1127295 C14.9267259,15.127116 14.9206021,15.141356 14.9141267,15.1554494 C14.9076514,15.1695136 14.9008244,15.1834166 14.8936458,15.1971585 C14.8864965,15.2109004 14.8789956,15.2244518 14.8711431,15.2378128 C14.8633199,15.2512031 14.8551597,15.2643736 14.8466626,15.2773243 C14.8381655,15.2902751 14.8293608,15.3030208 14.8202483,15.3155613 C14.6380733,15.5631348 14.4162987,15.7948862 14.216016,16.0284834 L13.055853,17.3813256 L12.314495,18.2468001 C12.165107,18.4217233 12.016686,18.6269285 11.8389938,18.7737673 C11.6916276,18.8955104 11.5210115,18.9578762 11.33387,18.986576 C11.295926,18.9893009 11.2579528,18.9898723 11.2199502,18.98829 C10.9563347,18.9786209 10.7157933,18.8516038 10.5398152,18.6595398 C10.3210293,18.4208883 10.1163076,18.1657113 9.90547677,17.9195882 L8.65218255,16.4573969 L8.01362483,15.7126986 C7.88651981,15.5651566 7.73497827,15.4135271 7.63296902,15.2476138 C7.53636568,15.0905345 7.49434895,14.9055465 7.50318301,14.722009 C7.50382762,14.7062747 7.50486778,14.6905697 7.5063035,14.674894 C7.50770992,14.6592476 7.50952654,14.6436305 7.51175337,14.6280427 C7.5139802,14.6124549 7.51660258,14.5969403 7.51962052,14.581499 C7.52263846,14.5660578 7.5260373,14.5506897 7.52981705,14.5353949 C7.5335968,14.5201294 7.5377721,14.5049665 7.54234296,14.4899061 C7.54688452,14.4748457 7.55180698,14.4599025 7.55711035,14.4450765 C7.56244302,14.4302505 7.56814194,14.4155857 7.57420712,14.401082 C7.58024299,14.386549 7.58665978,14.3721772 7.59345746,14.3579665 C7.60025515,14.3437851 7.60738979,14.3297649 7.61486139,14.3159058 C7.62236228,14.302076 7.63021478,14.2884367 7.63841889,14.2749878 C7.64659369,14.2615683 7.65510545,14.2483538 7.66395416,14.2353444 C7.67283218,14.2223351 7.68201785,14.2095601 7.69151117,14.1970195 C7.70103379,14.1844497 7.71084941,14.1721435 7.72095804,14.1601011 C7.73109597,14.1480586 7.74152691,14.1362799 7.75225084,14.1247648 C7.76297478,14.1132498 7.77399172,14.1020131 7.78530167,14.0910547 C7.79658231,14.0800964 7.80814131,14.0694311 7.81997866,14.0590587 C8.00650484,13.893497 8.24269516,13.8144738 8.49127954,13.8300763 C8.6601376,13.8406684 8.83070973,13.8967932 8.9695056,13.9943635 C9.18270978,14.1442349 9.37103794,14.4109269 9.54077501,14.6093637 C9.79580547,14.9097511 10.0529749,15.2082927 10.3122832,15.5049883 C10.3212491,15.2583377 10.314173,15.0089622 10.314173,14.762004 L10.314217,13.3456972 L10.3140851,9.06451687 L10.3134259,7.51367735 C10.313338,7.24610633 10.2941755,6.96407557 10.3228753,6.69861418 C10.3423893,6.51841687 10.4004919,6.35962349 10.5128296,6.21603701 C10.6846323,5.99646 10.906275,5.89515396 11.1780213,5.86175153 Z"
                id="Path-2"></path>
            </g>
          </g>
        </g>
      </g>
    </g>
  </g>
</svg>