<?xml version="1.0" encoding="UTF-8"?>
<svg width="100%" height="100%" viewBox="0 0 16 9" version="1.1" xmlns="http://www.w3.org/2000/svg" xmlns:xlink="http://www.w3.org/1999/xlink">
    <title>Regular</title>
    <g id="Framework" stroke="none" stroke-width="1" fill="none" fill-rule="evenodd">
        <g transform="translate(-1143, -89)" fill="var(--appMediumGray)" fill-rule="nonzero" id="Overlays">
            <g id="Side-Panel" transform="translate(917, 0)">
                <g id="Regular" transform="translate(20, 65)">
                    <path d="M217.372547,21 L217.636395,21 C217.756131,21.0383206 217.87285,21.0819677 217.978055,21.1520648 C218.138074,21.2586923 218.632488,21.7625127 218.718914,21.9311367 C218.725106,21.9433633 218.730994,21.9557324 218.73658,21.9682441 C218.742166,21.9807578 218.74744,21.9933994 218.752401,22.0061689 C218.757381,22.0189404 218.762039,22.0318252 218.766375,22.0448232 C218.770711,22.0578193 218.774735,22.0709141 218.778446,22.0841074 C218.782137,22.0973008 218.785516,22.1105771 218.788582,22.1239365 C218.791629,22.1372939 218.794354,22.1507187 218.796756,22.1642109 C218.799158,22.1777012 218.801229,22.1912422 218.802967,22.204834 C218.804705,22.2184258 218.806112,22.2320527 218.807186,22.2457148 C218.80826,22.259375 218.809002,22.2730537 218.809412,22.286751 C218.809781,22.3004482 218.809891,22.3141465 218.809617,22.3278457 C218.809363,22.3415469 218.808778,22.3552334 218.80786,22.3689053 C218.806922,22.3825771 218.805662,22.3962178 218.80408,22.4098271 C218.802479,22.4234385 218.800555,22.437002 218.798309,22.4505176 C218.796043,22.4640332 218.793455,22.4774863 218.790545,22.490877 C218.787635,22.5042676 218.784403,22.5175791 218.780848,22.5308115 C218.777293,22.5440459 218.773416,22.5571846 218.769217,22.5702275 C218.733651,22.6804922 218.678924,22.7816367 218.600467,22.8671865 C218.454598,23.0262305 218.294315,23.1755801 218.141531,23.328123 L217.296141,24.1734375 L214.65699,26.8123242 L213.469969,27.999873 L213.154119,28.3165137 C213.095145,28.3756055 213.033475,28.4491992 212.964803,28.4958398 C213.438475,28.9883789 213.930252,29.4655078 214.413533,29.9487012 L217.049168,32.5842187 L218.097703,33.6327832 L218.404588,33.9387598 C218.487264,34.0211719 218.573807,34.1016504 218.643738,34.1955176 C218.748885,34.3366699 218.806336,34.5288574 218.802381,34.7046387 C218.79409,35.0727246 218.598738,35.2376953 218.356658,35.478252 C218.249432,35.5848047 218.145281,35.6971289 218.035037,35.8002246 C217.9545,35.8755469 217.865203,35.9181738 217.762225,35.9547656 C217.726483,35.9674512 217.682625,35.9775586 217.652098,36 L217.346238,36 C217.280613,35.9638184 217.202244,35.9457715 217.1341,35.9124316 C217.066932,35.879209 217.00451,35.8386719 216.946834,35.7908203 C216.765926,35.6391797 216.601951,35.4546094 216.434725,35.2873535 L215.475399,34.3281152 L212.904129,31.7570801 L211.154256,30.0069141 L210.593338,29.4469043 C210.489363,29.3432227 210.380731,29.2417383 210.281737,29.1333984 C210.182918,29.0252637 210.088846,28.9100977 210.042176,28.7693555 C209.974676,28.5657715 209.987508,28.3197363 210.085653,28.1272852 C210.172166,27.957627 210.591961,27.5717285 210.751424,27.4124121 L211.634168,26.5301074 L215.184246,22.9798477 L216.413397,21.7507676 L216.799471,21.3647402 C216.865975,21.2982305 216.931805,21.2243487 217.003641,21.1640429 C217.106971,21.0773414 217.2466,21.0403204 217.372547,21 Z" transform="translate(214.4049, 28.5) rotate(270) translate(-214.4049, -28.5)"></path>
                </g>
            </g>
        </g>
    </g>
</svg>
