<?xml version="1.0" encoding="UTF-8"?>
<svg width="100%" height="100%" viewBox="0 0 13 15" version="1.1" xmlns="http://www.w3.org/2000/svg"
  xmlns:xlink="http://www.w3.org/1999/xlink">
  <title>Candlestick</title>
  <g id="Framework" stroke="none" stroke-width="1" fill="none" fill-rule="evenodd">
    <g transform="translate(-388, -2634)" fill="var(--appMediumGray)" fill-rule="nonzero" id="Group-A">
      <g transform="translate(170, 208)">
        <g id="Components" transform="translate(0, 61)">
          <g id="Icons" transform="translate(0, 2257)">
            <g id="Bar-1" transform="translate(176, 99)">
              <g id="Regular" transform="translate(32, 0)">
                <path
                  d="M11.3237036,10.079613 C11.33726,10.0789887 11.3508165,10.078448 11.3643729,10.0779909 C11.5070498,10.0732149 11.802638,10.0586696 11.933375,10.0886264 C11.9825059,10.0998874 12.0307338,10.119901 12.0670887,10.1557408 C12.1093968,10.1974603 12.1324739,10.2531297 12.1405008,10.3113543 C12.165016,10.4891386 12.1461864,10.7406862 12.1460861,10.9280024 L12.1463537,12.2158242 C12.4008377,12.2184329 12.6596696,12.204921 12.9135182,12.2178309 C13.0012448,12.2223125 13.094724,12.2450218 13.1544904,12.3141529 C13.2032869,12.3706083 13.2114475,12.4467628 13.2152268,12.5190378 C13.2221834,12.6524839 13.2171666,12.7883046 13.2171332,12.9220182 L13.2170329,13.6400853 L13.2167987,15.8715784 L13.2172335,17.5413603 L13.2172001,18.0639741 C13.2171666,18.1616339 13.22215,18.2624375 13.2131867,18.3597294 C13.2041565,18.4573223 13.1871998,18.5225404 13.1062626,18.5855844 C13.0704094,18.6135111 13.0355595,18.62515 12.9910106,18.6324076 C12.8581665,18.6540132 12.7115765,18.6415382 12.5766254,18.6421402 C12.4356875,18.6427422 12.2866226,18.6547824 12.1467884,18.6379595 L12.1470894,19.9071691 C12.1471229,20.1107162 12.1620394,20.3274741 12.14127,20.52965 C12.136387,20.5773093 12.1266545,20.6165739 12.1006007,20.6574438 C12.0549481,20.7291168 11.9876565,20.7615251 11.9069199,20.778047 C11.8711113,20.7795632 11.8352916,20.7806334 11.7994607,20.7812577 C11.6289239,20.7840337 11.2726329,20.8228635 11.1489327,20.6976783 C11.1101363,20.6584137 11.0890993,20.6125605 11.0818685,20.5580783 C11.0576576,20.375702 11.0765641,20.1087764 11.0765808,19.9158648 C11.076621,19.4921483 11.0720256,19.068064 11.0777848,18.6444144 C10.9006014,18.6421625 10.7234135,18.6417834 10.5462212,18.6432773 C10.4461868,18.6436118 10.3355202,18.6527423 10.2369038,18.6337454 C10.1810271,18.6229427 10.1244345,18.6015378 10.0819826,18.5624404 C10.0108816,18.4969548 10.0076642,18.4046128 10.0057043,18.3149129 C9.99729953,17.9300932 10.0062361,17.5433002 10.0062093,17.1582463 L10.0057311,14.7886917 L10.0054133,13.280617 C10.0054066,13.0276045 9.99162389,12.7653947 10.0080689,12.513419 C10.0129719,12.4383012 10.0201325,12.3577988 10.0758454,12.3026143 C10.1171101,12.2617443 10.1702778,12.2368946 10.2269472,12.2258577 C10.3313897,12.2054896 10.4490865,12.215891 10.5551778,12.2161586 L11.074427,12.2167606 L11.0755975,10.9474006 C11.075534,10.7405257 11.0589285,10.5171322 11.0827615,10.3121202 C11.0885107,10.2626749 11.1004974,10.2237582 11.1295011,10.1826039 C11.177438,10.1145832 11.2459437,10.0925763 11.3237036,10.079613 Z M20.9559367,9.00936186 C20.9694709,9.00873755 20.9830162,9.00819686 20.9965726,9.00773977 C21.1392495,9.00296046 21.4348711,8.98843524 21.5655747,9.01838871 C21.6147056,9.02965303 21.6629335,9.04967329 21.6992884,9.08550975 C21.7415965,9.1272125 21.7646736,9.18290534 21.7727005,9.24110991 C21.797082,9.41771362 21.7783527,9.66733475 21.7782524,9.85336998 L21.7785534,11.1455664 L22.2734411,11.146165 C22.3676226,11.1458707 22.4648476,11.1411249 22.5586278,11.1480982 C22.646254,11.1546099 22.7351846,11.1813761 22.7928775,11.251758 C22.8408713,11.3103305 22.8468245,11.3867526 22.8483295,11.4593286 C22.861139,12.0774282 22.8491991,12.6983372 22.8491322,13.3167043 L22.8491991,16.9127924 L22.8492326,18.6843145 L22.8491322,19.1968612 C22.8491322,19.2852902 22.8563898,19.3816791 22.8443161,19.4689709 C22.8336137,19.5463629 22.8018742,19.6073668 22.7394656,19.6548255 C22.7025756,19.6828525 22.6688629,19.6951603 22.6233441,19.7026186 C22.4905335,19.7243245 22.3437427,19.7117826 22.2088251,19.7123846 C22.0678872,19.7129866 21.9188223,19.7250603 21.7790216,19.7082039 L21.7792892,20.9774135 C21.7793226,21.1809606 21.7942391,21.3977185 21.7735031,21.5998944 C21.7685867,21.6475537 21.7588542,21.6868183 21.7328004,21.7277217 C21.6871144,21.7994281 21.6197558,21.8317695 21.5389524,21.8483249 C21.5032107,21.8498187 21.4674467,21.8508778 21.4316604,21.8515022 C21.2611236,21.8542781 20.9048326,21.8931413 20.7811525,21.7679228 C20.7423561,21.7286247 20.7212857,21.6828049 20.7140615,21.6283227 C20.6899141,21.4457457 20.7087772,21.1791545 20.7087772,20.9861092 C20.7088106,20.5623928 20.7042286,20.1383084 20.7099812,19.7146588 C20.5339483,19.7124069 20.3579042,19.712039 20.181849,19.7135552 C20.0784367,19.7139565 19.9634523,19.7235887 19.8618125,19.7026186 C19.7991363,19.6896753 19.7432829,19.6628858 19.6975969,19.6177014 C19.6414759,19.562149 19.6383655,19.4341545 19.6378973,19.3583343 L19.638098,14.1929 L19.6376297,12.3664611 L19.6376297,11.7842147 C19.6376632,11.6727755 19.6333822,11.5592961 19.6401716,11.448091 C19.6448205,11.3717023 19.6528473,11.2835075 19.7106405,11.2282963 C19.7512429,11.1894932 19.8038521,11.1665933 19.8585014,11.1559578 C19.9634523,11.1355462 20.0808782,11.1457637 20.1874344,11.1459978 L20.7066367,11.1465095 L20.7078073,9.87715617 C20.7077404,9.67027792 20.6911181,9.44688781 20.7149645,9.24187581 C20.7207171,9.19239707 20.7327239,9.15349034 20.7617208,9.11230265 C20.8096477,9.04429531 20.8782102,9.02230513 20.9559367,9.00936186 Z M16.1398369,14.8957162 C16.2212089,14.8916693 16.3033167,14.8923048 16.3847891,14.8919034 C16.5347571,14.8911342 16.7763313,14.8600971 16.8877705,14.9766199 C16.9287743,15.0194966 16.9491423,15.073243 16.9571357,15.1313037 C16.9808483,15.3034458 16.9622528,15.5608396 16.9621525,15.7439183 L16.9624535,17.031924 C17.2109843,17.0343989 17.505335,17.0161379 17.7476116,17.0351013 C17.8248029,17.0411549 17.9145362,17.0634628 17.9658745,17.1259048 C18.004303,17.1726277 18.0246042,17.2260396 18.0295541,17.2860067 C18.0491864,17.5243368 18.0327314,17.7748743 18.0326979,18.0147763 L18.0327648,19.4689709 L18.0330993,20.87069 C18.0333334,21.1062441 18.0491864,21.3671162 18.029019,21.6002288 C18.0222296,21.6785908 17.9881824,21.7442101 17.926242,21.7930735 C17.9107458,21.8054928 17.8939675,21.8158273 17.8759071,21.8240771 C17.8578467,21.8323046 17.8390506,21.8382021 17.8195186,21.8417696 C17.685136,21.867422 17.5300175,21.8522714 17.3927252,21.8528734 C17.2517874,21.8534754 17.1027224,21.8655157 16.9629217,21.8486928 L16.9631893,23.1179023 C16.9632227,23.3214494 16.9781393,23.5382073 16.9574033,23.7403832 C16.9524869,23.7880425 16.9427543,23.8273071 16.9167006,23.8682105 C16.8710479,23.9399169 16.803656,23.9722583 16.722886,23.9888137 C16.6913807,23.9901069 16.6598642,23.991088 16.6283366,23.9917569 C16.456462,23.995001 16.0891341,24.0340315 15.9650192,23.9084116 C15.9262228,23.869147 15.9051858,23.8232937 15.8979617,23.7688116 C15.8737474,23.5864352 15.8926773,23.3195096 15.8926773,23.126598 C15.8927108,22.7028816 15.8881288,22.2788307 15.8938814,21.8551811 C15.7165887,21.8501978 15.5384933,21.8532413 15.3611672,21.8541778 C15.2630057,21.8546794 15.157687,21.862539 15.0609302,21.8459503 C15.0012641,21.835716 14.945812,21.8130068 14.8991895,21.7739094 C14.839423,21.7238086 14.8285534,21.6444767 14.8239045,21.5704627 C14.8094228,21.3379521 14.8216302,21.0975484 14.8217306,20.8644358 L14.8222322,19.4866633 L14.8215299,18.0693587 C14.8213961,17.8260788 14.8097238,17.5763774 14.8236035,17.333666 C14.8271821,17.2714581 14.8379515,17.1737648 14.8815639,17.127343 C14.9202599,17.086172 14.9730364,17.0588139 15.0275185,17.0454024 C15.1395597,17.0178102 15.274745,17.031924 15.3892946,17.0322585 L15.8905034,17.0328605 L15.8917074,15.7618783 C15.8916405,15.5555553 15.8750517,15.3326769 15.8988647,15.1282268 C15.9046172,15.0787948 15.9165906,15.0398647 15.9455875,14.9986937 C15.9935479,14.9306663 16.0620435,14.9086594 16.1398369,14.8957162 Z"
                  id="Candlestick"></path>
              </g>
            </g>
          </g>
        </g>
      </g>
    </g>
  </g>
</svg>