<?xml version="1.0" encoding="utf-8" ?>
<svg xmlns="http://www.w3.org/2000/svg" xmlns:xlink="http://www.w3.org/1999/xlink" width="100%" height="100%">
  <path fill="var(--appMediumGray)"
    d="M0 0L15 0L15 13.37042L15 13.68457L15 15L0 15L0 13.739355L0 13.382168L0 0ZM0 0L0 13.382168C0.029854687 13.328144 0.032873437 13.254873 0.048496287 13.195137C0.058857225 13.156192 0.07087139 13.117764 0.084538773 13.079853C0.098206155 13.041924 0.11347637 13.004658 0.13034941 12.968057C0.14722246 12.931455 0.16563584 12.895644 0.18558955 12.860625C0.20554346 12.825625 0.22696406 12.791533 0.24985136 12.758349C0.3964746 12.547822 0.60236132 12.3704 0.78352439 12.189258L1.6402236 11.332471L4.1805177 8.7923727L5.0152736 7.9576759C5.1685839 7.8043947 5.3275194 7.6538963 5.4749122 7.4950781C5.3405275 7.3527246 5.1970897 7.2168164 5.0586033 7.07833L4.2313476 6.2510157L1.7377149 3.7572362L0.838292 2.8578165C0.67037112 2.6900477 0.47785839 2.5248692 0.33688769 2.3343897C0.18713994 2.1320508 0.1011873 1.8854648 0.078317285 1.6359785C0.076214358 1.6127988 0.074678905 1.5895821 0.073710941 1.5663282C0.072742775 1.5430722 0.072343163 1.5198076 0.072512113 1.4965342C0.072681248 1.4732608 0.073418655 1.4500049 0.074724317 1.4267666C0.076029979 1.4035283 0.077902444 1.3803359 0.080341697 1.3571894C0.082780957 1.334043 0.085784085 1.3109697 0.089351073 1.2879697C0.092918068 1.2649697 0.097044729 1.2420703 0.10173105 1.2192715C0.10641738 1.1964746 0.11165772 1.1738046 0.11745205 1.1512617C0.12324619 1.1287208 0.12958759 1.106334 0.13647626 1.0841016C0.14336474 1.0618691 0.15079209 1.0398184 0.1587583 1.0179492C0.16672471 0.9960801 0.17522041 0.97441894 0.18424541 0.9529658C0.19327042 0.93151271 0.20281406 0.91029197 0.21287636 0.88930368C0.22293848 0.86831737 0.23350723 0.8475889 0.24458262 0.82711816C0.25565821 0.80664748 0.26722705 0.78645897 0.27928916 0.76655275C0.29135031 0.74664843 0.3038916 0.72704983 0.3169131 0.70775682C0.32993263 0.68846387 0.34341601 0.66950095 0.35736328 0.65086818C0.37131053 0.63223535 0.3857041 0.61395413 0.40054396 0.59602439C0.41553417 0.57803416 0.43096289 0.56042677 0.44683006 0.54320216C0.4626953 0.52597558 0.47897753 0.50915432 0.49567676 0.49273828C0.51237792 0.47632226 0.52947557 0.46033007 0.54696971 0.44476172C0.56446582 0.42919531 0.58233595 0.41407228 0.6005801 0.39939258C0.61882615 0.38471094 0.63742483 0.37049219 0.656376 0.35673633C0.67532712 0.34297851 0.69460839 0.3297002 0.71421975 0.31690136C0.73383105 0.30410254 0.75374705 0.29179776 0.7739678 0.27998701C0.79419041 0.26817647 0.81469333 0.25687489 0.83547658 0.24608232C0.85625976 0.23528975 0.87729788 0.22501944 0.8985908 0.21527138C0.91988379 0.20552354 0.9414053 0.19630986 0.96315527 0.18763037C0.9849053 0.17895088 1.0068574 0.17081641 1.0290117 0.16322695C1.0511661 0.1556375 1.0734951 0.14860244 1.095999 0.14212178C1.1185009 0.13564092 1.1411513 0.12972246 1.1639502 0.1243664C1.1867471 0.11901016 1.209663 0.11422285 1.2326982 0.11000449C1.2557334 0.10578613 1.2788584 0.10214189 1.3020732 0.099071778C1.3252901 0.096001662 1.3485683 0.093509473 1.3719082 0.091595218C1.3914961 0.089926854 1.4111093 0.088667087 1.4307481 0.087815918C1.4503887 0.086964943 1.4700381 0.086523242 1.4896963 0.086490817C1.5093545 0.0864584 1.5290049 0.086835355 1.5486474 0.087621681C1.56829 0.088408008 1.5879081 0.089603029 1.607502 0.091206737C1.6270957 0.092810452 1.6466465 0.094821483 1.6661543 0.097239845C1.6856641 0.099658005 1.7051142 0.10248154 1.7245048 0.10571045C1.7438974 0.10893916 1.7632139 0.11257021 1.7824541 0.11660361C1.8016944 0.12063721 1.8208418 0.12506972 1.8398964 0.12990117C1.8589512 0.13473243 1.8778975 0.1399585 1.8967353 0.1455794C1.9155732 0.1512001 1.9342861 0.15721074 1.9528741 0.16361132C1.9714619 0.17001171 1.9899082 0.17679639 2.0082128 0.18396533C2.0265176 0.19113447 2.0446651 0.19868164 2.0626552 0.20660684C2.0806456 0.21453184 2.0984628 0.22282812 2.1161075 0.23149571C2.13375 0.24016328 2.151206 0.24919443 2.1684756 0.25858915C2.1857431 0.26798409 2.2028077 0.27773446 2.2196689 0.28784034C2.2365322 0.29794678 2.2531767 0.30839941 2.2696025 0.31919825C2.4620333 0.44552344 2.6230841 0.63264841 2.7857666 0.79449314L3.4987206 1.503873L6.1946192 4.1826563L7.0398045 5.0240626C7.1864944 5.1701951 7.3314843 5.3328514 7.4902148 5.4654784L7.4981837 5.4720702C7.646719 5.3441601 7.7833886 5.1898537 7.922461 5.0507522L8.7583885 4.2145605L11.37457 1.5979218L12.149707 0.82262111C12.285381 0.68698829 12.420205 0.53209275 12.571377 0.4140586C12.612998 0.38189259 12.65626 0.35211915 12.701162 0.32473829C12.746084 0.29735997 12.792373 0.27254218 12.84003 0.25028497C12.887686 0.22802773 12.936426 0.20846729 12.98625 0.19160362C13.036055 0.17474014 13.086651 0.16067646 13.138037 0.1494126C13.16087 0.14439151 13.183819 0.13993515 13.206884 0.13604355C13.229932 0.13215175 13.253066 0.12882949 13.276289 0.12607676C13.299512 0.12332402 13.322783 0.12114414 13.346104 0.11953711C13.369443 0.11792988 13.392803 0.11689746 13.416182 0.11643984C13.439541 0.11598223 13.46291 0.1160999 13.486289 0.11679287C13.509668 0.11748584 13.533008 0.11875322 13.556309 0.12059502C13.579629 0.12243681 13.60288 0.12485088 13.626064 0.12783721C13.649248 0.13082354 13.672354 0.13437842 13.695381 0.13850185C13.718389 0.14262548 13.741289 0.1473127 13.764082 0.15256348C13.786856 0.15781406 13.809492 0.16362207 13.831992 0.1699875C13.854492 0.17635274 13.876826 0.18326747 13.898994 0.19073173C13.921143 0.19819619 13.943106 0.20620108 13.964883 0.21474639C13.986641 0.22329189 14.008183 0.23236749 14.029511 0.24197315C14.05082 0.25157902 14.071885 0.26170331 14.092705 0.27234608C14.113525 0.28298888 14.134072 0.29413751 14.154346 0.305792C14.174619 0.31744629 14.19459 0.32959181 14.214258 0.3422285C14.233906 0.35479102 14.253222 0.36783203 14.272207 0.38135156C14.291211 0.39487109 14.309863 0.40885255 14.328164 0.42329589C14.346465 0.43773925 14.364394 0.45262694 14.381953 0.46795899C14.399511 0.48329297 14.41669 0.49905175 14.433486 0.51523536C14.450264 0.53141892 14.466631 0.54800779 14.482588 0.56500196C14.498545 0.58199805 14.514072 0.59937793 14.52917 0.6171416C14.544268 0.63490725 14.558916 0.65303516 14.573115 0.67152542C14.587334 0.69001758 14.601074 0.70884866 14.614336 0.72801858C14.627598 0.74719042 14.640381 0.7666797 14.652685 0.78648633C14.66499 0.80629104 14.676797 0.82638866 14.688106 0.84677929C14.699394 0.86716992 14.710186 0.88782716 14.720478 0.90875095C14.730752 0.92967677 14.740508 0.95084375 14.749746 0.97225195C14.758985 0.99366212 14.767686 1.0152872 14.775849 1.0371269C14.783994 1.0589668 14.791601 1.0809951 14.798672 1.1032119C14.805742 1.1254287 14.812256 1.1478076 14.818213 1.1703486C14.82417 1.1928877 14.829571 1.2155615 14.834414 1.2383701C14.838964 1.2596631 14.843027 1.2810498 14.846601 1.3025303C14.850176 1.3240088 14.853252 1.3455586 14.85583 1.3671796C14.858428 1.3888007 14.860518 1.4104698 14.8621 1.4321865C14.863682 1.4539014 14.864776 1.4756426 14.865381 1.4974102C14.865967 1.5191758 14.866055 1.5409443 14.865644 1.5627158C14.865234 1.5844873 14.864326 1.6062373 14.86292 1.6279658C14.861514 1.6496943 14.85961 1.6713799 14.857207 1.6930225C14.854805 1.7146651 14.851914 1.7362403 14.848536 1.757748C14.845137 1.7792578 14.84125 1.8006778 14.836875 1.8220078C14.8325 1.8433398 14.827646 1.8645595 14.822314 1.885667C14.816963 1.9067744 14.811132 1.9277481 14.804824 1.9485879C14.798515 1.9694297 14.791729 1.9901153 14.784463 2.0106444C14.777217 2.0311718 14.769492 2.0515234 14.761289 2.0716991C14.753105 2.0918729 14.744453 2.1118486 14.735332 2.1316259C14.726231 2.1514053 14.71668 2.1709638 14.706679 2.1903017C14.69666 2.2096417 14.686211 2.2287412 14.675332 2.2476006C14.541474 2.4778857 14.286006 2.695796 14.095811 2.8856807L13.34499 3.6362989L10.438477 6.5428123L9.8210745 7.1597166C9.7295218 7.2512693 9.5820704 7.3766017 9.5151854 7.4800196C9.5223341 7.4942284 9.5189066 7.4910059 9.5288382 7.5000291C9.6472559 7.6077833 9.7586718 7.7271385 9.8726072 7.8400488L10.579189 8.5416794L12.767783 10.718525L14.029863 11.97293L14.411455 12.351885C14.520644 12.460488 14.632266 12.566895 14.725547 12.689971C14.750977 12.723994 14.774707 12.75917 14.796739 12.795498C14.818769 12.831826 14.838994 12.869131 14.857412 12.907413C14.87585 12.945674 14.892392 12.984746 14.907041 13.024629C14.921689 13.064511 14.934384 13.105 14.945127 13.146093C14.963994 13.218076 14.975245 13.292461 14.997715 13.363418L15 13.37042L15 0L0 0ZM7.4828906 9.5043459C7.3164258 9.6535835 7.1614451 9.8195219 7.0033593 9.9776363L6.1530471 10.828095L3.5646386 13.416328L2.8288155 14.152119C2.6461318 14.334844 2.4675498 14.548271 2.248702 14.687051C1.9398662 14.882871 1.6099278 14.92626 1.2517442 14.905635C0.93060935 14.887149 0.56815135 14.744912 0.35221875 14.499756C0.33440039 14.479755 0.31718749 14.459248 0.30058008 14.438232C0.28397343 14.417217 0.26800215 14.395733 0.25266621 14.373779C0.23733008 14.351807 0.22265615 14.329404 0.20864443 14.306572C0.19463252 14.28376 0.18130723 14.260547 0.16866855 14.236934C0.15602969 14.213301 0.14409952 14.189326 0.13287802 14.165009C0.12165674 14.140694 0.11116357 14.116064 0.10139854 14.091123C0.091633499 14.066181 0.082613766 14.040967 0.074339353 14.015478C0.066064939 13.990009 0.058550294 13.964316 0.051795412 13.938398C0.037257127 13.882471 0.030534668 13.78585 0 13.739355L0 15L15 15L15 13.68457L14.997978 13.690635C14.96792 13.783067 14.957373 13.88124 14.926553 13.973789C14.812998 14.314775 14.583076 14.592304 14.263301 14.757481C13.905469 14.942286 13.420781 14.961739 13.039248 14.836933C12.996045 14.822871 12.953604 14.806777 12.911923 14.788652C12.870244 14.770527 12.829521 14.750459 12.789756 14.728447C12.74999 14.706455 12.711368 14.682608 12.673886 14.656904C12.636387 14.631221 12.600205 14.603808 12.565342 14.574668C12.37251 14.414062 12.193682 14.213642 12.015879 14.03587L11.013691 13.033623L8.7174902 10.736924C8.3064547 10.32583 7.8987598 9.9105473 7.4828906 9.5043459Z" />
</svg>