<?xml version="1.0" encoding="UTF-8"?>
<svg width="100%" height="100%" viewBox="0 0 15 15" version="1.1" xmlns="http://www.w3.org/2000/svg"
  xmlns:xlink="http://www.w3.org/1999/xlink">
  <title>Download All</title>
  <g id="Framework" stroke="none" stroke-width="1" fill="none" fill-rule="evenodd">
    <g transform="translate(-1157, -20)" fill="var(--appMediumGray)" fill-rule="nonzero" id="Overlays">
      <g id="Side-Panel" transform="translate(917, 0)">
        <g id="Regular" transform="translate(240, 20)">
          <path
            d="M0,0 L2.74109473,0 L7.6246582,0 L15,0 L15,15 L12.2523926,15 L2.74948828,15 L0,15 L0,0 Z M7.6246582,0 C7.56424805,0.121685156 7.52182617,0.234175781 7.50796875,0.370157227 C7.48743164,0.571725586 7.5000293,0.783788086 7.50029297,0.986745117 L7.50052734,2.05980469 L7.50061523,3.48055664 C7.50061523,3.72729492 7.48892578,3.97939453 7.50363281,4.22540039 C7.50755859,4.29084961 7.51575195,4.35575195 7.52821289,4.42010742 C7.54069336,4.48446289 7.55733398,4.54772461 7.57813477,4.60989258 C7.58594727,4.63307617 7.59432617,4.65604492 7.60327148,4.67879883 C7.6122168,4.70157227 7.62170898,4.72411133 7.63174805,4.74641602 C7.64180664,4.7687207 7.65240234,4.79076172 7.66353516,4.81253906 C7.67466797,4.83431641 7.68632812,4.85581055 7.69851562,4.87702148 C7.71072266,4.89821289 7.7234375,4.91910156 7.73666016,4.9396875 C7.74988281,4.96027344 7.76359375,4.98051758 7.77779297,5.00041992 C7.79201172,5.02032227 7.80670898,5.03986328 7.82188477,5.05904297 C7.83708008,5.07822266 7.85272461,5.09702148 7.86881836,5.11543945 C7.88493164,5.13383789 7.90148437,5.15183594 7.91847656,5.16943359 C7.93544922,5.18703125 7.95285156,5.20419922 7.97068359,5.2209375 C7.98853516,5.23769531 8.00677734,5.25399414 8.02541016,5.26983398 C8.04404297,5.28567383 8.06305664,5.30104492 8.08245117,5.31594727 C8.1018457,5.33086914 8.1215918,5.34529297 8.14168945,5.35921875 C8.16178711,5.37316406 8.1822168,5.38660156 8.20297852,5.39953125 C8.22374023,5.41246094 8.24481445,5.42487305 8.26620117,5.43676758 C8.28756836,5.44866211 8.30921875,5.46001953 8.33115234,5.47083984 C8.37150391,5.49087891 8.41270508,5.50896484 8.45475586,5.52509766 C8.49680664,5.54125 8.53953125,5.55537109 8.58292969,5.56746094 C8.62630859,5.57955078 8.67016602,5.58957031 8.71450195,5.59751953 C8.75885742,5.60544922 8.80347656,5.6112793 8.84835937,5.61500977 C9.06817383,5.63504883 9.29364258,5.62514648 9.51430664,5.62494141 L10.5855176,5.62461914 L11.9564648,5.62450195 C12.1937695,5.62450195 12.4358203,5.63496094 12.6725391,5.6221582 C12.7705371,5.61685547 12.8663965,5.6044043 12.9596191,5.57285156 C13.0169629,5.55400391 13.0719434,5.52979492 13.1245605,5.50022461 L13.1254395,11.5283203 L13.125498,13.2314648 L13.1256445,13.7342578 C13.1255859,13.8655664 13.1300391,13.9981641 13.111582,14.1285059 C13.1079492,14.1550488 13.1032422,14.1814062 13.0974609,14.2075781 C13.0916992,14.2337305 13.0848828,14.2596191 13.0770117,14.2852441 C13.0691406,14.3108496 13.0602441,14.3360937 13.0503223,14.3609766 C13.0404004,14.3858594 13.0294922,14.4103027 13.0175977,14.4343066 C13.0056836,14.4583105 12.9928223,14.4817969 12.9790137,14.5047656 C12.9652051,14.5277148 12.9504883,14.5500781 12.9348633,14.5718555 C12.9192383,14.5936133 12.9027637,14.614707 12.8854395,14.6351367 C12.8680957,14.6555664 12.8499609,14.6752637 12.8310352,14.6942285 C12.7246289,14.8024805 12.5816895,14.9017383 12.435,14.9449512 C12.3776074,14.9618848 12.305127,14.9729883 12.2523926,15 L15,15 L15,0 L7.6246582,0 Z M0,0 L0,15 L2.74948828,15 C2.67160547,14.9637305 2.57992969,14.9552344 2.49981738,14.9213965 C2.48445215,14.9148535 2.46925488,14.9079395 2.45422559,14.9006543 C2.43919434,14.8933691 2.42434863,14.8857227 2.40968848,14.8777148 C2.39502832,14.869707 2.38056934,14.8613574 2.36631152,14.852666 C2.35205566,14.8439551 2.33801855,14.8349121 2.3242002,14.8255371 C2.31038184,14.8161426 2.29679883,14.8064258 2.28345117,14.7963867 C2.27010352,14.7863477 2.25700586,14.7759961 2.2441582,14.765332 C2.23131055,14.7546484 2.21872949,14.7436621 2.20641504,14.732373 C2.19409863,14.7211035 2.1820625,14.7095313 2.17030664,14.6976562 C2.15855273,14.6858008 2.1470918,14.6736621 2.13592383,14.6612402 C2.12475586,14.6488184 2.11389551,14.6361328 2.10334277,14.6231836 C2.09278809,14.6102344 2.08255371,14.597041 2.07263965,14.5836035 C2.06272363,14.570166 2.05313965,14.5564941 2.0438877,14.5425879 C2.03463379,14.5286816 2.02572168,14.5145605 2.01715137,14.5002246 C2.00858301,14.4858887 2.00036523,14.4713477 1.99249805,14.4566016 C1.98463281,14.441875 1.97712793,14.4269629 1.9699834,14.4118652 C1.96284082,14.3967676 1.95606641,14.3815039 1.94966016,14.3660742 C1.93879883,14.3396484 1.92912793,14.3128027 1.92064746,14.2855371 C1.91216895,14.2582715 1.90491504,14.2306738 1.89888574,14.2027441 C1.89285645,14.174834 1.88807617,14.146709 1.88454492,14.1183691 C1.88101367,14.0900098 1.87874414,14.0615625 1.87773633,14.0330273 C1.86688184,13.7770898 1.87525195,13.5177832 1.8752373,13.2614063 L1.8751875,11.8166602 L1.87519629,7.41946289 L1.8753252,3.12785156 L1.87514941,1.74924609 C1.87493555,1.49824805 1.86590332,1.24426465 1.87699219,0.99365332 C1.88288379,0.860490234 1.90657324,0.734291016 1.95978223,0.611619141 C2.06212793,0.375679688 2.25903809,0.173513672 2.49868359,0.0763643555 C2.57534766,0.0452850586 2.65894043,0.0333518555 2.73546973,0.00234870996 C2.73735352,0.00158608594 2.73921973,0.00078290332 2.74109473,0 L0,0 Z M7.47251112,6.80817246 C7.2999986,6.82942283 7.15444369,6.90596464 7.04649182,7.04362655 C6.97124527,7.13967822 6.9354637,7.2355275 6.92028486,7.35635103 C6.90069405,7.51279422 6.90943705,7.67660421 6.90959896,7.83418076 L6.90980135,8.57401742 C6.90992278,9.5100051 6.92352301,10.4481785 6.90696796,11.3838829 C6.75509866,11.2201134 6.59226012,11.0649654 6.43395499,10.9073484 C6.27649987,10.7505814 6.11625185,10.5546328 5.92552473,10.4397998 C5.84343759,10.3903775 5.74240726,10.3704224 5.64744847,10.3665366 C5.46501911,10.3590484 5.30209961,10.4101303 5.16767585,10.536742 C5.0411046,10.6559464 4.97286056,10.8191088 4.9689343,10.9923094 C4.96395564,11.2136371 5.06025017,11.3606896 5.20863847,11.5145828 C5.58786648,11.9079372 5.97976376,12.2904843 6.36498236,12.6780506 C6.57955037,12.8938734 7.01803656,13.368465 7.25017154,13.5150318 C7.33302775,13.5673684 7.43709384,13.5882545 7.53427886,13.5901974 C7.56965566,13.590926 7.60539676,13.5901164 7.64057118,13.5859878 C7.74989927,13.5641708 7.84558665,13.5362417 7.93597155,13.4665405 C8.06484998,13.3671292 8.17948054,13.2380889 8.2944754,13.1231345 L8.86872109,12.5491317 L9.59860043,11.8194952 C9.75326264,11.6647116 9.93075382,11.5110613 10.0552607,11.3308986 C10.1412741,11.2063917 10.1588006,11.019348 10.130143,10.873955 C10.1260953,10.8530959 10.1210087,10.8324797 10.1148832,10.8121063 C10.1087577,10.7917599 10.1016203,10.7717643 10.0934709,10.7521195 C10.0853486,10.7325017 10.0762413,10.7133427 10.066149,10.6946423 C10.0560568,10.675915 10.0450471,10.6577544 10.0331199,10.6401604 C10.0211927,10.6225665 10.008402,10.6056202 9.99474779,10.5893215 C9.98112056,10.5730228 9.9666973,10.5574527 9.95147799,10.5426111 C9.93625867,10.5277696 9.92032427,10.5137376 9.90367478,10.5005152 C9.88705226,10.4872657 9.86979562,10.4749068 9.85190483,10.4634383 C9.70436655,10.3669819 9.51015842,10.3459744 9.33918402,10.3821203 C9.26539464,10.3977039 9.20059114,10.4255924 9.13906626,10.4696313 C9.00286151,10.5672211 8.30309698,11.2582426 8.21008107,11.3964307 C8.19749276,11.0381697 8.20485955,10.6776016 8.20494051,10.3190573 L8.20522385,8.47841099 L8.20518337,7.823252 C8.20514289,7.64721799 8.21530259,7.46446481 8.18190916,7.29085942 C8.15867542,7.17007637 8.08707179,7.05540533 7.99753691,6.97178006 C7.86983231,6.85253514 7.70626518,6.79501747 7.53205263,6.80274856 C7.51197609,6.80363905 7.4923448,6.80465097 7.47251112,6.80817246 Z"
            id="Shape"></path>
          <path
            d="M8.44851562,0.479777344 C8.56388672,0.600823242 8.68608398,0.71652832 8.80435547,0.834870117 L9.56862305,1.59920215 L11.842998,3.87336914 C12.0709668,4.09958008 12.2975195,4.32720703 12.5226562,4.55625 C12.5473242,4.58124023 12.6250488,4.64393555 12.6387598,4.67074219 C12.6412793,4.67563477 12.6393164,4.68169922 12.6395801,4.68717773 L10.1650195,4.68975586 L9.50519531,4.6902832 C9.31831055,4.69063477 8.9700293,4.71597656 8.80230469,4.65588867 C8.7934375,4.65270508 8.78466797,4.64929688 8.77599609,4.64566406 C8.76730469,4.64203125 8.75871094,4.63818359 8.75021484,4.63412109 C8.74171875,4.63007813 8.73333984,4.62581055 8.72507812,4.62131836 C8.71679687,4.61682617 8.70863281,4.61213867 8.70058594,4.60725586 C8.69253906,4.60235352 8.68462891,4.59725586 8.67685547,4.59196289 C8.6690625,4.58666992 8.66141602,4.58118164 8.65391602,4.57549805 C8.64641602,4.56983398 8.63905273,4.56397461 8.63182617,4.55791992 C8.62461914,4.55186523 8.61756836,4.54563477 8.61067383,4.53922852 C8.6037793,4.53282227 8.59705078,4.52625 8.59048828,4.51951172 C8.58390625,4.51275391 8.57750977,4.50584961 8.57129883,4.49879883 C8.56508789,4.49172852 8.55905273,4.48450195 8.55319336,4.47711914 C8.54733398,4.46975586 8.54166992,4.46224609 8.53620117,4.45458984 C8.53073242,4.44693359 8.52544922,4.43914063 8.52035156,4.43121094 C8.51527344,4.42328125 8.51040039,4.41523438 8.50573242,4.40707031 C8.50104492,4.39890625 8.49657227,4.390625 8.49231445,4.38222656 C8.48805664,4.37382813 8.48401367,4.36533203 8.48018555,4.35673828 C8.4487793,4.28586914 8.44075195,4.19847656 8.43834961,4.12183594 C8.4327832,3.94415039 8.4374707,3.76482422 8.4375293,3.58702148 L8.43799805,2.57704395 C8.43796875,2.33831836 8.42223633,0.551481445 8.44851562,0.479777344 Z"
            id="Path"></path>
        </g>
      </g>
    </g>
  </g>
</svg>
