<?xml version="1.0" encoding="UTF-8"?>
<svg width="100%" height="100%" viewBox="0 0 7 7" version="1.1" xmlns="http://www.w3.org/2000/svg"
  xmlns:xlink="http://www.w3.org/1999/xlink">
  <title>External Link</title>
  <g id="Framework" stroke="none" stroke-width="1" fill="none" fill-rule="evenodd">
    <g transform="translate(-333, -862)" fill="var(--appSpaceBlack)" fill-rule="nonzero" id="Group-A">
      <g transform="translate(170, 208)">
        <g id="Components" transform="translate(0, 61)">
          <g id="6" transform="translate(10.0117, 586)">
            <g id="Regular" transform="translate(71.9883, 3)">
              <path
                d="M81,5.82596094 C81.000821,5.82419727 81.0016795,5.82243359 81.002463,5.82064258 C81.0181375,5.78484961 81.0193666,5.73203516 81.0267855,5.69301562 C81.0344828,5.65251953 81.0467767,5.61187305 81.0598382,5.57278516 C81.0630859,5.56311458 81.0664598,5.55348503 81.0699599,5.54389648 C81.07346,5.53430794 81.0770853,5.52476953 81.0808356,5.51528125 C81.0845859,5.50579297 81.08846,5.49635026 81.0924578,5.48695312 C81.0964557,5.4775651 81.1005759,5.46823177 81.1048186,5.45895312 C81.1090612,5.44967448 81.1134248,5.44045052 81.1179094,5.43128125 C81.122394,5.42211198 81.1269979,5.41300651 81.1317213,5.40396484 C81.1364447,5.39491406 81.1412856,5.38593164 81.1462439,5.37701758 C81.1512032,5.36809714 81.1562782,5.35924368 81.1614689,5.35045723 C81.1666606,5.34167168 81.1719662,5.3329554 81.1773857,5.3243084 C81.1828053,5.31566139 81.1883374,5.3070873 81.193982,5.29858613 C81.1996267,5.29008405 81.2053816,5.28165762 81.2112469,5.27330684 C81.2171121,5.26495605 81.2230863,5.25668366 81.2291693,5.24848965 C81.2352515,5.24029564 81.2414398,5.23218229 81.2477344,5.22414961 C81.2540298,5.21611784 81.2604296,5.20816992 81.2669338,5.20030586 C81.273437,5.1924418 81.2800424,5.18466432 81.2867498,5.17697344 C81.2934572,5.16928255 81.3002645,5.16168099 81.3071715,5.15416875 C81.3140785,5.14665651 81.3210826,5.13923587 81.3281838,5.13190684 C81.3352859,5.12457871 81.3424823,5.11734447 81.349773,5.1102041 C81.3570647,5.10306465 81.3644484,5.09602181 81.3719242,5.08907559 C81.3794,5.08212936 81.3869656,5.07528203 81.3946209,5.06853359 C81.4022762,5.06178607 81.4100191,5.05513971 81.4178494,5.04859453 C81.4256788,5.04204935 81.433593,5.03560853 81.441592,5.02927207 C81.44959,5.0229347 81.4576701,5.01670306 81.4658322,5.01057715 C81.4739943,5.00445215 81.4822353,4.9984347 81.4905551,4.9925248 C81.4988749,4.98661582 81.5072708,4.98081667 81.5157428,4.97512734 C81.5242148,4.96943802 81.5327602,4.96386126 81.5413789,4.95839707 C81.5499967,4.95293197 81.5586852,4.94758079 81.5674443,4.94234355 C81.5762025,4.93710632 81.5850282,4.93198483 81.5939213,4.9269791 C81.6028135,4.92197337 81.6117704,4.91708477 81.620792,4.91231328 C81.6298127,4.90754271 81.6388945,4.90289108 81.6480373,4.8983584 C81.6571811,4.89382572 81.6663822,4.8894138 81.6756408,4.88512266 C81.6848994,4.8808306 81.6942127,4.87666113 81.7035807,4.87261426 C81.7302518,4.86114447 81.7573139,4.85068503 81.784767,4.84123594 C81.8122192,4.83178685 81.8399854,4.82337409 81.8680656,4.81599766 C81.8961458,4.80862214 81.9244621,4.80230345 81.9530145,4.7970416 C81.9815668,4.79177975 82.0102755,4.78758932 82.0391404,4.78447031 C82.1502996,4.77297637 82.2634959,4.77672383 82.3750762,4.77675117 L82.854002,4.77687559 L83.4233398,4.77681133 C83.5255371,4.77678262 83.6307012,4.77195234 83.732584,4.77850117 C83.7791367,4.78149531 83.8248828,4.78928691 83.8683594,4.80671719 C83.8742565,4.80909701 83.8800944,4.81162129 83.885873,4.81429004 C83.8916517,4.81695788 83.897362,4.81976654 83.9030039,4.82271602 C83.9086367,4.82566458 83.9141966,4.82875078 83.9196836,4.83197461 C83.9251706,4.83519753 83.9305755,4.83855397 83.9358984,4.84204395 C83.9412214,4.84553392 83.9464531,4.84915286 83.9515938,4.85290078 C83.9567344,4.85664779 83.9617793,4.86051966 83.9667285,4.86451641 C83.9716777,4.86851224 83.9765267,4.87262793 83.9812754,4.87686348 C83.9860241,4.88109902 83.990668,4.88544896 83.995207,4.88991328 C83.999737,4.8943776 84.0041576,4.89895085 84.0084687,4.90363301 C84.0127799,4.90831426 84.0169727,4.91309941 84.0210469,4.91798848 C84.0251211,4.92287663 84.0290723,4.92786276 84.0329004,4.93294687 C84.0367194,4.93803008 84.0404154,4.94320443 84.0439883,4.94846992 C84.0475612,4.95373542 84.051002,4.95908568 84.0543105,4.9645207 C84.0576191,4.96995664 84.0607956,4.97547005 84.0638398,4.98106094 C84.066875,4.98665273 84.0697689,4.99231608 84.0725215,4.99805098 C84.0752832,5.00378496 84.0778991,5.00958366 84.0803691,5.01544707 C84.0828392,5.02139434 84.0851589,5.02739857 84.0873281,5.03345977 C84.0894974,5.03952096 84.0915208,5.04563184 84.0933984,5.05179238 C84.0952669,5.05795293 84.096985,5.06415586 84.0985527,5.07040117 C84.1001204,5.07664648 84.1015332,5.08292643 84.102791,5.08924102 C84.1040488,5.0955556 84.1051471,5.10189753 84.1060859,5.1082668 C84.1070339,5.11463516 84.1078223,5.12102311 84.1084512,5.12743066 C84.1090892,5.13383822 84.1095632,5.14025762 84.109873,5.14668887 C84.1101921,5.15312012 84.1103516,5.15955501 84.1103516,5.16599355 C84.1103424,5.1724321 84.1101829,5.17886699 84.109873,5.18529824 C84.109554,5.19172858 84.1090755,5.19814753 84.1084375,5.20455508 C84.1078086,5.21096263 84.1070156,5.21735059 84.1060586,5.22371895 C84.1051107,5.2300873 84.1040078,5.23642878 84.10275,5.24274336 C84.1014922,5.24905703 84.1000794,5.25533607 84.0985117,5.26158047 C84.096944,5.26782487 84.0952214,5.27402734 84.0933438,5.28018789 C84.0914661,5.28634753 84.0894427,5.29245749 84.0872734,5.29851777 C84.0850951,5.30457806 84.0827708,5.31058092 84.0803008,5.31652637 C84.077776,5.3224946 84.07511,5.32839766 84.0723027,5.33423555 C84.0694954,5.34007253 84.0665423,5.34583704 84.0634434,5.3515291 C84.0603444,5.35722025 84.0571133,5.36283164 84.05375,5.36836328 C84.0503776,5.37389583 84.0468685,5.3793418 84.0432227,5.38470117 C84.0395859,5.39006055 84.0358171,5.39532878 84.031916,5.40050586 C84.028015,5.40568294 84.0239909,5.41075977 84.0198438,5.41573633 C84.0156966,5.42070378 84.0114264,5.42557096 84.0070332,5.43033789 C84.0026491,5.43510482 83.9981465,5.43976237 83.9935254,5.44431055 C83.9889043,5.44884961 83.9841784,5.45327474 83.9793477,5.45758594 C83.9745078,5.46189714 83.9695677,5.46608984 83.9645273,5.47016406 C83.959487,5.47422917 83.9543464,5.47816667 83.9491055,5.48197656 C83.9438737,5.48579557 83.9385462,5.48948242 83.933123,5.49303711 C83.927709,5.49658268 83.9222083,5.49999609 83.9166211,5.50327734 C83.9110339,5.50655859 83.9053691,5.50970312 83.899627,5.51271094 C83.8938848,5.51570964 83.8880742,5.51856706 83.8821953,5.5212832 C83.8763073,5.52399935 83.87036,5.52656966 83.8643535,5.52899414 C83.8478105,5.53571159 83.8308665,5.54117578 83.8135215,5.54538672 C83.7961764,5.54959766 83.7786126,5.55250521 83.7608301,5.55410937 C83.7007148,5.55930469 83.6394512,5.55736328 83.5791719,5.55737695 L83.3027676,5.55733594 L82.4329766,5.55729492 C82.3248566,5.55729492 82.1423262,5.54477148 82.0442893,5.57643555 C82.0378781,5.57849544 82.0315257,5.58072396 82.025232,5.58312109 C82.0189393,5.58550911 82.0127141,5.58806576 82.0065563,5.59079102 C82.0003984,5.59351628 81.9943167,5.59640104 81.9883111,5.59944531 C81.9823064,5.6024987 81.9763861,5.60570247 81.97055,5.60905664 C81.9647139,5.61241992 81.9589713,5.61593359 81.9533221,5.61959766 C81.9476719,5.62326172 81.9421225,5.62707161 81.9366738,5.63102734 C81.9312251,5.63498307 81.9258854,5.63908008 81.9206545,5.64331836 C81.9154227,5.64755664 81.9103067,5.65193164 81.9053064,5.65644336 C81.9003062,5.66095508 81.8954285,5.6655944 81.8906734,5.67036133 C81.8859193,5.67512826 81.8812941,5.68001823 81.8767979,5.68503125 C81.8723016,5.69004427 81.8679412,5.69517122 81.8637166,5.70041211 C81.859492,5.70565299 81.8554087,5.71100326 81.8514666,5.71646289 C81.8475255,5.72192253 81.8437311,5.72748242 81.8400834,5.73314258 C81.8364357,5.73880273 81.8329408,5.74455859 81.8295984,5.75041016 C81.8262552,5.7562526 81.8230688,5.76218164 81.8200391,5.76819727 C81.8170094,5.77421289 81.814141,5.78030143 81.811434,5.78646289 C81.7916973,5.83134766 81.7819793,5.87701172 81.7794814,5.92586133 C81.7755057,6.00362695 81.7783836,6.08258203 81.7784314,6.16051172 L81.7784902,6.57617773 L81.7785326,7.87061719 L81.7785559,9.18880469 L81.7783768,9.61266016 C81.7783002,9.69192969 81.7754209,9.77244336 81.7793146,9.85160352 C81.7814338,9.89471094 81.7890818,9.93516602 81.8048783,9.97540234 C81.8072499,9.9813724 81.8097669,9.9872832 81.8124293,9.99313477 C81.8150917,9.99898633 81.8178962,10.004765 81.820843,10.0104707 C81.8237897,10.0161855 81.826875,10.0218229 81.8300988,10.0273828 C81.8333227,10.0329427 81.8366809,10.0384206 81.8401736,10.0438164 C81.8436673,10.0492031 81.8472912,10.0545078 81.8510455,10.0597305 C81.8547998,10.064944 81.8586803,10.0700618 81.8626871,10.075084 C81.866693,10.0801061 81.8708201,10.085028 81.8750684,10.0898496 C81.8793176,10.0946712 81.8836821,10.099388 81.8881619,10.104 C81.8926426,10.1086029 81.8972337,10.1130964 81.901935,10.1174805 C81.9066372,10.1218646 81.9114438,10.1261257 81.9163547,10.1302637 C81.9212656,10.1344108 81.9262759,10.1384349 81.9313855,10.1423359 C81.9364943,10.1462279 81.941696,10.1499967 81.9469906,10.1536426 C81.9522853,10.1572884 81.9576665,10.1607975 81.9631344,10.1641699 C81.9686013,10.1675514 81.9741484,10.1707917 81.9797758,10.1738906 C81.9854022,10.1769987 81.9911016,10.1799655 81.9968738,10.182791 C82.002647,10.1856165 82.0084858,10.1882962 82.0143902,10.1908301 C82.0606463,10.2104492 82.1091008,10.2189121 82.1591016,10.2213457 C82.235593,10.2250645 82.3133148,10.2223848 82.3899102,10.2223027 L82.8002988,10.2221113 L84.0780586,10.222125 L85.3940449,10.2221523 L85.8196777,10.2222344 C85.9023242,10.222248 85.9858047,10.224627 86.0683691,10.2207578 C86.1145664,10.2185977 86.1586719,10.2102715 86.2016152,10.1927031 C86.2075033,10.1902604 86.2133275,10.1876764 86.2190879,10.1849512 C86.2248483,10.1822259 86.2305404,10.1793639 86.2361641,10.1763652 C86.2417878,10.1733665 86.2473385,10.1702311 86.2528164,10.166959 C86.2582852,10.1636868 86.2636719,10.1602871 86.2689766,10.1567598 C86.2742813,10.1532324 86.2794993,10.1495729 86.2846309,10.1457812 C86.2897624,10.1419987 86.2947982,10.1380931 86.2997383,10.1340645 C86.3046693,10.1300358 86.3095046,10.1258887 86.3142441,10.121623 C86.3189837,10.1173665 86.3236185,10.1129915 86.3281484,10.108498 C86.3326693,10.1040137 86.3370807,10.0994199 86.3413828,10.0947168 C86.3456849,10.0900137 86.349873,10.0852103 86.3539473,10.0803066 C86.3580124,10.0753939 86.361959,10.07039 86.3657871,10.0652949 C86.3696152,10.0601999 86.3733158,10.0550137 86.3768887,10.0497363 C86.3804616,10.044459 86.3839069,10.0390996 86.3872246,10.0336582 C86.3905423,10.0282168 86.3937233,10.0226934 86.3967676,10.0170879 C86.3998118,10.0114915 86.402724,10.0058223 86.4055039,10.0000801 C86.4082747,9.99434701 86.4109043,9.98854557 86.4133926,9.98267578 C86.4297168,9.94360156 86.4386035,9.90251758 86.4422129,9.8604082 C86.4469844,9.80477734 86.4446191,9.74771094 86.4445371,9.69190234 L86.444209,9.42240234 L86.4442773,8.54820898 C86.444291,8.43816406 86.4316992,8.2580918 86.4630625,8.15861523 C86.4651497,8.15202539 86.4674102,8.14549935 86.4698437,8.13903711 C86.4722865,8.13257487 86.4748978,8.12618099 86.4776777,8.11985547 C86.4804577,8.11352995 86.4834017,8.1072819 86.4865098,8.10111133 C86.489627,8.09494987 86.4929082,8.088875 86.4963535,8.08288672 C86.4997897,8.07688932 86.5033854,8.07099219 86.5071406,8.06519531 C86.5108958,8.05939844 86.514806,8.05370638 86.5188711,8.04811914 C86.5229362,8.0425319 86.5271426,8.03705404 86.5314902,8.03168555 C86.535847,8.02632617 86.5403451,8.02108529 86.5449844,8.01596289 C86.5496146,8.01084049 86.5543815,8.0058457 86.5592852,8.00097852 C86.5641888,7.99611133 86.5692201,7.99138086 86.5743789,7.98678711 C86.5795378,7.98218424 86.5848151,7.97772721 86.5902109,7.97341602 C86.5956068,7.96910482 86.6011165,7.96493945 86.6067402,7.96091992 C86.6123548,7.95690039 86.6180788,7.95303581 86.6239121,7.94932617 C86.6297363,7.94560742 86.6356562,7.94205273 86.6416719,7.93866211 C86.6476875,7.93527148 86.6537943,7.93204036 86.6599922,7.92896875 C86.666181,7.92590625 86.6724473,7.92300781 86.678791,7.92027344 C86.6846973,7.9177487 86.6906673,7.91536979 86.6967012,7.91313672 C86.7027259,7.91090365 86.7088008,7.90882096 86.7149258,7.90688867 C86.7210599,7.90495638 86.727235,7.90317904 86.7334512,7.90155664 C86.7396673,7.89993424 86.7459199,7.8984668 86.752209,7.8971543 C86.7585072,7.89583268 86.7648281,7.89467057 86.7711719,7.89366797 C86.7775156,7.89266536 86.7838867,7.89182227 86.7902852,7.89113867 C86.7966745,7.89045508 86.8030775,7.88992643 86.8094941,7.88955273 C86.8159017,7.88918815 86.8223229,7.88897852 86.8287578,7.88892383 C86.8351836,7.88887826 86.8416048,7.88898763 86.8480215,7.88925195 C86.8544473,7.88951628 86.8608594,7.88994466 86.8672578,7.89053711 C86.8736562,7.89112044 86.8800365,7.89186328 86.8863984,7.89276562 C86.8927604,7.89365885 86.8990996,7.89471615 86.905416,7.8959375 C86.9117233,7.89714974 86.9179987,7.89852148 86.9242422,7.90005273 C86.9304857,7.90157487 86.9366882,7.90325195 86.9428496,7.90508398 C86.949002,7.90691602 86.9551087,7.90890299 86.9611699,7.91104492 C86.9672311,7.91317773 86.9732376,7.91546094 86.9791895,7.91789453 C86.9850684,7.92025521 86.990888,7.92275716 86.9966484,7.92540039 C87.0023997,7.92804362 87.0080827,7.93082357 87.0136973,7.93374023 C87.019321,7.93666602 87.0248672,7.93972852 87.0303359,7.94292773 C87.0357956,7.94612695 87.0411777,7.94945833 87.0464824,7.95292187 C87.0517871,7.95638542 87.0570007,7.95997656 87.062123,7.96369531 C87.0672546,7.96741406 87.0722858,7.97126042 87.0772168,7.97523437 C87.0821569,7.97919922 87.0869922,7.98328711 87.0917227,7.98749805 C87.0964622,7.99170898 87.1010924,7.9960293 87.1056133,8.00045898 C87.1101341,8.00489779 87.114541,8.00944596 87.118834,8.01410352 C87.123127,8.01875195 87.127306,8.02350521 87.1313711,8.02836328 C87.1354362,8.03323047 87.1393783,8.0381888 87.1431973,8.04323828 C87.1470072,8.04829687 87.150694,8.05344206 87.1542578,8.05867383 C87.1578216,8.06391471 87.1612533,8.06923763 87.1645527,8.07464258 C87.1678522,8.08004753 87.1710195,8.08552995 87.1740547,8.09108984 C87.1770807,8.09664974 87.1799701,8.10228255 87.1827227,8.10798828 C87.1854753,8.11369401 87.1880866,8.11946354 87.1905566,8.12529687 C87.206293,8.16341406 87.2167109,8.20225586 87.2198555,8.24343555 C87.2274023,8.34251562 87.2220566,8.44549219 87.222043,8.54502344 L87.2219199,9.10248047 L87.2219609,9.62303711 C87.2219609,9.73021094 87.226623,9.83951758 87.2163281,9.94622656 C87.2136667,9.97511979 87.2099069,10.0038717 87.2050488,10.0324824 C87.2001908,10.0610931 87.1942435,10.0894714 87.187207,10.1176172 C87.1801797,10.1457721 87.1720859,10.1736172 87.1629258,10.2011523 C87.1537656,10.2286875 87.1435664,10.2558307 87.1323281,10.282582 C87.1285638,10.2915234 87.1246901,10.3004147 87.120707,10.3092559 C87.116724,10.3181061 87.1126361,10.3269017 87.1084434,10.3356426 C87.1042415,10.3443926 87.0999349,10.3530833 87.0955234,10.3617148 C87.0911029,10.3703555 87.086582,10.3789368 87.0819609,10.387459 C87.0773307,10.3959902 87.0726003,10.4044622 87.0677695,10.412875 C87.0629297,10.4212786 87.0579896,10.429623 87.0529492,10.4379082 C87.0479089,10.4462025 87.0427682,10.4544284 87.0375273,10.4625859 C87.0322773,10.4707435 87.0269316,10.4788372 87.0214902,10.4868672 C87.0160397,10.4948971 87.010498,10.5028587 87.0048652,10.510752 C86.9992233,10.5186361 86.9934811,10.5264564 86.9876387,10.5342129 C86.9818053,10.5419603 86.9758763,10.5496348 86.9698516,10.5572363 C86.9638268,10.5648379 86.9577109,10.5723665 86.9515039,10.5798223 C86.9452969,10.5872689 86.9389941,10.5946426 86.9325957,10.6019434 C86.9262064,10.609235 86.9197259,10.6164492 86.9131543,10.6235859 C86.9065827,10.6307227 86.8999245,10.6377773 86.8931797,10.64475 C86.8864349,10.6517227 86.8796035,10.6586087 86.8726855,10.6654082 C86.8657767,10.6722077 86.8587812,10.6789251 86.8516992,10.6855605 C86.8446172,10.6921868 86.8374531,10.6987266 86.830207,10.7051797 C86.8229609,10.7116328 86.8156419,10.7179948 86.80825,10.7242656 C86.800849,10.7305365 86.7933704,10.7367161 86.7858145,10.7428047 C86.7782585,10.7488932 86.7706341,10.7548861 86.7629414,10.7607832 C86.7552396,10.7666803 86.7474648,10.7724818 86.7396172,10.7781875 C86.7317695,10.7838932 86.7238581,10.7895033 86.7158828,10.7950176 C86.7078984,10.8005319 86.6998457,10.805946 86.6917246,10.8112598 C86.6836126,10.8165645 86.6754323,10.8217734 86.6671836,10.8268867 C86.6589349,10.832 86.650627,10.8370085 86.6422598,10.8419121 C86.6338926,10.8468158 86.6254661,10.8516146 86.6169805,10.8563086 C86.6084948,10.8610026 86.5999499,10.8655918 86.5913457,10.8700762 C86.5827415,10.8745697 86.5740872,10.8789492 86.5653828,10.8832148 C86.5566693,10.8874896 86.5479056,10.8916549 86.5390918,10.8957109 C86.5302871,10.8997669 86.5214277,10.903709 86.5125137,10.9075371 C86.5036087,10.9113743 86.4946536,10.9151022 86.4856484,10.9187207 C86.4376055,10.9381758 86.3864043,10.9556621 86.3359414,10.9678848 C86.29725,10.97725 86.2028594,10.9836484 86.173752,11 L82.054282,11 L81,11 L81,9.94993164 L81,5.82596094 Z M81,9.94993164 C81.0156402,9.98513672 81.0188818,10.043748 81.0256796,10.0780234 C81.0355092,10.1251914 81.0481938,10.1715801 81.0637334,10.2171895 C81.1676719,10.5262012 81.4152955,10.783123 81.7141859,10.9094648 C81.7780322,10.9364531 81.8448686,10.9586836 81.9128971,10.9721094 C81.9580703,10.9810371 82.0118131,10.9836895 82.054282,11 L81,11 L81,9.94993164 Z M87.6741445,4.00137285 C87.6992598,4.0113343 87.7262891,4.0152976 87.7511992,4.02522844 C87.8440039,4.06223219 87.9235059,4.13557934 87.964166,4.22709258 C87.9798887,4.26248223 87.9871211,4.29982012 88,4.33596719 L88,6.77741406 C87.9917148,6.79626758 87.9873809,6.81808789 87.9810508,6.83783008 C87.9637832,6.89165625 87.9375332,6.94038281 87.8994023,6.98235547 L87.8717441,7.01006836 C87.8669043,7.01446159 87.8619596,7.01873177 87.8569102,7.02287891 L87.8254512,7.04620312 C87.8200189,7.04982161 87.8145,7.05330794 87.8088945,7.05666211 C87.8032891,7.06001628 87.7976061,7.06322917 87.7918457,7.06630078 C87.7860853,7.0693724 87.780252,7.07229818 87.7743457,7.07507812 C87.7684303,7.07786719 87.7624557,7.08050586 87.7564219,7.08299414 C87.7503789,7.08548242 87.7442812,7.08781576 87.7381289,7.08999414 C87.7319766,7.09218164 87.7257741,7.09421419 87.7195215,7.0960918 C87.7132598,7.09797852 87.7069616,7.09970573 87.700627,7.10127344 L87.6815,7.10549805 C87.6750924,7.10674674 87.6686576,7.10784049 87.6621953,7.1087793 C87.6557331,7.10970898 87.649248,7.11048372 87.6427402,7.11110352 C87.6362415,7.11171419 87.6297292,7.11216536 87.6232031,7.11245703 C87.5213887,7.11612109 87.4178789,7.0742168 87.3439551,7.00499609 C87.3369277,6.99851562 87.3301556,6.99177083 87.3236387,6.98476172 C87.3171309,6.97776172 87.310901,6.97052018 87.3049492,6.96303711 C87.2989974,6.95554492 87.2933464,6.94783854 87.2879961,6.93991797 C87.2826367,6.9319974 87.2775918,6.92388086 87.2728613,6.91556836 C87.2681309,6.90725586 87.2637285,6.89877474 87.2596543,6.890125 C87.2555801,6.88147526 87.2518477,6.87267969 87.248457,6.86373828 L87.2436206,6.85024756 L87.2393105,6.83657227 C87.2366126,6.82739388 87.2342747,6.81812891 87.2322969,6.80877734 L87.2218071,6.70635278 L87.2219062,5.70169727 C87.2219883,5.57804883 87.2254199,5.45349805 87.221168,5.32995352 C87.1192578,5.42676953 87.0211758,5.52810547 86.9217949,5.62752734 L84.8298887,7.71955664 L84.2763008,8.27319922 C84.1803242,8.36929883 84.0852773,8.47306836 83.9844883,8.56358984 C83.905957,8.63413672 83.8079844,8.67275977 83.7017539,8.66630664 L83.6629121,8.66227344 C83.6564772,8.66127083 83.6500697,8.66010872 83.6436895,8.65878711 C83.6373092,8.65746549 83.6309701,8.65598893 83.6246719,8.65435742 C83.6183646,8.6527168 83.6121029,8.65092122 83.6058867,8.6489707 L83.57829,8.63914062 L83.5515137,8.62727344 C83.5456621,8.62440234 83.539888,8.62139453 83.5341914,8.61825 L83.5256978,8.61341357 L83.5091035,8.6031084 L83.5010098,8.59764648 C83.4956504,8.59394596 83.4903913,8.59010872 83.4852324,8.58613477 C83.4800645,8.58216081 83.4750059,8.5780638 83.4700566,8.57384375 C83.4650983,8.56961458 83.4602493,8.56526693 83.4555098,8.56080078 C83.4507702,8.55632552 83.4461491,8.55174089 83.4416465,8.54704687 C83.4371348,8.54234375 83.4327461,8.53753125 83.4284805,8.53260937 C83.3585625,8.45195898 83.3273496,8.35193555 83.3353203,8.24577344 C83.3360404,8.23583854 83.3371478,8.22594922 83.3386426,8.21610547 L83.3443027,8.18679297 C83.3465723,8.17709505 83.3492201,8.16750195 83.3522461,8.15801367 C83.3552812,8.14852539 83.358681,8.13916927 83.3624453,8.12994531 C83.3662187,8.12073047 83.3703431,8.11167513 83.3748184,8.1027793 C83.3793027,8.09388346 83.3841335,8.08517904 83.3893105,8.07666602 C83.3944785,8.06815299 83.3999746,8.05985872 83.4057988,8.0517832 C83.4116322,8.04370768 83.4177708,8.0358737 83.4242148,8.02828125 C83.4772754,7.96498047 83.5413555,7.90751758 83.5998574,7.849125 L86.4715527,4.97742012 C86.5378203,4.91116211 86.6026387,4.83974844 86.6736094,4.77870078 L85.7239473,4.77871582 L85.4272129,4.7790084 C85.3686836,4.7790918 85.3086367,4.78169355 85.2502988,4.77696719 C85.2284421,4.77537669 85.2068678,4.77199928 85.1855762,4.76683496 C85.1642845,4.76167064 85.1435625,4.75479004 85.1234102,4.74619316 C85.1175495,4.74364108 85.1117526,4.74094727 85.1060195,4.73811172 C85.1002773,4.73527526 85.0946126,4.73230072 85.0890254,4.72918809 L85.0807061,4.72441797 C85.0670775,4.71606309 85.0617318,4.71254987 85.0564727,4.70890586 C85.0512227,4.70526185 85.0460592,4.70149115 85.0409824,4.69759375 L85.0260664,4.68553926 C85.0211901,4.6813985 85.0164186,4.67714154 85.011752,4.67276836 C85.0070762,4.66839427 85.0025143,4.66390898 84.9980664,4.6593125 C84.9936276,4.65471602 84.9892982,4.65001289 84.9850781,4.64520312 C84.9808581,4.64039518 84.9767611,4.63548607 84.9727871,4.63047578 C84.968804,4.62546641 84.9649486,4.62036315 84.9612207,4.61516602 L84.955728,4.60730298 C84.9469609,4.59393314 84.943625,4.58847715 84.9404258,4.58294004 C84.9372266,4.57740293 84.9341595,4.57179062 84.9312246,4.56610312 C84.9282988,4.56041562 84.9255143,4.55466022 84.9228711,4.54883691 L84.9153652,4.53118242 C84.913041,4.52511029 84.9108672,4.51898483 84.9088437,4.51280605 C84.9068203,4.50662728 84.9049518,4.50040247 84.9032383,4.49413164 C84.9015247,4.4878599 84.8999661,4.48155033 84.8985625,4.47520293 C84.8971589,4.46885462 84.8959147,4.46247578 84.8948301,4.45606641 L84.8920273,4.43676992 C84.8912617,4.43031497 84.890651,4.42384453 84.8901953,4.41735859 L84.8896348,4.40762559 L84.8893887,4.37838418 C84.8895801,4.37188548 84.8899264,4.36539544 84.8904277,4.35891406 L84.8924375,4.33951777 C84.8932578,4.33306921 84.8942376,4.32664479 84.895377,4.32024453 C84.8965254,4.31384427 84.8978242,4.30747637 84.8992734,4.30114082 C84.9007318,4.29480436 84.9023451,4.28850801 84.9041133,4.28225176 C84.9058815,4.2759946 84.9078001,4.26978483 84.9098691,4.26362246 C84.9119382,4.25746009 84.9141621,4.25135286 84.916541,4.24530078 L84.9241016,4.2273291 C84.962916,4.1417582 85.0309336,4.07041453 85.1179277,4.03376611 C85.1494961,4.02046488 85.1828555,4.01210188 85.2148887,4 L87.6707949,4 Z"
                id="External-Link"></path>
            </g>
          </g>
        </g>
      </g>
    </g>
  </g>
</svg>