<?xml version="1.0" encoding="UTF-8"?>
<svg width="100%" height="100%" viewBox="0 0 21 15" version="1.1" xmlns="http://www.w3.org/2000/svg"
  xmlns:xlink="http://www.w3.org/1999/xlink">
  <title>Icon</title>
  <g id="Framework" stroke="none" stroke-width="1" fill="none" fill-rule="evenodd">
    <g transform="translate(-940, -2227)" fill-rule="nonzero" id="Modals">
      <g id="Components" transform="translate(546, 123)">
        <g id="Buttons" transform="translate(20, 2081)">
          <g id="Failed" transform="translate(49, 0)">
            <g id="Right" transform="translate(304, 0)">
              <g id="Icon" transform="translate(21, 23)">
                <path
                  d="M0,6.85380905 C0.00160712303,6.84959025 0.00329171335,6.84543636 0.00482136261,6.84115266 C0.0792096307,6.63456138 0.0830079888,6.3811739 0.11849981,6.16361375 C0.165964675,5.87264652 0.240857074,5.58044611 0.327807589,5.29876023 C0.346701319,5.2373605 0.366379962,5.17622039 0.386843516,5.11533989 C0.407306637,5.0544594 0.428547743,4.99383852 0.450566833,4.93347726 C0.472585924,4.873116 0.49537564,4.81305763 0.51893598,4.75330215 C0.54249632,4.69354666 0.566819709,4.63409407 0.591906147,4.57494436 C0.616992584,4.51583793 0.642834061,4.45703438 0.669430577,4.39853372 C0.696025794,4.34007633 0.723367824,4.28196509 0.751456668,4.22420002 C0.779541183,4.16639167 0.808363852,4.10897275 0.837924676,4.05194326 C0.8674855,3.99491377 0.897773656,3.93827371 0.928789142,3.88202307 C0.959804629,3.82577244 0.991536624,3.76991123 1.02398513,3.71443945 C1.05643363,3.65901094 1.08958782,3.60399349 1.12344769,3.5493871 C1.15731189,3.49478072 1.19186879,3.44062866 1.22711838,3.38693094 C1.26236798,3.33323322 1.29830161,3.27998983 1.33491928,3.22720077 C1.37153695,3.17441171 1.40882567,3.12209862 1.44678544,3.0702615 C1.48474521,3.01842437 1.52336304,2.96708485 1.56263893,2.91624293 C1.60191915,2.86540101 1.64184228,2.81507833 1.68240832,2.76527488 C1.72297869,2.71542816 1.76418115,2.66612232 1.80601569,2.61735734 C1.84785023,2.56863564 1.89030387,2.52043317 1.9333766,2.47274994 C1.97644934,2.42506671 2.02012602,2.37794598 2.06440664,2.33138777 C2.10868727,2.28482955 2.15355885,2.23885547 2.19902139,2.19346553 C2.24448393,2.1480756 2.2905201,2.1032698 2.33712992,2.05904815 C2.38374407,2.0148265 2.4309167,1.97118898 2.47864782,1.92813561 C2.52637894,1.88512551 2.57465339,1.84274282 2.62347118,1.80098754 C2.67228897,1.75918899 2.7216371,1.71803949 2.77151558,1.67753903 C2.82138973,1.63703857 2.87177691,1.59718716 2.92267711,1.5579848 C2.97357299,1.51873916 3.02496674,1.48016421 3.07685837,1.44225993 C3.12874567,1.40435566 3.18111136,1.36712206 3.23395545,1.33055915 C3.28679953,1.29403951 3.34010253,1.25816891 3.39386444,1.22294736 C3.44763068,1.18776908 3.50183851,1.15328311 3.55648794,1.11948946 C3.61113736,1.08565254 3.66621323,1.0525512 3.72171554,1.02018545 C3.77721352,0.987776431 3.83311846,0.956102997 3.88943036,0.925165147 C3.94574225,0.894184028 4.00244379,0.863960129 4.05953497,0.83449345 C4.11662183,0.804983501 4.17407884,0.776209137 4.23190601,0.748170359 C4.28710959,0.721472942 4.34263355,0.69546784 4.39847788,0.670155054 C4.4543222,0.644798999 4.51046742,0.620135259 4.56691353,0.596163834 C4.62336397,0.572235679 4.68009798,0.548978205 4.73711556,0.526391411 C4.79413747,0.503804617 4.85142564,0.481931774 4.90898006,0.460772881 C4.96653448,0.439613988 5.02434217,0.419169046 5.08240313,0.399438054 C5.14045975,0.379707061 5.19875233,0.360668385 5.25728086,0.342322024 C5.31580506,0.324018932 5.37454572,0.306429791 5.43350285,0.289554601 C5.49245999,0.27267941 5.55161627,0.256539805 5.6109717,0.241135784 C5.67032713,0.225688494 5.72986224,0.210998425 5.78957701,0.197065575 C5.84929178,0.183089455 5.9091689,0.169848921 5.96920837,0.157343972 C6.02924784,0.144839023 6.08943234,0.133091294 6.14976188,0.122100786 C6.21008709,0.111067007 6.27054001,0.100790449 6.33112065,0.0912711104 C6.39170129,0.0817085023 6.45239017,0.0729031144 6.51318727,0.0648549465 C6.57397139,0.0568067787 6.63486375,0.0495158309 6.69586433,0.0429821033 C6.75682163,0.0364051059 6.81786551,0.0305853286 6.87899598,0.0255227714 C6.94012645,0.0205034839 7.00130021,0.0161981468 7.06251726,0.0126067601 C7.12373432,0.00905864307 7.18499467,0.00626774615 7.24629831,0.00423406933 C7.30755866,0.00215712279 7.3688623,0.000837396339 7.43020923,0.000274889984 C7.49151288,-0.000244346652 7.55283816,0 7.6141851,0.000923935778 C7.67548874,0.00187586961 7.73679238,0.00358502354 7.79809603,0.00605139755 C7.85935638,0.00847450185 7.92059508,0.0116764611 7.98181213,0.0156572753 C8.04298589,0.0195948198 8.10411636,0.0242895844 8.16520354,0.0297415691 C8.22629071,0.0351935537 8.2872913,0.0414027585 8.3482053,0.0483691834 C8.40916259,0.0553356082 8.47001165,0.0630376183 8.53075248,0.0714752136 C8.5914933,0.079912809 8.6521259,0.0891076244 8.71265026,0.0990596599 C8.77317461,0.108968426 8.83354745,0.119634412 8.89376875,0.131057618 C8.95403335,0.142480824 9.01414642,0.154639615 9.07410796,0.167533991 C9.1340695,0.180428368 9.19385787,0.194036695 9.25347306,0.208358972 C9.31308826,0.222724519 9.37253028,0.237825651 9.43179913,0.253662368 C9.49102468,0.269455816 9.55007706,0.285984849 9.60895626,0.303249467 C9.66779217,0.320514085 9.72641161,0.338492654 9.78481459,0.357185172 C9.84321757,0.375877691 9.90138243,0.395284161 9.95930917,0.41540458 C10.0174524,0.435698079 10.0753575,0.456727162 10.1330245,0.478491831 C10.1906915,0.500213231 10.248077,0.52264858 10.3051812,0.54579788 C10.3622421,0.56894718 10.4190432,0.592767161 10.4755845,0.617257822 C10.5320826,0.641791753 10.5882776,0.667018 10.6441696,0.692936562 C10.7000615,0.718855124 10.7556288,0.745444367 10.8108713,0.77270429 C10.8661139,0.799964213 10.9210101,0.827916452 10.9755599,0.856561007 C11.0301531,0.885162291 11.0843566,0.914434257 11.1381704,0.944376903 C11.1920276,0.974319549 11.2454951,1.00493288 11.298573,1.03621688 C11.3516508,1.06745762 11.4043391,1.0993474 11.4566376,1.13188623 C11.5089362,1.16442506 11.5608452,1.19761294 11.6123645,1.23144986 C11.6638405,1.26524351 11.7149052,1.29968621 11.7655586,1.33477795 C11.8162121,1.36982642 11.8664109,1.4055023 11.9161552,1.4418056 C11.9659428,1.47810889 12.0152757,1.51501797 12.0641541,1.55253281 C12.1129892,1.59004766 12.1613698,1.62814665 12.2092957,1.66682978 C12.2572216,1.70555618 12.3046714,1.74484508 12.3516448,1.78469649 C12.3986183,1.8245479 12.4450939,1.86496182 12.4910717,1.90593825 C12.5370494,1.94695794 12.5825076,1.98851851 12.6274463,2.03061994 C12.6724283,2.07272138 12.7168691,2.11538533 12.7607687,2.15861178 C12.8046684,2.20179496 12.8480268,2.24551901 12.8908441,2.28978393 C12.9337047,2.33404885 12.9760025,2.37883301 13.0177375,2.42413641 C13.0594725,2.46943981 13.1006446,2.5152408 13.1412539,2.5615394 C13.1818633,2.607838 13.2219098,2.65463421 13.2613935,2.70192801 C13.3008339,2.74922181 13.3397115,2.79699158 13.3780263,2.84523732 C13.4162977,2.89348306 13.4539848,2.94218313 13.4910873,2.99133753 C13.5281899,3.0405352 13.5646863,3.09016557 13.6005767,3.14022863 C13.6364237,3.1902917 13.6716647,3.24076583 13.7062995,3.29165102 C13.7409776,3.34257948 13.7750063,3.39394064 13.8083856,3.44573449 C13.8417649,3.49748507 13.8744949,3.54964672 13.9065754,3.60221943 C13.9386992,3.65474887 13.9701519,3.70768937 14.0009336,3.76104094 C14.0317586,3.81434923 14.0619126,3.86804695 14.0913954,3.9221341 C14.1208783,3.97622125 14.1496902,4.03065456 14.177831,4.08543403 C14.2059718,4.14017022 14.2334415,4.19527421 14.2602402,4.25074599 C14.2867792,4.30591488 14.3126254,4.3614083 14.3377789,4.41722624 C14.3629758,4.4730009 14.3874583,4.5291001 14.4112264,4.58552381 C14.4350379,4.64190425 14.458135,4.69858759 14.4805177,4.75557381 C14.5029438,4.81251676 14.5246555,4.86974096 14.5456528,4.92724642 C14.5666502,4.98475188 14.5869332,5.04249532 14.6065019,5.10047674 C14.6260706,5.15850144 14.6449466,5.21674248 14.6631298,5.27519987 C14.6812698,5.33365726 14.6986955,5.39230937 14.7154068,5.45115619 C14.7321181,5.51004627 14.748115,5.56913108 14.7633977,5.62841059 C14.7786803,5.68769011 14.7932269,5.7471427 14.8070375,5.80676838 C14.8208482,5.86643732 14.8339228,5.92623607 14.8462615,5.98616463 C14.8586001,6.04613647 14.8702028,6.10623811 14.8810695,6.16646956 C14.8919362,6.22670101 14.9020668,6.28706226 14.9114615,6.34755333 C14.9208129,6.4080444 14.92945,6.46864364 14.9373727,6.52935106 C14.9452521,6.59001521 14.9523956,6.65078753 14.958803,6.71166802 C14.9652105,6.77254852 14.9708819,6.83349392 14.9758174,6.89450422 C14.9807528,6.95551453 14.984909,7.0165681 14.9882859,7.07766495 C14.9917061,7.13880506 14.9943903,7.19996681 14.9963385,7.26115019 C14.9982434,7.32233358 14.9994124,7.38351696 14.9998453,7.44470034 C15.0002349,7.505927 15,7.56713202 14.9988062,7.6283154 C14.9977239,7.68954205 14.9958839,7.75072544 14.9932863,7.81186555 C14.990732,7.87300566 14.9873984,7.93412414 14.9832855,7.99522099 C14.9792159,8.05627456 14.9743887,8.11728487 14.9688038,8.1782519 C14.963219,8.23921894 14.9568981,8.30009943 14.9498413,8.36089339 C14.9427411,8.42168734 14.9349266,8.48237313 14.9263978,8.54295073 C14.9178257,8.60357161 14.9085176,8.66408431 14.8984735,8.72448884 C14.8884294,8.7848501 14.8776493,8.84508155 14.8661332,8.90518319 C14.8545738,8.9653281 14.8423001,9.02529993 14.8293121,9.08509868 C14.816324,9.14489744 14.8026,9.20454475 14.7881399,9.26404061 C14.7736799,9.32353647 14.7584838,9.38283763 14.7425518,9.44194406 C14.7266631,9.5010505 14.7100384,9.55994059 14.6926777,9.61861433 C14.675317,9.67733134 14.6572419,9.73581036 14.6384525,9.79405141 C14.6196631,9.85233572 14.6001594,9.91036041 14.5799413,9.96812549 C14.5593336,10.0264963 14.5380332,10.0846076 14.5160401,10.1424592 C14.4940037,10.2003108 14.4712746,10.2578595 14.4478527,10.3151054 C14.4244309,10.3723945 14.4002948,10.4294023 14.3754443,10.4861289 C14.3505938,10.5428123 14.3250506,10.5991927 14.2988148,10.6552703 C14.2726222,10.7113046 14.2457152,10.767036 14.218094,10.8224645 C14.190516,10.8778497 14.1622453,10.9328888 14.1332819,10.9875817 C14.1043186,11.0423179 14.0747058,11.0966647 14.0444436,11.150622 C14.0141381,11.2046226 13.9831833,11.2582338 13.951579,11.3114556 C13.9199747,11.3646773 13.887721,11.4175097 13.8548179,11.4699526 C13.8219149,11.5223522 13.7883624,11.5743624 13.7541605,11.6259832 C13.7200019,11.6775607 13.6851939,11.7287271 13.6497365,11.7794825 C13.6142791,11.8302379 13.5782156,11.8805389 13.5415459,11.9303856 C13.5048763,11.9802756 13.4675789,12.0296896 13.4296538,12.0786277 C13.391772,12.1275658 13.353284,12.1760278 13.31419,12.224014 C13.2750959,12.2720433 13.2354174,12.3195535 13.1951544,12.3665444 C13.1548914,12.4135786 13.1140656,12.4601152 13.072677,12.5061542 C13.0312884,12.5521499 12.9893369,12.597648 12.9468227,12.6426485 C12.9042651,12.687649 12.8611881,12.7321086 12.8175915,12.7760274 C12.7739949,12.8199462 12.7298355,12.8633457 12.6851133,12.906226 C12.6404344,12.949063 12.5952359,12.9913375 12.5495179,13.0330495 C12.5038,13.0748048 12.4575625,13.115976 12.4108055,13.156563 C12.3640917,13.1971932 12.3168801,13.2372177 12.2691707,13.2766364 C12.2214179,13.3160551 12.1732105,13.3549113 12.1245486,13.3932051 C12.0758867,13.4314555 12.0267485,13.4691001 11.9771341,13.506139 C11.9275198,13.5431779 11.8774724,13.579611 11.8269922,13.6154383 C11.7764686,13.6512657 11.7255338,13.6864439 11.6741876,13.7209732 C11.6227982,13.7555457 11.5710192,13.7894908 11.5188504,13.8228085 C11.4666384,13.8560829 11.4140368,13.8887299 11.3610455,13.9207495 C11.3080109,13.9527258 11.2546084,13.9840531 11.2008378,14.0147313 C11.1470672,14.0454528 11.0929287,14.075482 11.0384221,14.1048189 C10.9839156,14.134199 10.929041,14.1628868 10.8737985,14.1908823 C10.8185992,14.2188778 10.7630536,14.2462027 10.7071617,14.2728568 C10.652049,14.2992081 10.5966333,14.324867 10.5409145,14.3498336 C10.4851957,14.3748003 10.4291739,14.3990962 10.372849,14.4227215 C10.3165241,14.4463035 10.2599178,14.4691932 10.2030301,14.4913905 C10.1461424,14.5135879 10.0889949,14.535093 10.0315877,14.5559057 C9.9741805,14.5767184 9.91651352,14.5967956 9.85858677,14.6161371 C9.80066002,14.635522 9.74251681,14.6541929 9.68415713,14.6721498 C9.62575415,14.6900635 9.56715635,14.7072848 9.50836374,14.7238138 C9.44957112,14.7402996 9.39058368,14.7560498 9.33140142,14.7710644 C9.27221916,14.7861222 9.21284208,14.8004445 9.15327018,14.8140312 C9.09374158,14.8275746 9.03403979,14.8404041 8.97416484,14.8525196 C8.91433318,14.8646351 8.85434999,14.8760151 8.79421527,14.8866594 C8.73403726,14.8972605 8.67377266,14.907126 8.61342148,14.9162559 C8.553027,14.9254291 8.49252429,14.9338234 8.43191334,14.9414389 C8.37134569,14.9490976 8.31066981,14.9559991 8.24988569,14.9621434 C8.18914486,14.968331 8.12831745,14.9737397 8.06740345,14.9783696 C8.00653274,14.9830427 7.94559709,14.9869586 7.8845965,14.9901173 C7.82359592,14.993276 7.76257368,14.9956775 7.7015298,14.9973217 C7.64048592,14.998966 7.57942039,15 7.51833322,15 C7.45724604,15 7.39618052,14.9995069 7.33513664,14.9981655 C7.27409276,14.9967809 7.21307052,14.9946606 7.15206993,14.9918048 C7.09106935,14.988949 7.03011205,14.985336 6.96919805,14.9809658 C6.90824076,14.9765955 6.84737005,14.9714681 6.78658593,14.9655834 C6.72580181,14.9596987 6.66510428,14.9530784 6.60449333,14.9457226 C6.54383909,14.9383667 6.48331041,14.9302537 6.42290727,14.9213834 C6.36247816,14.9125131 6.30217027,14.9029072 6.2419836,14.8925657 C6.1817926,14.8822243 6.12173798,14.8711472 6.06181973,14.8593346 C6.00190581,14.847522 5.94214558,14.8349521 5.88253904,14.821625 C5.82293251,14.8083412 5.76350131,14.7943218 5.70424545,14.7795669 C5.64498527,14.7648119 5.58591557,14.7493213 5.52703637,14.7330952 C5.46816149,14.716869 5.40949442,14.6999289 5.35103517,14.6822749 C5.29257591,14.6645776 5.23434178,14.646188 5.17633278,14.627106 C5.1183281,14.6079808 5.06056803,14.5881633 5.00305258,14.5676534 C4.94493101,14.5469705 4.88707353,14.5255736 4.82948015,14.5034628 C4.77188676,14.4813087 4.71457262,14.4584839 4.65753772,14.4349885 C4.60050282,14.4114497 4.54376448,14.3872403 4.4873227,14.3623602 C4.43088092,14.3374369 4.37475302,14.3118428 4.318939,14.2855781 C4.26312498,14.2592701 4.20763998,14.2322915 4.15248402,14.2046421 C4.09733239,14.177036 4.04252711,14.1487376 3.98806818,14.1197469 C3.93360924,14.0907562 3.87951397,14.0610948 3.82578237,14.0307627 C3.77205076,14.0004739 3.71870014,13.9695144 3.66573051,13.9378843 C3.61275654,13.9062974 3.56017871,13.8740398 3.50799702,13.8411116 C3.45581532,13.8082266 3.40404491,13.7746925 3.3526858,13.7405095 C3.30132668,13.7063264 3.250394,13.6715375 3.19988777,13.6361429 C3.14938153,13.600705 3.09931689,13.5646613 3.04969384,13.5280119 C3.0000708,13.4913624 2.9509045,13.4541288 2.90219494,13.4163111 C2.85348539,13.3784501 2.80524557,13.3400049 2.75747549,13.3009756 C2.70970973,13.2619464 2.66242887,13.2223329 2.61563289,13.1821354 C2.56883691,13.1419378 2.52254097,13.1011777 2.47674507,13.0598551 C2.43094917,13.0185325 2.3856663,12.9766691 2.34089646,12.9342648 C2.29612662,12.8918172 2.25188279,12.8488287 2.20816498,12.8052994 C2.1644515,12.7618133 2.12127486,12.7177864 2.07863506,12.6732186 C2.03599959,12.6286075 1.99391611,12.5835204 1.95238463,12.5379574 C1.91085747,12.4923511 1.86989313,12.4462472 1.82949161,12.3996457 C1.78909008,12.353001 1.74926652,12.3059019 1.71002094,12.2583485 C1.67077535,12.2107518 1.63211856,12.1627008 1.59405055,12.1141954 C1.55598255,12.0656468 1.51851633,12.0166438 1.48165188,11.9671865 C1.44478744,11.9177292 1.40853344,11.8678393 1.37288987,11.8175166 C1.3372463,11.7671939 1.302224,11.7164385 1.26782296,11.6652504 C1.23342625,11.6140624 1.19966162,11.5624632 1.16652908,11.510453 C1.13339654,11.4583995 1.10090691,11.4059783 1.06906019,11.3531892 C1.03720914,11.3003569 1.00601182,11.2471568 0.975468229,11.1935889 C0.944924642,11.1400209 0.915043446,11.0860852 0.885824641,11.0317817 C0.856601506,10.977435 0.828049421,10.9227637 0.800168386,10.8677679 C0.772287351,10.8127721 0.745086025,10.7574301 0.718564407,10.7017419 C0.58939339,10.4310033 0.477387393,10.1533632 0.382546416,9.86882148 C0.287705006,9.58427981 0.210749886,9.29497846 0.151681056,9.00091745 C0.108586024,8.78303277 0.0700595426,8.28826516 0,8.12652295 L0,6.85380905 Z"
                  id="Path-6" fill="#0F1116"></path>
                <path d="M7.5,2.8125 L7.5,7.96875668 M4.6875,11.25 L7.5,7.96875668" id="Line-5" stroke="#F9ABAB"
                  stroke-width="2" fill="#F9ABAB" stroke-linecap="round"></path>
                <path
                  d="M19.1103223,0 L19.4433105,0 C19.4472363,0.00178599902 19.4511035,0.00363700195 19.4550586,0.00535798828 C19.5258398,0.0362519531 19.6342969,0.0450298828 19.7162402,0.0751716797 C19.7377441,0.0829011719 19.7590332,0.0911779297 19.7801074,0.100001953 C19.8011816,0.108825977 19.8220215,0.118185742 19.842627,0.12808125 C19.8632129,0.137976758 19.8835352,0.148394824 19.9035937,0.159335449 C19.9236719,0.17027627 19.9434473,0.181725195 19.9629199,0.193682227 C19.982373,0.205639258 20.0015234,0.218088672 20.0203711,0.231030469 C20.0391992,0.243972266 20.0576855,0.257389355 20.0758301,0.271281738 C20.0939746,0.285174121 20.111748,0.299523242 20.1291504,0.314329102 C20.1465527,0.329135742 20.1635645,0.344379883 20.1801855,0.360061523 C20.1968066,0.375741211 20.2130078,0.391837891 20.2287891,0.408351562 C20.2445898,0.424867188 20.2599512,0.441776367 20.274873,0.459079102 C20.2897949,0.476383789 20.3042676,0.49405957 20.318291,0.512106445 C20.3322949,0.530155273 20.3458301,0.548551758 20.3588965,0.567295898 C20.3719629,0.586040039 20.384541,0.605107422 20.3966309,0.624498047 C20.4087207,0.643888672 20.4203027,0.663577148 20.431377,0.683563477 C20.4424512,0.703549805 20.4530078,0.723807617 20.4630469,0.744336914 C20.4730859,0.764866211 20.4825879,0.785639648 20.4915527,0.806657227 C20.4999707,0.826643555 20.5078809,0.846824219 20.5152832,0.867199219 C20.5227051,0.887576172 20.5296094,0.908123047 20.5359961,0.928839844 C20.5424023,0.949556641 20.548291,0.970418945 20.5536621,0.991426758 C20.5590332,1.01243262 20.563877,1.03355957 20.5681934,1.05480762 C20.5725293,1.07605371 20.5763281,1.09739453 20.5795898,1.11883008 C20.5828711,1.14026367 20.5856152,1.16176563 20.5878223,1.18333594 C20.5900293,1.2049043 20.591709,1.22651465 20.5928613,1.24816699 C20.5939941,1.26982129 20.5945996,1.29148926 20.5946777,1.3131709 C20.5947559,1.33485449 20.5942969,1.35652539 20.5933008,1.37818359 C20.5923047,1.39984375 20.5907715,1.42146582 20.5887012,1.4430498 C20.5866309,1.46463379 20.5840332,1.4861543 20.5809082,1.50761133 C20.5777832,1.52906641 20.5741309,1.55043164 20.5699512,1.57170703 C20.5657715,1.59298242 20.5610645,1.61414258 20.5558301,1.6351875 C20.5506152,1.65623047 20.544873,1.67713184 20.5386035,1.6978916 C20.5323535,1.71865137 20.5255859,1.73924414 20.5183008,1.75966992 C20.5110352,1.7800957 20.5032617,1.8003291 20.4949805,1.82037012 C20.4862891,1.84100684 20.4770801,1.86141406 20.4673535,1.8815918 C20.4576465,1.90177148 20.4474414,1.92169629 20.4367383,1.94136621 C20.4260156,1.96103613 20.4148242,1.98042773 20.4031641,1.99954102 C20.3914844,2.01865234 20.3793457,2.03746289 20.366748,2.05597266 C20.3541309,2.07448047 20.3410645,2.09266406 20.3275488,2.11052344 C20.3140332,2.12838281 20.3000879,2.14589453 20.2857129,2.16305859 C20.2713184,2.18022266 20.2565137,2.19701758 20.2412988,2.21344336 C20.2260645,2.22987109 20.2104395,2.24591016 20.1944238,2.26156055 C20.1784082,2.27720898 20.1620117,2.2924502 20.1452344,2.30728418 C20.128457,2.32211816 20.1113184,2.33652539 20.0938184,2.35050586 C20.0763184,2.36448633 20.0584863,2.37802246 20.0403223,2.39111426 C20.0221582,2.40420605 20.0036719,2.41683887 19.9848633,2.4290127 C19.9660742,2.44118457 19.9469824,2.45288184 19.9275879,2.46410449 C19.9082129,2.4753252 19.8885645,2.48605859 19.8686426,2.49630469 C19.8487402,2.50654883 19.828584,2.51629102 19.8081738,2.52553125 C19.7877832,2.53477148 19.767168,2.54349902 19.7463281,2.55171387 C19.7378711,2.5551416 19.7293652,2.55842383 19.7208105,2.56156055 C19.7091797,2.72472656 19.7169141,2.89282617 19.7170312,3.05663086 L19.7171484,3.93398438 L19.7172949,5.47669922 C19.7173242,5.7365625 19.7135156,5.99707031 19.7176172,6.256875 C20.0600391,6.38967773 20.3342578,6.63114258 20.483877,6.96990234 C20.4925488,6.98966797 20.5007227,7.00962891 20.5083984,7.02978516 C20.5160937,7.04994141 20.5232812,7.07027344 20.5299609,7.09078125 C20.5366406,7.11130859 20.5428125,7.13198242 20.5484766,7.15280273 C20.5541602,7.17360352 20.5593164,7.19454102 20.5639453,7.21561523 C20.5685937,7.23668945 20.5727148,7.25786133 20.5763086,7.27913086 C20.5799219,7.30040039 20.582998,7.32174805 20.5855371,7.34317383 C20.5880957,7.36459961 20.590127,7.38607422 20.5916309,7.40759766 C20.5931348,7.42912109 20.5941016,7.45067383 20.5945312,7.47225586 C20.5949609,7.49381836 20.594873,7.51538086 20.5942676,7.53694336 C20.5936426,7.55852539 20.5924902,7.58006836 20.5908105,7.60157227 C20.5891309,7.62307617 20.5869238,7.64453125 20.5841895,7.6659375 C20.5814551,7.68734375 20.5782031,7.70866211 20.5744336,7.72989258 C20.5706445,7.75114258 20.5663477,7.77228516 20.561543,7.79332031 C20.5567187,7.81435547 20.5513867,7.83525391 20.5455469,7.85601562 C20.5396875,7.87677734 20.5333301,7.89739258 20.5264746,7.91786133 C20.5196191,7.93831055 20.5122656,7.95858398 20.5044141,7.97868164 C20.3709082,8.31796875 20.1045996,8.57900391 19.7716113,8.72270508 C19.7548535,8.72995117 19.7379297,8.73677734 19.7208398,8.74318359 C19.7089453,8.90844727 19.7169141,9.0787793 19.7170312,9.2447168 L19.7171484,10.1246777 L19.7172949,11.6547949 C19.7173242,11.9158594 19.7135156,12.1775098 19.7176172,12.4385156 C20.0600098,12.5712305 20.3341992,12.8129004 20.4838184,13.1515137 C20.4924512,13.1712207 20.5005957,13.191123 20.508252,13.2112207 C20.5159082,13.2313184 20.5230664,13.2515918 20.5297266,13.272041 C20.5364062,13.2925098 20.5425684,13.3131152 20.5482129,13.3338574 C20.553877,13.3546191 20.5590234,13.375498 20.5636523,13.3964941 C20.5682812,13.4175098 20.5724023,13.438623 20.5760156,13.459834 C20.5796094,13.4810449 20.5826855,13.5023242 20.5852441,13.5236719 C20.5878027,13.5450391 20.589834,13.5664453 20.5913379,13.5878906 C20.5928613,13.6093555 20.5938477,13.6308398 20.5942969,13.6523438 C20.5947461,13.6738477 20.5946777,13.6953516 20.5940918,13.7168555 C20.5934863,13.7383594 20.5923633,13.759834 20.5907227,13.7812793 C20.589082,13.8027246 20.5869141,13.8241211 20.5842187,13.8454688 C20.5815234,13.8668164 20.5783008,13.8880762 20.5745508,13.909248 C20.5708203,13.9304395 20.5665723,13.9515234 20.5618066,13.9725 C20.557041,13.9934766 20.5517578,14.0143262 20.545957,14.0350488 C20.5401758,14.055752 20.5338867,14.0763086 20.5270898,14.0967188 C20.520293,14.1171289 20.512998,14.1373633 20.5052051,14.1574219 C20.4972168,14.1776563 20.48875,14.1976953 20.4798047,14.2175391 C20.4708398,14.2373633 20.4614062,14.2569531 20.4515039,14.2763086 C20.441582,14.2956836 20.4312012,14.3148047 20.4203613,14.3336719 C20.4095215,14.3525391 20.3982227,14.3711328 20.3864648,14.3894531 C20.3747266,14.4077539 20.3625488,14.4257715 20.3499316,14.4435059 C20.3372949,14.4612207 20.324248,14.478623 20.310791,14.4957129 C20.2973145,14.5127832 20.2834277,14.5295313 20.2691309,14.545957 C20.2548535,14.5623633 20.2401855,14.578418 20.225127,14.5941211 C20.2100488,14.6098047 20.1945996,14.6251172 20.1787793,14.6400586 C20.1629785,14.6550195 20.1468164,14.6695703 20.130293,14.6837109 C20.1137695,14.6978711 20.0969141,14.7116211 20.0797266,14.7249609 C20.0625391,14.7383008 20.0450293,14.7512109 20.0271973,14.7636914 C20.0093848,14.7761914 19.9912793,14.7882422 19.9728809,14.7998438 C19.9544629,14.8114453 19.9357812,14.8225879 19.9168359,14.8332715 C19.8978906,14.8439746 19.8786914,14.854209 19.8592383,14.8639746 C19.8398047,14.8737207 19.8201367,14.882998 19.8002344,14.8918066 C19.7293652,14.9225391 19.6566797,14.9429297 19.5819727,14.9618848 C19.5391992,14.9727246 19.4837109,14.9801367 19.4448047,15 L19.1112891,15 C19.0485352,14.9687402 18.964541,14.9621484 18.8964258,14.9424316 C18.6685254,14.8764844 18.4694824,14.7448242 18.3078809,14.5725 C18.2933105,14.556875 18.2791406,14.5408984 18.2653711,14.5245703 C18.2516016,14.5082422 18.2382324,14.4915918 18.2252637,14.4746191 C18.2123145,14.457627 18.1997949,14.440332 18.1877051,14.4227344 C18.1756152,14.4051172 18.1639648,14.3872168 18.1527539,14.3690332 C18.141543,14.3508496 18.1307812,14.3324023 18.1204687,14.3136914 C18.1101758,14.2949805 18.1003516,14.2760254 18.0909961,14.2568262 C18.0816406,14.237627 18.0727539,14.2182031 18.0643359,14.1985547 C18.0559375,14.1789258 18.0480371,14.1590918 18.0406348,14.1390527 C18.0332129,14.1190137 18.0262891,14.0988086 18.0198633,14.0784375 C18.013457,14.0580664 18.0075488,14.0375488 18.0021387,14.0168848 C17.9967285,13.9962207 17.9918359,13.9754297 17.9874609,13.9545117 C17.9830859,13.9336133 17.9792285,13.9126172 17.9758887,13.8915234 C17.9725684,13.8704102 17.9697559,13.8492383 17.9674512,13.8280078 C17.965166,13.8067773 17.9634082,13.785498 17.9621777,13.7641699 C17.9609473,13.7428418 17.9602344,13.7214941 17.9600391,13.700127 C17.9598633,13.6787793 17.9602148,13.6574316 17.9610937,13.636084 C17.9615234,13.622959 17.9621484,13.6098535 17.9629687,13.5967676 C17.9637695,13.5836621 17.9647754,13.5705762 17.9659863,13.5575098 C17.9671973,13.5444238 17.9686035,13.5313672 17.9702051,13.5183398 C17.9718066,13.5053125 17.9735937,13.4923145 17.9755664,13.4793457 C17.9775586,13.4663574 17.9797461,13.4534082 17.9821289,13.440498 C17.9844922,13.4275879 17.9870508,13.4147168 17.9898047,13.4018848 C17.9925586,13.3890527 17.9955078,13.3762598 17.9986523,13.3635059 C18.0017969,13.3507715 18.005127,13.3380762 18.0086426,13.3254199 C18.0121582,13.3127832 18.0158594,13.3001953 18.0197461,13.2876563 C18.0236523,13.2751172 18.0277344,13.2626465 18.0319922,13.2502441 C18.0362695,13.2378223 18.0407227,13.2254688 18.0453516,13.2131836 C18.0499805,13.2008984 18.0547949,13.1886914 18.0597949,13.1765625 C18.0647949,13.1644336 18.0699805,13.152373 18.0753516,13.1403809 C18.0807031,13.1284082 18.0862402,13.1165137 18.0919629,13.1046973 C18.0976855,13.0928809 18.1035742,13.0811523 18.1096289,13.0695117 C18.1157031,13.0578516 18.1219434,13.0462988 18.1283496,13.0348535 C18.1347559,13.0233887 18.1413379,13.0120312 18.1480957,13.0007812 C18.1548535,12.9895312 18.1617676,12.9783789 18.1688379,12.9673242 C18.1759277,12.9562695 18.1831738,12.9453223 18.1905762,12.9344824 C18.197998,12.9236426 18.2055762,12.9129199 18.2133105,12.9023145 C18.2210254,12.891709 18.2289062,12.8812207 18.2369531,12.8708496 C18.245,12.8604785 18.2532031,12.8502246 18.2615625,12.8400879 C18.2699023,12.8299707 18.2783984,12.8199707 18.2870508,12.8100879 C18.2957031,12.8002051 18.3044922,12.790459 18.313418,12.7808496 C18.3223633,12.7712402 18.3314453,12.7617676 18.3406641,12.7524316 C18.3499023,12.7430957 18.3592676,12.7338965 18.3687598,12.724834 C18.378252,12.7157715 18.3878809,12.7068555 18.3976465,12.6980859 C18.4074121,12.6892969 18.4173047,12.6806641 18.4273242,12.6721875 C18.4373437,12.6637109 18.4474902,12.6553906 18.4577637,12.6472266 C18.4680371,12.639043 18.4784277,12.6310156 18.4889355,12.6231445 C18.4994434,12.615293 18.5100684,12.6075879 18.5208105,12.6000293 C18.5315527,12.5924902 18.5424023,12.5851074 18.5533594,12.5778809 C18.5965625,12.5497363 18.6412402,12.5241699 18.6873926,12.5011816 C18.7290527,12.4803809 18.7942676,12.4655273 18.8274316,12.4346484 C18.8544434,12.3613184 18.837832,11.266582 18.8378613,11.1092871 L18.8382422,9.58347656 C18.8382715,9.30398438 18.8438086,9.02337891 18.8360156,8.7440332 C18.8094922,8.73426758 18.7833008,8.72369141 18.7574414,8.71230469 C18.7315625,8.70091797 18.7060742,8.68873047 18.6809766,8.67574219 C18.6558789,8.66275391 18.6312012,8.64899414 18.6069434,8.63446289 C18.5827051,8.61993164 18.5589453,8.6046582 18.5356641,8.58864258 C18.5123828,8.57262695 18.4896191,8.55589844 18.467373,8.53845703 C18.445127,8.52101562 18.4234473,8.50290039 18.402334,8.48411133 C18.3812207,8.46532227 18.3607129,8.44588867 18.3408105,8.42581055 C18.3209277,8.40573242 18.3016797,8.38505859 18.2830664,8.36378906 C18.2689844,8.34783203 18.2553027,8.3315332 18.2420215,8.31489258 C18.2287402,8.29825195 18.2158789,8.28128906 18.2034375,8.26400391 C18.1909961,8.24671875 18.1789941,8.22915039 18.1674316,8.21129883 C18.1558496,8.19342773 18.1447266,8.1752832 18.1340625,8.15686523 C18.1233789,8.13844727 18.1131641,8.11977539 18.103418,8.10084961 C18.0936523,8.08192383 18.0843652,8.06277344 18.0755566,8.04339844 C18.066748,8.02400391 18.0584277,8.00441406 18.0505957,7.98462891 C18.0427441,7.96484375 18.0353906,7.94487305 18.0285352,7.9247168 C18.0216797,7.90456055 18.015332,7.88424805 18.0094922,7.8637793 C18.0036328,7.84331055 17.998291,7.82270508 17.9934668,7.80196289 C17.988623,7.7812207 17.9842969,7.76038086 17.9804883,7.73944336 C17.9766797,7.71850586 17.9733984,7.69748047 17.9706445,7.67636719 C17.9678711,7.65525391 17.965625,7.6340918 17.9639062,7.61288086 C17.9621875,7.59165039 17.9609863,7.57040039 17.9603027,7.54913086 C17.9596637,7.5278418 17.9594922,7.50655273 17.9598633,7.48526367 C17.9602539,7.46399414 17.9611621,7.44273438 17.9625879,7.42148437 C17.9633105,7.40875 17.9642285,7.39601562 17.9653418,7.38328125 C17.9664355,7.37056641 17.9677148,7.35787109 17.9691797,7.34519531 C17.9706445,7.33251953 17.9722949,7.31986328 17.9741309,7.30722656 C17.9759668,7.29460938 17.9779883,7.28201172 17.9801953,7.26943359 C17.9823828,7.25685547 17.9847656,7.24431641 17.9873437,7.23181641 C17.9899023,7.21931641 17.9926465,7.20685547 17.9955762,7.19443359 C17.9985059,7.18201172 18.0016113,7.16962891 18.0048926,7.15728516 C18.0081934,7.14496094 18.0116602,7.13268555 18.015293,7.12045898 C18.0189453,7.10821289 18.0227734,7.09603516 18.0267773,7.08392578 C18.0307812,7.07179687 18.0349512,7.05973633 18.0392871,7.04774414 C18.0436426,7.03573242 18.0481641,7.02379883 18.0528516,7.01194336 C18.0575586,7.00006836 18.0624316,6.98827148 18.0674707,6.97655273 C18.0725098,6.96481445 18.0777148,6.95316406 18.0830859,6.94160156 C18.0884766,6.93001953 18.0940234,6.91852539 18.0997266,6.90711914 C18.1054492,6.89569336 18.1113281,6.88436523 18.1173633,6.87313477 C18.1233984,6.86188477 18.1295996,6.85072266 18.1359668,6.83964844 C18.142334,6.82859375 18.1488574,6.81762695 18.1555371,6.80674805 C18.1622363,6.79588867 18.169082,6.78511719 18.1760742,6.77443359 C18.1830664,6.76376953 18.1902148,6.75320313 18.1975195,6.74273437 C18.2048242,6.73226562 18.2122852,6.7219043 18.2199023,6.71165039 C18.2275,6.70139648 18.2352539,6.69125977 18.2431641,6.68124023 C18.2510547,6.6712207 18.2590918,6.66130859 18.2672754,6.65150391 C18.2754785,6.64171875 18.2838086,6.63205078 18.2922656,6.6225 C18.3007422,6.61294922 18.3093555,6.60352539 18.3181055,6.59422852 C18.3268359,6.58493164 18.3357129,6.57576172 18.3447363,6.56671875 C18.3537402,6.55767578 18.3628711,6.54876953 18.3721289,6.54 C18.3814062,6.53123047 18.3908008,6.52259766 18.4003125,6.51410156 C18.4098437,6.50558594 18.4194922,6.4972168 18.4292578,6.48899414 C18.4390234,6.48079102 18.4489062,6.47271484 18.4589062,6.46476563 C18.4688867,6.45683594 18.4789941,6.44905273 18.4892285,6.44141602 C18.4994434,6.4337793 18.5097754,6.42628906 18.5202246,6.41894531 C18.5306738,6.41160156 18.5412207,6.40441406 18.5518652,6.39738281 C18.5943848,6.36960937 18.6383887,6.34443359 18.683877,6.32185547 C18.7268555,6.30087891 18.7926562,6.28318359 18.8274023,6.25233398 C18.8542383,6.18117188 18.8380371,5.03411133 18.8380664,4.86755859 L18.8382422,3.38850586 C18.8382422,3.1134668 18.8437207,2.83728223 18.8360156,2.56238672 C18.7889648,2.54619727 18.7432617,2.52487793 18.6987305,2.50279395 C18.6791406,2.49312988 18.6598047,2.48299121 18.6407227,2.47237793 C18.6216406,2.4617666 18.602832,2.45069238 18.5842969,2.43915527 C18.5657422,2.42761816 18.5474902,2.41563379 18.529541,2.40320215 C18.5115918,2.39076855 18.4939551,2.37790332 18.4766309,2.36460645 C18.4593066,2.35130762 18.4423242,2.3375918 18.4256836,2.32345898 C18.409043,2.30932617 18.3927539,2.29479395 18.3768164,2.2798623 C18.3608789,2.26493066 18.3453223,2.24961719 18.3301465,2.23392188 C18.3149512,2.21822461 18.3001562,2.20216504 18.2857617,2.18574316 C18.2713672,2.16932129 18.2573926,2.15255664 18.2438379,2.13544922 C18.2302637,2.11833984 18.2171191,2.1009082 18.2044043,2.0831543 C18.1916895,2.06540234 18.1794141,2.04734766 18.1675781,2.02899023 C18.1557617,2.01063477 18.1443945,1.992 18.1334766,1.97308594 C18.1225586,1.95417187 18.1121094,1.93500098 18.1021289,1.91557324 C18.092168,1.89614551 18.0826855,1.87648535 18.0736816,1.85659277 C18.0646582,1.8367002 18.0561426,1.81659766 18.0481348,1.79628516 C18.0401074,1.77597461 18.0325879,1.75547949 18.0255762,1.7347998 C18.0188379,1.71413184 18.0125977,1.69331055 18.0068555,1.67233594 C18.0011328,1.65136133 17.995918,1.63025977 17.9912109,1.60903125 C17.9865234,1.58780078 17.9823535,1.56646875 17.9787012,1.54503516 C17.9750488,1.52360156 17.9719238,1.5020918 17.9693262,1.48050586 C17.9667285,1.45891797 17.9646582,1.43728027 17.9631152,1.41559277 C17.9615723,1.39390527 17.9605664,1.37219336 17.9600977,1.35045703 C17.9596289,1.32871875 17.9596637,1.30698242 17.9602734,1.28524805 C17.9608594,1.26351367 17.9619727,1.24180664 17.9636133,1.22012695 C17.9652734,1.19844727 17.9674512,1.17682031 17.9701465,1.15524609 C17.9728613,1.13367383 17.9760937,1.11218066 17.9798437,1.0907666 C17.9836133,1.06935059 17.9879004,1.04804004 17.9927051,1.02683496 C17.9975098,1.00562988 18.002832,0.984554688 18.0086719,0.963609375 C18.0144922,0.942666016 18.0208301,0.921876953 18.0276855,0.901242187 C18.034541,0.880607422 18.0418945,0.86015332 18.0497461,0.839879883 C18.0575977,0.819604492 18.0659473,0.79953418 18.0747949,0.779668945 C18.083623,0.759803711 18.0929395,0.740166016 18.1027441,0.720755859 C18.1119629,0.702341797 18.1216113,0.684157227 18.1316895,0.666202148 C18.1417871,0.648249023 18.1522949,0.630544922 18.1632129,0.613089844 C18.1741504,0.595636719 18.185498,0.578454102 18.1972559,0.561541992 C18.2089941,0.54462793 18.2211328,0.528003906 18.2336719,0.511669922 C18.2462109,0.495335937 18.2591309,0.47930957 18.2724316,0.46359082 C18.285752,0.44787207 18.2994238,0.432479492 18.3134473,0.417413086 C18.3274902,0.402344727 18.3418848,0.387620117 18.3566309,0.373239258 C18.371377,0.358858398 18.3864453,0.344835938 18.4018359,0.331171875 C18.4172461,0.317509766 18.4329785,0.304221973 18.4490332,0.291308496 C18.4650684,0.27839502 18.4814062,0.265870898 18.4980469,0.253736133 C18.5146875,0.241601367 18.5316016,0.229869727 18.5487891,0.218541211 C18.5659961,0.2072125 18.583457,0.196299902 18.6011719,0.185803418 C18.6188867,0.175306738 18.6368457,0.165237988 18.6550488,0.155597168 C18.6732324,0.145956543 18.6916504,0.13675459 18.7103027,0.127991309 C18.7289355,0.119228223 18.7477637,0.110913867 18.7667871,0.103048242 C18.7858301,0.0951828125 18.8050391,0.087775 18.8244141,0.0808248047 C18.9158496,0.0481259766 19.0117969,0.0327275391 19.1036133,0.00227502832 L19.1103223,0 Z"
                  id="Path" fill="#0F1116"></path>
              </g>
            </g>
          </g>
        </g>
      </g>
    </g>
  </g>
</svg>