<?xml version="1.0" encoding="UTF-8"?>
<svg width="100%" height="100%" viewBox="0 0 30 30" version="1.1" xmlns="http://www.w3.org/2000/svg"
  xmlns:xlink="http://www.w3.org/1999/xlink">
  <title>Cancel</title>
  <g id="Framework" stroke="none" stroke-width="1" fill="none" fill-rule="evenodd">
    <g transform="translate(-572, -290)" fill="var(--appSalmonPink)" fill-rule="nonzero" id="Modals">
      <g id="Wide-Style" transform="translate(546, 123)">
        <g id="Components" transform="translate(0, 54)">
          <g id="2" transform="translate(20, 61)">
            <g id="Regular" transform="translate(0, 46)">
              <path
                d="M6,6 L20.1601172,6 L21.8169727,6 L36,6 L36,20.2280273 L36,21.7836328 L36,36 L21.8424609,36 L20.1815625,36 L6,36 L6,21.8455078 L6,20.1419531 L6,6 Z M15.6186914,14.4574805 C15.2538867,14.4944531 14.9608008,14.617793 14.7236133,14.9077148 C14.7107617,14.9236133 14.6983008,14.9398242 14.6862305,14.9563477 C14.6741992,14.972832 14.6625586,14.9896094 14.6513086,15.0066797 C14.6400977,15.02375 14.6292969,15.0410937 14.6189062,15.0587109 C14.6085156,15.0763281 14.5985742,15.0941797 14.589082,15.1122656 C14.5795508,15.1303516 14.5704883,15.1486719 14.5618945,15.1672266 C14.5532617,15.1857422 14.5450977,15.2044727 14.5374023,15.223418 C14.529707,15.2423633 14.5224805,15.2614844 14.5157227,15.2807812 C14.5089648,15.3000781 14.5026758,15.3195117 14.4968555,15.339082 C14.4910352,15.3586914 14.4857031,15.378418 14.4808594,15.3982617 C14.4760156,15.4181445 14.4716602,15.4381055 14.467793,15.4581445 C14.4639258,15.4782227 14.4605664,15.4983789 14.4577148,15.5186133 C14.4548242,15.5388477 14.4524414,15.5591406 14.4505664,15.5794922 C14.4486523,15.5998437 14.4472461,15.6202344 14.4463477,15.6406641 C14.4454883,15.6610937 14.445166,15.6815234 14.445166,15.7019531 C14.445166,15.7224219 14.445918,15.7428516 14.4470508,15.7632422 C14.4481445,15.7836719 14.4497461,15.804043 14.4518555,15.8243555 C14.4574023,15.878457 14.4665039,15.9319531 14.4791602,15.9848437 C14.4918164,16.0377734 14.5079102,16.0896094 14.5274414,16.1403516 C14.5469727,16.1911328 14.5697656,16.2403906 14.5958203,16.288125 C14.621875,16.3358594 14.650957,16.3816797 14.6830664,16.4255859 C14.8223437,16.6149023 15.0084961,16.7780273 15.1750195,16.9433789 L15.9508594,17.7172266 L18.7395703,20.5064062 C18.796582,20.5630078 19.2085547,20.9583984 19.1976562,20.9956641 C19.1897461,21.0228516 19.1610352,21.0584766 19.1436328,21.0804492 C19.0314844,21.2218359 18.8841797,21.3496875 18.7562695,21.4774805 L18.0301758,22.2021094 L15.6298242,24.6011719 C15.3480469,24.8828906 14.8085156,25.3644727 14.6073633,25.6863281 C14.4798047,25.8904687 14.4314062,26.1791016 14.4520312,26.4166406 C14.4813867,26.7547852 14.6404102,27.0476367 14.8994531,27.264082 C15.1604883,27.482168 15.4812305,27.5742773 15.8189062,27.5438672 C15.8696094,27.5394922 15.9198242,27.531875 15.9695508,27.5210156 C16.0192773,27.5101172 16.0680859,27.4960547 16.1159766,27.4788281 C16.1638672,27.4616016 16.2104297,27.4413477 16.2556641,27.4180664 C16.3009375,27.3948242 16.3445117,27.3687305 16.3863867,27.3397852 C16.5816211,27.2055469 16.7463281,27.0154102 16.9125,26.8471875 L17.5376367,26.2201758 L20.075332,23.6830664 L20.6139258,23.1431836 C20.7354492,23.0213086 20.8584375,22.8805078 20.9999414,22.7825391 C21.1636523,22.9129102 21.3093164,23.0749805 21.4571484,23.2231055 L22.1747461,23.9423437 L24.568418,26.3361914 C24.8473242,26.6154492 25.3716797,27.2010937 25.6801758,27.3880078 C25.8998437,27.5210742 26.1561328,27.5593359 26.4091406,27.5483203 C26.775293,27.5001562 27.0753516,27.3466992 27.3030469,27.0496875 C27.3151562,27.0337109 27.326875,27.0174609 27.3382031,27.0009375 C27.3495312,26.984375 27.3604492,26.9675586 27.370957,26.9504883 C27.3814648,26.933418 27.391543,26.9160937 27.4011914,26.8985156 C27.4108398,26.8809375 27.4200586,26.8631445 27.4288477,26.8451367 C27.4376367,26.8271289 27.4459766,26.8089062 27.4538672,26.7904687 C27.4617578,26.7720312 27.4691797,26.753418 27.4761328,26.7346289 C27.483125,26.7158398 27.4896484,26.696875 27.4957031,26.6777344 C27.5017578,26.6586328 27.5073242,26.639375 27.5124023,26.6199609 C27.5175195,26.6005859 27.5221484,26.5810937 27.5262891,26.5614844 C27.5304297,26.541875 27.534082,26.522168 27.5372461,26.5023633 C27.5404492,26.4825586 27.5431445,26.4626953 27.545332,26.4427734 C27.5475586,26.4228516 27.5492773,26.4028906 27.5504883,26.3828906 C27.5516992,26.3628516 27.5524414,26.3428125 27.5527992,26.3227734 C27.5529492,26.3027344 27.5527992,26.2826953 27.5519531,26.2626562 C27.5512109,26.2426172 27.5499805,26.2226172 27.5482617,26.2026562 C27.546543,26.1826953 27.5443359,26.1627734 27.5416406,26.1428906 C27.5350391,26.0902734 27.5249609,26.0383203 27.5114062,25.9870312 C27.4978906,25.9357422 27.4810547,25.8855664 27.4608984,25.8365039 C27.4407031,25.7874414 27.4173437,25.7399414 27.3908203,25.6940039 C27.3643359,25.6480273 27.3349219,25.6040234 27.3025781,25.5619922 C27.1611914,25.3751953 26.979082,25.2125391 26.8132031,25.0472461 L26.0366602,24.2719336 L23.8933594,22.128457 C23.5202344,21.7551562 23.134043,21.3892383 22.7729883,21.0046875 C23.1268945,20.5857422 23.6025,20.1547852 23.9953125,19.762207 L26.2541602,17.5032422 L26.8756055,16.8835547 C27.0417773,16.7184961 27.2305664,16.554668 27.3592383,16.3575586 C27.3772852,16.3293945 27.3941406,16.3005469 27.4098047,16.2710156 C27.4254687,16.2414844 27.4398828,16.2113477 27.4530469,16.1806055 C27.46625,16.1498633 27.4781641,16.1186523 27.4887891,16.0869727 C27.4994141,16.0552539 27.5087305,16.0231641 27.5167383,15.9907031 C27.5247461,15.9582422 27.5314062,15.9255078 27.5367187,15.8925 C27.5419922,15.8594922 27.5459375,15.8263086 27.5485547,15.7929492 C27.5511328,15.7596289 27.5523437,15.72625 27.5521875,15.6928125 C27.5520312,15.659375 27.5505078,15.6259961 27.5476172,15.5926758 C27.5459766,15.572168 27.5438477,15.5517187 27.5412305,15.5313281 C27.5385742,15.5109766 27.5354297,15.4906836 27.5317969,15.4704492 C27.528125,15.4502148 27.5239648,15.4300781 27.5193164,15.4100391 C27.514668,15.3900391 27.5095117,15.3701562 27.5038477,15.3503906 C27.4982227,15.330625 27.4920898,15.3109961 27.4854492,15.2915039 C27.4788477,15.2720508 27.4717383,15.2527734 27.4641211,15.2336719 C27.456543,15.2145703 27.4484961,15.1956641 27.4399805,15.1769531 C27.4314258,15.1582812 27.4224219,15.1398047 27.4129687,15.1215234 C27.4035156,15.1032812 27.3936133,15.0852734 27.3832617,15.0675 C27.3729102,15.0497266 27.3621289,15.0322461 27.350918,15.0150586 C27.339707,14.997832 27.3280664,14.9808984 27.3159961,14.9642578 C27.3039258,14.9476172 27.2914453,14.9312695 27.2785547,14.9152148 C27.2656641,14.8991992 27.2524023,14.8835156 27.2387695,14.8681641 C27.2250977,14.8528125 27.2110547,14.8378125 27.1966406,14.8231641 C27.1822266,14.8084766 27.1674609,14.7941797 27.1523437,14.7802734 C27.1371875,14.7663672 27.1217187,14.752832 27.1059375,14.739668 C26.8440234,14.5189453 26.5169531,14.4285352 26.1778125,14.459707 C25.9635937,14.4793359 25.7607422,14.5477734 25.5856641,14.6742773 C25.4098828,14.8014258 25.2578906,14.9732227 25.1047266,15.1261523 L24.3413672,15.8898047 L22.1540039,18.0778711 C21.7707422,18.46125 21.3951562,18.8644922 20.9954883,19.2301172 L17.8270312,16.0629492 L16.9635937,15.1973437 C16.7847656,15.0181055 16.607168,14.814082 16.4002148,14.6676562 C16.1940234,14.5217578 15.948457,14.4541406 15.6971484,14.4530809 C15.6703711,14.4530809 15.645293,14.4549023 15.6186914,14.4574805 Z M21.8169727,6 C21.8214258,6.00146119 21.8258203,6.00301243 21.830332,6.00438358 C22.0173633,6.06149766 22.2529102,6.05449793 22.4479688,6.06919102 C22.6100391,6.08140137 22.7711719,6.10355625 22.9323633,6.12421875 C23.5975977,6.21057773 24.2543945,6.33988184 24.9027539,6.51213105 C25.0243945,6.54480605 25.1456055,6.57900781 25.2663867,6.61473633 C25.3871289,6.6504668 25.5074219,6.68771484 25.6272656,6.72648047 C25.7471094,6.76524219 25.8664453,6.80550781 25.9852734,6.84727734 C26.1041016,6.88904687 26.2223828,6.93230664 26.3401172,6.97705664 C26.4578125,7.02180664 26.5749414,7.0680332 26.6915039,7.11573633 C26.8080664,7.16343945 26.9240234,7.21260547 27.039375,7.26323437 C27.1546875,7.31385937 27.2693555,7.36592969 27.3833789,7.41944531 C27.4974023,7.47296094 27.6107227,7.5279043 27.7233398,7.58427539 C27.835957,7.64065039 27.9478516,7.69843359 28.0590234,7.757625 C28.1701953,7.81681641 28.2806055,7.87740039 28.3902539,7.93937695 C28.4999023,8.00134961 28.60875,8.06469531 28.7167969,8.12941406 C28.8248438,8.19413281 28.9320703,8.26020312 29.0384766,8.327625 C29.1448438,8.39504687 29.2503516,8.46379687 29.355,8.533875 C29.4596484,8.60395703 29.5633984,8.6753457 29.66625,8.74804102 C29.7691016,8.82073633 29.8710156,8.8947168 29.9719922,8.96998242 C30.0729688,9.04524414 30.1729883,9.12176758 30.2720508,9.19955273 C30.3711133,9.27733789 30.4691797,9.35635937 30.56625,9.43661719 C30.6633203,9.516875 30.7593555,9.5983418 30.8543555,9.68101758 C30.9493945,9.76369336 31.0433594,9.84755469 31.13625,9.93260156 C31.2291406,10.0176484 31.320957,10.1038516 31.4116992,10.1912109 C31.5024023,10.2785703 31.5920117,10.3670586 31.6805273,10.4566758 C31.7690039,10.546293 31.8563477,10.6370117 31.9425586,10.728832 C32.0287695,10.8206523 32.1138086,10.913543 32.1976758,11.0075039 C32.281543,11.1014687 32.3642188,11.1964746 32.4457031,11.2925215 C32.5271875,11.3885684 32.6074414,11.485625 32.6864648,11.5836914 C32.7654883,11.6817617 32.8432617,11.7808047 32.9197852,11.8808203 C32.9963086,11.9808594 33.0715625,12.0818359 33.1455469,12.18375 C33.2195313,12.2857031 33.2922266,12.3885547 33.3636328,12.4923047 C33.4350391,12.5960547 33.5051172,12.7007031 33.5738672,12.80625 C33.6426172,12.9117578 33.7100391,13.018125 33.7761328,13.1253516 C33.8421875,13.2325781 33.9068945,13.340625 33.9702539,13.4494922 C34.0336133,13.5583203 34.0955859,13.6679492 34.1561719,13.7783789 C34.2587109,13.9657227 34.3571875,14.1551953 34.4516016,14.3467969 C34.5460547,14.5383594 34.6363477,14.7318555 34.7224805,14.9272852 C34.8086133,15.1227148 34.8905078,15.3199219 34.9681641,15.5189062 C35.0458594,15.7178516 35.1192383,15.9183789 35.1883008,16.1204883 C35.2574023,16.3225586 35.3221289,16.5260352 35.3824805,16.730918 C35.4428711,16.9358008 35.4988281,17.141875 35.5503516,17.3491406 C35.601875,17.5564062 35.6489453,17.7646875 35.6915625,17.9739844 C35.7341797,18.1832422 35.7722852,18.3933398 35.8058789,18.6042773 C35.8599805,18.9310742 35.9013086,19.2594922 35.9298633,19.5895312 C35.9489648,19.7917969 35.9364844,20.0350781 36,20.2280273 L36,6 L21.8169727,6 Z M21.8424609,36 L36,36 L36,21.7836328 C35.9985352,21.7883203 35.9970117,21.7929492 35.9956641,21.7976367 C35.9445703,21.9736523 35.9464453,22.1839453 35.9317969,22.3667578 C35.9140625,22.570625 35.893125,22.7741602 35.8689844,22.9773633 C35.8020117,23.5524609 35.6827734,24.1399219 35.5375195,24.7003125 C35.5066211,24.8222656 35.4741797,24.9438281 35.4401953,25.065 C35.40625,25.1861328 35.3707813,25.3068359 35.3337891,25.4271094 C35.2967578,25.5473828 35.2582422,25.667168 35.2182422,25.7864648 C35.1782031,25.9057227 35.1366797,26.0244727 35.0936719,26.1427148 C35.0506641,26.260957 35.0061719,26.3786523 34.9601953,26.4958008 C34.9142188,26.6129102 34.8667578,26.7294336 34.8178125,26.8453711 C34.7689063,26.9612695 34.7185547,27.0765625 34.6667578,27.19125 C34.6149219,27.3058984 34.5616602,27.4198828 34.5069727,27.5332031 C34.4522852,27.6465234 34.3961719,27.7591406 34.3386328,27.8710547 C34.2811328,27.9829297 34.222207,28.094082 34.1618555,28.2045117 C34.101543,28.3149414 34.0398438,28.4245898 33.9767578,28.533457 C33.9136719,28.6423242 33.8492187,28.7503711 33.7833984,28.8575977 C33.7175781,28.9648242 33.6504297,29.0712109 33.5819531,29.1767578 C33.5134766,29.2823047 33.4436719,29.3869727 33.3725391,29.4907617 C33.3014062,29.5945898 33.2289844,29.6974805 33.1552734,29.7994336 C33.0815625,29.9013867 33.0065625,30.0024023 32.9302734,30.1024805 C32.8540234,30.2025586 32.7765234,30.3016602 32.6977734,30.3997852 C32.6189844,30.4979102 32.5390039,30.5950391 32.457832,30.6911719 C32.3766211,30.7872656 32.2942187,30.8823242 32.210625,30.9763477 C32.1269922,31.0704102 32.042207,31.1633789 31.9562695,31.2552539 C31.870332,31.347168 31.7832422,31.4379687 31.695,31.5276562 C31.6067969,31.6173828 31.5174609,31.7059766 31.4269922,31.7934375 C31.3365234,31.8808594 31.2449805,31.9671484 31.1523633,32.0523047 C31.059707,32.1374609 30.9660156,32.2214258 30.8712891,32.3041992 C30.7765234,32.3870117 30.6807422,32.4686133 30.5839453,32.5490039 C30.4871094,32.6293555 30.3892969,32.7084961 30.2905078,32.7864258 C30.1917187,32.8643164 30.0919531,32.940957 29.9912109,33.0163477 C29.8905078,33.0917773 29.7888477,33.1658984 29.6862305,33.2387109 C29.5836523,33.3115625 29.4801563,33.3831055 29.3757422,33.4533398 C29.2713281,33.5235742 29.1660547,33.5924805 29.0599219,33.6600586 C28.9537891,33.7276367 28.8468164,33.7938672 28.7390039,33.85875 C28.6312305,33.9236328 28.5226367,33.9871484 28.4132227,34.0492969 C26.8100391,34.9582031 25.1975977,35.4939258 23.3896875,35.8151367 C23.184668,35.8515234 22.9811133,35.8785352 22.7739258,35.8981055 C22.5656836,35.917793 22.0108008,35.9321484 21.8424609,36 Z M6,21.8455078 L6,36 L20.1815625,36 C20.0025,35.9394141 19.7759766,35.9483789 19.5879492,35.9312109 C19.2898242,35.9069922 18.993125,35.8710156 18.6978516,35.8232812 C17.1982031,35.5761328 15.7545703,35.1466406 14.3883984,34.4735156 C14.2703125,34.4156641 14.1529883,34.3562695 14.0364258,34.295332 C13.9199023,34.2343945 13.8041992,34.1719336 13.6893164,34.1079492 C13.5743945,34.0439648 13.4603516,33.9784961 13.3471875,33.911543 C13.2340234,33.8445508 13.1217578,33.7760742 13.0103906,33.7061133 C12.8990234,33.6361914 12.7886133,33.5648047 12.6791602,33.4919531 C12.569668,33.4191016 12.4611523,33.3448242 12.3536133,33.2691211 C12.2460742,33.193418 12.1395703,33.1163086 12.0341016,33.037793 C11.9285938,32.9592773 11.8241406,32.879375 11.7207422,32.7980859 C11.6173516,32.7168359 11.5150469,32.6342187 11.4138281,32.5502344 C11.3126133,32.4662891 11.2125215,32.3810156 11.1135527,32.2944141 C11.0145801,32.2078125 10.9167656,32.1199414 10.8201094,32.0308008 C10.7234531,31.9416211 10.6279883,31.8511719 10.5337148,31.7594531 C10.4394414,31.6677734 10.3463926,31.5748633 10.2545684,31.4807227 C10.1627402,31.386582 10.072168,31.29125 9.98285156,31.1947266 C9.89353516,31.0982031 9.80550586,31.0005273 9.71876367,30.9016992 C9.63202148,30.8028711 9.5465957,30.7029102 9.46248633,30.6018164 C9.37837695,30.5007227 9.29561328,30.3985352 9.21419531,30.2952539 C9.13277344,30.1919727 9.05272852,30.0876562 8.97406055,29.9823047 C8.89538867,29.8769141 8.81811914,29.7705078 8.74225195,29.6630859 C8.66638086,29.5556641 8.59193945,29.4472656 8.51892773,29.3378906 C8.44591602,29.2285156 8.37435547,29.1182031 8.30424609,29.0069531 C8.23413672,28.8957031 8.16550586,28.7835352 8.09835352,28.6704492 C8.03120117,28.5574023 7.96554883,28.4434766 7.90139648,28.3286719 C7.83724414,28.2138672 7.77461328,28.0982422 7.71350391,27.9817969 C7.65239844,27.8653516 7.59283594,27.748125 7.53481641,27.6301172 C7.47679688,27.5120703 7.4203418,27.3933008 7.36545117,27.2738086 C7.31055664,27.1543164 7.25724805,27.0341211 7.20552539,26.9132227 C7.15379883,26.7922852 7.10367383,26.6707031 7.05515039,26.5484766 C7.00662695,26.42625 6.9597207,26.303418 6.91443164,26.1799805 C6.86914648,26.0565039 6.82549219,25.9324609 6.78346875,25.8078516 C6.74144922,25.6832422 6.70107617,25.5581055 6.66234961,25.4324414 C6.62362695,25.3067383 6.58656445,25.1805664 6.55116211,25.0539258 C6.37288008,24.4010352 6.23611563,23.7395703 6.14086875,23.0695312 C6.1153668,22.8738281 6.09367988,22.6777148 6.07580801,22.4811914 C6.05958047,22.2891211 6.06890098,22.0381055 6.00431435,21.8568164 C6.00296301,21.8530078 6.00143811,21.8492578 6,21.8455078 Z M6,6 L6,20.1419531 C6.0742541,19.9662305 6.07764727,19.4710547 6.10211777,19.2544336 C6.1330582,18.9805664 6.1750002,18.7100977 6.22065762,18.4383984 C6.25415449,18.2409766 6.29162363,18.0443164 6.33306504,17.848418 C6.37450684,17.6524805 6.41988711,17.4574805 6.46920586,17.263418 C6.51852461,17.0693555 6.5717418,16.8763477 6.62885742,16.6843945 C6.68597461,16.4924805 6.74694141,16.3017969 6.81175781,16.1123437 C6.87657812,15.9228516 6.94519727,15.7347656 7.01761523,15.5480859 C7.0900332,15.3614062 7.16618945,15.17625 7.24608398,14.9926172 C7.32598242,14.8089844 7.40955469,14.6270508 7.49680078,14.4468164 C7.58404688,14.266582 7.67489648,14.0881836 7.76934961,13.9116211 C7.82886914,13.8000977 7.88979297,13.6893555 7.95212109,13.5793945 C8.01445313,13.4693945 8.07817187,13.3602344 8.14327734,13.2519141 C8.20837891,13.1435547 8.27484766,13.0360352 8.34268359,12.9293555 C8.41051563,12.8226758 8.47969141,12.7168945 8.55021094,12.6120117 C8.62073438,12.5070898 8.69257617,12.4030859 8.76573633,12.3 C8.83889648,12.1969141 8.91335547,12.0947656 8.98911328,11.9935547 C9.06486719,11.8923711 9.14189453,11.7921602 9.22019531,11.6929219 C9.29849609,11.5936836 9.37804492,11.4954551 9.4588418,11.3982363 C9.53963867,11.3010176 9.62165625,11.2048398 9.70489453,11.1097031 C9.78813281,11.0145664 9.87256445,10.9205039 9.95818945,10.8275156 C10.0438184,10.7345234 10.1306113,10.6426328 10.2185684,10.5518437 C10.3065293,10.4610586 10.3956289,10.3714043 10.4858672,10.2828809 C10.5761055,10.1943574 10.6674531,10.1069922 10.7599102,10.0207852 C10.8523672,9.93458203 10.9459023,9.84956641 11.0405156,9.76573828 C11.1351328,9.68191016 11.2307988,9.59929687 11.3275137,9.51789844 C11.4242246,9.43649609 11.5219551,9.35633789 11.6207051,9.27742383 C11.7194551,9.19850586 11.8191875,9.12085547 11.9199023,9.04447266 C12.0206445,8.96808594 12.1223242,8.89299219 12.2249414,8.81919141 C12.3275586,8.74539062 12.4311133,8.6729043 12.5356055,8.60173242 C12.6400586,8.53055664 12.7454102,8.4607207 12.8516602,8.39222461 C12.9579102,8.32372852 13.065,8.2565918 13.1729297,8.19081445 C13.2808984,8.12504102 13.389668,8.06064648 13.4992383,7.99763086 C13.6088086,7.93461523 13.7191797,7.87300195 13.8303516,7.81279102 C13.9414844,7.75258008 14.0533789,7.69378906 14.1660352,7.63641797 C14.2786523,7.57905078 14.3919922,7.52312109 14.5060547,7.46862891 C14.6201172,7.41413672 14.7348633,7.36110352 14.850293,7.3095293 C14.9656836,7.25795117 15.0817188,7.20784766 15.1983984,7.15921875 C15.3150781,7.11058594 15.4323633,7.06344531 15.5502539,7.01779687 C15.6681445,6.97214453 15.786582,6.92799609 15.9055664,6.88535156 C16.0245508,6.84270703 16.1440625,6.80158203 16.2641016,6.76197656 C16.3841797,6.72236719 16.504707,6.68428906 16.6256836,6.64774219 C16.7466992,6.61119531 16.8681641,6.57619023 16.9900781,6.54272695 C17.6416016,6.36446484 18.301875,6.22870781 18.9708984,6.13545586 C19.1613867,6.11013105 19.3533984,6.08546836 19.5448828,6.06928125 C19.7222461,6.05429027 19.9651758,6.06623965 20.1319336,6.01011328 C20.1413672,6.00692455 20.1507422,6.00337109 20.1601172,6 L6,6 Z"
                id="Cancel"></path>
            </g>
          </g>
        </g>
      </g>
    </g>
  </g>
</svg>