<?xml version="1.0" encoding="UTF-8"?>
<svg width="100%" height="100%" viewBox="0 0 14 23" version="1.1" xmlns="http://www.w3.org/2000/svg"
  xmlns:xlink="http://www.w3.org/1999/xlink">
  <title>Arrow</title>
  <g id="Framework" stroke="none" stroke-width="1" fill="none" fill-rule="evenodd">
    <g transform="translate(-170, -218)" fill="var(--appWhite)" fill-rule="nonzero" id="Group-A">
      <g transform="translate(170, 208)">
        <g id="Title" transform="translate(0, 2)">
          <g id="Arrow" transform="translate(0, 8)">
            <path
              d="M11.3045722,0 L11.7091386,0 C11.8927343,0.0587582617 12.071703,0.12568377 12.2330175,0.233166094 C12.4783808,0.396661504 13.2364823,1.16918613 13.3690019,1.42774297 C13.3784954,1.44649036 13.3875247,1.46545638 13.3960898,1.48464102 C13.4046549,1.50382865 13.4127408,1.52321243 13.4203476,1.54279238 C13.4279843,1.56237533 13.4351269,1.58213197 13.4417753,1.6020623 C13.4484238,1.62198965 13.454593,1.64206823 13.4602831,1.66229805 C13.4659433,1.68252786 13.4711243,1.70288496 13.4758261,1.72336934 C13.480498,1.74385072 13.4846757,1.76443542 13.4883593,1.78512344 C13.4920429,1.80580846 13.4952174,1.82657135 13.4978827,1.84741211 C13.5005481,1.86825286 13.5027044,1.88914753 13.5043515,1.91009609 C13.5059986,1.93104167 13.5071366,1.95201569 13.5077655,1.97301816 C13.5083316,1.99402064 13.5084993,2.01502461 13.50808,2.03603008 C13.5076907,2.05703854 13.5067922,2.07802454 13.5053847,2.09898809 C13.5039472,2.11995163 13.5020155,2.14086725 13.4995898,2.16173496 C13.497134,2.18260566 13.4941842,2.20340299 13.4907402,2.22412695 C13.4872662,2.24485091 13.4832981,2.26547904 13.4788359,2.28601133 C13.4743736,2.30654362 13.4694172,2.32695462 13.4639667,2.34724434 C13.4585162,2.36753704 13.4525715,2.38768301 13.4461327,2.40768223 C13.3915976,2.57675469 13.3076835,2.73184297 13.1873827,2.86301934 C12.9637167,3.10688672 12.7179491,3.33588945 12.4836816,3.56978867 L11.1874159,4.8659375 L7.14071867,8.91223047 L5.32061907,10.7331387 L4.83631633,11.2186543 C4.7458886,11.3092617 4.65132805,11.4221055 4.54603117,11.4936211 C5.27232805,12.2488477 6.02638664,12.9804453 6.76741789,13.7213418 L10.8087245,17.7624688 L12.4164784,19.3702676 L12.8870351,19.8394316 C13.0138046,19.9657969 13.1465038,20.0891973 13.2537323,20.233127 C13.414957,20.4495605 13.5030488,20.744248 13.4969843,21.0137793 C13.4842714,21.5781777 13.1847323,21.8311328 12.8135429,22.1999863 C12.6491288,22.3633672 12.4894316,22.5355977 12.3203905,22.6936777 C12.1969003,22.8091719 12.0599784,22.8745332 11.902078,22.9306406 C11.8472734,22.9500918 11.7800253,22.9655898 11.7332167,23 L11.2642323,23 C11.1636073,22.9445215 11.0434413,22.9168496 10.938953,22.8657285 C10.8359622,22.8147871 10.7402486,22.7526302 10.6518124,22.6792578 C10.3744198,22.4467422 10.1229921,22.1637344 9.86657805,21.9072754 L8.39561125,20.4364434 L4.45299797,16.4941895 L1.7698593,13.8106016 L0.909785081,12.9519199 C0.750357347,12.7929414 0.583787034,12.637332 0.431996019,12.4712109 C0.280474534,12.3054043 0.136230394,12.1288164 0.0646698467,11.9130117 C-0.0388301533,11.6008496 -0.0191543721,11.2235957 0.131333909,10.9285039 C0.263988206,10.6683613 0.907673753,10.0766504 1.15218352,9.83236523 L2.50572453,8.47949805 L7.94917766,3.03576641 L9.83387492,1.15117695 L10.4258554,0.559268359 C10.527828,0.457286719 10.6287675,0.344001387 10.7389159,0.251532402 C10.8973554,0.118590156 11.111453,0.0618246289 11.3045722,0 Z"
              id="Regular"></path>
          </g>
        </g>
      </g>
    </g>
  </g>
</svg>