<?xml version="1.0" encoding="UTF-8"?>
<svg width="100%" height="100%" viewBox="0 0 15 21" version="1.1" xmlns="http://www.w3.org/2000/svg"
  xmlns:xlink="http://www.w3.org/1999/xlink">
  <title>Shape</title>
  <g id="Framework" stroke="none" stroke-width="1" fill="none" fill-rule="evenodd">
    <g transform="translate(-420, -872)" fill="var(--appWhite)" fill-rule="nonzero" id="Group-A">
      <g transform="translate(170, 208)">
        <g id="Components" transform="translate(0, 61)">
          <g id="6---Locked" transform="translate(1, 575)">
            <path
              d="M260.731125,29.6434772 C261.584074,30.3939922 262.174032,31.4054722 262.508326,32.4841904 C262.517509,32.5132396 262.526691,32.5422887 262.536153,32.5722182 C262.70921,33.1592127 262.750985,33.742691 262.745262,34.3505775 C262.745041,34.4207729 262.744874,34.4909685 262.744757,34.5611642 C262.744314,34.743319 262.743164,34.9254623 262.741851,35.1076127 C262.740634,35.2945241 262.740108,35.4814373 262.739518,35.6683516 C262.738268,36.0331796 262.736268,36.3979992 262.733775,36.7628208 C262.788976,36.7807838 262.788976,36.7807838 262.845293,36.7991097 C263.336315,36.9662913 263.627524,37.3116985 263.861939,37.759575 C264.019908,38.2204014 263.999707,38.7094543 263.998594,39.189997 C263.998701,39.2676613 263.99884,39.3453255 263.999011,39.4229897 C263.999366,39.6325592 263.99923,39.8421257 263.998981,40.0516953 C263.998781,40.2718107 263.998967,40.4919258 263.99909,40.7120411 C263.999232,41.0815695 263.999045,41.4510967 263.998671,41.8206249 C263.998244,42.2468438 263.998382,42.6730597 263.998814,43.0992785 C263.999171,43.4663058 263.99922,43.8333321 263.999015,44.2003595 C263.998893,44.419094 263.998875,44.6378272 263.999135,44.8565617 C263.999363,45.062275 263.999202,45.2679845 263.998752,45.4736974 C263.998649,45.5488491 263.998676,45.624001 263.998851,45.6991526 C264.000309,46.3928583 263.988543,47.0564276 263.479809,47.5918786 C263.038215,47.9858244 262.529716,48.1185614 261.948944,48.1140001 C261.900194,48.1142447 261.851445,48.1144894 261.801218,48.1147415 C261.667442,48.1152546 261.5337,48.1150756 261.399926,48.1145868 C261.255062,48.1142294 261.110201,48.1147809 260.965338,48.115211 C260.682161,48.1157111 260.39899,48.1157111 260.115812,48.1153031 C259.885523,48.1149479 259.655236,48.1149013 259.424946,48.1150716 C259.392082,48.1150956 259.359217,48.1151196 259.325357,48.1151444 C259.258579,48.1151945 259.191801,48.1152454 259.125023,48.1152969 C258.499883,48.1157111 257.874747,48.1152311 257.249608,48.1143872 C256.714033,48.1136866 256.178464,48.1138083 255.64289,48.1145313 C255.019879,48.115372 254.396871,48.1157111 253.77386,48.1152195 C253.707337,48.1151695 253.640815,48.1151202 253.574292,48.1150716 C253.541567,48.1150474 253.508843,48.1150232 253.475127,48.1149982 C253.245303,48.1148632 253.015482,48.1150905 252.785658,48.1154604 C252.505309,48.1157111 252.224966,48.1157111 251.944617,48.1149459 C251.801771,48.1145357 251.658937,48.1143689 251.516092,48.1148909 C251.360819,48.1154497 251.205566,48.1147793 251.050294,48.1140001 C251.005749,48.1143499 250.961204,48.1146998 250.915309,48.1150602 C250.387241,48.1099449 249.916015,47.9456728 249.519429,47.5918786 C248.982587,47.0268435 248.998958,46.3161873 249.000644,45.5884914 C249.000537,45.5108272 249.000398,45.4331629 249.000228,45.3554988 C249,45.1459292 249,44.9363627 249.000257,44.7267931 C249.000457,44.5066778 249.000271,44.2865627 249,44.0664473 C249,43.6969189 249.000193,43.3273918 249.000567,42.9578636 C249.000994,42.5316447 249.000856,42.1054287 249.000424,41.6792099 C249,41.3121827 249,40.9451563 249.000223,40.5781289 C249.000345,40.3593944 249.000363,40.1406612 249,39.9219268 C249,39.7162135 249,39.5105039 249.000487,39.304791 C249.00059,39.2296394 249.000562,39.1544874 249.000388,39.0793359 C248.998867,38.3557658 249.024135,37.7104331 249.551439,37.1538339 C249.765108,36.9631937 249.995352,36.850717 250.265463,36.7628208 C250.265289,36.7279516 250.265115,36.6930824 250.264936,36.6571565 C250.263353,36.3255906 250.262165,35.994026 250.261401,35.6624571 C250.260994,35.4920693 250.260445,35.3216847 250.259548,35.1512987 C250.258684,34.986305 250.258224,34.8213143 250.258023,34.6563185 C250.257881,34.5939442 250.257602,34.5315699 250.257172,34.4691969 C250.253421,33.9006312 250.292797,33.3395729 250.429649,32.785606 C250.438052,32.7512752 250.446454,32.7169443 250.455112,32.6815732 C250.845797,31.1525411 251.860578,29.7603223 253.210851,28.9376568 C253.363411,28.8483961 253.519189,28.7661747 253.676605,28.6858645 C253.700322,28.6734501 253.724039,28.6610356 253.748475,28.648245 C256.059287,27.4477011 258.813814,27.9922211 260.731125,29.6434772 Z M253.753491,31.7323363 C252.530557,33.1672132 252.774809,34.7856766 252.774809,36.6844037 C255.233184,36.6844037 257.691558,36.6844037 260.224429,36.6844037 C260.370463,34.0107382 260.370463,34.0107382 259.283424,31.783338 C259.23642,31.7307994 259.23642,31.7307994 259.188466,31.6771993 C258.570342,31.0234142 257.683868,30.5651175 256.774079,30.5286652 C256.714717,30.5256327 256.714717,30.5256327 256.654156,30.5225389 C255.562402,30.4927976 254.506285,30.9398378 253.753491,31.7323363 Z M255.210332,40.5666604 C254.872004,40.9984969 254.758855,41.4727594 254.813652,42.0167632 C254.91332,42.4760258 255.205071,42.885862 255.590471,43.1513599 C255.672104,43.1987291 255.672104,43.1987291 255.754657,43.193019 C255.753425,43.2350954 255.753425,43.2350954 255.752168,43.2780219 C255.748885,43.4065159 255.746861,43.5350012 255.744855,43.6635213 C255.743541,43.7076447 255.742227,43.7517681 255.740873,43.7972285 C255.737208,44.1105929 255.772548,44.329431 255.98271,44.5676148 C256.005302,44.5854562 256.027895,44.6032976 256.051172,44.6216796 C256.085212,44.6495031 256.085212,44.6495031 256.11994,44.6778887 C256.293558,44.7943054 256.495356,44.7779738 256.695662,44.76136 C256.908328,44.6918346 257.042723,44.5514613 257.166164,44.3692748 C257.23698,44.2203802 257.253924,44.1039471 257.252239,43.9396657 C257.25186,43.8742767 257.25186,43.8742767 257.251473,43.8075667 C257.250816,43.7624577 257.250159,43.7173488 257.249482,43.6708729 C257.249128,43.6250058 257.248775,43.5791387 257.24841,43.5318817 C257.247488,43.4189193 257.246199,43.3059733 257.244581,43.193019 C257.275289,43.181249 257.305996,43.1694789 257.337634,43.1573523 C257.713274,43.0014264 257.963064,42.6150637 258.116511,42.2550775 C258.255989,41.8745548 258.228487,41.403118 258.082816,41.0290453 C257.865317,40.5860373 257.537433,40.2749645 257.085296,40.0759412 C256.408359,39.8583889 255.693804,40.0490846 255.210332,40.5666604 Z"
              id="Shape"></path>
          </g>
        </g>
      </g>
    </g>
  </g>
</svg>