<?xml version="1.0" encoding="UTF-8"?>
<svg width="111px" height="33px" viewBox="0 0 111 33" version="1.1" xmlns="http://www.w3.org/2000/svg" xmlns:xlink="http://www.w3.org/1999/xlink">
    <title>Group</title>
    <g id="Framework" stroke="none" stroke-width="1" fill="none" fill-rule="evenodd">
        <g transform="translate(-30, -54)" id="Menu">
            <g transform="translate(-0, 35)">
                <g id="Group" transform="translate(30.0231, 19.7488)">
                    <polygon id="Fill-2" fill="#C7F28B" points="8.60681541 11.8765013 8.60681541 32 11.6620097 27.0089748 14.2509351 29.8813186 17.3061293 24.8902934 19.8946572 27.7622396 22.9498515 22.771612 25.5387769 25.6435582 25.5387769 5.52045703"></polygon>
                    <polygon id="Fill-3" fill="#C7F28B" points="17.4353172 0 0.000119250362 6.54525489 7.16945104 9.23633807 24.604649 2.69148068"></polygon>
                    <polygon id="Fill-4" fill="#C7F28B" points="0 29.8480477 5.73196742 31.9997217 5.73196742 11.8766206 0 9.72494655"></polygon>
                    <g id="Group-19" transform="translate(35.3994, 9.0199)" fill="#FFFFFF">
                        <path d="M30.8825844,9.36393596 L33.5052973,9.36393596 C33.6901354,10.9523508 34.5948481,11.5800052 36.4786064,11.5800052 C37.845613,11.5800052 39.0460667,11.0998237 39.0460667,9.88108503 C39.0460667,8.5880136 37.7899628,8.32963781 35.7770167,7.86774141 C33.413077,7.33230728 31.251863,6.70425537 31.251863,3.95235451 C31.251863,1.3483241 33.3761094,0 36.3124509,0 C39.2861574,0 41.2068832,1.45922693 41.4100063,4.11851002 L38.8429435,4.11851002 C38.6950731,2.78886848 37.660775,2.12424646 36.2941658,2.12424646 C34.8536214,2.12424646 33.9115436,2.73361581 33.9115436,3.67529617 C33.9115436,4.74656193 34.8349389,5.06058788 36.7926323,5.48551667 C39.5075656,6.07620347 41.7240323,6.72293793 41.7240323,9.56705907 C41.7240323,12.2450247 39.5632157,13.7408218 36.5895092,13.7408218 C33.0064333,13.7408218 30.9752021,12.1524069 30.8825844,9.36393596" id="Fill-5"></path>
                        <path d="M42.032056,3.97091782 L44.5255811,3.97091782 L45.6703845,8.36648618 C45.8735077,9.14201103 46.0953133,10.1393416 46.0953133,10.1393416 L46.1322809,10.1393416 C46.1322809,10.1393416 46.3354041,9.12372598 46.5385272,8.34820112 L47.7206958,3.97091782 L49.8628298,3.97091782 L51.100251,8.34820112 C51.3033742,9.14201103 51.5434649,10.1393416 51.5434649,10.1393416 L51.5804325,10.1393416 C51.5804325,10.1393416 51.8022382,9.14201103 52.0053613,8.36648618 L53.2058149,3.97091782 L55.6436899,3.97091782 L52.8178538,13.4453591 L50.5278493,13.4453591 L49.272143,8.79141497 C49.0686224,8.03417517 48.8472142,7.14774747 48.8472142,7.14774747 L48.8102466,7.14774747 C48.8102466,7.14774747 48.5701559,8.03417517 48.3670327,8.79141497 L47.0743588,13.4453591 L44.8026394,13.4453591 L42.032056,3.97091782 Z" id="Fill-7"></path>
                        <path d="M61.5719036,10.102533 L61.5719036,8.68027363 C61.1286898,8.93904692 60.4453852,9.08691737 59.8173333,9.23439031 C58.5059768,9.53013121 57.8596398,9.82587211 57.8596398,10.7122998 C57.8596398,11.5987275 58.4507241,11.912356 59.3371518,11.912356 C60.7776962,11.912356 61.5719036,11.0259283 61.5719036,10.102533 M61.5532211,12.3925374 L61.5162535,12.3925374 C61.0364695,13.1128096 60.3527674,13.6669263 58.7277825,13.6669263 C56.7883741,13.6669263 55.4217649,12.6513107 55.4217649,10.7675525 C55.4217649,8.68027363 57.1210826,8.01565161 59.226249,7.72030821 C60.7963788,7.49850254 61.5162535,7.36931465 61.5162535,6.64904246 C61.5162535,5.96573788 60.9808193,5.52252403 59.9282361,5.52252403 C58.7460675,5.52252403 58.1736658,5.94705532 58.0997306,6.85216557 L55.8649788,6.85216557 C55.938914,5.18981552 57.1763353,3.73098609 59.9465212,3.73098609 C62.7910398,3.73098609 63.9358433,5.00537496 63.9358433,7.2214442 L63.9358433,12.0419413 C63.9358433,12.7622135 64.0467461,13.1867448 64.2685518,13.3529003 L64.2685518,13.4455181 L61.848962,13.4455181 C61.7010915,13.2606801 61.6088712,12.8174662 61.5532211,12.3925374" id="Fill-9"></path>
                        <path d="M72.141262,8.79133547 C72.141262,6.99979752 71.5132101,5.74409121 69.9621604,5.74409121 C68.3920306,5.74409121 67.7639787,7.0924153 67.7639787,8.79133547 C67.7639787,10.5089382 68.5581861,11.6354566 70.0543806,11.6354566 C71.3287695,11.6354566 72.141262,10.5828734 72.141262,8.79133547 L72.141262,8.79133547 Z M65.3078187,3.97083832 L67.7274086,3.97083832 L67.7274086,5.15300691 L67.7826612,5.15300691 C68.3920306,4.32183188 69.2784583,3.71246253 70.5715297,3.71246253 C73.0833399,3.71246253 74.6900397,5.76237626 74.6900397,8.71740024 C74.6900397,11.7833271 73.0276897,13.722338 70.5898148,13.722338 C69.2601732,13.722338 68.3920306,13.1869038 67.8565965,12.3744114 L67.8196289,12.3744114 L67.8196289,16.548174 L65.3078187,16.548174 L65.3078187,3.97083832 Z" id="Fill-11"></path>
                        <path d="M2.67796564,11.2290911 L5.76217751,11.2290911 C7.05524894,11.2290911 7.8307738,10.5088189 7.8307738,9.43755318 C7.8307738,8.18184687 6.90737849,7.5355099 5.68824229,7.5355099 L2.67796564,7.5355099 L2.67796564,11.2290911 Z M5.57773695,5.55913389 C6.74122299,5.55913389 7.5354304,5.00501721 7.5354304,3.97111657 C7.5354304,2.99207109 6.81515821,2.41966935 5.63298962,2.41966935 L2.67796564,2.41966935 L2.67796564,5.55913389 L5.57773695,5.55913389 Z M0,0.24017023 L5.91004796,0.24017023 C7.33190978,0.24017023 8.42185809,0.591163797 9.10516267,1.20053315 C9.82543486,1.84687011 10.1577459,2.64107753 10.1577459,3.67537567 C10.1577459,5.02369977 9.32696835,5.89184241 8.08954708,6.3163737 L8.08954708,6.37202386 C9.54837652,6.79655516 10.545707,8.01569136 10.545707,9.6406763 C10.545707,10.8780976 10.1577459,11.7279551 9.38222101,12.3925772 C8.62498121,13.0575967 7.46149518,13.4455579 6.05791841,13.4455579 L0,13.4455579 L0,0.24017023 Z" id="Fill-13"></path>
                        <path d="M17.3364189,10.102533 L17.3364189,8.68027363 C16.8932051,8.93904692 16.2099005,9.08691737 15.5818486,9.23439031 C14.2704921,9.53013121 13.6241552,9.82587211 13.6241552,10.7122998 C13.6241552,11.5987275 14.2152395,11.912356 15.1016671,11.912356 C16.5422115,11.912356 17.3364189,11.0259283 17.3364189,10.102533 M17.3177364,12.3925374 L17.2807688,12.3925374 C16.8009848,13.1128096 16.1172827,13.6669263 14.4922978,13.6669263 C12.5528894,13.6669263 11.1862802,12.6513107 11.1862802,10.7675525 C11.1862802,8.68027363 12.8855979,8.01565161 14.9907643,7.72030821 C16.5608941,7.49850254 17.2807688,7.36931465 17.2807688,6.64904246 C17.2807688,5.96573788 16.7453346,5.52252403 15.6927514,5.52252403 C14.5105828,5.52252403 13.9381811,5.94705532 13.8642459,6.85216557 L11.6294941,6.85216557 C11.7034293,5.18981552 12.9408506,3.73098609 15.7110365,3.73098609 C18.5555551,3.73098609 19.7003586,5.00537496 19.7003586,7.2214442 L19.7003586,12.0419413 C19.7003586,12.7622135 19.8112615,13.1867448 20.0330671,13.3529003 L20.0330671,13.4455181 L17.6134773,13.4455181 C17.4656068,13.2606801 17.3733865,12.8174662 17.3177364,12.3925374" id="Fill-15"></path>
                        <path d="M27.3128645,8.2927497 C27.3128645,6.90745799 26.5739098,5.7252894 25.0598277,5.7252894 C23.7854388,5.7252894 22.9355812,6.72301743 22.9355812,8.31103476 C22.9355812,9.91773464 23.7854388,10.8598125 25.0781127,10.8598125 C26.6665275,10.8598125 27.3128645,9.69632647 27.3128645,8.2927497 M20.6825444,13.7226162 L23.1756719,13.7226162 C23.378795,14.313303 23.9146267,14.7751994 25.0781127,14.7751994 C26.500372,14.7751994 27.1836766,14.0918948 27.1836766,12.7992209 L27.1836766,11.7649228 L27.1280264,11.7649228 C26.5739098,12.3925772 25.8540351,12.8727586 24.6535814,12.8727586 C22.5480175,12.8727586 20.4794212,11.2104086 20.4794212,8.34800237 C20.4794212,5.52216628 22.1783414,3.71234328 24.5792487,3.71234328 C25.7614173,3.71234328 26.6295599,4.17423969 27.2019617,4.9684471 L27.2389293,4.9684471 L27.2389293,3.97111657 L29.6585191,3.97111657 L29.6585191,12.7252857 C29.6585191,14.0549272 29.2335903,14.9600375 28.5320007,15.6063744 C27.7377933,16.3453292 26.5186571,16.6776402 25.1150803,16.6776402 C22.529335,16.6776402 20.9409201,15.5694068 20.6825444,13.7226162" id="Fill-17"></path>
                    </g>
                </g>
            </g>
        </g>
    </g>
</svg>