<?xml version="1.0" encoding="UTF-8"?>
<svg width="9.5491152px" height="1.86666667px" viewBox="0 0 9.5491152 1.86666667" version="1.1"
  xmlns="http://www.w3.org/2000/svg" xmlns:xlink="http://www.w3.org/1999/xlink">
  <g id="Framework" stroke="none" stroke-width="1" fill="none" fill-rule="evenodd">
    <g transform="translate(-629.3333, -1338.0667)" fill="var(--appSpaceBlack)" fill-rule="nonzero" id="Group-A">
      <g transform="translate(170, 208)">
        <g id="Components" transform="translate(0, 61)">
          <g id="8" transform="translate(14, 1056)">
            <g id="Regular" transform="translate(440, 4)">
              <path
                d="M6.42214711,9.06748317 C6.45498624,9.06736642 6.48782538,9.06724967 6.52165964,9.06712938 C6.61220193,9.06681867 6.70273828,9.06697061 6.79328059,9.06720319 C6.89116298,9.06737314 6.98904437,9.06711085 7.08692655,9.06690534 C7.27843746,9.06657316 7.46994616,9.06664417 7.66145714,9.06686138 C7.81714962,9.06703063 7.97284147,9.06705322 8.12853401,9.06697186 C8.16181579,9.06695466 8.16181579,9.06695466 8.19576993,9.06693711 C8.24084894,9.06691318 8.28592796,9.06688891 8.33100697,9.06686432 C8.7533735,9.06666667 9.17573882,9.06689601 9.59810515,9.06729841 C9.96024578,9.06763276 10.3223846,9.06757468 10.6845252,9.06722965 C11.1054157,9.06682884 11.5263052,9.06666667 11.9471959,9.06690128 C11.9921059,9.06692512 12.0370159,9.06694865 12.0819259,9.06697186 C12.1040205,9.0669834 12.1261152,9.06699495 12.1488793,9.06700684 C12.304323,9.06707137 12.4597661,9.06696259 12.6152097,9.06678629 C12.804732,9.06657605 12.9942521,9.0666339 13.1837742,9.06703182 C13.2804079,9.06722804 13.3770379,9.06730631 13.4736716,9.06705807 C13.5785554,9.06679273 13.6834294,9.06711029 13.7883128,9.06748317 C13.8186709,9.06731622 13.8490289,9.06714928 13.8803069,9.06697727 C14.1915827,9.06912206 14.3975695,9.13891221 14.6238255,9.35149335 C14.8088849,9.54235729 14.8785,9.73501325 14.8824485,9.99999999 C14.8779508,10.2800741 14.79952,10.4685125 14.604531,10.6695551 C14.3630085,10.8906842 14.1109102,10.9342701 13.7911449,10.9325168 C13.7583095,10.9326336 13.725474,10.9327503 13.6916436,10.9328706 C13.6009968,10.9331817 13.5103559,10.9330292 13.4197091,10.9327968 C13.3217587,10.932627 13.2238093,10.9328891 13.1258592,10.9330947 C12.9341698,10.933427 12.7424826,10.9333557 12.5507932,10.9331386 C12.3949691,10.9329694 12.2391456,10.9329467 12.0833214,10.9330281 C12.061123,10.9330396 12.0389245,10.9330511 12.0160534,10.9330629 C11.9709543,10.9330868 11.9258551,10.9331111 11.8807559,10.9331357 C11.4581048,10.9333333 11.0354548,10.9331039 10.6128038,10.9327016 C10.250343,10.9323672 9.88788393,10.9324253 9.52542313,10.9327703 C9.10425894,10.9331711 8.68309581,10.9333333 8.26193145,10.9330987 C8.21700049,10.9330749 8.17206952,10.9330513 8.12713855,10.9330281 C8.10503307,10.9330166 8.08292758,10.933005 8.06015224,10.9329931 C7.90455963,10.9329286 7.7489677,10.9330375 7.59337519,10.9332137 C7.40369631,10.9334238 7.21401974,10.9333663 7.02434112,10.9329682 C6.92760956,10.9327718 6.83088186,10.9326939 6.73415033,10.9329419 C6.6292019,10.9332069 6.52426317,10.93289 6.41931507,10.9325168 C6.38886733,10.9326838 6.35841959,10.9328507 6.32704919,10.9330227 C6.02625439,10.9309476 5.79561937,10.8484611 5.57279708,10.6439266 C5.36855114,10.4308004 5.3280212,10.1859593 5.3338582,9.9030407 C5.34648174,9.63305781 5.47235791,9.45814924 5.6647866,9.27655697 C5.88086211,9.07982447 6.14162047,9.0659405 6.42214711,9.06748317 Z"
                id="Minus"></path>
            </g>
          </g>
        </g>
      </g>
    </g>
  </g>
</svg>