<?xml version="1.0" encoding="UTF-8"?>
<svg width="100%" height="100%" viewBox="0 0 10 10" version="1.1" xmlns="http://www.w3.org/2000/svg"
  xmlns:xlink="http://www.w3.org/1999/xlink">
  <title>Path 3</title>
  <g id="Framework" stroke="none" stroke-width="1" fill="none" fill-rule="evenodd">
    <g transform="translate(-613, -2092)" fill="var(--appSpaceBlack)" fill-rule="nonzero" id="Group-A">
      <g transform="translate(170, 208)">
        <g id="Components" transform="translate(0, 61)">
          <g id="Settings" transform="translate(0, 1803)">
            <g id="1" transform="translate(14, 15)">
              <g id="Regular" transform="translate(423, 0)">
                <path
                  d="M12.1882946,6.68845326 C12.2394848,6.71279308 12.2726302,6.74651884 12.3127901,6.78648837 L12.3393905,6.81275594 L12.4865387,6.95923908 C12.5424648,7.01473167 12.5982011,7.07041125 12.6538924,7.12613943 C12.7003609,7.17261034 12.7469138,7.21899636 12.7934648,7.26538473 L12.9580028,7.42958291 L13.1223508,7.59397124 C13.2354582,7.70720832 13.3488507,7.82015423 13.4623836,7.9329646 C13.5597711,8.02975471 13.6569703,8.12673123 13.7540216,8.22385854 L13.9283603,8.39765342 C13.9831002,8.45196096 14.0376022,8.50649633 14.0919272,8.56121887 L14.1220105,8.59127558 L14.1522227,8.6212028 C14.1796852,8.64831339 14.2068218,8.67575294 14.2339383,8.70320968 C14.2492392,8.71849673 14.2645402,8.73378378 14.2803048,8.74953408 C14.3102686,8.79165669 14.3102686,8.79165669 14.3078482,8.82733407 C14.292022,8.86654682 14.2707748,8.89458853 14.245128,8.92225895 L14.2034857,8.96483608 C14.1942854,8.97417984 14.185085,8.9835236 14.1756059,8.9931505 C14.1445606,9.02460662 14.1133099,9.05585038 14.0820564,9.08709955 L14.0147196,9.1551297 C13.9528869,9.21758683 13.8908702,9.27985833 13.8288208,9.3421001 C13.7619799,9.4092092 13.6953055,9.47648344 13.6286058,9.54373281 C13.4673729,9.7062151 13.3058539,9.86841148 13.1442946,10.0305692 C13.0834436,10.0916534 13.02261,10.1527549 12.9617769,10.213857 C12.6935674,10.483249 12.4252705,10.7525537 12.1567336,11.0216193 C12.0909896,11.0874949 12.0252462,11.153371 11.959504,11.2192482 C11.9431641,11.2356215 11.9268243,11.2519947 11.9099893,11.2688641 C11.6455359,11.5338874 11.3816195,11.7994387 11.1179233,12.0652151 C10.8470947,12.3381624 10.575789,12.610628 10.3040122,12.8826311 C10.1514687,13.0353254 9.99914028,13.1882216 9.8473439,13.341659 L9.65299866,13.5374127 L9.45790535,13.7324208 C9.39147315,13.7985755 9.32525899,13.8649142 9.2595903,13.9318275 L9.1687716,14.0234835 L9.07716401,14.1143513 C9.05522273,14.1361462 9.0334886,14.1581524 9.01200411,14.1803978 C8.85250189,14.345189 8.7043159,14.4106746 8.48025497,14.4571499 C8.42662056,14.4684829 8.37385364,14.4827095 8.32094681,14.4970159 C8.2846126,14.5062841 8.24826794,14.5155113 8.21191326,14.5246988 C8.18154622,14.5324219 8.18154622,14.5324219 8.1505657,14.540301 C8.08515579,14.5569151 8.01972885,14.5734604 7.95429567,14.5899826 C7.93165411,14.595701 7.90901254,14.6014193 7.88568486,14.607311 L7.5273067,14.6975735 C7.42900506,14.7223016 7.33074184,14.7471747 7.23250852,14.7721727 L7.05312467,14.8176315 L6.87366023,14.8627711 C6.82837641,14.8741662 6.78311407,14.885647 6.73787479,14.8972177 C6.67465233,14.9133683 6.61135699,14.9291962 6.54803523,14.9449523 C6.52966795,14.9497216 6.51130067,14.9544909 6.4923768,14.9594047 C6.35278783,14.9936018 6.18916799,15.0323337 6.06056532,14.9551721 C5.9937112,14.8794041 5.99954842,14.8196296 6.00057462,14.7216767 C6.00728791,14.616971 6.03226895,14.5179673 6.0578283,14.4164747 C6.06350422,14.3931133 6.06918015,14.369752 6.07502807,14.3456827 C6.09051302,14.2822298 6.10622077,14.2188416 6.12206459,14.155478 C6.13532498,14.1023479 6.14844257,14.0491829 6.16156663,13.996019 C6.19255379,13.8705326 6.22381809,13.7451176 6.25524578,13.6197409 C6.28755273,13.4908309 6.31932985,13.3617983 6.35085978,13.2326963 C6.37806759,13.1213872 6.405632,13.0101703 6.43347353,12.8990179 C6.45004609,12.8328327 6.46647924,12.7666207 6.4825566,12.7003133 C6.50050248,12.6263679 6.51918958,12.5526207 6.53794397,12.4788759 C6.54310496,12.4571669 6.54826596,12.435458 6.55358335,12.4130911 L6.56956277,12.351737 C6.57605974,12.3256278 6.57605974,12.3256278 6.58268797,12.2989911 C6.66259947,12.1273332 6.83384665,11.9952675 6.96631901,11.8627445 L7.03333596,11.7954686 L7.12498544,11.7035495 L7.41472842,11.4130921 C7.57384834,11.2534957 7.73306334,11.0939943 7.89229559,10.9345099 C7.93725717,10.8894759 7.98221624,10.8444394 8.02717442,10.7994019 C8.30641692,10.5196678 8.58569031,10.2399645 8.86505727,9.96035457 L8.96194737,9.86337828 L9.10748459,9.71770955 C9.3681254,9.45682148 9.62856489,9.19573338 9.88892356,8.93456378 L10.2899965,8.53252521 L10.6913411,8.13075777 C10.8416282,7.98040403 10.9918323,7.82996938 11.1418321,7.67932896 L11.5251419,7.29547706 C11.5904699,7.23025057 11.6557148,7.16494606 11.7207518,7.09942915 L12.101934,6.71800012 C12.1460924,6.68597171 12.1460924,6.68597171 12.1882946,6.68845326 Z M14.9536724,5.20419339 C15.0571841,5.28864573 15.1511413,5.38341148 15.2461286,5.47715255 L15.3289579,5.55775325 C15.3687806,5.59657239 15.4084252,5.6355698 15.4480229,5.67461824 C15.4674329,5.69373629 15.4868825,5.71281411 15.5063761,5.73184689 C15.6727099,5.89462663 15.8520649,6.07114296 15.9285265,6.29603005 C15.9357648,6.31653854 15.9430031,6.33704703 15.9504607,6.358177 C16.0366927,6.63535102 16.0124353,6.951181 15.8814013,7.2080649 C15.7978969,7.35839556 15.6997377,7.47423461 15.5771982,7.59410928 L15.5494223,7.62178871 L15.521674,7.6494958 C15.4833315,7.68771941 15.4448359,7.72577847 15.4062037,7.76370915 C15.3566413,7.81237849 15.3073916,7.86135029 15.258238,7.9104321 C15.2111342,7.95742924 15.1638579,8.00425045 15.1165796,8.05107217 L15.089949,8.07754554 L15.0629159,8.10441902 C15.0465745,8.12044874 15.0411274,8.12579198 15.0319021,8.13484131 L15.0133965,8.15299393 C14.9990011,8.16718188 14.9846057,8.18136983 14.9697741,8.19598771 C14.9341753,8.22624128 14.9341753,8.22624128 14.8951811,8.22624128 C14.8669401,8.19763439 14.8669401,8.19763439 14.8341432,8.15805385 C14.761309,8.07245599 14.6840351,7.99277489 14.6044766,7.91345018 L14.4716098,7.78063106 C14.4260195,7.7351455 14.3805346,7.68955636 14.3350589,7.64395632 L14.2912523,7.60017831 L14.2066234,7.51547745 C14.1334962,7.44270071 14.0587102,7.37512311 13.9788182,7.30987837 C13.956186,7.28532001 13.9341518,7.26018424 13.9130155,7.23432717 C13.8665882,7.17971883 13.8190783,7.13193771 13.7643503,7.08566191 C13.6962126,7.02793602 13.6386345,6.9654393 13.5808797,6.89746936 L13.5181268,6.82930389 L13.452397,6.76396004 C13.4034416,6.71500466 13.3545166,6.66606986 13.3061688,6.61651335 C13.2594946,6.56909523 13.2594946,6.56909523 13.2111206,6.53365075 C13.1525972,6.48488124 13.1058523,6.43073091 13.0563625,6.37302829 C12.9838217,6.28923698 12.9039441,6.21769847 12.8178278,6.14843103 C12.7894961,6.1205563 12.7894961,6.1205563 12.769999,6.06206505 C12.8749712,5.95481681 12.9802189,5.84784551 13.0858082,5.74120494 C13.1348495,5.69165868 13.1837975,5.64202761 13.2325312,5.59217868 C13.2797182,5.5439189 13.3271515,5.49591343 13.3747527,5.44806226 L13.4540427,5.3669766 C13.8496603,4.97118532 14.4795456,4.86300551 14.9536724,5.20419339 Z"
                  id="Path-3"></path>
              </g>
            </g>
          </g>
        </g>
      </g>
    </g>
  </g>
</svg>