<?xml version="1.0" encoding="utf-8" ?>
<svg xmlns="http://www.w3.org/2000/svg" xmlns:xlink="http://www.w3.org/1999/xlink" width="100%" height="100%">
  <path fill="var(--appWhite)"
    d="M4.4160156 7.9921875Q4.9550781 7.9921875 5.3447266 7.7138672Q5.734375 7.4355469 5.9423828 6.9228516Q6.1503906 6.4101562 6.1503906 5.7128906L6.1503906 5.7070312Q6.1503906 5.0039062 5.9423828 4.4941406Q5.734375 3.984375 5.3447266 3.7089844Q4.9550781 3.4335938 4.4160156 3.4335938Q3.8769531 3.4335938 3.4902344 3.7089844Q3.1035156 3.984375 2.8955078 4.4941406Q2.6875 5.0039062 2.6875 5.7070312L2.6875 5.7128906Q2.6875 6.4101562 2.8955078 6.9228516Q3.1035156 7.4355469 3.4902344 7.7138672Q3.8769531 7.9921875 4.4160156 7.9921875ZM4.4160156 7.2949219Q3.9824219 7.2949219 3.7421875 6.8759766Q3.5019531 6.4570312 3.5019531 5.7128906L3.5019531 5.7070312Q3.5019531 4.9628906 3.7421875 4.546875Q3.9824219 4.1308594 4.4160156 4.1308594Q4.8496094 4.1308594 5.0927734 4.546875Q5.3359375 4.9628906 5.3359375 5.7070312L5.3359375 5.7128906Q5.3359375 6.4570312 5.0927734 6.8759766Q4.8496094 7.2949219 4.4160156 7.2949219ZM5.0488281 12L10.802734 3.5449219L9.8535156 3.5449219L4.0996094 12L5.0488281 12ZM10.474609 12.111328Q11.013672 12.111328 11.40332 11.833008Q11.792969 11.554688 12.000977 11.044922Q12.208984 10.535156 12.208984 9.8320312L12.208984 9.8261719Q12.208984 9.1230469 12.000977 8.6132812Q11.792969 8.1035156 11.40332 7.828125Q11.013672 7.5527344 10.474609 7.5527344Q9.9355469 7.5527344 9.5488281 7.828125Q9.1621094 8.1035156 8.9541016 8.6132812Q8.7460938 9.1230469 8.7460938 9.8261719L8.7460938 9.8320312Q8.7460938 10.535156 8.9541016 11.044922Q9.1621094 11.554688 9.5488281 11.833008Q9.9355469 12.111328 10.474609 12.111328ZM10.474609 11.414062Q10.041016 11.414062 9.8007812 10.995117Q9.5605469 10.576172 9.5605469 9.8320312L9.5605469 9.8261719Q9.5605469 9.0820312 9.8007812 8.6660156Q10.041016 8.25 10.474609 8.25Q10.908203 8.25 11.151367 8.6660156Q11.394531 9.0820312 11.394531 9.8261719L11.394531 9.8320312Q11.394531 10.576172 11.151367 10.995117Q10.908203 11.414062 10.474609 11.414062Z" />
</svg>