<?xml version="1.0" encoding="UTF-8"?>
<svg width="100%" height="100%" viewBox="0 0 10.6666667 10.6738509" version="1.1" xmlns="http://www.w3.org/2000/svg"
  xmlns:xlink="http://www.w3.org/1999/xlink">
  <g id="Framework" stroke="none" stroke-width="1" fill="none" fill-rule="evenodd">
    <g transform="translate(-653.6667, -1333.6667)" fill="var(--appSpaceBlack)" fill-rule="nonzero" id="Group-A">
      <g transform="translate(170, 208)">
        <g id="Components" transform="translate(0, 61)">
          <g id="8" transform="translate(14, 1056)">
            <g id="Zoom" transform="translate(440, 4)">
              <g id="Regular" transform="translate(25, 0)">
                <path
                  d="M10.5321351,4.8195169 C10.7265824,4.96213303 10.8900832,5.16696785 10.9361938,5.40943274 C10.9380786,5.45907535 10.9387309,5.50876851 10.9386956,5.55844688 C10.9387222,5.58098177 10.9387222,5.58098177 10.9387494,5.60397192 C10.9387837,5.654315 10.9386692,5.70465663 10.9385556,5.75499957 C10.9385497,5.79108584 10.938553,5.82717212 10.9385648,5.8632584 C10.9385708,5.96125431 10.9384483,6.0592497 10.9383032,6.1572455 C10.9381732,6.25964613 10.9381609,6.36204677 10.9381362,6.46444747 C10.9380715,6.65837178 10.9379008,6.85229586 10.9376921,7.04622007 C10.9374596,7.26698994 10.9373452,7.48775982 10.9372407,7.70852978 C10.9370232,8.16268349 10.9366572,8.61683699 10.9361938,9.07099052 C10.9641258,9.07084669 10.9641258,9.07084669 10.9926222,9.07069996 C11.4465484,9.06839876 11.9004736,9.06667943 12.3544044,9.06560094 C12.5739258,9.06506547 12.7934433,9.06433594 13.0129622,9.06314319 C13.2043832,9.06210362 13.3958013,9.06143463 13.587225,9.06120329 C13.6885038,9.06106815 13.7897745,9.06075244 13.8910506,9.05999232 C13.9865587,9.05928136 14.0820554,9.05906944 14.1775659,9.05922489 C14.2124436,9.05919649 14.2473217,9.05899251 14.2821972,9.05859059 C14.605708,9.05504807 14.8499937,9.12623027 15.0902285,9.35355525 C15.2970461,9.57263268 15.3377527,9.82128123 15.3329724,10.1082802 C15.3216429,10.3649571 15.1927605,10.5666431 15.0099368,10.7392358 C14.8434782,10.8746726 14.6607801,10.9460309 14.4487374,10.9458798 C14.4337141,10.9458976 14.4186909,10.9459154 14.4032123,10.9459337 C14.3528693,10.945968 14.3025276,10.9458535 14.2521847,10.9457398 C14.2160984,10.945734 14.1800122,10.9457373 14.1439259,10.945749 C14.04593,10.945755 13.9479346,10.9456326 13.8499388,10.9454875 C13.7475381,10.9453575 13.6451375,10.9453452 13.5427368,10.9453205 C13.3488125,10.9452558 13.1548884,10.945085 12.9609642,10.9448763 C12.7401943,10.9446439 12.5194245,10.9445294 12.2986545,10.944425 C11.8445008,10.9442074 11.3903473,10.9438414 10.9361938,10.943378 C10.9362896,10.9619994 10.9363855,10.9806208 10.9364843,10.9998065 C10.9387855,11.4537327 10.9405048,11.9076579 10.9415833,12.3615887 C10.9421188,12.5811101 10.9428483,12.8006276 10.9440411,13.0201465 C10.9450807,13.2115675 10.9457496,13.4029856 10.945981,13.5944093 C10.9461161,13.6956881 10.9464318,13.7969587 10.947192,13.8982349 C10.9479029,13.993743 10.9481148,14.0892397 10.9479594,14.1847501 C10.9479878,14.2196279 10.9481918,14.254506 10.9485937,14.2893814 C10.9521362,14.6128923 10.880954,14.8571779 10.653629,15.0974127 C10.4345516,15.3042304 10.185903,15.344937 9.89890408,15.3401567 C9.64222722,15.3288272 9.44054115,15.1999448 9.2679485,15.0171211 C9.13251168,14.8506625 9.06115341,14.6679643 9.06130444,14.4559217 C9.06127777,14.4333868 9.06127777,14.4333868 9.06125057,14.4103966 C9.0612163,14.3600536 9.06133075,14.3097119 9.06144443,14.259369 C9.0614503,14.2232827 9.06144701,14.1871964 9.06143522,14.1511102 C9.06142925,14.0531142 9.06155168,13.9551188 9.06169682,13.857123 C9.06182676,13.7547224 9.06183908,13.6523218 9.06186378,13.5499211 C9.06192848,13.3559968 9.06209925,13.1620727 9.06230794,12.9681485 C9.06254038,12.7473786 9.06265484,12.5266087 9.0627593,12.3058388 C9.06297683,11.8516851 9.06334283,11.3975316 9.06380625,10.943378 C9.04518486,10.9434739 9.02656348,10.9435698 9.00737781,10.9436686 C8.55345161,10.9459698 8.09952642,10.9476891 7.6455956,10.9487676 C7.42607419,10.9493031 7.20655668,10.9500326 6.98703777,10.9512254 C6.79561681,10.9522649 6.60419868,10.9529339 6.41277497,10.9531653 C6.3114962,10.9533004 6.21022552,10.9536161 6.10894936,10.9543762 C6.0134413,10.9550872 5.9179446,10.9552991 5.82243414,10.9551437 C5.78755641,10.9551721 5.75267826,10.955376 5.71780284,10.955778 C5.39429196,10.9593205 5.15000634,10.8881383 4.90977154,10.6608133 C4.70295391,10.4417359 4.66224725,10.1930873 4.66702755,9.90608835 C4.67835706,9.6494115 4.8072395,9.44772542 4.99006316,9.27513277 C5.15652181,9.13969596 5.33921995,9.06833768 5.5512626,9.06848871 C5.56628587,9.06847093 5.58130913,9.06845316 5.59678765,9.06843484 C5.64713072,9.06840058 5.69747235,9.06851503 5.74781529,9.0686287 C5.78390157,9.06863457 5.81998785,9.06863128 5.85607412,9.0686195 C5.95407004,9.06861352 6.05206543,9.06873595 6.15006122,9.06888109 C6.25246185,9.06901103 6.35486249,9.06902336 6.45726319,9.06904805 C6.65118751,9.06911275 6.84511158,9.06928352 7.0390358,9.06949222 C7.25980566,9.06972465 7.48057554,9.06983912 7.7013455,9.06994357 C8.15549922,9.07016111 8.60965272,9.07052711 9.06380625,9.07099052 C9.06366242,9.04305845 9.06366242,9.04305845 9.06351568,9.01456208 C9.06121448,8.56063588 9.05949516,8.10671069 9.05841667,7.65277988 C9.0578812,7.43325846 9.05715166,7.21374095 9.05595892,6.99422205 C9.05491935,6.80280108 9.05425036,6.61138295 9.05401902,6.41995924 C9.05388388,6.31868048 9.05356816,6.2174098 9.05280805,6.11613363 C9.05209709,6.02062558 9.05188517,5.92512887 9.05204061,5.82961842 C9.05201221,5.79474069 9.05180824,5.75986254 9.05140631,5.72498711 C9.0478638,5.40147623 9.11904599,5.15719061 9.34637098,4.91695581 C9.66356556,4.61751178 10.1706578,4.58893818 10.5321351,4.8195169 Z"
                  id="Plus"></path>
              </g>
            </g>
          </g>
        </g>
      </g>
    </g>
  </g>
</svg>