<?xml version="1.0" encoding="UTF-8"?>
<svg width="100%" height="100%" viewBox="0 0 15 15" version="1.1" xmlns="http://www.w3.org/2000/svg"
  xmlns:xlink="http://www.w3.org/1999/xlink">
  <title>Refresh</title>
  <g id="Framework" stroke="none" stroke-width="1" fill="none" fill-rule="evenodd">
    <g transform="translate(-483, -2634)" fill="var(--appMediumGray)" fill-rule="nonzero" id="Group-A">
      <g transform="translate(170, 208)">
        <g id="Components" transform="translate(0, 61)">
          <g id="Icons" transform="translate(0, 2257)">
            <g id="Bar-1" transform="translate(176, 99)">
              <g id="Regular" transform="translate(128, 0)">
                <path
                  d="M20.1690603,9.00078896 C20.3535592,8.99412715 20.5242657,9.02903817 20.6816877,9.12898489 C20.6930967,9.1361872 20.7043105,9.14366822 20.7153288,9.15142796 C20.7263732,9.1591877 20.7372093,9.16721704 20.7478369,9.17551598 C20.7584906,9.18381231 20.7689229,9.19236783 20.7791338,9.20118252 C20.7893446,9.20999721 20.7993211,9.21905935 20.8090631,9.22836896 C20.8188311,9.23767857 20.8283647,9.24722521 20.8376639,9.25700889 C20.8469371,9.26678997 20.8559758,9.27679636 20.86478,9.28702807 C20.8735583,9.29725978 20.882089,9.30770248 20.8903723,9.31835617 C20.8986556,9.32900986 20.9066654,9.33986282 20.9144017,9.35091504 C20.922138,9.36196727 20.9295878,9.37320444 20.936751,9.38462655 C20.9439403,9.39604865 20.9508301,9.40764138 20.9574202,9.41940472 C20.9640365,9.43116806 20.9703401,9.44308769 20.9763312,9.45516361 C20.9823483,9.46723953 20.9880659,9.47945741 20.9934839,9.49181725 C20.9988759,9.50417709 21.0039683,9.51666327 21.0087611,9.52927578 C21.0135279,9.54188829 21.0179952,9.5546115 21.0221629,9.56744542 C21.0263046,9.58027934 21.0301336,9.59320833 21.0336501,9.6062324 C21.0371666,9.61925647 21.0403575,9.63235999 21.0432228,9.64554295 C21.0893671,9.85737685 21.1194527,10.0756694 21.1561806,10.2894452 L21.3580667,11.4665111 L21.4855593,12.2111493 C21.5177939,12.3995946 21.5622971,12.5930411 21.5596012,12.7849248 C21.5576085,12.9272257 21.5045484,13.0748406 21.4271464,13.1936201 C21.2855487,13.4109397 21.0748322,13.5223737 20.8256297,13.5727377 C20.5983076,13.6186867 20.3670391,13.652445 20.1383104,13.6914 L18.9305884,13.8981702 L18.2909372,14.0071426 C18.1280452,14.0350011 17.9592923,14.0743468 17.793548,14.0710647 C17.6376499,14.0680171 17.4844477,14.0151914 17.3553531,13.9284121 C17.343892,13.9208321 17.3326261,13.9129655 17.3215557,13.9048125 C17.3104852,13.8966333 17.2996231,13.8881937 17.2889695,13.8794937 C17.2783158,13.8707936 17.2678965,13.861833 17.2577117,13.852612 C17.2475008,13.8433649 17.2375504,13.8338834 17.2278605,13.8241674 C17.2181446,13.8144254 17.2086761,13.804449 17.199455,13.7942381 C17.190234,13.7840272 17.1812864,13.7735949 17.1726124,13.7629413 C17.1639123,13.7522615 17.1554988,13.7413864 17.1473718,13.730316 C17.1392447,13.7192195 17.1313912,13.7079276 17.1238112,13.6964404 C17.1162573,13.6849531 17.1089898,13.6732836 17.1020089,13.6614317 C17.095028,13.6495798 17.0883467,13.6375716 17.0819649,13.6254071 C17.0756091,13.6132165 17.0695529,13.6008697 17.0637963,13.5883666 C17.0580397,13.5758896 17.0526086,13.5632562 17.0475032,13.5504666 C17.0423978,13.537703 17.0376049,13.5248222 17.0331246,13.5118242 C17.0286704,13.4988261 17.0245418,13.4857109 17.0207387,13.4724784 C17.0169357,13.459272 17.0134713,13.4459745 17.0103455,13.4325857 C17.0072197,13.419197 17.0044326,13.4057301 17.0019841,13.3921851 C16.9994574,13.3785098 16.9972824,13.3647954 16.995459,13.351042 C16.9936096,13.3372625 16.9921118,13.323444 16.9909657,13.3095864 C16.9897935,13.2957548 16.988973,13.2818972 16.9885042,13.2680136 C16.9880092,13.2541299 16.987866,13.2402332 16.9880744,13.2263235 C16.9882827,13.2124399 16.9888298,13.1985692 16.9897154,13.1847116 C16.990601,13.170854 16.9918253,13.1570224 16.9933882,13.1432169 C16.9949511,13.1294114 16.9968526,13.115645 16.9990927,13.1019176 C17.0013329,13.0882163 17.0039116,13.074567 17.006829,13.0609699 C17.0097464,13.0473988 17.0129894,13.0338929 17.016558,13.020452 C17.0201526,13.0070372 17.0240599,12.9937136 17.0282797,12.9804812 C17.0325255,12.9672487 17.0370839,12.9541204 17.0419549,12.9410964 C17.0468259,12.9280984 17.0520225,12.9152176 17.0575448,12.902454 C17.0630409,12.8897164 17.0688627,12.8771091 17.07501,12.8646321 C17.0811313,12.852155 17.0875652,12.8398473 17.0943117,12.8277088 C17.1010321,12.8155443 17.1080651,12.8035622 17.1154107,12.7917624 C17.1227302,12.7799626 17.1303363,12.7683451 17.1382289,12.75691 C17.1581036,12.7281007 17.1797626,12.7006981 17.203206,12.674702 C17.2266493,12.648706 17.2516685,12.6243249 17.2782637,12.6015589 C17.3048588,12.5788188 17.3328215,12.5578892 17.3621517,12.5387698 C17.3914819,12.5196505 17.4219192,12.5025108 17.4534635,12.4873508 C17.6293666,12.4040879 17.8361758,12.3876776 18.0260276,12.354896 L18.764258,12.2306464 C18.6328972,12.1545598 18.498593,12.0840995 18.3613454,12.0192657 C18.2240717,11.9544579 18.0843364,11.895498 17.9421396,11.8423858 C17.7999168,11.7892997 17.6557273,11.7422568 17.5095712,11.701257 C17.363415,11.6602572 17.2158002,11.6254439 17.0667267,11.596817 C17.023044,11.5888983 16.9792701,11.5815267 16.935405,11.5747021 C16.89154,11.5678514 16.8475967,11.5615348 16.8035754,11.5557521 C16.7595801,11.5499694 16.7155066,11.5447337 16.671355,11.540045 C16.6272034,11.5353303 16.5830128,11.5311496 16.538783,11.5275029 C16.4945272,11.5238822 16.4502454,11.5207824 16.4059375,11.5182037 C16.3616036,11.515651 16.3172566,11.5136322 16.2728966,11.5121475 C16.2285106,11.5106627 16.1841246,11.509712 16.1397385,11.5092952 C16.0953525,11.5088784 16.0509665,11.5090087 16.0065804,11.5096859 C15.9621944,11.5103371 15.9178214,11.5115354 15.8734614,11.5132806 C15.8291014,11.5150258 15.7847675,11.517318 15.7404596,11.5201573 C15.6961517,11.5229705 15.6518829,11.5263177 15.6076532,11.5301989 C15.5634495,11.5341061 15.5192848,11.5385343 15.4751593,11.5434834 C15.4310598,11.5484586 15.3870124,11.5539548 15.3430171,11.5599719 C15.2990478,11.566015 15.2551437,11.5725792 15.2113047,11.5796643 C15.1674917,11.5867754 15.1237699,11.5944075 15.0801392,11.6025606 C15.0364826,11.6107137 14.9929431,11.6194007 14.9495208,11.6286217 C14.9060986,11.6378167 14.8627936,11.6475587 14.8196057,11.6578478 C14.7764179,11.6681107 14.7333604,11.6788947 14.690433,11.6901996 C14.6475057,11.7015044 14.6047216,11.7133303 14.5620808,11.7256771 C14.5194139,11.7380239 14.4769164,11.7508787 14.4345882,11.7642414 C14.39226,11.7776301 14.350101,11.7915268 14.3081114,11.8059314 C14.2661218,11.8203361 14.2243146,11.8352356 14.1826896,11.8506301 C14.1410647,11.8660505 14.0996221,11.881979 14.0583619,11.8984154 C14.0171277,11.9148257 13.9760888,11.9317309 13.9352453,11.9491311 C13.8944018,11.9665573 13.8537798,11.9844654 13.8133791,12.0028554 C13.7729784,12.0212714 13.7328122,12.0401693 13.6928804,12.0595492 C13.6529226,12.0789029 13.6132252,12.0987516 13.5737883,12.1190952 C13.5343254,12.1394388 13.4951099,12.1602513 13.4561419,12.1815326 C13.4171999,12.20284 13.3785054,12.2246032 13.3400583,12.2468223 C13.3016373,12.2690413 13.2634898,12.2917293 13.2256158,12.3148861 C13.1877418,12.3380429 13.1501544,12.3616555 13.1128534,12.385724 C13.0755265,12.4097925 13.038512,12.4343038 13.0018102,12.4592579 C12.9656033,12.4841859 12.929722,12.5095568 12.8941663,12.5353705 C12.8585845,12.5611842 12.8233284,12.5874278 12.7883978,12.614101 C12.7534672,12.6407743 12.7188623,12.6678774 12.6845829,12.6954103 C12.6503036,12.7229172 12.6163759,12.7508538 12.5827998,12.7792202 C12.5492238,12.8075606 12.5159863,12.8363177 12.4830875,12.8654917 C12.4502148,12.8946395 12.4176937,12.9241911 12.3855242,12.9541465 C12.3533808,12.9841019 12.3215891,13.0144479 12.290149,13.0451847 C12.2587349,13.0759216 12.2276986,13.1070491 12.1970399,13.1385673 C12.1663812,13.1700595 12.1361133,13.2019164 12.1062361,13.234138 C12.0763589,13.2663856 12.0468854,13.2989848 12.0178157,13.3319357 C11.9887459,13.3648866 11.9600669,13.3982022 11.9317787,13.4318824 C11.9035164,13.4655366 11.875671,13.4995294 11.8482423,13.5338609 C11.8208136,13.5681923 11.7938017,13.6028624 11.7672065,13.6378711 C11.7406374,13.6728798 11.7144851,13.7082011 11.6887495,13.7438349 C11.66304,13.7794688 11.6377603,13.8154152 11.6129103,13.8516742 C11.5880865,13.8879333 11.5636924,13.9244918 11.5397281,13.9613499 C11.5157898,13.9982081 11.4922944,14.0353527 11.4692418,14.0727839 C11.4462153,14.1102151 11.4236446,14.1479197 11.4015297,14.1858979 C11.3794148,14.2239022 11.3577688,14.2621539 11.3365917,14.300653 C11.3153885,14.3391782 11.2946802,14.3779509 11.2744669,14.416971 C11.2542274,14.4559911 11.2344699,14.4952457 11.2151943,14.5347346 C11.1959187,14.5742497 11.177138,14.6139861 11.1588522,14.653944 C11.1405403,14.6939018 11.1227234,14.7340811 11.1054014,14.7744817 C11.0881054,14.8148824 11.0712914,14.8554784 11.0549592,14.8962698 C11.038627,14.9370872 11.0228027,14.9781 11.0074864,15.0193082 C10.9921701,15.0604903 10.9773487,15.1018547 10.9630223,15.1434015 C10.9487218,15.1849744 10.9349293,15.2267035 10.9216448,15.2685889 C10.9083602,15.3105004 10.8955836,15.3525551 10.883315,15.3947531 C10.8710723,15.4369771 10.8593376,15.4793314 10.8481109,15.5218159 C10.8368841,15.5643004 10.8261784,15.6069282 10.8159935,15.6496992 C10.8058087,15.6924442 10.7961579,15.7353195 10.787041,15.778325 C10.7778981,15.8213044 10.7692892,15.864401 10.7612143,15.9076149 C10.752931,15.9512976 10.7451947,15.9950846 10.7380054,16.0389757 C10.7307901,16.0828668 10.7241217,16.126823 10.7180004,16.1708444 C10.7118791,16.2148918 10.7063048,16.2590043 10.7012775,16.303182 C10.6962242,16.3473857 10.6917309,16.3916284 10.6877976,16.4359103 C10.6838383,16.4801921 10.680426,16.524526 10.6775607,16.5689121 C10.6747214,16.6132981 10.6724162,16.6577102 10.6706449,16.7021483 C10.6688736,16.7465604 10.6676494,16.7909985 10.6669721,16.8354627 C10.6662949,16.8799269 10.6661646,16.924391 10.6665814,16.9688552 C10.6670242,17.0133194 10.668001,17.0577836 10.6695118,17.1022477 C10.6710226,17.1466859 10.6730804,17.191098 10.6756852,17.235484 C10.67829,17.27987 10.6814419,17.324217 10.6851407,17.3685249 C10.6888395,17.4128588 10.6930854,17.4571276 10.6978782,17.5013313 C10.702645,17.545535 10.7079719,17.5896736 10.7138588,17.633747 C10.7197196,17.6778465 10.7261274,17.7218549 10.7330823,17.765772 C10.7400372,17.8096892 10.747526,17.8535152 10.7555488,17.89725 C10.7635977,17.9409848 10.7721675,17.9846155 10.7812583,18.0281419 C10.7903752,18.0716684 10.800013,18.1150776 10.8101718,18.1583696 C10.8203566,18.2016616 10.8310624,18.2448234 10.8422891,18.2878549 C10.8535419,18.3308604 10.8653027,18.3737356 10.8775713,18.4164806 C10.8898661,18.4592256 10.9026817,18.5018013 10.9160184,18.5442077 C10.929355,18.5866401 10.9432127,18.6288902 10.9575912,18.6709579 C10.9719698,18.7130517 10.9868563,18.7549502 11.0022508,18.7966532 C11.0176713,18.8383824 11.0335867,18.8799031 11.049997,18.9212154 C11.0664334,18.9625278 11.0833647,19.0036448 11.1007909,19.0445664 C11.1182431,19.085462 11.1361903,19.1261492 11.1546324,19.166628 C11.1730745,19.2070808 11.1919984,19.2473121 11.2114043,19.2873221 C11.2308362,19.3273059 11.250763,19.3670554 11.2711848,19.4065704 C11.2915805,19.4460855 11.3124711,19.48534 11.3338566,19.5243341 C11.3552161,19.5633282 11.3770575,19.6020617 11.3993807,19.6405348 C11.421704,19.6789819 11.4444961,19.7171554 11.4677571,19.7550555 C11.4910181,19.7929555 11.5147479,19.830556 11.5389466,19.867857 C11.5631193,19.9051839 11.5877609,19.9421984 11.6128713,19.9789002 C11.6379035,20.0154718 11.6633916,20.0517178 11.6893356,20.0876381 C11.7152795,20.1235846 11.7416533,20.1591924 11.7684568,20.1944616 C11.7952603,20.2297568 11.8224937,20.2647134 11.8501568,20.2993314 C11.8778199,20.3339233 11.9059128,20.3681896 11.9344356,20.4021304 C11.9629583,20.436045 11.9918847,20.4696081 12.0212149,20.5028195 C12.0505451,20.5360308 12.0802921,20.5688775 12.1104559,20.6013596 C12.1405936,20.6338416 12.171135,20.6659459 12.2020802,20.6976726 C12.2329993,20.7293992 12.2643222,20.7607351 12.2960489,20.7916803 C12.3277495,20.8226515 12.3598277,20.853219 12.3922837,20.8833828 C12.4247397,20.9135465 12.4575734,20.9433065 12.4907848,20.9726628 C12.5239701,21.002019 12.5575201,21.0309716 12.5914348,21.0595203 C12.6253234,21.088043 12.6595637,21.116149 12.6941556,21.1438381 C12.7287736,21.1715273 12.7637172,21.1987867 12.7989864,21.2256163 C12.8342556,21.2524459 12.8698503,21.2788457 12.9057707,21.3048157 C12.9416651,21.3307596 12.977885,21.3562607 13.0144305,21.381319 C13.0509761,21.4063774 13.0878342,21.4309928 13.1250049,21.4551655 C13.1621495,21.4793121 13.1995937,21.5030029 13.2373375,21.5262379 C13.2750552,21.5494728 13.3130594,21.5722389 13.3513502,21.5945361 C13.389641,21.6168333 13.4282052,21.6386616 13.467043,21.6600211 C13.5058808,21.6813545 13.544966,21.7022191 13.5842987,21.7226148 C13.6236575,21.7430105 13.6632506,21.7629113 13.7030783,21.7823171 C13.7429059,21.8017491 13.7829809,21.820673 13.8233034,21.8390891 C13.8635999,21.8575051 13.9041178,21.8754392 13.9448571,21.8928915 C13.9855964,21.9103177 14.0265441,21.927236 14.0677001,21.9436463 C14.1088562,21.9600827 14.1502076,21.9759981 14.1917544,21.9913925 C14.2333012,22.006813 14.2750433,22.0217126 14.3169808,22.0360911 C14.3588923,22.0504697 14.4009731,22.0643273 14.4432231,22.077664 C14.4854732,22.0910006 14.5278926,22.1038163 14.5704813,22.116111 C14.613044,22.1284058 14.6557629,22.1401795 14.6986382,22.1514323 C14.7414874,22.1626851 14.7844798,22.1734039 14.8276155,22.1835887 C14.8707513,22.1937736 14.9139912,22.2034244 14.9573353,22.2125413 C15.0007054,22.2216841 15.0441798,22.23028 15.0877583,22.2383289 C15.131415,22.246482 15.1751629,22.2541011 15.2190019,22.2611862 C15.262867,22.2682452 15.3067971,22.2747703 15.3507924,22.2807613 C15.3948138,22.2867785 15.4389003,22.2922355 15.4830519,22.2971326 C15.5271774,22.3020296 15.5713681,22.3063927 15.6156239,22.3102218 C15.6598797,22.3140509 15.7041745,22.3173199 15.7485085,22.3200289 C15.7928424,22.322764 15.8372024,22.324952 15.8815884,22.326593 C15.9259745,22.3282341 15.9703735,22.3293281 16.0147856,22.3298751 C16.0591977,22.3304221 16.1036098,22.3304091 16.1480218,22.329836 C16.1924339,22.329289 16.236833,22.328195 16.281219,22.326554 C16.325605,22.3249129 16.369952,22.3227249 16.4142599,22.3199898 C16.4585938,22.3172548 16.5028887,22.3139727 16.5471445,22.3101436 C16.5914003,22.3063146 16.635604,22.3019385 16.6797556,22.2970154 C16.7238811,22.2920923 16.7679546,22.2866352 16.8119759,22.2806441 C16.8559712,22.274627 16.8999014,22.2680759 16.9437665,22.2609908 C16.9876055,22.2539057 17.0313534,22.2462866 17.07501,22.2381335 C17.1186667,22.2299544 17.1622192,22.2212544 17.2056675,22.2120333 C17.2491158,22.2027862 17.2924339,22.1930182 17.3356217,22.1827292 C17.3788355,22.1724141 17.4219061,22.1615781 17.4648335,22.1502211 C17.5077869,22.1388641 17.550584,22.1269731 17.5932248,22.1145481 C17.6358656,22.1021232 17.6783501,22.0891773 17.7206783,22.0757104 C17.7630065,22.0622435 17.8051524,22.0482687 17.847116,22.0337859 C17.8891056,22.0192771 17.9309129,22.0042603 17.9725378,21.9887356 C18.0141367,21.9731849 18.0555402,21.9571392 18.0967483,21.9405987 C18.1379825,21.924032 18.1789953,21.9069705 18.2197867,21.8894141 C18.2605781,21.8718576 18.3011481,21.8537932 18.3414967,21.8352209 C18.3818452,21.8166746 18.4219594,21.7976204 18.4618391,21.7780583 C18.5017188,21.7585222 18.541351,21.7384911 18.5807358,21.7179652 C18.6201206,21.6974393 18.6592579,21.6764314 18.6981478,21.6549417 C18.7370116,21.633452 18.775602,21.6114804 18.8139188,21.5890269 C18.8522616,21.5665995 18.890318,21.5436901 18.9280878,21.5202989 C18.9658576,21.4969337 19.0033278,21.4730997 19.0404985,21.4487967 C19.0776692,21.4244938 19.1145404,21.3997351 19.1511119,21.3745205 C19.1833074,21.3524577 19.2152555,21.3300563 19.2469561,21.3073163 C19.2786567,21.2845762 19.3101098,21.2614846 19.3413155,21.2380412 C19.3724951,21.214624 19.4034403,21.1908681 19.434151,21.1667735 C19.4648358,21.142653 19.495247,21.1182198 19.5253847,21.0934741 C19.5555484,21.0687023 19.5854386,21.0436179 19.6150554,21.018221 C19.6446721,20.9928241 19.6740023,20.9671015 19.703046,20.9410534 C19.7321157,20.9150052 19.7608859,20.8886575 19.7893565,20.8620103 C19.8178532,20.835337 19.8460503,20.8083641 19.8739478,20.7810917 C19.9018454,20.7537933 19.9294434,20.7262083 19.9567419,20.6983368 C19.9840403,20.6704653 20.0110392,20.6423072 20.0377386,20.6138627 C20.0644379,20.5853921 20.0908247,20.5566349 20.1168989,20.5275912 C20.142973,20.4985736 20.1687216,20.4692695 20.1941446,20.4396788 C20.2195676,20.4100881 20.244678,20.3802239 20.2694758,20.3500862 C20.2942737,20.3199485 20.3187329,20.2895503 20.3428534,20.2588916 C20.366974,20.228233 20.390769,20.1973138 20.4142384,20.1661342 C20.4376817,20.1349546 20.4607994,20.1035275 20.4835915,20.071853 C20.5063576,20.0401524 20.5287851,20.0082174 20.5508739,19.9760479 C20.5729627,19.9439045 20.5946999,19.9115136 20.6160854,19.8788753 C20.6374449,19.846237 20.6584657,19.8133643 20.679148,19.7802571 C20.6998302,19.7471759 20.7201347,19.7138604 20.7400615,19.6803103 C20.7600144,19.6467864 20.7796026,19.613041 20.7988261,19.5790743 C20.8180497,19.5451075 20.8368955,19.5109453 20.8553636,19.4765878 C20.8738318,19.4422303 20.8919352,19.4076645 20.909674,19.3728902 C20.9273867,19.338142 20.9447348,19.3031984 20.9617182,19.2680595 C20.9786755,19.2329205 20.9952682,19.1976123 21.0114962,19.1621347 C21.0276981,19.1266311 21.0435094,19.0909581 21.0589299,19.0551159 C21.0743504,19.0192737 21.0893932,18.9832751 21.1040583,18.9471203 C21.1186973,18.9109655 21.1329587,18.8746414 21.1468423,18.8381479 C21.1606999,18.8016805 21.1741668,18.7650699 21.187243,18.7283159 C21.2002931,18.691562 21.2129655,18.6546648 21.2252603,18.6176244 C21.2375289,18.5805839 21.2493939,18.5434132 21.260855,18.5061123 C21.2723162,18.4688113 21.2833737,18.4313932 21.2940273,18.3938578 C21.3502132,18.1959571 21.3872927,17.998408 21.4242159,17.7962483 C21.4779402,17.5020346 21.5771837,17.3053451 21.8272849,17.132685 C21.8818036,17.1019482 21.9388621,17.0770462 21.9984602,17.0579789 C22.0117448,17.0537852 22.0251335,17.049917 22.0386265,17.0463745 C22.0521194,17.042858 22.0656775,17.0396671 22.0793006,17.0368018 C22.0929499,17.0339365 22.1066512,17.0314098 22.1204046,17.0292218 C22.1341841,17.0270337 22.1480026,17.0251843 22.1618602,17.0236735 C22.1757178,17.0221627 22.1896015,17.0210036 22.2035112,17.0201961 C22.2174209,17.0193626 22.2313436,17.0188807 22.2452794,17.0187504 C22.2592151,17.0186202 22.2731509,17.0188286 22.2870866,17.0193756 C22.3009964,17.0199226 22.314893,17.0208213 22.3287767,17.0220716 C22.3426604,17.0232958 22.3565049,17.0248717 22.3703105,17.0267993 C22.384116,17.0287269 22.3978694,17.0309931 22.4115707,17.0335979 C22.425272,17.0361766 22.4388952,17.0391071 22.4524402,17.0423891 C22.4659853,17.0456451 22.4794391,17.0492398 22.4928018,17.053173 C22.5061906,17.0571063 22.5194621,17.0613782 22.5326164,17.0659887 C22.5457707,17.0705732 22.5588078,17.0754703 22.5717277,17.0806799 C22.5846476,17.0859156 22.5974372,17.0914638 22.6100966,17.0973246 C22.62273,17.1031855 22.63522,17.1093589 22.6475669,17.1158449 C22.8444517,17.2204412 22.995036,17.3964224 23.0584502,17.6112024 C23.1261233,17.8403999 23.0715004,18.0880396 23.0262938,18.3165339 C22.9912851,18.4937915 22.9494257,18.6694081 22.9007157,18.8433836 C22.8520057,19.0173591 22.7965883,19.1891727 22.7344635,19.3588242 C22.6723126,19.5284757 22.6036627,19.6954443 22.5285138,19.8597299 C22.4533389,20.0240156 22.3718733,20.1851233 22.2841172,20.3430532 C22.255881,20.3938471 22.2270327,20.4443023 22.1975722,20.4944189 C22.1681118,20.5445095 22.1380392,20.5942354 22.1073545,20.6435966 C22.0766698,20.6929579 22.045386,20.7419284 22.013503,20.7905081 C21.9816201,20.839114 21.9491381,20.8873161 21.9160569,20.9351144 C21.8830018,20.9829127 21.8493607,21.0303073 21.8151334,21.0772982 C21.7809322,21.124263 21.7461449,21.170811 21.7107715,21.2169423 C21.6754242,21.2630735 21.6395038,21.3087619 21.6030104,21.3540076 C21.566543,21.3992532 21.5295156,21.444043 21.4919281,21.4883769 C21.4543667,21.5327108 21.4162582,21.5765889 21.3776028,21.6200112 C21.3389474,21.6634074 21.299771,21.7063347 21.2600736,21.7487932 C21.2203762,21.7912517 21.1801709,21.8332152 21.1394577,21.8746838 C21.0987444,21.9161525 21.0575233,21.9571132 21.0157941,21.9975659 C20.974065,22.0380187 20.931841,22.0779505 20.889122,22.1173613 C20.8464291,22.1567982 20.8032543,22.1957011 20.7595976,22.23407 C20.715941,22.2724389 20.6718154,22.3102608 20.627221,22.3475357 C20.5826526,22.3848367 20.5376284,22.4215776 20.4921484,22.4577584 C20.4466683,22.4939393 20.4007454,22.5295732 20.3543797,22.56466 C20.3080401,22.5997208 20.2612707,22.6342085 20.2140714,22.6681232 C20.1668722,22.7020379 20.1192692,22.7353665 20.0712625,22.768109 C20.0232558,22.8008776 19.9748453,22.833047 19.9260311,22.8646174 C19.8772429,22.8961877 19.828064,22.9271459 19.7784944,22.957492 C19.7289509,22.9878642 19.6790296,23.0176242 19.6287307,23.046772 C19.5784577,23.0759199 19.5278202,23.1044426 19.4768179,23.1323402 C19.4258417,23.1602638 19.3745268,23.1875492 19.3228734,23.2141964 C19.2712199,23.2408437 19.2192539,23.2668528 19.1669753,23.2922236 C19.1146966,23.3175945 19.0621055,23.3423272 19.0092017,23.3664218 C18.956324,23.3905163 18.9031467,23.4139596 18.8496698,23.4367518 C18.796193,23.4595439 18.7424557,23.4816718 18.6884579,23.5031354 C18.6344601,23.5246252 18.5802018,23.5454376 18.5256831,23.5655728 C18.4711643,23.5857341 18.4164111,23.6052181 18.3614235,23.6240249 C18.3064359,23.6428316 18.2512138,23.6609611 18.1957573,23.6784134 C18.1403269,23.6958656 18.0846881,23.7126406 18.0288408,23.7287384 C17.9728634,23.7446538 17.9167036,23.759892 17.8603615,23.7744529 C17.8040193,23.7889877 17.7475079,23.8028323 17.6908271,23.8159866 C17.6341464,23.8291409 17.5773224,23.841605 17.5203551,23.8533787 C17.4633618,23.8651264 17.4062382,23.8761839 17.3489844,23.886551 C17.2917045,23.8969182 17.2343205,23.906569 17.1768322,23.9155036 C17.119344,23.9244641 17.0617515,23.9327084 17.0040549,23.9402363 C16.9463583,23.9477642 16.8885705,23.9545888 16.8306915,23.9607101 C16.7728125,23.9668054 16.7148815,23.9721973 16.6568983,23.976886 C16.5988891,23.9815747 16.5408408,23.98556 16.4827535,23.9888421 C16.4246401,23.9920981 16.3665136,23.9946378 16.3083742,23.9964612 C16.2502087,23.9983106 16.1920302,23.9994307 16.1338386,23.9998214 C16.0756471,24.0002382 16.0174686,24 15.9593031,23.9988837 C15.9011115,23.9978678 15.842946,23.9961356 15.7848066,23.993687 C15.7266671,23.9912385 15.6685667,23.9880737 15.6105054,23.9841925 C15.5524702,23.9802853 15.494474,23.9756878 15.4365169,23.9704 C15.3785598,23.9650862 15.3206808,23.9590691 15.26288,23.9523486 C15.2051052,23.9456022 15.1474086,23.9381654 15.0897901,23.9300384 C15.0321716,23.9218853 14.9746573,23.913029 14.9172472,23.9034693 C14.8598631,23.8939096 14.8025963,23.8836467 14.7454467,23.8726804 C14.6882971,23.8617141 14.6312907,23.8500446 14.5744276,23.8376717 C14.5175645,23.8252988 14.4608708,23.8122357 14.4043463,23.7984823 C14.3477958,23.7847028 14.2914276,23.7702461 14.2352418,23.7551121 C14.1790559,23.7399521 14.1230785,23.7241148 14.0673094,23.7076003 C14.0115143,23.6910858 13.9559276,23.673881 13.9005492,23.6559859 C13.8451709,23.6380909 13.7900269,23.6195316 13.7351175,23.600308 C13.680208,23.5810585 13.6255329,23.5611447 13.5710923,23.5405666 C13.5166778,23.5199625 13.4625237,23.4987073 13.4086301,23.4768008 C13.3547104,23.4548943 13.3010773,23.4323236 13.2477307,23.4090886 C13.1943841,23.3858537 13.1413241,23.3619675 13.0885505,23.3374302 C13.035803,23.3128928 12.9833551,23.2877043 12.9312067,23.2618645 C12.8790584,23.2360248 12.8272356,23.2095599 12.7757384,23.1824698 C12.7242673,23.1553797 12.6731218,23.1276515 12.6223018,23.0992851 C12.5719508,23.0711791 12.5219644,23.042448 12.4723427,23.0130918 C12.4226949,22.9837616 12.3734249,22.9538192 12.3245325,22.9232648 C12.2756141,22.8927103 12.2270864,22.8615697 12.1789495,22.8298431 C12.1308125,22.7981165 12.0830663,22.7658038 12.0357107,22.732905 C11.9883552,22.7000062 11.9414165,22.6665343 11.8948945,22.6324894 C11.8483465,22.5984445 11.8022413,22.5638265 11.7565789,22.5286354 C11.7108904,22.4934704 11.6656318,22.4577454 11.6208029,22.4214604 C11.5760001,22.3851753 11.5316401,22.3483432 11.487723,22.3109641 C11.4438058,22.2735851 11.4003575,22.235685 11.3573781,22.197264 C11.3143987,22.158817 11.2719011,22.119862 11.2298855,22.080399 C11.1878438,22.0409361 11.146297,22.0009522 11.1052451,21.9604473 C11.0641932,21.9199685 11.0236363,21.8789818 10.9835742,21.8374871 C10.9435383,21.7960185 10.9040102,21.7540549 10.8649901,21.7115964 C10.82597,21.669164 10.7874708,21.6262497 10.7494926,21.5828535 C10.7115144,21.5394573 10.6740833,21.4956053 10.6371991,21.4512974 C10.6002889,21.4069895 10.5639257,21.3622388 10.5281095,21.3170453 C10.4923193,21.2718517 10.4570762,21.2262284 10.4223801,21.1801753 C10.387684,21.1341222 10.3535609,21.0876393 10.3200109,21.0407266 C10.2864609,20.9938399 10.253497,20.9465495 10.2211191,20.8988554 C10.1887152,20.8511612 10.1568974,20.8030764 10.1256657,20.7546008 C10.09446,20.7061252 10.0638405,20.6572719 10.0338069,20.6080409 C10.0037995,20.5588099 9.97438853,20.5092143 9.94557408,20.4592539 C9.91676484,20.4093197 9.88857033,20.3590337 9.86099056,20.3083961 C9.83341079,20.2577586 9.80645487,20.2067954 9.7801228,20.1555066 C9.75379074,20.1041917 9.72808904,20.0525773 9.7030177,20.0006634 C9.67794897,19.9487495 9.65351842,19.8965229 9.62972605,19.8439838 C9.60593368,19.7914708 9.5827873,19.7386712 9.56028692,19.6855851 C9.53778653,19.632499 9.51593996,19.5791394 9.49474719,19.5255063 C9.47355182,19.4718992 9.45301547,19.4180316 9.43313813,19.3639036 C9.4132634,19.3097756 9.39405159,19.2554131 9.37550271,19.2008162 C9.35695644,19.1462193 9.3390809,19.091401 9.3218761,19.0363612 C9.3046687,18.9813215 9.28813855,18.9260864 9.27228565,18.870656 C9.25631554,18.8145744 9.241037,18.7582973 9.22645004,18.701825 C9.21186569,18.6453526 9.19797552,18.5887109 9.18477953,18.5318999 C9.17158094,18.4750889 9.15908304,18.4181217 9.14728584,18.3609981 C9.13548863,18.3039006 9.12439473,18.2466467 9.11400413,18.1892366 C9.10361352,18.1318526 9.09392883,18.0743513 9.08495003,18.0167328 C9.07597124,17.9591143 9.06770095,17.9013917 9.06013918,17.8435648 C9.0525774,17.7857119 9.04572674,17.7277938 9.0395872,17.6698107 C9.03344765,17.6118015 9.02802052,17.5537402 9.02330581,17.4956268 C9.0185937,17.4374873 9.01459531,17.3793088 9.01131064,17.3210912 C9.00802597,17.2628476 9.00545632,17.2045779 9.00360169,17.1462821 C9.00174706,17.0879864 9.00060876,17.0296776 9.00018678,16.9713558 C8.9997648,16.9130341 9,16.8547253 9.0010659,16.7964296 C9.00207657,16.7381078 9.00380226,16.679812 9.00624297,16.6215423 C9.00868368,16.5632726 9.01183941,16.505042 9.01571017,16.4468505 C9.01958092,16.3886589 9.02416539,16.3305195 9.02946359,16.2724321 C9.03476178,16.2143448 9.04077239,16.1563356 9.04749541,16.0984045 C9.05421844,16.0404734 9.06165127,15.9826335 9.06979392,15.9248848 C9.07793917,15.8671361 9.08679033,15.8094916 9.0963474,15.7519512 C9.10590706,15.6944369 9.11617133,15.6370398 9.1271402,15.57976 C9.13810908,15.5224801 9.14977864,15.4653435 9.16214891,15.4083502 C9.17452177,15.3513569 9.18759143,15.2945198 9.20135787,15.2378391 C9.21512431,15.1811583 9.22958494,15.1246599 9.24473974,15.0683438 C9.25989455,15.0120277 9.27573833,14.955907 9.29227109,14.8999817 C9.30880384,14.8440563 9.32602036,14.7883393 9.34392064,14.7328307 C9.36182353,14.6773222 9.38040367,14.622035 9.39966106,14.5669692 C9.41892106,14.5119295 9.43885309,14.4571242 9.45945717,14.4025533 C9.48006125,14.3480085 9.50133216,14.2937112 9.52326991,14.2396613 C9.54520765,14.1856375 9.56780441,14.1318741 9.59106019,14.0783712 C9.61431858,14.0248944 9.63822947,13.9717041 9.66279286,13.9188003 C9.68735626,13.8659226 9.71256565,13.8133444 9.73842103,13.7610658 C9.76427642,13.7087872 9.79076998,13.6568342 9.81790172,13.6052067 C9.84503347,13.5535793 9.87279427,13.5022905 9.90118414,13.4513404 C9.92927706,13.4008591 9.95798602,13.3507294 9.98731102,13.3009514 C10.0166412,13.2511995 10.0465836,13.2017992 10.077138,13.1527505 C10.1076925,13.1037279 10.1388461,13.055083 10.1705988,13.0068158 C10.2023514,12.9585747 10.2347032,12.9107242 10.2676541,12.8632645 C10.300579,12.8158048 10.3340899,12.7687489 10.3681869,12.7220966 C10.40231,12.6754705 10.4369931,12.6292741 10.4722362,12.5835075 C10.5074794,12.5377409 10.5432825,12.4924041 10.5796457,12.4474971 C10.6160089,12.4026162 10.6529191,12.3581911 10.6903764,12.3142218 C10.7278336,12.2702265 10.7658248,12.2267131 10.80435,12.1836816 C10.8429013,12.14065 10.8819735,12.0981004 10.9215666,12.0560327 C10.9611598,12.0139649 11.0012609,11.9723921 11.04187,11.9313142 C11.082479,11.8902102 11.123596,11.8496272 11.165221,11.8095652 C11.2068459,11.7695031 11.2489527,11.729962 11.2915414,11.6909419 C11.3341301,11.6519218 11.3772007,11.6134357 11.4207532,11.5754835 C11.4643057,11.5375314 11.5083271,11.5001132 11.5528173,11.4632291 C11.5972815,11.426371 11.6422015,11.3900599 11.6875773,11.3542958 C11.7329532,11.3185317 11.7787589,11.2833406 11.8249943,11.2487226 C11.8712298,11.2140786 11.917895,11.1800207 11.96499,11.1465488 C12.012059,11.113077 12.0595448,11.0801912 12.1074473,11.0478915 C12.1553498,11.0155918 12.2036301,10.9838912 12.252288,10.9527897 C12.300972,10.9216882 12.3500336,10.8911859 12.399473,10.8612826 C12.4489124,10.8313793 12.4987034,10.8021012 12.5488461,10.7734483 C12.5990148,10.7447693 12.6495221,10.7167284 12.7003681,10.6893258 C12.7512141,10.6618971 12.8023987,10.6351196 12.8539219,10.6089933 C12.9054451,10.582841 12.9572679,10.5573269 13.0093902,10.5324509 C13.0615386,10.5075749 13.1139865,10.4833501 13.166734,10.4597766 C13.2194815,10.436203 13.2725025,10.4132911 13.325797,10.3910407 C13.3791175,10.3687774 13.4326986,10.3471783 13.4865401,10.3262434 C13.5403816,10.3053059 13.5944705,10.2850365 13.648807,10.2654353 C13.7031434,10.2458367 13.7577273,10.2269114 13.8125586,10.2086595 C13.8673639,10.1904101 13.9223906,10.1728394 13.9776387,10.1559471 C14.0328868,10.1390575 14.0883302,10.122853 14.1439691,10.1073335 C14.1998423,10.0913712 14.255911,10.0760992 14.3121749,10.0615174 C14.3684389,10.0469383 14.4248722,10.0330546 14.4814748,10.0198665 C14.5380774,10.0066783 14.5948233,9.9941895 14.6517125,9.98240011 C14.7086276,9.97061072 14.7656731,9.95952594 14.8228487,9.94914575 C14.8800505,9.93876296 14.9373564,9.92908738 14.9947665,9.92011901 C15.0521766,9.91115063 15.1096909,9.90289207 15.1673093,9.89534332 C15.2249539,9.88779196 15.2826635,9.88095302 15.3404383,9.8748265 C15.3982391,9.86869998 15.4561051,9.86328717 15.5140361,9.85858809 C15.5719672,9.85388901 15.6299373,9.84990364 15.6879466,9.84663199 C15.7459818,9.84336295 15.8040431,9.84080893 15.8621305,9.83896993 C15.9202178,9.83713354 15.9783182,9.83601217 16.0364316,9.83560582 C16.094545,9.83520207 16.1526584,9.83551465 16.2107718,9.83654355 C16.2688592,9.83756985 16.3269465,9.83931377 16.3850339,9.84177532 C16.4430952,9.84423687 16.5011174,9.84741344 16.5591006,9.85130503 C16.6170837,9.85519662 16.6750148,9.85980193 16.7328938,9.86512096 C16.7907467,9.8704426 16.8485345,9.87647665 16.9062572,9.88322312 C16.9639798,9.88996959 17.0216113,9.89742587 17.0791517,9.90559196 C17.136692,9.91376066 17.1941282,9.92263656 17.2514601,9.93221967 C17.3087921,9.94180278 17.3659808,9.9520918 17.4230262,9.96308672 C17.4800977,9.97408164 17.5370259,9.98577855 17.5938108,9.99817747 C17.6505958,10.0105738 17.7072114,10.0236695 17.7636577,10.0374646 C17.8201041,10.0512597 17.8763811,10.065749 17.9324888,10.0809324 C17.9885965,10.0961133 18.0444958,10.1119844 18.1001867,10.1285458 C18.1559037,10.1451072 18.2113992,10.1623537 18.2666734,10.1802852 C18.3219475,10.1982142 18.3770003,10.216823 18.4318316,10.2361116 C18.486663,10.2553976 18.5412338,10.2753583 18.5955442,10.2959937 C18.6498806,10.3166264 18.7039565,10.337926 18.757772,10.3598924 C18.8115614,10.3818614 18.8650903,10.4044894 18.9183588,10.4277764 C18.9716012,10.4510635 19.024544,10.4750017 19.0771873,10.4995911 C19.1298567,10.5241806 19.1822004,10.5494212 19.2342185,10.5753131 C19.2862627,10.6012049 19.3379683,10.627722 19.3893352,10.6548641 C19.4407282,10.6820323 19.4917695,10.7098257 19.5424592,10.7382442 C19.4927594,10.4945508 19.444427,10.2380261 19.414107,9.99112884 C19.3831227,9.73894117 19.4249691,9.50341779 19.5850479,9.3004103 C19.7324283,9.11350448 19.9379481,9.02791289 20.1690603,9.00078896 Z"
                  id="Refresh"></path>
              </g>
            </g>
          </g>
        </g>
      </g>
    </g>
  </g>
</svg>