<?xml version="1.0" encoding="UTF-8"?>
<svg width="100%" height="100%" viewBox="0 0 16 15" version="1.1" xmlns="http://www.w3.org/2000/svg"
  xmlns:xlink="http://www.w3.org/1999/xlink">
  <title>Shape</title>
  <g id="Framework" stroke="none" stroke-width="1" fill="none" fill-rule="evenodd">
    <g transform="translate(-1488, -903)" fill="var(--appMediumGray)" fill-rule="nonzero" id="Group-A">
      <g transform="translate(170, 208)">
        <g id="Right" transform="translate(534, 2)">
          <g id="Order-Book" transform="translate(0, 584)">
            <g id="Open" transform="translate(0, 61)">
              <g id="Regular" transform="translate(784.8855, 48)">
                <path
                  d="M0,0 L7.13410484,0 L7.96885645,0 L15.1145038,0 L15.1145038,7.11401367 L15.1145038,7.89181641 L15.1145038,15 L7.98169788,15 L7.14490935,15 L0,15 L0,7.92275391 L0,7.07097656 L0,0 Z M4.84605827,4.22874023 C4.66226354,4.24722656 4.51460192,4.30889648 4.39510287,4.45385742 C4.38862804,4.46180664 4.38235001,4.46991211 4.37626879,4.47817383 C4.37020724,4.48641602 4.3643425,4.49480469 4.35867456,4.50333984 C4.3530263,4.511875 4.34758469,4.52054688 4.34234971,4.52935547 C4.33711474,4.53816406 4.33210609,4.54708984 4.32732377,4.55613281 C4.32252177,4.56517578 4.31795593,4.57433594 4.31362625,4.58361328 C4.3092769,4.59287109 4.3051637,4.60223633 4.30128668,4.61170898 C4.29740965,4.62118164 4.29376879,4.63074219 4.29036409,4.64039063 C4.28695939,4.65003906 4.28379085,4.65975586 4.28085848,4.66954102 C4.27792611,4.6793457 4.27523974,4.68920898 4.27279938,4.69913086 C4.27035902,4.70907227 4.26816466,4.71905273 4.2662163,4.72907227 C4.26426795,4.73911133 4.26257544,4.74918945 4.26113878,4.75930664 C4.25968243,4.76942383 4.25848193,4.77957031 4.25753727,4.78974609 C4.25657294,4.79992188 4.25586444,4.81011719 4.2554118,4.82033203 C4.25497883,4.83054688 4.25481647,4.84076172 4.25481647,4.85097656 C4.25481647,4.86121094 4.25519531,4.87142578 4.25576604,4.88162109 C4.25631709,4.89183594 4.25712399,4.90202148 4.25818672,4.91217773 C4.26098133,4.93922852 4.26556685,4.96597656 4.27194328,4.99242188 C4.27831972,5.01888672 4.28642802,5.04480469 4.29626819,5.07017578 C4.30610836,5.09556641 4.31759184,5.12019531 4.33071863,5.1440625 C4.34384542,5.16792969 4.35849744,5.19083984 4.37467468,5.21279297 C4.44484494,5.30745117 4.53863162,5.38901367 4.62252892,5.47168945 L5.01341007,5.85861328 L6.41840947,7.25320313 C6.44713293,7.28150391 6.65469167,7.47919922 6.64920086,7.49783203 C6.64521559,7.51142578 6.63075054,7.52923828 6.62198294,7.54022461 C6.56548068,7.61091797 6.4912661,7.67484375 6.42682282,7.73874023 L6.06100459,8.10105469 L4.85166716,9.30058594 C4.70970301,9.44144531 4.4378781,9.68223633 4.33653417,9.84316406 C4.27226801,9.94523438 4.24788406,10.0895508 4.25827529,10.2083203 C4.27306506,10.3773926 4.35318374,10.5238184 4.48369394,10.632041 C4.61520784,10.741084 4.77680314,10.7871387 4.94692987,10.7719336 C4.97247495,10.7697461 4.99777403,10.7659375 5.02282711,10.7605078 C5.04788019,10.7550586 5.07247078,10.7480273 5.09659888,10.7394141 C5.12072698,10.7308008 5.14418595,10.7206738 5.16697579,10.7090332 C5.18978531,10.6974121 5.21173873,10.6843652 5.23283606,10.6698926 C5.33119841,10.6027734 5.41418058,10.5077051 5.49790076,10.4235938 L5.81285514,10.1100879 L7.09138866,8.8415332 L7.36274123,8.5715918 C7.42396678,8.5106543 7.48593034,8.44025391 7.55722239,8.39126953 C7.63970271,8.45645508 7.71309071,8.53749023 7.78757097,8.61155273 L8.14910872,8.97117188 L9.35508081,10.1680957 C9.49559846,10.3077246 9.75977755,10.6005469 9.91520307,10.6940039 C10.0258755,10.7605371 10.1549982,10.779668 10.2824678,10.7741602 C10.4669415,10.7500781 10.6181161,10.6733496 10.7328328,10.5248438 C10.7389337,10.5168555 10.7448378,10.5087305 10.7505451,10.5004688 C10.7562524,10.4921875 10.761753,10.4837793 10.7670471,10.4752441 C10.7723411,10.466709 10.7774186,10.4580469 10.7822796,10.4492578 C10.7871407,10.4404688 10.7917852,10.4315723 10.7962133,10.4225684 C10.8006414,10.4135645 10.8048432,10.4044531 10.8088186,10.3952344 C10.812794,10.3860156 10.8165333,10.376709 10.8200364,10.3673145 C10.8235592,10.3579199 10.8268458,10.3484375 10.8298962,10.3388672 C10.8329467,10.3293164 10.8357511,10.3196875 10.8383096,10.3099805 C10.8408877,10.300293 10.8432198,10.2905469 10.8453059,10.2807422 C10.8473921,10.2709375 10.8492322,10.261084 10.8508263,10.2511816 C10.8524401,10.2412793 10.853798,10.2313477 10.8549001,10.2213867 C10.8560219,10.2114258 10.8568878,10.2014453 10.8574979,10.1914453 C10.858108,10.1814258 10.8584819,10.1714063 10.8586622,10.1613867 C10.8587378,10.1513672 10.8586622,10.1413477 10.8582359,10.1313281 C10.857862,10.1213086 10.8572421,10.1113086 10.8563761,10.1013281 C10.8555102,10.0913477 10.8543983,10.0813867 10.8530403,10.0714453 C10.8497143,10.0451367 10.8446368,10.0191602 10.8378077,9.99351563 C10.8309983,9.96787109 10.8225161,9.9427832 10.812361,9.91825195 C10.8021863,9.8937207 10.7904175,9.8699707 10.7770545,9.84700195 C10.7637112,9.82401367 10.7488919,9.80201172 10.7325966,9.78099609 C10.6613636,9.68759766 10.5696138,9.60626953 10.4860413,9.52362305 L10.0948059,9.1359668 L9.01497495,8.06422852 C8.82698831,7.87757813 8.63241859,7.69461914 8.45051318,7.50234375 C8.62881709,7.29287109 8.86843511,7.07739258 9.06634065,6.88110352 L10.204386,5.75162109 L10.5174806,5.44177734 C10.6012008,5.35924805 10.6963159,5.27733398 10.761143,5.1787793 C10.7702353,5.16469727 10.7787273,5.15027344 10.7866192,5.13550781 C10.794511,5.12074219 10.801773,5.10567383 10.8084053,5.09030273 C10.8150573,5.07493164 10.8210598,5.05932617 10.8264128,5.04348633 C10.8317659,5.02762695 10.8364596,5.01158203 10.8404941,4.99535156 C10.8445286,4.97912109 10.8478841,4.96275391 10.8505606,4.94625 C10.8532174,4.92974609 10.8552052,4.9131543 10.8565237,4.89647461 C10.8578226,4.87981445 10.8584327,4.863125 10.858354,4.84640625 C10.8582753,4.8296875 10.8575078,4.81299805 10.8560514,4.79633789 C10.8552248,4.78608398 10.8541523,4.77585938 10.8528337,4.76566406 C10.8514954,4.75548828 10.8499111,4.7453418 10.8480809,4.73522461 C10.8462309,4.72510742 10.844135,4.71503906 10.841793,4.70501953 C10.839451,4.69501953 10.8368532,4.68507813 10.8339996,4.67519531 C10.8311656,4.6653125 10.8280758,4.65549805 10.8247301,4.64575195 C10.8214042,4.63602539 10.8178223,4.62638672 10.8139847,4.61683594 C10.8101667,4.60728516 10.8061125,4.59783203 10.8018222,4.58847656 C10.7975122,4.57914063 10.7929759,4.56990234 10.7882133,4.56076172 C10.7834506,4.55164063 10.7784617,4.54263672 10.7732464,4.53375 C10.7680311,4.52486328 10.7625993,4.51612305 10.756951,4.5075293 C10.7513028,4.49891602 10.745438,4.49044922 10.7393568,4.48212891 C10.7332756,4.47380859 10.7269877,4.46563477 10.7204932,4.45760742 C10.7139987,4.44959961 10.7073172,4.44175781 10.7004488,4.43408203 C10.6935607,4.42640625 10.6864856,4.41890625 10.6792235,4.41158203 C10.6719615,4.40423828 10.6645223,4.39708984 10.656906,4.39013672 C10.64927,4.38318359 10.6414766,4.37641602 10.6335258,4.36983398 C10.5015691,4.25947266 10.3367855,4.21426758 10.1659208,4.22985352 C10.0579938,4.23966797 9.95579377,4.27388672 9.86758647,4.33713867 C9.77902493,4.40071289 9.70244871,4.48661133 9.62528208,4.56307617 L9.24068881,4.94490234 L8.13865846,6.03893555 C7.94556477,6.230625 7.75633826,6.43224609 7.55497883,6.61505859 L5.95865697,5.03147461 L5.52364265,4.59867188 C5.43354604,4.50905273 5.34406936,4.40704102 5.2398029,4.33382813 C5.13592021,4.26087891 5.01219973,4.22707031 4.88558624,4.22654044 C4.87209536,4.22654044 4.85946058,4.22745117 4.84605827,4.22874023 Z M7.96885645,0 C7.97110001,0.00073059668 7.97331405,0.0015062168 7.97558713,0.00219179004 C8.06981661,0.0307488281 8.18848909,0.0272489648 8.28676288,0.0345955078 C8.36841663,0.0407006836 8.44959804,0.051778125 8.53080898,0.062109375 C8.86596523,0.105288867 9.19687053,0.169940918 9.52352487,0.256065527 C9.58480946,0.272403027 9.64587756,0.289503906 9.70672919,0.307368164 C9.76756113,0.325233398 9.82816675,0.343857422 9.88854604,0.363240234 C9.94892533,0.382621094 10.0090488,0.402753906 10.0689164,0.423638672 C10.128784,0.444523438 10.1883761,0.46615332 10.2476926,0.48852832 C10.3069895,0.51090332 10.366001,0.534016602 10.4247272,0.557868164 C10.4834533,0.581719727 10.5418744,0.606302734 10.5999905,0.631617188 C10.6580868,0.656929688 10.7158585,0.682964844 10.7733054,0.709722656 C10.8307523,0.736480469 10.887845,0.763952148 10.9445834,0.792137695 C11.0013219,0.820325195 11.0576962,0.849216797 11.1137065,0.8788125 C11.1697167,0.908408203 11.2253432,0.938700195 11.2805859,0.969688477 C11.3358287,1.0006748 11.3906679,1.03234766 11.4451038,1.06470703 C11.4995396,1.09706641 11.5535621,1.13010156 11.6071714,1.1638125 C11.660761,1.19752344 11.7139176,1.23189844 11.7666412,1.2669375 C11.8193649,1.30197852 11.8716359,1.33767285 11.9234542,1.37402051 C11.9752725,1.41036816 12.0266186,1.4473584 12.0774922,1.48499121 C12.1283659,1.52262207 12.1787575,1.56088379 12.2286668,1.59977637 C12.2785762,1.63866895 12.3279837,1.67817969 12.3768893,1.71830859 C12.425795,1.7584375 12.4741791,1.7991709 12.5220417,1.84050879 C12.569924,1.88184668 12.617265,1.92377734 12.6640649,1.96630078 C12.7108647,2.00882422 12.7571234,2.05192578 12.8028408,2.09560547 C12.8485386,2.13928516 12.8936853,2.1835293 12.938281,2.22833789 C12.9828569,2.27314648 13.0268622,2.31850586 13.0702967,2.36441602 C13.1137312,2.41032617 13.1565753,2.45677148 13.198829,2.50375195 C13.2410827,2.55073438 13.2827362,2.5982373 13.3237894,2.64626074 C13.3648426,2.69428418 13.4052758,2.7428125 13.4450892,2.7918457 C13.4849025,2.84088086 13.5240861,2.89040234 13.5626398,2.94041016 C13.6011936,2.99042969 13.6391078,3.04091797 13.6763824,3.091875 C13.713657,3.14285156 13.7502821,3.19427734 13.7862578,3.24615234 C13.8222334,3.29802734 13.85754,3.35035156 13.8921774,3.403125 C13.9268148,3.45587891 13.960783,3.5090625 13.9940822,3.56267578 C14.0273616,3.61628906 14.0599621,3.6703125 14.0918836,3.72474609 C14.1238052,3.77916016 14.155028,3.83397461 14.1855522,3.88918945 C14.2372131,3.98286133 14.2868273,4.07759766 14.3343947,4.17339844 C14.3819818,4.26917969 14.4274729,4.36592773 14.470868,4.46364258 C14.5142632,4.56135742 14.555523,4.65996094 14.5946475,4.75945313 C14.6337917,4.85892578 14.6707613,4.95918945 14.7055561,5.06024414 C14.7403706,5.1612793 14.772981,5.26301758 14.8033871,5.36545898 C14.8338129,5.46790039 14.862005,5.5709375 14.8879634,5.67457031 C14.9139218,5.77820313 14.9376366,5.88234375 14.9591078,5.98699219 C14.9805791,6.09162109 14.9997773,6.19666992 15.0167023,6.30213867 C15.0439596,6.46553711 15.0647814,6.62974609 15.0791678,6.79476563 C15.0887914,6.89589844 15.0825036,7.01753906 15.1145038,7.11401367 L15.1145038,0 L7.96885645,0 Z M7.98169788,15 L15.1145038,15 L15.1145038,7.89181641 C15.1137658,7.89416016 15.1129983,7.89647461 15.1123193,7.89881836 C15.0865774,7.98682617 15.0875221,8.09197266 15.0801419,8.18337891 C15.0712071,8.2853125 15.0606584,8.38708008 15.0484959,8.48868164 C15.014754,8.77623047 14.9546797,9.06996094 14.8814984,9.35015625 C14.8659312,9.41113281 14.8495867,9.47191406 14.8324648,9.5325 C14.8153626,9.59306641 14.7974928,9.65341797 14.7788556,9.71355469 C14.7601986,9.77369141 14.7407938,9.83358398 14.7206411,9.89323242 C14.7004688,9.95286133 14.6795485,10.0122363 14.6578805,10.0713574 C14.6362124,10.1304785 14.6137965,10.1893262 14.5906328,10.2479004 C14.567469,10.3064551 14.5435574,10.3647168 14.5188979,10.4226855 C14.4942581,10.4806348 14.4688901,10.5382813 14.442794,10.595625 C14.4166782,10.6529492 14.389844,10.7099414 14.3622916,10.7666016 C14.3347391,10.8232617 14.3064683,10.8795703 14.2774791,10.9355273 C14.2485097,10.9914648 14.2188219,11.047041 14.1884157,11.1022559 C14.1580293,11.1574707 14.1269442,11.2122949 14.0951604,11.2667285 C14.0633767,11.3211621 14.0309041,11.3751855 13.9977427,11.4287988 C13.9645813,11.4824121 13.9307508,11.5356055 13.8962512,11.5883789 C13.8617516,11.6411523 13.8265828,11.6934863 13.7907449,11.7453809 C13.754907,11.7972949 13.7184196,11.8487402 13.6812828,11.8997168 C13.644146,11.9506934 13.6063597,12.0012012 13.567924,12.0512402 C13.529508,12.1012793 13.4904622,12.1508301 13.4507866,12.1998926 C13.4110914,12.2489551 13.3707959,12.2975195 13.3299001,12.3455859 C13.2889847,12.3936328 13.247469,12.4411621 13.2053531,12.4881738 C13.1632174,12.5352051 13.1205013,12.5816895 13.0772045,12.627627 C13.0339077,12.673584 12.9900304,12.7189844 12.9455725,12.7638281 C12.9011343,12.8086914 12.8561254,12.8529883 12.8105457,12.8967188 C12.764966,12.9404297 12.7188451,12.9835742 12.672183,13.0261523 C12.6255013,13.0687305 12.5782979,13.1107129 12.5305731,13.1520996 C12.4828286,13.1935059 12.4345724,13.2343066 12.3858045,13.274502 C12.3370169,13.3146777 12.2877374,13.354248 12.2379658,13.3932129 C12.1881942,13.4321582 12.1379306,13.4704785 12.087175,13.5081738 C12.0364391,13.5458887 11.985221,13.5829492 11.9335207,13.6193555 C11.8818401,13.6557813 11.829697,13.6915527 11.7770915,13.7266699 C11.7244859,13.7617871 11.6714474,13.7962402 11.6179759,13.8300293 C11.5645044,13.8638184 11.5106098,13.8969336 11.456292,13.929375 C11.401994,13.9618164 11.3472826,13.9935742 11.292158,14.0246484 C10.4844472,14.4791016 9.6720721,14.7469629 8.7612166,14.9075684 C8.65792432,14.9257617 8.55537005,14.9392676 8.45098551,14.9490527 C8.3460696,14.9588965 8.06651032,14.9660742 7.98169788,15 Z M0,7.92275391 L0,15 L7.14490935,15 C7.05469466,14.969707 6.94056834,14.9741895 6.84583701,14.9656055 C6.69563663,14.9534961 6.54615458,14.9355078 6.39739086,14.9116406 C5.6418428,14.7880664 4.91451634,14.5733203 4.22621601,14.2367578 C4.16672233,14.207832 4.10761242,14.1781348 4.04888627,14.147666 C3.99017981,14.1171973 3.93188663,14.0859668 3.87400674,14.0539746 C3.81610717,14.0219824 3.75865041,13.989248 3.70163645,13.9557715 C3.6446225,13.9222754 3.58806119,13.8880371 3.53195253,13.8530566 C3.47584387,13.8180957 3.42021738,13.7824023 3.36507306,13.7459766 C3.30990905,13.7095508 3.25523706,13.6724121 3.20105707,13.6345605 C3.14687709,13.596709 3.09321863,13.5581543 3.0400817,13.5188965 C2.9869251,13.4796387 2.93429986,13.4396875 2.88220599,13.399043 C2.83011605,13.358418 2.77857323,13.3171094 2.72757753,13.2751172 C2.67658379,13.2331445 2.62615586,13.1905078 2.57629374,13.147207 C2.52642966,13.1039062 2.47714909,13.0599707 2.42845205,13.0154004 C2.37975501,12.9708105 2.33165822,12.9255859 2.28416168,12.8797266 C2.23666514,12.8338867 2.18978557,12.7874316 2.14352299,12.7403613 C2.09725844,12.693291 2.05162661,12.645625 2.0066275,12.5973633 C1.9616284,12.5491016 1.91727776,12.5002637 1.87357559,12.4508496 C1.82987342,12.4014355 1.78683448,12.3514551 1.74445876,12.3009082 C1.70208305,12.2503613 1.66038532,12.1992676 1.61936558,12.147627 C1.57834387,12.0959863 1.53801589,12.0438281 1.49838165,11.9911523 C1.45874544,11.938457 1.41981575,11.8852539 1.38159259,11.831543 C1.34336746,11.777832 1.30586263,11.7236328 1.2690781,11.6689453 C1.23229357,11.6142578 1.19624016,11.5591016 1.16091788,11.5034766 C1.1255956,11.4478516 1.09101822,11.3917676 1.05718574,11.3352246 C1.02335326,11.2787012 0.990276509,11.2217383 0.957955481,11.1643359 C0.925634453,11.1069336 0.894079974,11.0491211 0.863292044,10.9908984 C0.832506083,10.9326758 0.802497495,10.8740625 0.773266281,10.8150586 C0.744035067,10.7560352 0.71559205,10.6966504 0.687937232,10.6369043 C0.660280445,10.5771582 0.63342268,10.5170605 0.607363937,10.4566113 C0.581303226,10.3961426 0.55604941,10.3353516 0.531602487,10.2742383 C0.507155564,10.213125 0.483523408,10.151709 0.460706017,10.0899902 C0.437890595,10.028252 0.415896827,9.96623047 0.394724714,9.90392578 C0.373554568,9.84162109 0.353213949,9.77905273 0.333702857,9.7162207 C0.314193732,9.65336914 0.295521022,9.5902832 0.277684727,9.52696289 C0.187863245,9.20051758 0.118959017,8.86978516 0.070972042,8.53476563 C0.0581237297,8.43691406 0.0471974982,8.33885742 0.0381933474,8.2405957 C0.0300176407,8.14456055 0.0347134691,8.01905273 0.00217363982,7.9284082 C0.00149281408,7.92650391 0.000724545623,7.92462891 0,7.92275391 Z M0,0 L0,7.07097656 C0.0374104634,6.98311523 0.0391199964,6.73552734 0.0514486492,6.6272168 C0.0670369573,6.4902832 0.0881680373,6.35504883 0.111171013,6.21919922 C0.128047301,6.12048828 0.146924884,6.0221582 0.16780376,5.92420898 C0.188682833,5.82624023 0.211546177,5.72874023 0.236393792,5.63170898 C0.261241406,5.53467773 0.288053119,5.43817383 0.31682893,5.34219727 C0.345605528,5.24624023 0.376321625,5.15089844 0.408977219,5.05617188 C0.441634781,4.96142578 0.476206256,4.86738281 0.512691645,4.77404297 C0.549177034,4.68070312 0.587545831,4.588125 0.627798038,4.49630859 C0.668052213,4.40449219 0.710157323,4.31352539 0.754113371,4.2234082 C0.798069418,4.13329102 0.843840977,4.0440918 0.891428047,3.95581055 C0.921414987,3.90004883 0.952109435,3.84467773 0.983511391,3.78969727 C1.01491531,3.73469727 1.04701789,3.68011719 1.07981912,3.62595703 C1.11261838,3.57177734 1.14610645,3.51801758 1.18028334,3.46467773 C1.21445825,3.41133789 1.24931017,3.35844727 1.2848391,3.30600586 C1.32036999,3.25354492 1.35656509,3.20154297 1.39342441,3.15 C1.43028372,3.09845703 1.46779741,3.04738281 1.50596547,2.99677734 C1.54413156,2.94618555 1.58293923,2.89608008 1.62238848,2.84646094 C1.66183773,2.7968418 1.70191576,2.74772754 1.74262258,2.69911816 C1.78332941,2.65050879 1.82465124,2.60241992 1.86658808,2.55485156 C1.90852493,2.5072832 1.95106301,2.46025195 1.99420232,2.41375781 C2.0373436,2.36726172 2.08107136,2.32131641 2.12538559,2.27592187 C2.16970178,2.2305293 2.21459166,2.18570215 2.26005522,2.14144043 C2.30551879,2.09717871 2.35154127,2.05349609 2.39812267,2.01039258 C2.44470408,1.96729102 2.49182866,1.9247832 2.53949642,1.88286914 C2.58716615,1.84095508 2.6353643,1.79964844 2.68409086,1.75894922 C2.73281545,1.71824805 2.7820537,1.67816895 2.83180561,1.63871191 C2.88155752,1.59925293 2.93180439,1.56042773 2.98254622,1.52223633 C3.03330182,1.48404297 3.08452976,1.44649609 3.13623002,1.4095957 C3.18793028,1.37269531 3.24010287,1.33645215 3.29274779,1.30086621 C3.34537303,1.26527832 3.39845092,1.23036035 3.45198145,1.1961123 C3.50551199,1.16186426 3.55946565,1.1282959 3.61384244,1.09540723 C3.66823891,1.06252051 3.72303882,1.03032324 3.77824219,0.99881543 C3.83344555,0.967307617 3.88905236,0.936500977 3.94506262,0.906395508 C4.0010532,0.876290039 4.05742754,0.846894531 4.11418565,0.818208984 C4.17092408,0.789525391 4.2280266,0.761560547 4.2854932,0.734314453 C4.3429598,0.707068359 4.40077081,0.680551758 4.45892623,0.654764648 C4.51706196,0.628975586 4.57552242,0.603923828 4.63430761,0.579609375 C4.6930928,0.555292969 4.75218303,0.531722656 4.8115783,0.508898437 C4.87097358,0.486072266 4.93064438,0.463998047 4.99059071,0.442675781 C5.05053703,0.421353516 5.11074905,0.400791016 5.17122674,0.380988281 C5.23172412,0.361183594 5.29244782,0.342144531 5.35339784,0.323871094 C5.41436755,0.305597656 5.47556357,0.288095117 5.53698593,0.271363477 C5.86523438,0.182232422 6.19789122,0.114353906 6.53495646,0.0677279297 C6.63092766,0.0550655273 6.72766639,0.0427341797 6.82413943,0.034640625 C6.91349803,0.0271451367 7.03589009,0.0331198242 7.11990547,0.00505664062 C7.12465828,0.00346227539 7.12938156,0.00168554297 7.13410484,0 L0,0 Z"
                  id="Shape"></path>
              </g>
            </g>
          </g>
        </g>
      </g>
    </g>
  </g>
</svg>