<svg width="100%" height="100%" viewBox="0 0 10 5.71084476" version="1.1" xmlns="http://www.w3.org/2000/svg"
  xmlns:xlink="http://www.w3.org/1999/xlink">
  <g id="Framework" stroke="none" stroke-width="1" fill="none" fill-rule="evenodd">
    <g transform="translate(-896.8554, -1233.1446)" fill="var(--appWhite)" fill-rule="nonzero" id="Group-B">
      <g transform="translate(298, 208)">
        <g id="Transactions" transform="translate(0, 479)">
          <g id="Pagination" transform="translate(469, 534)">
            <g id="Regular" transform="translate(118, 0)">
              <path
                d="M16.7998627,10.001339 C16.8183412,10.0005579 16.8368309,10.0001116 16.8553316,10 C16.867182,10 16.87901,10.0002901 16.8908157,10.0008704 C16.9026437,10.0014729 16.9144494,10.0023544 16.9262328,10.0035149 C16.9380162,10.0046977 16.9497661,10.0061707 16.9614825,10.0079337 C16.9731989,10.0096744 16.9848596,10.0117164 16.9964644,10.0140597 C17.0080692,10.0163807 17.0196071,10.0190029 17.0310781,10.0219265 C17.042549,10.0248277 17.053953,10.028019 17.0652901,10.0315005 C17.0766048,10.0349596 17.0878302,10.0387088 17.0989664,10.0427482 C17.1101026,10.0467653 17.1211272,10.0510613 17.1320402,10.0556363 C17.1429532,10.0602113 17.1537547,10.0650541 17.1644445,10.0701647 C17.175112,10.0752976 17.1856568,10.080676 17.1960789,10.0862999 C17.2064786,10.0919461 17.2167444,10.0978378 17.2268763,10.1039749 C17.2369859,10.1101121 17.2469505,10.1165059 17.25677,10.1231564 C17.2665671,10.1297846 17.2761969,10.1366582 17.2856593,10.1437773 C17.2951218,10.1508964 17.3044056,10.1582499 17.313511,10.1658377 C17.322594,10.1734031 17.3314985,10.1811918 17.3402244,10.1892036 C17.3489281,10.1972377 17.3574308,10.2054727 17.3657328,10.2139085 C17.472687,10.3224361 17.537596,10.4552 17.5586187,10.6056055 C17.5885458,10.8197148 17.5700338,11.1175465 17.5700338,11.3412633 L17.5697325,12.7734126 L17.56913,17.3498497 C17.7921438,17.1092277 18.0111406,16.8341594 18.2252835,16.582591 C18.3328403,16.4562544 18.441234,16.3056146 18.5733283,16.2052885 C18.6571845,16.1415511 18.7663147,16.0993385 18.8694862,16.0807261 C19.0638785,16.0456438 19.2545885,16.0908357 19.4149362,16.2051546 C19.4243986,16.2118497 19.4336824,16.2187791 19.4427878,16.2259429 C19.4519154,16.2331067 19.4608534,16.2404936 19.4696017,16.2481037 C19.4783499,16.2557138 19.4868974,16.2635359 19.4952439,16.27157 C19.5036128,16.2796041 19.5117697,16.2878391 19.5197145,16.2962749 C19.5276594,16.3047108 19.5353922,16.3133475 19.542913,16.322185 C19.5504562,16.3310002 19.5577539,16.3400051 19.564806,16.3491997 C19.5718805,16.358372 19.5787318,16.3677228 19.58536,16.3772522 C19.5919658,16.3867816 19.5983262,16.3964671 19.604441,16.4063089 C19.6105782,16.4161507 19.6164587,16.4261376 19.6220826,16.4362695 C19.6277065,16.4464014 19.6330849,16.4566673 19.6382178,16.467067 C19.6433284,16.4774667 19.6481824,16.4879892 19.6527797,16.4986344 C19.657377,16.5092796 19.6617065,16.5200364 19.6657682,16.5309048 C19.6698299,16.5417509 19.6736238,16.5526974 19.6771498,16.5637443 C19.6806536,16.5747912 19.6838896,16.5859162 19.6868577,16.5971194 C19.6898259,16.6083448 19.6925151,16.6196261 19.6949253,16.6309631 C19.6973356,16.6423001 19.6994557,16.653693 19.7012857,16.6651416 C19.7032049,16.6767911 19.7048452,16.688474 19.7062066,16.7001905 C19.7075456,16.7119292 19.7085945,16.7236791 19.7093533,16.7354402 C19.7101121,16.7472235 19.7105807,16.7590181 19.7107593,16.7708238 C19.7109378,16.7826295 19.7108417,16.794424 19.7104245,16.8062074 C19.7100228,16.8180131 19.7093198,16.8297965 19.7083155,16.8415575 C19.7073336,16.8533186 19.7060615,16.8650462 19.7044993,16.8767403 C19.7029148,16.8884344 19.7010514,16.9000839 19.6989089,16.9116887 C19.6967442,16.9232936 19.6943005,16.9348426 19.6915778,16.9463359 C19.6888551,16.9578291 19.6858535,16.9692443 19.6825729,16.9805813 C19.6792923,16.9918961 19.6757216,17.0031438 19.6718607,17.0143246 C19.6680222,17.0254832 19.6639047,17.0365301 19.6595082,17.0474654 C19.6551118,17.0584231 19.6504475,17.0692691 19.6455155,17.0800036 C19.6405834,17.0907158 19.6353836,17.1013052 19.6299159,17.1117719 C19.6244705,17.1222385 19.6187574,17.1325602 19.6127764,17.1427367 C19.6068178,17.1529356 19.6006025,17.1629671 19.5941306,17.1728312 C19.5876586,17.1826953 19.5809524,17.1924032 19.5740118,17.2019549 C19.4352558,17.3905224 19.2663384,17.5670388 19.1137905,17.7449611 L18.2301374,18.7753709 L17.6654725,19.4345706 C17.5516892,19.5678031 17.4386424,19.7241003 17.3033009,19.835942 C17.1910575,19.9286692 17.0611056,19.9761709 16.9185669,19.9980304 C16.8896664,20.0001059 16.8607435,20.0005411 16.8317984,19.999336 C16.6310123,19.9919713 16.4478008,19.8952271 16.3137648,19.7489391 C16.1471237,19.5671671 15.9911948,19.3728083 15.8306128,19.1853454 L14.8760251,18.0716487 L14.3896594,17.5044396 C14.2928482,17.3920623 14.1774247,17.2765718 14.099728,17.1502017 C14.0261488,17.0305603 13.9941463,16.8896618 14.0008748,16.7498681 C14.0013658,16.7378839 14.0021581,16.725922 14.0032516,16.7139824 C14.0043228,16.7020651 14.0057065,16.6901701 14.0074026,16.6782975 C14.0090987,16.6664248 14.011096,16.654608 14.0133947,16.6428469 C14.0156933,16.6310858 14.0182821,16.6193806 14.021161,16.6077311 C14.0240399,16.5961039 14.0272201,16.5845549 14.0307015,16.5730839 C14.0341607,16.561613 14.0379099,16.5502313 14.0419493,16.5389389 C14.046011,16.5276465 14.0503516,16.5164769 14.0549713,16.5054299 C14.0595686,16.4943607 14.064456,16.4834142 14.0696335,16.4725905 C14.0748111,16.461789 14.0802453,16.4511103 14.0859361,16.4405544 C14.0916493,16.4300208 14.0976302,16.4196322 14.103879,16.4093887 C14.1101054,16.3991675 14.1165885,16.3891025 14.1233283,16.3791938 C14.1300903,16.369285 14.1370867,16.3595548 14.1443174,16.3500031 C14.1515704,16.3404291 14.1590466,16.331056 14.166746,16.3218837 C14.1744677,16.3127114 14.1824125,16.30374 14.1905806,16.2949694 C14.1987486,16.2861988 14.2071398,16.2776402 14.2157541,16.2692937 C14.2243462,16.2609471 14.2331502,16.2528237 14.2421663,16.2449235 C14.3842364,16.1188213 14.5641338,16.0586323 14.7534713,16.0705161 C14.8820842,16.0785837 15.0120026,16.1213319 15.1177183,16.1956476 C15.280108,16.309799 15.4235506,16.5129284 15.552833,16.6640704 C15.7470802,16.8928643 15.9429566,17.1202523 16.1404621,17.3462343 C16.1472911,17.1583698 16.1419016,16.9684297 16.1419016,16.7803308 L16.141935,15.7015825 L16.1418346,12.4407664 L16.1413325,11.2595496 C16.1412655,11.0557507 16.1266702,10.8409383 16.1485297,10.6387462 C16.1633928,10.5014966 16.2076475,10.3805496 16.2932109,10.2711851 C16.4240666,10.1039415 16.5928836,10.0267804 16.7998627,10.001339 Z"
                id="Path-2" transform="translate(16.8554, 15) rotate(270) translate(-16.8554, -15)"></path>
            </g>
          </g>
        </g>
      </g>
    </g>
  </g>
</svg>