<?xml version="1.0" encoding="UTF-8"?>
<svg width="100%" height="100%" viewBox="0 0 10 10" version="1.1" xmlns="http://www.w3.org/2000/svg"
  xmlns:xlink="http://www.w3.org/1999/xlink">
  <title>Magnifying Glass</title>
  <g id="Framework" stroke="none" stroke-width="1" fill="none" fill-rule="evenodd">
    <g transform="translate(-572, -2152)" fill="var(--appSpaceBlack)" fill-rule="nonzero" id="Group-A">
      <g transform="translate(170, 208)">
        <g id="Components" transform="translate(0, 61)">
          <g id="Settings" transform="translate(0, 1803)">
            <g id="8" transform="translate(14, 75)">
              <g id="Regular" transform="translate(384, 0)">
                <path
                  d="M4,5 L7.79488281,5 L8.26095703,5 L14,5 L14,14.4263086 L14,14.5736133 L14,15 L13.5798438,15 L13.4201367,15 L4,15 L4,9.27173828 L4,8.75771484 L4,5 Z M7.88923828,6.00791016 C7.06896484,6.05075781 6.3246875,6.39350195 5.77333984,7.00585937 C5.75683203,7.0241276 5.74055078,7.04259115 5.72449609,7.06125 C5.70844141,7.07992187 5.69261784,7.09878255 5.67702539,7.11783203 C5.66143424,7.13688151 5.64607878,7.15611979 5.63095898,7.17554687 C5.61584049,7.19498698 5.60096289,7.21460286 5.58632617,7.23439453 C5.57168815,7.2541862 5.55729622,7.27416016 5.54315039,7.29431641 C5.52900326,7.31445964 5.51510612,7.33477865 5.50145898,7.35527344 C5.48781055,7.37576823 5.47441602,7.39642578 5.46127539,7.41724609 C5.44813607,7.43806641 5.43525326,7.45904297 5.42262695,7.48017578 C5.41000195,7.50130859 5.39763867,7.52259766 5.38553711,7.54404297 C5.37343424,7.56547526 5.36159701,7.58705729 5.35002539,7.60878906 C5.33845378,7.63052083 5.32715039,7.65238932 5.31611523,7.67439453 C5.30508008,7.69639974 5.29431706,7.71854167 5.28382617,7.74082031 C5.27333398,7.76308594 5.26311784,7.78548177 5.25317773,7.80800781 C5.24323633,7.83053385 5.23357292,7.85317708 5.2241875,7.8759375 C5.21480208,7.89869792 5.20569792,7.92156901 5.196875,7.94455078 C5.18805208,7.96753255 5.17951237,7.990625 5.17125586,8.01382812 C5.16300065,8.03701823 5.1550306,8.06030599 5.1473457,8.08369141 C5.13966211,8.10708984 5.13226693,8.13057292 5.12516016,8.15414062 C5.11805208,8.17770833 5.11123503,8.20136068 5.10470898,8.22509766 C5.09818294,8.24883464 5.09194922,8.27264974 5.08600781,8.29654297 C5.0800651,8.3204362 5.07441732,8.34440104 5.06906445,8.3684375 C5.06371159,8.39246094 5.05865495,8.41654948 5.05389453,8.44070312 C5.04913281,8.46486979 5.04466862,8.48908203 5.04050195,8.51333984 C5.03633529,8.53761068 5.03246745,8.56192057 5.02889844,8.58626953 C5.02532943,8.61063151 5.02205924,8.63503255 5.01908789,8.65947266 C5.01611784,8.68391276 5.01344857,8.70838542 5.01108008,8.73289062 C5.00871029,8.75739583 5.00664258,8.78192708 5.00487695,8.80648437 C5.00311003,8.83104167 5.00164518,8.85561849 5.00048242,8.88021484 C4.99931836,8.90479818 4.99845703,8.92940104 4.99789844,8.95402344 C4.99733984,8.97863281 4.99712375,9.0032487 4.99712375,9.02787109 C4.99712375,9.05248047 4.99752409,9.07709635 4.99817383,9.10171875 C4.99882357,9.12632812 4.99977604,9.15092448 5.00103125,9.17550781 C5.00228255,9.20036458 5.0038418,9.22519531 5.00570898,9.25 C5.00757617,9.27481771 5.00975065,9.29960286 5.01223242,9.32435547 C5.01471419,9.34912109 5.01750195,9.37384766 5.0205957,9.39853516 C5.02369076,9.42322266 5.02709115,9.44787109 5.03079688,9.47248047 C5.0345026,9.49707682 5.03851302,9.52163411 5.04282812,9.54615234 C5.04714193,9.57065755 5.05175911,9.59510417 5.05667969,9.61949219 C5.06160026,9.64388021 5.06682292,9.66820312 5.07234766,9.69246094 C5.07787109,9.71673177 5.08369466,9.74092448 5.08981836,9.76503906 C5.09594206,9.78915365 5.10236393,9.8131901 5.10908398,9.83714844 C5.11580404,9.86110677 5.12281966,9.88498047 5.13013086,9.90876953 C5.13744206,9.93254557 5.14504753,9.95623698 5.15294727,9.97984375 C5.1608457,10.0034375 5.16903581,10.0269271 5.17751758,10.0503125 C5.18599935,10.0737109 5.19476953,10.0969987 5.20382813,10.1201758 C5.21288672,10.1433529 5.22223112,10.1664128 5.23186133,10.1893555 C5.24149284,10.2122982 5.25140625,10.2351172 5.26160156,10.2578125 C5.27179818,10.2805078 5.28227474,10.3030729 5.29303125,10.3255078 C5.30378646,10.3479557 5.31481901,10.3702604 5.32612891,10.3924219 C5.3374375,10.4145833 5.34901888,10.4366016 5.36087305,10.4584766 C5.37272852,10.4803516 5.38485286,10.5020768 5.39724609,10.5236523 C5.40963932,10.5452409 5.42229818,10.5666667 5.43522266,10.5879297 C5.44814844,10.6091797 5.46133529,10.6302734 5.4747832,10.6512109 C5.48822982,10.6721484 5.5019349,10.6929167 5.51589844,10.7135156 C5.52986068,10.7341146 5.54407617,10.7545378 5.55854492,10.7747852 C5.57301497,10.7950195 5.58773307,10.8150781 5.60269922,10.8349609 C5.61766536,10.8548437 5.63287565,10.8745312 5.64833008,10.8940234 C5.66378451,10.9135286 5.67947852,10.9328385 5.69541211,10.9519531 C5.7113457,10.9710677 5.72751367,10.9899805 5.74391602,11.0086914 C5.76031706,11.0274023 5.77694857,11.0459049 5.79381055,11.0641992 C5.81067122,11.0825065 5.82775651,11.1005924 5.84506641,11.118457 C5.862375,11.1363346 5.87990299,11.1539974 5.89765039,11.1714453 C5.91539779,11.1888802 5.93335872,11.2060937 5.9515332,11.2230859 C5.96970378,11.2400911 5.98808594,11.256862 6.00667969,11.2733984 C6.02479167,11.2897005 6.04309896,11.3057812 6.06160156,11.3216406 C6.08011719,11.3375 6.0988151,11.3531315 6.11769531,11.3685352 C6.13658854,11.3839388 6.15565755,11.3991081 6.17490234,11.414043 C6.19416016,11.4289909 6.21359375,11.4436979 6.23320313,11.4581641 C6.25282552,11.4726302 6.27261068,11.4868555 6.29255859,11.5008398 C6.31251953,11.5148242 6.33264974,11.5285677 6.35294922,11.5420703 C6.37323568,11.5555729 6.3936849,11.5688216 6.41429688,11.5818164 C6.43492188,11.5948112 6.45569661,11.6075586 6.47662109,11.6200586 C6.49754557,11.6325456 6.51861979,11.6447852 6.53984375,11.6567773 C6.56106771,11.6687565 6.58242839,11.6804753 6.60392578,11.6919336 C6.6254362,11.7034049 6.64708333,11.7146029 6.66886719,11.7255273 C6.69065104,11.7364648 6.71255859,11.7471354 6.73458984,11.7575391 C6.75663411,11.7679427 6.77879557,11.7780794 6.80107422,11.7879492 C6.82336589,11.797806 6.84576823,11.8073958 6.86828125,11.8167187 C6.89080729,11.8260417 6.9134375,11.8350846 6.93617187,11.8438477 C6.95891927,11.8526237 6.98176432,11.8611133 7.00470703,11.8693164 C7.02764974,11.8775326 7.0506901,11.8854687 7.07382813,11.893125 C7.09696615,11.9007812 7.12019531,11.908151 7.14351563,11.9152344 C7.16683594,11.9223177 7.19023438,11.9291211 7.21371094,11.9356445 C7.23720052,11.942168 7.26076172,11.9483984 7.28439453,11.9543359 C7.30802734,11.9602865 7.33173177,11.965944 7.35550781,11.9713086 C7.37928385,11.9766862 7.40311849,11.9817643 7.42701172,11.986543 C7.45090495,11.9913346 7.47485677,11.9958333 7.49886719,12.0000391 C7.52286458,12.0042578 7.54691406,12.0081771 7.57101563,12.0117969 C7.59511719,12.0154167 7.61925781,12.0187435 7.6434375,12.0217773 C7.66763021,12.0248112 7.69184896,12.0275521 7.71609375,12.03 C7.74033854,12.0324479 7.76460938,12.0345964 7.78890625,12.0364453 C7.81321615,12.0383073 7.83753906,12.0398698 7.861875,12.0411328 C7.88621094,12.0423958 7.9105599,12.0433659 7.93492188,12.044043 C7.95928385,12.044707 7.98365234,12.0450846 8.00802734,12.0451911 C8.03240234,12.0452539 8.05677083,12.0450326 8.08113281,12.0445117 C8.10549479,12.0440039 8.12985026,12.0431966 8.15419922,12.0420898 C8.1788737,12.0410612 8.20352865,12.0397331 8.22816406,12.0381055 C8.2528125,12.0364779 8.27742839,12.0345508 8.30201172,12.0323242 C8.32660807,12.0300846 8.35117188,12.0275456 8.37570313,12.024707 C8.40023438,12.0218685 8.42472656,12.0187305 8.44917969,12.015293 C8.47363281,12.0118555 8.49804036,12.008112 8.52240234,12.0040625 C8.54676432,12.000026 8.57107422,11.9956901 8.59533203,11.9910547 C8.61957682,11.9864062 8.64376953,11.9814648 8.66791016,11.9762305 C8.69203776,11.9709961 8.71610026,11.9654687 8.74009766,11.9596484 C8.76409505,11.9538151 8.78802083,11.9476953 8.811875,11.9412891 C8.83571615,11.9348698 8.85947917,11.9281641 8.88316406,11.9211719 C8.90683594,11.9141667 8.93042318,11.906875 8.95392578,11.8992969 C8.97742839,11.8917187 9.00083333,11.8838542 9.02414063,11.8757031 C9.04746094,11.8675391 9.07067057,11.8590951 9.09376953,11.8503711 C9.11686849,11.8416471 9.13985677,11.8326367 9.16273438,11.8233398 C9.18561198,11.814056 9.2083724,11.8044857 9.23101563,11.7946289 C9.25365885,11.7847852 9.27617839,11.7746549 9.29857422,11.7642383 C9.32097005,11.7538346 9.34323568,11.7431576 9.36537109,11.732207 C9.38750651,11.7212565 9.4094987,11.7100326 9.43134766,11.6985352 C9.45320964,11.6870378 9.47492188,11.6752799 9.49648438,11.6632617 C9.51804688,11.6512305 9.53945964,11.6389388 9.56072266,11.6263867 C9.5819987,11.6138346 9.60310547,11.6010156 9.62404297,11.5879297 C9.64499349,11.5748568 9.66578125,11.5615299 9.68640625,11.5479492 C9.70703125,11.5343685 9.72748047,11.5205339 9.74775391,11.5064453 C9.76804036,11.4923568 9.78814453,11.4780208 9.80806641,11.4634375 C9.8280013,11.4488542 9.8477474,11.4340234 9.86730469,11.4189453 C9.886875,11.4038802 9.90625,11.3885742 9.92542969,11.3730273 C9.9446224,11.3574805 9.96361979,11.3417057 9.98242188,11.3257031 C10.0012109,11.3096875 10.0198112,11.293444 10.0382227,11.2769727 C10.0566211,11.2605013 10.0748112,11.2438086 10.092793,11.2268945 C10.1107878,11.2099805 10.1285677,11.1928451 10.1461328,11.1754883 C10.1636979,11.1581315 10.1810482,11.1405599 10.1981836,11.1227734 C10.215319,11.105 10.2322331,11.0870117 10.2489258,11.0688086 C10.2655143,11.0508138 10.2818815,11.0326172 10.2980273,11.0142187 C10.3141732,10.9958203 10.3300977,10.9772266 10.3458008,10.9584375 C10.3614909,10.9396484 10.3769531,10.9206706 10.3921875,10.9015039 C10.4074219,10.8823503 10.4224154,10.8630078 10.437168,10.8434766 C10.4519336,10.8239453 10.4664583,10.8042383 10.4807422,10.7843555 C10.495013,10.7644727 10.509043,10.7444206 10.522832,10.7241992 C10.5366341,10.7039779 10.5501823,10.6835872 10.5634766,10.6630273 C10.5767708,10.6424805 10.5898112,10.6217708 10.6025977,10.6008984 C10.6153971,10.580026 10.6279362,10.5590039 10.6402148,10.537832 C10.6524935,10.5166471 10.6645117,10.495319 10.6762695,10.4738477 C10.6880273,10.4523763 10.6995182,10.4307682 10.7107422,10.4090234 C10.7219792,10.3872786 10.7329492,10.3653971 10.7436523,10.3433789 C10.7543555,10.3213607 10.7647852,10.2992187 10.7749414,10.2769531 C10.7850977,10.2546745 10.794987,10.2322786 10.8046094,10.2097656 C10.8142188,10.1872526 10.8235547,10.1646289 10.8326172,10.1418945 C10.8416797,10.1191602 10.8504622,10.0963151 10.8589648,10.0733594 C10.8674805,10.0504036 10.8757096,10.0273503 10.8836523,10.0041992 C10.8915951,9.98103516 10.8992578,9.95778646 10.9066406,9.93445312 C10.9140234,9.91110677 10.9211133,9.88768229 10.9279102,9.86417969 C10.9347201,9.84066406 10.9412435,9.81707031 10.9474805,9.79339844 C10.9537174,9.76972656 10.9596615,9.74598307 10.9653125,9.72216797 C10.9709766,9.69835286 10.9763411,9.67446615 10.9814063,9.65050781 C10.9864844,9.6265625 10.9912695,9.60255859 10.9957617,9.57849609 C11.0002409,9.55443359 11.0044336,9.53031901 11.0083398,9.50615234 C11.0122461,9.48198568 11.0158529,9.45777344 11.0191602,9.43351562 C11.0224674,9.40927083 11.0254818,9.38498047 11.0282031,9.36064453 C11.0309245,9.33632161 11.0333464,9.31196615 11.0354688,9.28757812 C11.0375911,9.2631901 11.0394206,9.23878255 11.040957,9.21435547 C11.0424935,9.18991536 11.0437305,9.16546875 11.044668,9.14101562 C11.0456055,9.11654948 11.0462435,9.09207682 11.046582,9.06759766 C11.0468691,9.04313151 11.0469596,9.01865885 11.0466992,8.99417969 C11.0464388,8.96970052 11.0458854,8.94522786 11.0450391,8.92076172 C11.0084375,8.09845703 10.6639063,7.34134766 10.0546875,6.78483789 C10.0366276,6.7684056 10.0183659,6.75219596 9.99990234,6.73620898 C9.9814388,6.72022331 9.96278646,6.70446484 9.94394531,6.68893359 C9.92510417,6.67340234 9.90607422,6.65810417 9.88685547,6.64303906 C9.86763672,6.62797266 9.84823568,6.61314323 9.82865234,6.59855078 C9.80906901,6.58395833 9.7893099,6.56960742 9.769375,6.55549805 C9.74945313,6.54138867 9.72935547,6.52752474 9.70908203,6.51390625 C9.68880859,6.50028646 9.66837891,6.48691732 9.64779297,6.47379883 C9.62719401,6.46067904 9.6064388,6.4478125 9.58552734,6.43519922 C9.56461589,6.42258724 9.54355469,6.41023177 9.52234375,6.39813281 C9.50113281,6.38603516 9.47977214,6.37419792 9.45826172,6.36262109 C9.43676432,6.35104557 9.4151237,6.33973372 9.39333984,6.32868555 C9.37156901,6.31763737 9.34966146,6.30685677 9.32761719,6.29634375 C9.30557292,6.28583073 9.28340495,6.27558854 9.26111328,6.26561719 C9.23882161,6.25564583 9.21641276,6.24594792 9.19388672,6.23652344 C9.17136068,6.22710026 9.14872396,6.21795312 9.12597656,6.20908203 C9.10321615,6.20021094 9.08035807,6.19161914 9.05740234,6.18330664 C9.03444661,6.17499414 9.01138672,6.16696289 8.98822266,6.15921289 C8.96507161,6.15146289 8.94182292,6.1439974 8.91847656,6.13681641 C8.89514323,6.12963411 8.87171875,6.12273828 8.84820313,6.11612891 C8.82470052,6.10951953 8.80111328,6.10319792 8.77744141,6.09716406 C8.75378255,6.09113151 8.73005208,6.08538802 8.70625,6.07993359 C8.68244792,6.07448047 8.65858073,6.06931836 8.63464844,6.06444727 C8.61071615,6.05957617 8.58673177,6.0549987 8.56269531,6.05071484 C8.53865885,6.04642969 8.51457031,6.0424388 8.49042969,6.03874219 C8.46628906,6.03504557 8.44210938,6.03164453 8.41789063,6.02853906 C8.39367188,6.02543229 8.36941406,6.0226224 8.34511719,6.02010937 C8.32083333,6.01759635 8.29651693,6.01538021 8.27216797,6.01346094 C8.24781901,6.01154036 8.22345703,6.00991797 8.19908203,6.00859375 C8.17469401,6.00726953 8.15029297,6.00624349 8.12587891,6.00551562 C8.10147786,6.00478646 8.0770638,6.00435612 8.05263672,6.00418034 C8.02822266,6.0040918 8.00380859,6.00425781 7.97939453,6.00472266 C7.95498047,6.0051875 7.93057292,6.00594987 7.90617188,6.00700977 C7.90052083,6.00726237 7.8948763,6.0075625 7.88923828,6.00791016 Z M8.26095703,5 C8.26259766,5.00047675 8.26421875,5.00098013 8.26587891,5.00143024 C8.35054688,5.02454687 8.44785156,5.02055703 8.53521484,5.03242266 C8.71475911,5.05639141 8.89205078,5.09167982 9.06708984,5.13828789 C9.09870443,5.14682344 9.13020182,5.15574264 9.16158203,5.16504551 C9.19297526,5.17434824 9.2242513,5.1840319 9.25541016,5.19409648 C9.28656901,5.20416107 9.31759766,5.21460352 9.34849609,5.22542383 C9.37939453,5.23624414 9.41016276,5.2474388 9.44080078,5.25900781 C9.47142578,5.27057682 9.50190755,5.28251758 9.53224609,5.29483008 C9.56258464,5.30714128 9.59276693,5.31982096 9.62279297,5.33286914 C9.65283203,5.34591602 9.68270182,5.35932617 9.71240234,5.37309961 C9.74210286,5.38687435 9.77163411,5.40100846 9.80099609,5.41550195 C9.83035807,5.42999544 9.85953776,5.4448444 9.88853516,5.46004883 C9.91753255,5.47525326 9.94633464,5.49080859 9.97494141,5.50671484 C10.0035612,5.52261979 10.0319857,5.53887174 10.0602148,5.5554707 C10.088431,5.57206836 10.1164453,5.58900716 10.1442578,5.60628711 C10.1720703,5.62356706 10.199668,5.64118359 10.2270508,5.65913672 C10.2544336,5.67708854 10.2815885,5.69537174 10.3085156,5.71398633 C10.3354557,5.73259961 10.3621615,5.75153841 10.3886328,5.77080273 C10.4151042,5.79006706 10.4413411,5.80965104 10.4673438,5.82955469 C10.4933464,5.84945703 10.5190951,5.86967383 10.5445898,5.89020508 C10.5700977,5.91073503 10.5953516,5.93157292 10.6203516,5.95271875 C10.6453516,5.97386328 10.6700846,5.9953099 10.6945508,6.01705859 C10.7190299,6.03880599 10.7432422,6.06084831 10.7671875,6.08318555 C10.7911198,6.10552279 10.8147786,6.12814844 10.8381641,6.1510625 C10.8615495,6.17397526 10.8846549,6.19716992 10.9074805,6.22064648 C10.930306,6.24412305 10.9528385,6.2678737 10.9750781,6.29189844 C10.9973177,6.31592448 11.0192643,6.34021745 11.040918,6.36477734 C11.0625716,6.38933594 11.0839258,6.4141556 11.1049805,6.43923633 C11.1260221,6.46431576 11.1467578,6.48964779 11.1671875,6.51523242 C11.1876172,6.54081706 11.2077344,6.56664648 11.2275391,6.5927207 C11.2473437,6.61879622 11.2668294,6.64510872 11.2859961,6.6716582 C11.3051497,6.69820638 11.3239844,6.72498437 11.3425,6.75199219 C11.3610026,6.779 11.3791797,6.80622917 11.3970312,6.83367969 C11.4148698,6.86113151 11.4323763,6.88879557 11.4495508,6.91667187 C11.4667253,6.94455469 11.4835547,6.97263672 11.5000391,7.00091797 C11.5165625,7.02940755 11.5327344,7.05809245 11.5485547,7.08697266 C11.564362,7.11585286 11.5798177,7.14492839 11.5949219,7.17419922 C11.6100391,7.20345703 11.6247852,7.23289714 11.6391602,7.26251953 C11.6535482,7.29214193 11.6675716,7.3219401 11.6812305,7.35191406 C11.6948893,7.381875 11.7081771,7.41200521 11.7210938,7.44230469 C11.7340104,7.47259115 11.746556,7.50303385 11.7587305,7.53363281 C11.7708919,7.56423177 11.7826888,7.59497396 11.7941211,7.62585937 C11.8055404,7.65674479 11.8165755,7.68776693 11.8272266,7.71892578 C11.8378906,7.75008464 11.8481706,7.7813737 11.8580664,7.81279297 C11.8679622,7.84419922 11.8774674,7.87572266 11.886582,7.90736328 C11.8957096,7.93900391 11.9044466,7.97075521 11.912793,8.00261719 C11.9211393,8.03446615 11.9290951,8.06641927 11.9366602,8.09847656 C11.9442253,8.13052083 11.9513932,8.16265625 11.9581641,8.19488281 C11.9649479,8.22710937 11.9713281,8.25941406 11.9773047,8.29179687 C11.9832943,8.32417969 11.9888867,8.35663411 11.994082,8.38916016 C11.9992643,8.42167318 12.004056,8.4542513 12.008457,8.48689453 C12.0128451,8.51952474 12.0168359,8.55220703 12.0204297,8.58494141 C12.0240234,8.61767578 12.0272201,8.65044922 12.0300195,8.68326172 C12.032806,8.71607422 12.0351953,8.74891927 12.0371875,8.78179687 C12.0391667,8.81467448 12.0407487,8.8475651 12.0419336,8.88046875 C12.0431185,8.91338542 12.0438997,8.94630208 12.0442773,8.97921875 C12.0446419,9.01214844 12.0446094,9.04507812 12.0441797,9.07800781 C12.04375,9.1109375 12.0429167,9.14386068 12.0416797,9.17677734 C12.0404557,9.20968099 12.0388216,9.2425651 12.0367773,9.27542969 C12.0347331,9.30829427 12.0322917,9.34113281 12.0294531,9.37394531 C12.0266016,9.40675781 12.0233529,9.43952474 12.019707,9.47224609 C12.0160612,9.50498047 12.0120117,9.53766276 12.0075586,9.57029297 C12.0031185,9.60292318 11.9982747,9.63549479 11.9930273,9.66800781 C11.9877799,9.70052083 11.9821419,9.73296224 11.9761133,9.76533203 C11.9700716,9.79770182 11.9636328,9.82999349 11.9567969,9.86220703 C11.949974,9.89442057 11.9427539,9.92654948 11.9351367,9.95859375 C11.9275195,9.99063802 11.9195117,10.0225781 11.9111133,10.0544141 C11.885918,10.1491146 11.8572982,10.2427669 11.8252539,10.3353711 C11.7932096,10.4279753 11.757819,10.5192839 11.719082,10.6092969 C11.6803581,10.6993099 11.6383919,10.7877865 11.5931836,10.8747266 C11.5479753,10.9616797 11.4996484,11.0468555 11.4482031,11.1302539 C11.4117318,11.1892122 11.3737565,11.2471875 11.3342773,11.3041797 C11.2997656,11.3539844 11.2213867,11.4443164 11.2042969,11.4969922 L13.0583594,13.3501367 L13.5995313,13.89125 C13.6993945,13.9908203 13.8126758,14.0896875 13.9,14.2000586 C13.9553906,14.2700781 13.9689844,14.3451953 14,14.4263086 L14,5 L8.26095703,5 Z M4,9.27173828 L4,15 L13.4201367,15 C13.3478125,14.9607227 13.2815234,14.962168 13.2016016,14.9020312 C13.107832,14.8314844 13.0090234,14.7166211 12.9237305,14.6311523 L12.3954492,14.1030859 L10.4926172,12.2003906 C10.3930273,12.2660742 10.2994531,12.340625 10.1988867,12.4054883 C10.1177148,12.457832 10.0347721,12.507207 9.95005859,12.5536133 C9.86534505,12.6000195 9.77908203,12.6433398 9.69126953,12.6835742 C9.60344401,12.7237956 9.51429687,12.7608268 9.42382813,12.794668 C9.33335937,12.8284961 9.24179688,12.8590495 9.14914063,12.8863281 C9.11765625,12.8955078 9.0860612,12.9043034 9.05435547,12.9127148 C9.02266276,12.9211263 8.99086589,12.9291471 8.95896484,12.9367773 C8.9270638,12.9444076 8.89507813,12.9516406 8.86300781,12.9584766 C8.83092448,12.9653255 8.79876953,12.9717839 8.76654297,12.9778516 C8.73430339,12.9839062 8.7019987,12.9895638 8.66962891,12.9948242 C8.63725911,13.0000977 8.60483073,13.004974 8.57234375,13.0094531 C8.53985677,13.0139193 8.50731771,13.0179948 8.47472656,13.0216797 C8.44213542,13.0253516 8.40950521,13.0286263 8.37683594,13.0315039 C8.34415365,13.0343815 8.31145182,13.036862 8.27873047,13.0389453 C8.24599609,13.0410156 8.21324219,13.0426888 8.18046875,13.0439648 C8.14769531,13.0452409 8.11490885,13.0461198 8.08210937,13.0466016 C8.04932292,13.0470703 8.01652995,13.0471419 7.98373047,13.0468164 C7.95093099,13.0464779 7.91814453,13.0457422 7.88537109,13.0446094 C7.85259766,13.0434766 7.81983724,13.0419466 7.78708984,13.0400195 C7.75435547,13.0380794 7.72164714,13.0357422 7.68896484,13.0330078 C7.65628255,13.0302734 7.62363932,13.0271354 7.59103516,13.0235937 C7.55843099,13.0200651 7.5258724,13.0161328 7.49335937,13.0117969 C7.46084635,13.0074609 7.42839193,13.0027279 7.39599609,12.9975977 C7.36360026,12.9924674 7.33127604,12.9869466 7.29902344,12.9810352 C7.26675781,12.9751107 7.23457682,12.9687956 7.20248047,12.9620898 C7.17037109,12.9553841 7.13835286,12.9482878 7.10642578,12.9408008 C7.0744987,12.9333008 7.04266276,12.9254167 7.01091797,12.9171484 C6.9791862,12.9088802 6.94755859,12.9002214 6.91603516,12.8911719 C6.8844987,12.8821354 6.85308594,12.8727083 6.82179687,12.8628906 C6.79050781,12.8530729 6.75933594,12.8428776 6.72828125,12.8323047 C6.69723958,12.8217318 6.66632812,12.8107747 6.63554688,12.7994336 C6.60477865,12.7881055 6.57414714,12.7763997 6.54365234,12.7643164 C6.51317057,12.7522331 6.48283203,12.7397721 6.45263672,12.7269336 C6.42245443,12.7141081 6.3924349,12.700918 6.36257812,12.6873633 C6.33270833,12.6737956 6.30301432,12.6598698 6.27349609,12.6455859 C6.24397786,12.6312891 6.21463542,12.6166406 6.18546875,12.6016406 C6.1563151,12.5866276 6.12734375,12.571263 6.09855469,12.5555469 C6.06893229,12.5394531 6.03951823,12.5229818 6.0103125,12.5061328 C5.98111979,12.4892969 5.95213607,12.4720964 5.92336133,12.4545312 C5.89459049,12.4369531 5.86604557,12.4190234 5.83772656,12.4007422 C5.80940885,12.3824479 5.78132552,12.3638021 5.75347656,12.3448047 C5.7256263,12.3258073 5.69802018,12.3064648 5.6706582,12.2867773 C5.64329622,12.2670898 5.6161862,12.2470573 5.58932813,12.2266797 C5.56247135,12.2063021 5.53587435,12.1855924 5.50953711,12.1645508 C5.48320117,12.1435091 5.45713411,12.1221354 5.43133594,12.1004297 C5.40553906,12.078737 5.38001888,12.0567187 5.35477539,12.034375 C5.3295319,12.0120312 5.30457357,11.989375 5.27990039,11.9664062 C5.25522721,11.9434245 5.23084766,11.9201432 5.20676172,11.8965625 C5.18267448,11.8729818 5.15888867,11.8490951 5.1354043,11.8249023 C5.11191862,11.8007227 5.08874154,11.77625 5.06587305,11.7514844 C5.04300456,11.7267187 5.02045117,11.7016667 4.99821289,11.6763281 C4.97597591,11.6509896 4.95406055,11.6253776 4.9324668,11.5994922 C4.91087435,11.5736068 4.88961068,11.5474479 4.86867578,11.5210156 C4.84774219,11.4945964 4.82714453,11.4679167 4.80688281,11.4409766 C4.78661979,11.4140365 4.76669987,11.3868424 4.74712305,11.3593945 C4.72754492,11.3319466 4.70831576,11.3042578 4.68943555,11.2763281 C4.67055534,11.2484115 4.65202995,11.2202539 4.63385938,11.1918555 C4.6156888,11.163457 4.59787826,11.1348372 4.58042773,11.1059961 C4.56297721,11.0771549 4.54589258,11.048099 4.52917383,11.0188281 C4.51245508,10.9895573 4.49610807,10.9600781 4.48013281,10.9303906 C4.46415625,10.9007031 4.44855599,10.8708203 4.43333203,10.8407422 C4.41810807,10.8106641 4.40326562,10.7803971 4.38880469,10.7499414 C4.37434245,10.7194987 4.36026628,10.6888737 4.34657617,10.6580664 C4.33288607,10.6272591 4.31958594,10.5962826 4.30667578,10.5651367 C4.29376562,10.5340039 4.28124935,10.5027083 4.26912695,10.47125 C4.25700586,10.4397917 4.2452819,10.4081836 4.23395508,10.3764258 C4.22262956,10.344681 4.21170508,10.312793 4.20118164,10.2807617 C4.19065859,10.2487435 4.18054043,10.2165885 4.17082715,10.1842969 C4.16111374,10.1520182 4.15180833,10.1196224 4.14291094,10.0871094 C4.09741875,9.9203776 4.06281289,9.75141927 4.03909336,9.58023437 C4.0270418,9.4909375 4.02641367,9.35804687 4.00132855,9.27583984 C4.00091029,9.27445312 4.00044285,9.27310547 4,9.27173828 Z M4,5 L4,8.75771484 C4.02645684,8.69716797 4.02415586,8.57394531 4.03308848,8.50333984 C4.04196686,8.4380013 4.05223197,8.3728776 4.06388379,8.30796875 C4.07364316,8.25346354 4.08453411,8.1991862 4.09655664,8.14513672 C4.1085793,8.09107422 4.12172311,8.03729167 4.13598809,7.98378906 C4.15025293,7.93028646 4.16562663,7.87710286 4.18210918,7.82423828 C4.19859108,7.7713737 4.21616797,7.7188737 4.23483984,7.66673828 C4.25351172,7.61461589 4.27326172,7.56289714 4.29408984,7.51158203 C4.31491667,7.46027995 4.33680469,7.40942708 4.35975391,7.35902344 C4.38270182,7.30863281 4.4066901,7.25874349 4.43171875,7.20935547 C4.4567474,7.15995443 4.48279427,7.11110026 4.50985937,7.06279297 C4.52617578,7.03345703 4.54285742,7.00433594 4.5599043,6.97542969 C4.57695247,6.94651823 4.59436068,6.91782487 4.61212891,6.88934961 C4.62989714,6.86087565 4.64802018,6.83262891 4.66649805,6.80460937 C4.68497591,6.77658984 4.70380208,6.74880664 4.72297656,6.72125977 C4.74215234,6.69371419 4.76167057,6.66641276 4.78153125,6.63935547 C4.80139193,6.61229948 4.82158919,6.58549674 4.84212305,6.55894727 C4.8626569,6.53239909 4.88352148,6.50611198 4.9047168,6.48008594 C4.92591081,6.4540612 4.94742839,6.42830599 4.96926953,6.40282031 C4.99111068,6.37733594 5.01326823,6.35212956 5.03574219,6.32720117 C5.05821615,6.30227279 5.08099935,6.27763021 5.1040918,6.25327344 C5.12718424,6.22891797 5.15057943,6.20485612 5.17427734,6.18108789 C5.19797396,6.15731836 5.22196549,6.13385091 5.24625195,6.11068555 C5.27053841,6.08751888 5.29511198,6.06466081 5.31997266,6.04211133 C5.34483333,6.01956315 5.36997266,5.99733008 5.39539063,5.97541211 C5.4208099,5.95349414 5.4465,5.93189909 5.47246094,5.91062695 C5.49842318,5.88935352 5.52464779,5.86841016 5.55113477,5.84779687 C5.57762174,5.82718229 5.60436328,5.8069043 5.63135938,5.78696289 C5.65835547,5.76702018 5.68559766,5.74741927 5.71308594,5.72816016 C5.74057552,5.70890234 5.76830208,5.68999219 5.79626562,5.67142969 C5.82422917,5.65286849 5.85242122,5.63466081 5.8808418,5.61680664 C5.90926237,5.59895247 5.93790104,5.58145833 5.96675781,5.56432422 C5.995625,5.5471888 6.02469401,5.53041862 6.05396484,5.51401367 C6.0832487,5.49761003 6.11273438,5.48157552 6.14242187,5.46591016 C6.17210938,5.45024609 6.20198568,5.43495703 6.23205078,5.42004297 C6.26211589,5.40512891 6.29236328,5.39059505 6.32279297,5.37644141 C6.35323568,5.36228646 6.38384115,5.34851628 6.41460938,5.33513086 C6.44539063,5.32174544 6.47633464,5.30874805 6.50744141,5.29613867 C6.53854818,5.2835306 6.56980469,5.27131445 6.60121094,5.25949023 C6.63263021,5.24766732 6.6641862,5.23624023 6.69587891,5.22520898 C6.72758464,5.21417773 6.75942057,5.20354622 6.79138672,5.19331445 C6.82335286,5.18308268 6.85544271,5.17325384 6.88765625,5.16382793 C6.91986979,5.15440202 6.95219401,5.14538203 6.98462891,5.13676797 C7.16607422,5.08906771 7.34984375,5.05327858 7.5359375,5.02940059 C7.61572266,5.01897637 7.71490234,5.02334746 7.79042969,5.00138545 C7.79191406,5.00095255 7.79339844,5.00046182 7.79488281,5 L4,5 Z M13.5798438,15 L14,15 L14,14.5736133 C13.9839258,14.6163086 13.9729687,14.6606641 13.9546484,14.7025391 C13.9067969,14.8118945 13.8146289,14.9083203 13.7044336,14.9562891 C13.6667969,14.9726758 13.6127148,14.977793 13.5798438,15 Z"
                  id="Magnifying-Glass"></path>
              </g>
            </g>
          </g>
        </g>
      </g>
    </g>
  </g>
</svg>