<?xml version="1.0" encoding="utf-8" ?>
<svg xmlns="http://www.w3.org/2000/svg" xmlns:xlink="http://www.w3.org/1999/xlink" width="100%" height="100%">
  <path fill="var(--appMediumGray)" transform="matrix(0.97437 0.224951 -0.224951 0.97437 3.43455 0.0516348)"
    d="M7.3967137 0.0034122758C7.4816012 0.0037472283 7.5664659 0.0034129154 7.6513529 0.0030161582C8.8596201 0.0020074681 8.8596201 0.0020074681 9.2194071 0.32612628C9.4374065 0.57236606 9.4888983 0.82340521 9.5152874 1.1324085C9.5569439 1.6067055 9.7601976 2.0541077 10.134591 2.3828912C10.527452 2.6859601 11.026072 2.8798947 11.540854 2.8594511C11.853323 2.8284569 12.105609 2.7547863 12.38544 2.6266558C12.695096 2.4880815 12.983301 2.4346507 13.319536 2.5390224C13.402554 2.5758278 13.475208 2.6141181 13.550243 2.663708C13.576276 2.6807215 13.602309 2.6977351 13.629131 2.7152643C13.746604 2.8142633 13.832447 2.9271433 13.923312 3.0478811C13.942236 3.0728309 13.96116 3.0977807 13.980657 3.1234863C14.149092 3.348089 14.302803 3.5784669 14.445608 3.8181777C14.457182 3.8375142 14.468756 3.8568504 14.48068 3.8767726C15.064241 4.8590336 15.064241 4.8590336 14.920363 5.4013076C14.889255 5.4716315 14.854494 5.5328674 14.810387 5.5966849C14.797477 5.6153879 14.784567 5.6340909 14.771266 5.6533604C14.672979 5.775661 14.55736 5.8516521 14.420736 5.9340553C13.938043 6.2272668 13.640111 6.6276865 13.517081 7.1567793C13.43293 7.6417432 13.532741 8.1263189 13.823827 8.5374622C14.003332 8.7619314 14.19697 8.9410477 14.449753 9.0912962C14.698163 9.2409544 14.865829 9.4126492 14.943033 9.6841316C14.98044 10.007572 14.926294 10.264329 14.777225 10.557785C14.767628 10.57696 14.758031 10.596135 14.748143 10.615892C14.673175 10.764831 14.59364 10.911263 14.511931 11.057014C14.500475 11.077578 14.489018 11.098141 14.477215 11.119328C13.894629 12.155815 13.894629 12.155815 13.479774 12.377244C13.451647 12.392569 13.423519 12.407893 13.394539 12.423681C13.180162 12.528638 12.923203 12.528829 12.68804 12.492301C12.556351 12.45212 12.433949 12.395592 12.309716 12.338615C11.828164 12.11886 11.3419 12.094659 10.830986 12.242686C10.274091 12.447299 9.9196558 12.763918 9.6576338 13.266742C9.5579205 13.499556 9.5344324 13.742267 9.5045195 13.989992C9.4669456 14.296783 9.3755302 14.55336 9.1107254 14.752488C8.6880016 15.040894 8.0646591 14.998916 7.5666027 14.996588C7.4817152 14.996253 7.3968506 14.996587 7.3119636 14.996984C6.1036959 14.997993 6.1036959 14.997993 5.7439094 14.673874C5.5259099 14.427634 5.4744177 14.176595 5.448029 13.867592C5.406373 13.393294 5.2031188 12.945892 4.8287249 12.617109C4.4358654 12.31404 3.9372451 12.120105 3.4224632 12.140549C3.1099937 12.171543 2.8577075 12.245214 2.577877 12.373344C2.2682199 12.511919 1.980015 12.56535 1.6437802 12.460978C1.5607634 12.424172 1.4881084 12.385882 1.4130734 12.336292C1.3740237 12.310772 1.3740237 12.310772 1.334185 12.284736C1.2167144 12.185738 1.130862 12.07286 1.0400047 11.952119C1.021081 11.927147 1.0021572 11.902174 0.98266 11.876445C0.71336061 11.517095 0.48489267 11.142603 0.28463769 10.745499C0.25227496 10.682319 0.21836799 10.62003 0.18427831 10.557663C0.016857706 10.24083 -0.052417208 9.9509459 0.043729853 9.5980825C0.073864698 9.5268965 0.10800572 9.4671183 0.15293019 9.4033146C0.16583991 9.3846521 0.17874965 9.3659897 0.19205058 9.3467617C0.29022655 9.2243252 0.40592846 9.148365 0.54257977 9.0659447C1.0252742 8.7727327 1.3232056 8.3723135 1.4462352 7.8432207C1.5303861 7.3582568 1.4305763 6.8736811 1.1394898 6.4625373C0.95998478 6.2380686 0.76634669 6.0589528 0.51356328 5.9087038C0.26515335 5.7590456 0.097487032 5.5873513 0.020283518 5.3158684C-0.017124036 4.9924278 0.037022587 4.735671 0.18609184 4.4422154C0.20048705 4.4134521 0.20048705 4.4134521 0.21517307 4.3841081C0.29014149 4.2351694 0.36967623 4.088737 0.45138517 3.9429853C0.46284148 3.9224222 0.47429782 3.901859 0.4861013 3.8806729C1.0686882 2.8441851 1.0686882 2.8441851 1.483542 2.6227555C1.5116699 2.6074314 1.5397977 2.5921071 1.5687778 2.5763183C1.7831544 2.4713621 2.0401134 2.4711714 2.2752767 2.5076985C2.406966 2.5478802 2.5293682 2.6044083 2.6536 2.6613846C3.1369708 2.8819692 3.6192865 2.9027498 4.1323299 2.7573137C4.6606026 2.5565808 5.0256152 2.2615354 5.2797756 1.7838393C5.3926525 1.5313661 5.4282951 1.280723 5.4587965 1.0100082C5.4960423 0.70326889 5.5879545 0.44651401 5.8525915 0.24751216C6.2753148 -0.040893402 6.8986573 0.0010843853 7.3967137 0.0034122758ZM5.4651442 5.7964501C4.9495878 6.3714652 4.7306046 7.0663557 4.7955632 7.8120189C4.8765125 8.4437733 5.2416925 9.0564919 5.7572517 9.4657183C6.3924241 9.9053497 7.1018014 10.10806 7.8894267 10.018714C8.6107454 9.9125042 9.2607927 9.5174818 9.688982 8.9664888C10.103419 8.3981104 10.260536 7.7293801 10.147157 7.0476947C10.018289 6.4105945 9.613533 5.7914157 9.0431871 5.4243131C7.8782187 4.7064242 6.4318619 4.8478112 5.4651442 5.7964501Z" />
</svg>