<?xml version="1.0" encoding="UTF-8"?>
<svg width="100%" height="100%" viewBox="0 0 30 30" version="1.1" xmlns="http://www.w3.org/2000/svg"
  xmlns:xlink="http://www.w3.org/1999/xlink">
  <title>Shape</title>
  <g id="Framework" stroke="none" stroke-width="1" fill="none" fill-rule="evenodd">
    <g transform="translate(-572, -244)" fill="var(--appSpringGreen)" fill-rule="nonzero" id="Modals">
      <g id="Wide-Style" transform="translate(546, 123)">
        <g id="Components" transform="translate(0, 54)">
          <g id="Hover" transform="translate(20, 61)">
            <path
              d="M23.6237045,6.24895044 C23.6769353,6.25864585 23.7301661,6.26834126 23.7850099,6.27833047 C26.2123459,6.72492721 28.4723408,7.78855473 30.3870315,9.33909126 C30.4187765,9.36474839 30.4505214,9.39040552 30.4832283,9.41684014 C31.3036804,10.0860744 32.0741788,10.8303577 32.7192133,11.671273 C32.7634815,11.7255372 32.8077496,11.7798014 32.8533593,11.83571 C34.3610472,13.7161118 35.3212254,16.0164277 35.7510496,18.3762955 C35.7605946,18.4250168 35.7701397,18.4737381 35.7799741,18.5239358 C36.0884328,20.1395203 36.0668728,22.0116382 35.7510496,23.6237045 C35.7413542,23.6769353 35.7316587,23.7301661 35.7216695,23.7850099 C35.2750728,26.2123459 34.2114453,28.4723408 32.6609087,30.3870315 C32.6352516,30.4187765 32.6095945,30.4505214 32.5831599,30.4832283 C31.9139256,31.3036804 31.1696423,32.0741788 30.328727,32.7192133 C30.2744628,32.7634815 30.2201986,32.8077496 30.16429,32.8533593 C28.2838882,34.3610472 25.9835723,35.3212254 23.6237045,35.7510496 C23.5749832,35.7605946 23.5262619,35.7701397 23.4760642,35.7799741 C21.8604797,36.0884328 19.9883618,36.0668728 18.3762955,35.7510496 C18.3230647,35.7413542 18.2698339,35.7316587 18.2149901,35.7216695 C15.7876541,35.2750728 13.5276592,34.2114453 11.6129685,32.6609087 C11.5812235,32.6352516 11.5494786,32.6095945 11.5167717,32.5831599 C10.6963196,31.9139256 9.92582117,31.1696423 9.28078671,30.328727 C9.23651853,30.2744628 9.19225035,30.2201986 9.14664071,30.16429 C7.63895283,28.2838882 6.67877459,25.9835723 6.24895044,23.6237045 C6.23940535,23.5749832 6.22986026,23.5262619 6.22002592,23.4760642 C5.9115672,21.8604797 5.93312721,19.9883618 6.24895044,18.3762955 C6.25864585,18.3230647 6.26834126,18.2698339 6.27833047,18.2149901 C6.72492721,15.7876541 7.78855473,13.5276592 9.33909126,11.6129685 C9.36474839,11.5812235 9.39040552,11.5494786 9.41684014,11.5167717 C10.0860744,10.6963196 10.8303577,9.92582117 11.671273,9.28078671 C11.7255372,9.23651853 11.7798014,9.19225035 11.83571,9.14664071 C13.7161118,7.63895283 16.0164277,6.67877459 18.3762955,6.24895044 C18.4250168,6.23940535 18.4737381,6.22986026 18.5239358,6.22002592 C20.1395203,5.9115672 22.0116382,5.93312721 23.6237045,6.24895044 Z M26.1262163,16.0420783 C26.0451494,16.1231616 25.9640696,16.2042321 25.882978,16.2852908 C25.6644876,16.5037645 25.4461767,16.7224166 25.2278991,16.9411028 C24.9991539,17.1702143 24.7702419,17.3991589 24.541348,17.6281218 C24.1086512,18.0609993 23.6761031,18.4940252 23.2436092,18.9271054 C22.7509171,19.4204508 22.258058,19.9136293 21.7651853,20.4067942 C20.7519794,21.4206083 19.7389819,22.4346304 18.7261228,23.4487908 C18.5385978,23.3598161 18.4178263,23.2681629 18.2742626,23.1171837 C18.1269249,22.9660751 17.9790662,22.8208007 17.8187583,22.6835437 C17.5804759,22.4787624 17.3517983,22.2644424 17.1227478,22.0494818 C16.791901,21.7385232 16.791901,21.7385232 16.4522456,21.4372841 C16.2252206,21.2419831 16.0075369,21.037079 15.7890314,20.8323744 C15.6754044,20.7261622 15.5617529,20.6199762 15.4480865,20.5138062 C15.3575884,20.4292253 15.2672016,20.3445255 15.1768337,20.2598056 C14.7412691,19.8582694 14.3043811,19.4651675 13.6937119,19.4075571 C13.251058,19.4450702 12.9130276,19.5792593 12.5884308,19.8876586 C12.3139791,20.2172485 12.2124635,20.6080132 12.231771,21.032113 C12.3204118,21.5935049 12.6779197,21.9706558 13.0956348,22.3264284 C13.2957355,22.5015925 13.488966,22.6836822 13.6827798,22.8657454 C13.939931,23.1069264 14.1981165,23.3453799 14.4653361,23.575421 C14.6662294,23.7521467 14.8615158,23.9349495 15.0577478,24.1168163 C15.2491636,24.2940818 15.4416491,24.4699573 15.635982,24.644034 C15.8614239,24.8460534 16.0843495,25.0505968 16.3064842,25.2562317 C16.5784387,25.5079153 16.8518003,25.7578274 17.1282139,26.0046252 C17.2261783,26.0927295 17.3232908,26.1817864 17.4197366,26.2715507 C17.8691079,26.6870837 18.2455926,26.9733404 18.8759837,26.9630061 C19.6278297,26.8783932 20.1596224,26.1628288 20.6593549,25.6595638 C20.7671409,25.5510241 20.8751163,25.4426759 20.9831392,25.334372 C21.2124257,25.1044238 21.4414814,24.8742466 21.6705023,24.644034 C21.9361866,24.3769671 22.2019682,24.1099985 22.4679986,23.8432762 C22.5736547,23.737246 22.6791317,23.6310399 22.7846016,23.5248245 C22.8502447,23.4589693 22.9158962,23.3931224 22.9815574,23.3272851 C23.0102235,23.2983178 23.0388896,23.2693504 23.0684243,23.2395053 C23.224299,23.0836077 23.3843686,22.935745 23.5514537,22.7918879 C23.8372864,22.5440385 24.1043102,22.2784801 24.3723826,22.0117034 C24.4283566,21.9561914 24.4843406,21.9006896 24.5403338,21.845197 C24.722394,21.6646494 24.9041512,21.4837984 25.0858731,21.3029103 C25.1488218,21.2402746 25.2117708,21.1776391 25.2747201,21.1150039 C25.536548,20.8544339 25.7982931,20.5937813 26.0598224,20.3329115 C26.4330209,19.9606608 26.8067068,19.5889152 27.1810858,19.2178516 C27.4453292,18.9558683 27.709008,18.6933251 27.9722777,18.4303633 C28.1291216,18.2737317 28.2861964,18.11735 28.4438811,17.9615645 C28.5921182,17.815088 28.7396392,17.6679258 28.8866559,17.5202249 C28.965956,17.4409059 29.0459753,17.362308 29.1260196,17.2837401 C29.4581616,16.9482226 29.6922848,16.6340303 29.7766558,16.1625449 C29.7710092,15.7051662 29.6730901,15.3658672 29.3812782,15.0092081 C28.0209876,13.8962431 27.1016639,15.0638276 26.1262163,16.0420783 Z"
              id="Shape"></path>
          </g>
        </g>
      </g>
    </g>
  </g>
</svg>