<?xml version="1.0" encoding="UTF-8"?>
<svg width="100%" height="100%" viewBox="0 0 15 12" version="1.1" xmlns="http://www.w3.org/2000/svg"
  xmlns:xlink="http://www.w3.org/1999/xlink">
  <title>Telegram</title>
  <g id="Framework" stroke="none" stroke-width="1" fill="none" fill-rule="evenodd">
    <g transform="translate(-1647, -22)" fill="var(--appMediumGray)" fill-rule="nonzero" id="Overlays">
      <g id="Side-Panel" transform="translate(917, 0)">
        <g id="Events" transform="translate(273, 0)">
          <g id="Error-Style" transform="translate(20, 17)">
            <g id="Actions" transform="translate(379, 3)">
              <g id="Regular" transform="translate(58, 2)">
                <path
                  d="M13.3822099,0.0490366862 L0.373999352,5.08281692 C0.36626,5.08579923 0.358757435,5.08936295 0.351555924,5.09347755 C0.246071815,5.15323318 -0.490072605,5.60350444 0.547935915,6.00720559 L0.558596543,6.01113319 L3.65607007,7.01182951 C3.70390531,7.02736826 3.75615999,7.02100325 3.79886638,6.99443586 L11.4815321,2.20108084 C11.5003682,2.18932442 11.521344,2.1814108 11.5432516,2.17779578 C11.6501384,2.16012158 11.9578939,2.12701753 11.7631972,2.37417577 C11.542971,2.65471861 6.29541714,7.35717775 5.7130102,7.8787069 C5.67942604,7.90885739 5.65864854,7.95071351 5.65493783,7.99569326 L5.40076602,11.025556 C5.40069976,11.0881238 5.4301186,11.1470654 5.48015964,11.1846238 C5.55206001,11.2299115 5.64512035,11.2228494 5.70936314,11.1672301 L7.5497242,9.52240742 C7.60963135,9.46889326 7.69872705,9.46433922 7.76377838,9.51146624 L10.9745912,11.8427773 L10.9849713,11.8497908 C11.0626817,11.8977637 11.9020659,12.3861888 12.1444549,11.2954382 L14.3607433,0.75684628 C14.3638293,0.723461681 14.3938474,0.356511642 14.1315398,0.139652025 C13.8560468,-0.0870265927 13.4660922,0.0274348873 13.4074588,0.0397787724 C13.398809,0.042186413 13.3903658,0.045282262 13.3822099,0.0490366862 Z"
                  id="Telegram"></path>
              </g>
            </g>
          </g>
        </g>
      </g>
    </g>
  </g>
</svg>
