<?xml version="1.0" encoding="UTF-8"?>
<svg width="100%" height="100%" viewBox="0 0 24 20" version="1.1" xmlns="http://www.w3.org/2000/svg"
  xmlns:xlink="http://www.w3.org/1999/xlink">
  <title>Telegram</title>
  <g id="Framework" stroke="none" stroke-width="1" fill="none" fill-rule="evenodd">
    <g transform="translate(-100, -492)" fill="#FFFFFF" fill-rule="nonzero" id="Menu">
      <g transform="translate(-0, 35)">
        <g id="Menu" transform="translate(45, 67)">
          <g id="Social-Icons" transform="translate(20, 390)">
            <g id="Regular" transform="translate(35, 0)">
              <path
                d="M22.3036832,0.0817278103 L0.623332253,8.47136154 C0.610433333,8.47633205 0.597929058,8.48227158 0.58592654,8.48912925 C0.410119692,8.58872196 -0.816787676,9.33917406 0.913226524,10.0120093 L0.930994238,10.0185553 L6.09345012,11.6863825 C6.17317551,11.7122804 6.26026665,11.7016721 6.33144397,11.6573931 L19.1358869,3.66846806 C19.1672803,3.64887404 19.20224,3.63568467 19.2387526,3.62965963 C19.4168973,3.60020264 19.9298232,3.54502921 19.6053286,3.95695962 C19.238285,4.42453102 10.4923619,12.2619629 9.52168367,13.1311782 C9.46571006,13.181429 9.4310809,13.2511892 9.42489639,13.3261554 L9.00127669,18.3759266 C9.00116626,18.4802063 9.05019766,18.5784424 9.1335994,18.6410396 C9.25343336,18.7165192 9.40853391,18.704749 9.51560524,18.6120502 L12.5828737,15.870679 C12.6827189,15.7814888 12.8312118,15.7738987 12.9396306,15.8524437 L18.2909854,19.7379621 L18.3082855,19.7496514 C18.4378028,19.8296061 19.8367764,20.6436479 20.2407581,18.8257303 L23.9345722,1.26141047 C23.9397155,1.20576947 23.9897457,0.594186071 23.5525664,0.232753374 C23.0934113,-0.145044321 22.443487,0.0457248121 22.3457646,0.066297954 C22.3313484,0.0703106883 22.3172764,0.0754704366 22.3036832,0.0817278103 Z"
                id="Telegram"></path>
            </g>
          </g>
        </g>
      </g>
    </g>
  </g>
</svg>
