<?xml version="1.0" encoding="utf-8" ?>
<svg xmlns="http://www.w3.org/2000/svg" xmlns:xlink="http://www.w3.org/1999/xlink" width="100%" height="100%">
  <path fill="var(--appMediumGray)"
    d="M0 0L7.0690722 0L7.9277635 0L15 0L15 7.0998631L15 7.9064941L15 15L7.9377537 15L7.0716209 15L0 15L0 7.9379296L0 7.0561814L0 0ZM7.1796093 1.0576612C6.8426952 1.0838525 6.5129881 1.1181827 6.181582 1.1867021C6.1378126 1.195792 6.0941405 1.205336 6.0505662 1.2153339C6.0069728 1.2253339 5.9634962 1.2357872 5.9201369 1.2466934C5.8767967 1.2575996 5.8335643 1.268957 5.7904396 1.2807657C5.7473145 1.2925723 5.7043166 1.3048282 5.6614451 1.3175333C5.6185741 1.3302382 5.5758495 1.3433887 5.5332713 1.3569844C5.490674 1.3705801 5.4482226 1.3846182 5.4059181 1.3990986C5.3636327 1.4135791 5.3214941 1.428499 5.2795019 1.4438584C5.2375097 1.4592178 5.1956835 1.4750136 5.1540236 1.4912461C5.1123633 1.5074785 5.070879 1.5241426 5.0295701 1.5412383C4.9882617 1.5583359 4.9471288 1.5758623 4.9061718 1.5938174C4.8652344 1.6117705 4.8244824 1.6301494 4.783916 1.6489542C4.7433496 1.6677588 4.7029881 1.6869844 4.6628323 1.7066308C4.6226759 1.7262774 4.5827246 1.7463409 4.5429783 1.7668213C4.5032325 1.7872998 4.4637108 1.8081914 4.4244142 1.8294961C4.3850975 1.8507988 4.3460155 1.8725097 4.307168 1.8946289C4.2683201 1.916748 4.2296972 1.9392695 4.191299 1.9621934C4.1529198 1.9851172 4.1147852 2.0084386 4.0768948 2.0321572C4.0389843 2.0558779 4.001328 2.0799901 3.9639258 2.1044941C3.926543 2.128998 3.8894141 2.1538897 3.8525391 2.1791689C3.8156641 2.2044482 3.7790527 2.2301095 3.7427051 2.2561524C3.7063575 2.2821934 3.6702929 2.3086114 3.6345117 2.3354063C3.598711 2.3622012 3.5632031 2.3893661 3.5279882 2.4169014C3.492754 2.4444366 3.4578223 2.4723361 3.4231935 2.5005996C3.388545 2.5288632 3.3541992 2.5574853 3.3201563 2.5864658C3.2861133 2.6154444 3.252373 2.6447754 3.2189355 2.674459C3.185498 2.7041426 3.1523731 2.7341719 3.1195605 2.7645469C3.0867677 2.79492 3.0542872 2.8256319 3.022119 2.8566825C2.9899511 2.8877354 2.9581094 2.919121 2.9265938 2.9508398C2.895082 2.9825585 2.8639033 3.0145996 2.8330576 3.046963C2.8022139 3.0793262 2.7717109 3.1120117 2.7415488 3.1450195C2.7113848 3.1780078 2.6815693 3.2113183 2.6521025 3.2449512C2.6226337 3.2785645 2.5935194 3.3124902 2.5647597 3.3467286C2.5312617 3.386416 2.4982491 3.4265039 2.4657216 3.4669921C2.4331963 3.5074804 2.401165 3.5483594 2.369628 3.5896289C2.3380888 3.6308789 2.3070557 3.6725097 2.2765284 3.7145214C2.2459991 3.7565331 2.2159824 3.7989161 2.1864786 3.84167C2.1569765 3.8844042 2.127995 3.9274902 2.0995343 3.9709277C2.0710752 4.0143847 2.0431464 4.0581737 2.015748 4.1022949C1.9883476 4.1463966 1.9614863 4.1908398 1.9351641 4.2356248C1.9088398 4.2803907 1.8830615 4.3254685 1.8578291 4.3708591C1.8325987 4.4162502 1.80792 4.4619431 1.783793 4.5079393C1.759668 4.5539355 1.7361026 4.600215 1.7130967 4.6467772C1.6900928 4.6933203 1.6676552 4.7401466 1.6457841 4.7872558C1.623913 4.8343654 1.6026152 4.8817286 1.5818906 4.9293456C1.561166 4.976963 1.5410215 5.0248342 1.5214571 5.0729589C1.5018907 5.1210647 1.4829102 5.1693945 1.4645156 5.2179494C1.4461211 5.2665234 1.4283164 5.3153124 1.4111016 5.3643165C1.3938887 5.4133205 1.3772705 5.4625196 1.3612471 5.5119143C1.3452256 5.5613084 1.3298037 5.6108985 1.3149815 5.6606836C1.3001592 5.7104492 1.2859414 5.7603908 1.2723281 5.8105078C1.2587168 5.8606248 1.2457138 5.9109082 1.2333193 5.9613576C1.2209228 6.0117869 1.2091397 6.0623631 1.1979697 6.1130857C1.1867979 6.1637893 1.1762422 6.2146287 1.1663027 6.2656054C1.1563632 6.3165822 1.147043 6.3676758 1.1383418 6.4188867C1.1296387 6.470078 1.1215566 6.5213771 1.1140957 6.572783C1.1066368 6.6241698 1.0997998 6.6756444 1.093585 6.7272072C1.0873721 6.7787695 1.0817832 6.8304005 1.0768183 6.8820996C1.0718554 6.9337988 1.0675186 6.9855471 1.0638076 7.037344C1.0600966 7.0891404 1.0570127 7.1409764 1.0545557 7.1928515C1.0521005 7.2447267 1.0502734 7.2966309 1.0490742 7.3485646C1.047875 7.4004784 1.0473592 7.4524021 1.0473592 7.5043359C1.0473592 7.5562696 1.0481083 7.6081934 1.0494229 7.6601076C1.0507393 7.7120409 1.0526836 7.7639356 1.0552559 7.8157911C1.0578281 7.8676662 1.0610273 7.9195018 1.0648535 7.9712987C1.0687813 8.0247164 1.073374 8.0780859 1.0786319 8.1314058C1.0838896 8.1847267 1.0898105 8.2379684 1.0963945 8.2911329C1.1029805 8.3442965 1.1102276 8.3973637 1.1181357 8.4503317C1.1260439 8.5033207 1.1346114 8.556201 1.1438379 8.6089745C1.1530645 8.6617479 1.1629473 8.7143946 1.1734864 8.7669144C1.1840254 8.8194332 1.1952177 8.8718166 1.2070634 8.9240627C1.2189072 8.9763088 1.2314013 9.0283985 1.2445459 9.0803318C1.2576904 9.132266 1.2714795 9.1840239 1.2859131 9.2356052C1.3003467 9.2871876 1.3154209 9.3385935 1.3311357 9.3898239C1.3468525 9.4410353 1.3632041 9.4920406 1.3801904 9.5428419C1.3971788 9.5936422 1.4147968 9.6442289 1.4330449 9.6945992C1.451293 9.7449703 1.470167 9.7950974 1.4896669 9.8449802C1.509165 9.8948832 1.5292822 9.9445314 1.5500185 9.993926C1.570753 10.043321 1.5921006 10.092451 1.6140615 10.141318C1.6360224 10.190166 1.6585889 10.23874 1.6817608 10.287041C1.7049326 10.335341 1.7287031 10.383349 1.7530723 10.431065C1.7774414 10.47876 1.8024014 10.526153 1.8279521 10.573242C1.853503 10.620332 1.8796368 10.667089 1.9063535 10.713515C1.9330684 10.759961 1.9603584 10.806055 1.9882237 10.851797C2.016089 10.897558 2.0445206 10.942959 2.0735185 10.987998C2.1025147 11.033037 2.1320684 11.077715 2.1621797 11.122031C2.192291 11.166328 2.2229493 11.210254 2.2541542 11.253809C2.2853613 11.297344 2.3171055 11.340488 2.3493867 11.383243C2.3816679 11.425996 2.4144776 11.46834 2.4478154 11.510273C2.4811532 11.552207 2.5150077 11.593711 2.5493789 11.634785C2.5837519 11.675879 2.6186318 11.716534 2.6540186 11.756748C2.6894033 11.796983 2.7252841 11.836758 2.7616611 11.876074C2.7980402 11.915391 2.8349023 11.954258 2.8722479 11.992676C2.9095938 12.031075 2.947412 12.069004 2.9857032 12.106464C3.024004 12.143926 3.0627539 12.180908 3.101953 12.217412C3.1411719 12.253916 3.1808398 12.289922 3.220957 12.32543C3.2610743 12.360937 3.3016212 12.395938 3.3425977 12.430429C3.4044335 12.482754 3.4672363 12.533887 3.5310059 12.583828C3.5947754 12.63377 3.6594727 12.68249 3.7250977 12.72999C3.7907031 12.777491 3.8571875 12.82373 3.9245508 12.868711C3.991914 12.913692 4.0600977 12.957393 4.1291018 12.999814C4.1981249 13.042217 4.26792 13.083301 4.3384862 13.123066C4.4090333 13.162851 4.4803224 13.20128 4.5523534 13.23835C4.6243653 13.275439 4.6970506 13.311143 4.7704101 13.345459C4.8437891 13.379795 4.9177833 13.412734 4.9923925 13.444278C5.0670018 13.475801 5.1421776 13.505908 5.2179198 13.534599C5.2936621 13.563311 5.3699217 13.590567 5.4466991 13.616367C5.5234766 13.642187 5.6007228 13.666543 5.6784377 13.689434C5.7561326 13.712324 5.8342285 13.73374 5.9127245 13.753681C5.99124 13.773623 6.0700974 13.79207 6.1492968 13.809024C6.2284961 13.825996 6.3079982 13.841465 6.3878026 13.85543C6.4675879 13.869375 6.5476074 13.881817 6.6278615 13.892754C6.7081151 13.903691 6.7885547 13.913105 6.8691797 13.920996C7.1891308 13.951904 7.505156 13.954072 7.8258986 13.943877C8.1509476 13.920322 8.4718361 13.887509 8.7916403 13.821943C8.8346682 13.813037 8.8776073 13.803692 8.9204588 13.793906C8.9633102 13.784141 9.0060549 13.773926 9.0486917 13.763262C9.0913277 13.752617 9.1338472 13.741543 9.1762505 13.730039C9.2186718 13.718515 9.2609568 13.706562 9.3031054 13.69418C9.345273 13.681816 9.3873148 13.669014 9.4292288 13.655771C9.4711428 13.642549 9.5129099 13.628897 9.5545311 13.614815C9.5961523 13.600733 9.6376371 13.586221 9.6789846 13.57128C9.7203121 13.556357 9.7614841 13.541016 9.8024998 13.525254C9.8435354 13.509473 9.8843946 13.493291 9.9250784 13.476709C9.9657621 13.460108 10.006279 13.443096 10.046631 13.425673C10.086983 13.408252 10.127149 13.39042 10.167129 13.372178C10.207109 13.353935 10.246895 13.335283 10.286485 13.31622C10.326094 13.297177 10.365498 13.277724 10.404697 13.257861C10.443916 13.238018 10.48292 13.217773 10.521709 13.197129C10.560498 13.176484 10.599072 13.155439 10.637432 13.133994C10.675811 13.112568 10.713955 13.090752 10.751865 13.068545C10.789795 13.046338 10.82749 13.02374 10.864951 13.000751C10.902412 12.977783 10.939629 12.954424 10.976602 12.930674C11.013594 12.906943 11.050342 12.882842 11.086845 12.858369C11.12333 12.833877 11.159571 12.809024 11.195566 12.783809C11.231543 12.758574 11.267265 12.732988 11.302734 12.70705C11.338203 12.681094 11.373408 12.654785 11.40835 12.628125C11.443272 12.601445 11.47792 12.574424 11.512295 12.547061C11.546689 12.519697 11.580791 12.491982 11.614599 12.463916C11.648428 12.435849 11.681953 12.407441 11.715176 12.378692C11.748418 12.349941 11.781367 12.320859 11.814023 12.291446C11.846661 12.262012 11.879004 12.232256 11.911055 12.202178C11.943086 12.1721 11.974814 12.141699 12.00624 12.110976C12.037666 12.080254 12.068769 12.049219 12.099551 12.017871C12.130332 11.986504 12.160801 11.954834 12.190957 11.922861C12.221094 11.890888 12.250908 11.858603 12.2804 11.826006C12.309893 11.793427 12.339043 11.760547 12.367851 11.727364C12.396132 11.695 12.424082 11.662363 12.451699 11.629453C12.479297 11.596523 12.506573 11.56332 12.533525 11.529843C12.560478 11.496367 12.58709 11.462627 12.613359 11.428623C12.639629 11.394619 12.665557 11.360352 12.691143 11.32582C12.716709 11.291289 12.741934 11.256504 12.766816 11.221465C12.791699 11.186445 12.816231 11.151172 12.84041 11.115644C12.864571 11.080097 12.888379 11.044326 12.911836 11.00833C12.935273 10.972315 12.95836 10.936074 12.981093 10.89961C13.003809 10.863125 13.026162 10.826426 13.048154 10.789512C13.070127 10.752578 13.091739 10.71544 13.112988 10.678096C13.134219 10.640733 13.155068 10.603164 13.175537 10.565391C13.196026 10.527617 13.216123 10.489638 13.23583 10.451455C13.255557 10.413272 13.274893 10.374892 13.293838 10.336318C13.312783 10.297744 13.331338 10.258985 13.349502 10.220039C13.367666 10.181094 13.385429 10.141973 13.402793 10.102675C13.420176 10.063379 13.437159 10.023907 13.45374 9.9842577C13.470323 9.9446096 13.486504 9.9048042 13.502285 9.8648434C13.518066 9.8248825 13.533447 9.7847557 13.548428 9.744463C13.563408 9.7041893 13.577978 9.6637697 13.592138 9.6232033C13.606298 9.5826368 13.620049 9.5419235 13.633389 9.5010643C13.646729 9.4602242 13.659658 9.4192476 13.672177 9.3781347C13.684697 9.3370218 13.696796 9.2957907 13.708477 9.2544432C13.720176 9.2130957 13.731445 9.1716309 13.742285 9.1300488C13.753144 9.0884666 13.763584 9.0467873 13.773603 9.0050097C13.783623 8.963213 13.793213 8.9213285 13.802373 8.8793554C13.811553 8.8373632 13.820303 8.7952929 13.828623 8.7531443C13.836963 8.7109957 13.844863 8.6687593 13.852324 8.6264353C13.859805 8.5841112 13.866856 8.541729 13.873477 8.4992867C13.880097 8.4568262 13.886299 8.4142971 13.89208 8.3716993C13.897841 8.3291206 13.903173 8.2864847 13.908076 8.2437887C13.912998 8.2011137 13.91748 8.1583786 13.921523 8.1155863C13.925586 8.0728121 13.929209 8.0299997 13.932392 7.9871483C13.954394 7.6932421 13.960898 7.3943262 13.939453 7.1001267C13.919687 6.7938576 13.879063 6.4903712 13.817578 6.1896682C13.808672 6.1470118 13.799335 6.1044531 13.78957 6.0619922C13.779804 6.0195312 13.769609 5.9771681 13.758985 5.9349022C13.74836 5.8926368 13.737305 5.8504882 13.725821 5.8084569C13.714355 5.7664256 13.702461 5.7245116 13.690137 5.6827149C13.677813 5.6409178 13.665069 5.5992479 13.651904 5.5577049C13.638721 5.5161619 13.625127 5.4747658 13.611123 5.4335155C13.597119 5.3922462 13.582705 5.3511229 13.567881 5.3101463C13.553037 5.2691894 13.537784 5.2283788 13.52212 5.1877151C13.506455 5.1470509 13.490391 5.1065526 13.473926 5.0662208C13.457441 5.0258694 13.440547 4.9856935 13.423243 4.9456935C13.405957 4.9057131 13.388262 4.8658986 13.370156 4.8262501C13.35207 4.7866211 13.333574 4.7471681 13.314668 4.7078905C13.295781 4.668633 13.276494 4.6295705 13.256806 4.590703C13.237119 4.5518165 13.217041 4.5131445 13.196572 4.4746876C13.176104 4.4362111 13.155244 4.3979492 13.133994 4.3599024C13.112744 4.3218555 13.091123 4.2840333 13.069131 4.2464356C13.047119 4.2088184 13.024727 4.1714354 13.001953 4.1342869C12.979199 4.0971389 12.956064 4.060215 12.932549 4.0235157C12.909033 3.986836 12.885157 3.9503906 12.860918 3.9141798C12.83666 3.8779688 12.812051 3.8420117 12.78709 3.8063085C12.76211 3.7706056 12.736768 3.7351563 12.711064 3.6999609C12.685381 3.6647656 12.659336 3.6298339 12.63293 3.595166C12.606543 3.560498 12.579795 3.5261035 12.552686 3.4919825C12.525596 3.4578614 12.498164 3.4240136 12.47039 3.3904395C12.442617 3.3568652 12.414502 3.3235743 12.386045 3.2905664C12.357588 3.2575586 12.328799 3.2248437 12.299678 3.1924219C12.270576 3.1600196 12.241142 3.1279004 12.211377 3.0960646C12.181611 3.0642481 12.151524 3.0327246 12.121113 3.0014942C12.090723 2.9702833 12.06001 2.9393809 12.028975 2.908787C11.997959 2.8781915 11.966631 2.8479121 11.93499 2.8179493C11.90335 2.7879882 11.871407 2.7583497 11.83916 2.7290332C11.806933 2.6997187 11.774405 2.6707325 11.741572 2.6420741C11.702784 2.6080976 11.663584 2.5745928 11.623975 2.5415595C11.584365 2.5085244 11.544365 2.4759717 11.503975 2.4439013C11.463604 2.411829 11.422842 2.3802481 11.381689 2.3491583C11.340537 2.3180683 11.299024 2.2874775 11.257149 2.2573857C11.215254 2.227294 11.173018 2.197711 11.13044 2.1686368C11.087842 2.1395605 11.044903 2.111002 11.001621 2.0829608C10.95834 2.0549181 10.914726 2.0274005 10.870781 2.0004082C10.826836 1.973416 10.782568 1.946956 10.737979 1.9210284C10.693408 1.8951006 10.648525 1.8697139 10.60333 1.8448682C10.558135 1.8200206 10.512647 1.7957207 10.466866 1.7719687C10.421103 1.7482148 10.375049 1.7250156 10.328701 1.7023711C10.282373 1.6797266 10.235771 1.6576426 10.188896 1.6361191C10.142041 1.6145957 10.094932 1.5936396 10.047568 1.573251C10.000186 1.5528604 9.9525785 1.533043 9.9047461 1.5137988C9.8568945 1.4945567 9.8088188 1.4758916 9.7605171 1.4578037C9.7122164 1.4397159 9.6637106 1.4222119 9.6149998 1.405292C9.5662889 1.3883721 9.5173731 1.372041 9.4682522 1.3562988C9.4191504 1.3405547 9.3698635 1.3254043 9.3203907 1.3108476C9.2708988 1.296291 9.2212496 1.2823321 9.1714449 1.2689707C9.1216402 1.2556074 9.0716801 1.2428457 9.0215626 1.2306856C8.9714451 1.2185254 8.9211817 1.2069697 8.8707714 1.1960186C8.8203812 1.1850693 8.7698631 1.1747266 8.7192192 1.1649902C8.6685743 1.1552559 8.6178226 1.1461319 8.5669632 1.1376182C8.5161037 1.1291045 8.4651461 1.1212041 8.4140921 1.113917C8.3630371 1.1066279 8.311904 1.0999551 8.2606936 1.0938984C8.2094631 1.0878417 8.1581736 1.0824014 8.1068258 1.0775771C8.0554981 1.0727549 8.0041018 1.0685508 7.9526367 1.0649649C7.9011912 1.0613769 7.8497167 1.0584092 7.798213 1.0560615C7.7466893 1.0537139 7.6951466 1.0519863 7.6435838 1.0508789C7.5920215 1.0497714 7.5404592 1.0493957 7.4888964 1.0493957C7.4373145 1.0495517 7.3857517 1.0503056 7.334209 1.0516787C7.2826467 1.0530537 7.2311134 1.0550479 7.1796093 1.0576612ZM7.9377537 15L15 15L15 7.9064941C14.999297 7.9088378 14.998535 7.9111524 14.997861 7.913496C14.962354 8.0379782 14.958926 8.3064842 14.940674 8.451973C14.89792 8.7820311 14.834131 9.1079683 14.749307 9.4297848C14.733311 9.4896288 14.716572 9.5492678 14.699092 9.6087008C14.681611 9.6681347 14.663399 9.7273436 14.644453 9.7863283C14.625507 9.845293 14.60584 9.9040232 14.585449 9.9625196C14.565059 10.021015 14.543945 10.079248 14.522109 10.137217C14.500293 10.195205 14.477754 10.2529 14.454493 10.310303C14.431231 10.367724 14.407266 10.424853 14.382598 10.481689C14.357949 10.538506 14.332588 10.59501 14.306514 10.651201C14.280459 10.707412 14.253711 10.763281 14.22627 10.818809C14.198828 10.874355 14.170703 10.929551 14.141894 10.984394C14.113086 11.039238 14.083604 11.093711 14.053448 11.147813C14.023291 11.201934 13.99248 11.255673 13.961016 11.309033C13.929531 11.362373 13.897392 11.415322 13.864599 11.467881C13.831826 11.520439 13.798398 11.572588 13.764317 11.624326C13.730234 11.676064 13.695527 11.727373 13.660195 11.778252C13.624844 11.829131 13.588877 11.87956 13.552295 11.929541C13.515713 11.979541 13.478516 12.029072 13.440703 12.078135C13.40289 12.127197 13.364472 12.175791 13.325449 12.223916C13.286446 12.272041 13.246845 12.319668 13.206651 12.366796C13.166474 12.413945 13.125713 12.460586 13.084365 12.506719C13.043037 12.552852 13.001133 12.598476 12.958652 12.643594C12.916191 12.688691 12.873174 12.733252 12.829599 12.777275C12.786025 12.821319 12.741924 12.864815 12.697295 12.907763C12.652646 12.950713 12.60748 12.993106 12.561797 13.034942C12.516094 13.076777 12.469893 13.118037 12.423193 13.158721C12.376494 13.199405 12.329288 13.239511 12.281572 13.279043C12.233877 13.318574 12.185703 13.35751 12.137051 13.395849C12.088379 13.43417 12.039248 13.471894 11.989658 13.509024C11.940068 13.546152 11.890019 13.582656 11.839512 13.618535C11.789023 13.654414 11.738095 13.689668 11.686728 13.724297C11.635362 13.758925 11.583574 13.792911 11.531367 13.82625C11.479179 13.85961 11.426572 13.892315 11.373545 13.924365C11.320538 13.956416 11.267138 13.987803 11.213349 14.018525C11.119599 14.07208 11.024736 14.123593 10.92876 14.173066C10.832783 14.222539 10.735782 14.269912 10.637753 14.315186C10.539746 14.360459 10.440801 14.403594 10.340918 14.44459C10.241035 14.485586 10.140312 14.524414 10.03875 14.561074C9.9371872 14.597734 9.8348827 14.632177 9.7318363 14.664404C9.6287889 14.69663 9.5250883 14.726621 9.4207325 14.754375C9.3163967 14.782129 9.211504 14.807617 9.1060543 14.83084C9.0006056 14.854062 8.8947067 14.875 8.7883596 14.893652C8.6892776 14.910674 8.5890532 14.929218 8.4890041 14.939531C8.3732519 14.951426 8.0251169 14.968858 7.9377537 15ZM7.9277635 0C7.9299316 0.00072197168 7.9321289 0.0014891162 7.9343262 0.002165918C8.0536528 0.038820118 8.2769527 0.033907618 8.4145021 0.05255625C8.778018 0.098459959 9.1365042 0.1696835 9.4899607 0.26622686C9.5503712 0.28291163 9.6105661 0.30034903 9.6705465 0.31853905C9.7305079 0.33672851 9.7902441 0.35566407 9.8497562 0.37534571C9.9092484 0.39502931 9.9684963 0.41545314 10.0275 0.4366172C10.086484 0.45778126 10.145195 0.47967872 10.203632 0.50230956C10.262071 0.52494043 10.320225 0.54829884 10.378096 0.57238477C10.435947 0.59647071 10.493496 0.62127537 10.550742 0.64679885C10.607968 0.67232227 10.664883 0.69855762 10.721484 0.72550488C10.778067 0.75245017 10.834297 0.78009963 10.890176 0.80845314C10.946074 0.83680469 11.001601 0.86585057 11.056758 0.89559084C11.111934 0.92533106 11.166729 0.95575684 11.221143 0.98686814C11.275537 1.0179776 11.329541 1.0497627 11.383154 1.0822237C11.436768 1.1146827 11.489961 1.1478076 11.542734 1.1815987C11.595528 1.2153877 11.647881 1.249832 11.699795 1.2849317C11.751728 1.3200293 11.803204 1.3557705 11.854218 1.3921553C11.905254 1.428542 11.95582 1.4655596 12.005918 1.503208C12.056016 1.5408584 12.105644 1.5791279 12.154804 1.6180166C12.203945 1.6569072 12.252598 1.6964053 12.300762 1.7365108C12.348907 1.7766181 12.396553 1.8173203 12.443701 1.8586172C12.490849 1.899914 12.537471 1.9417939 12.583565 1.9842569C12.629658 2.0267198 12.675215 2.069752 12.720234 2.1133535C12.765254 2.156955 12.809717 2.2011123 12.853623 2.2458253C12.897549 2.2905381 12.940899 2.335793 12.983672 2.3815899C13.026464 2.4273868 13.068672 2.473711 13.110293 2.5205624C13.151914 2.567414 13.192949 2.6147783 13.233398 2.6626554C13.273829 2.7105341 13.313663 2.7589102 13.352901 2.8077831C13.392138 2.8566563 13.430752 2.9060118 13.46874 2.9558496C13.506748 3.0056934 13.544121 3.0559962 13.580859 3.1067579C13.617598 3.1575391 13.653701 3.2087696 13.68917 3.2604492C13.724619 3.3121095 13.759424 3.3642187 13.793584 3.4167774C13.827744 3.4693165 13.86124 3.5222754 13.894073 3.5756543C13.926905 3.6290331 13.959063 3.6828222 13.990547 3.7370214C14.022051 3.7912011 14.052861 3.8457716 14.082978 3.9007325C14.133349 3.9928026 14.181758 4.0858984 14.228203 4.1800194C14.274649 4.2741408 14.319092 4.3691893 14.361533 4.4651661C14.403955 4.561162 14.444345 4.6580076 14.482705 4.755703C14.521045 4.8533983 14.557304 4.9518652 14.591484 5.0511036C14.625684 5.1503224 14.657763 5.2502246 14.687725 5.3508105C14.717705 5.4513965 14.745547 5.5525684 14.77125 5.654326C14.796933 5.756084 14.820469 5.8583398 14.841855 5.9610939C14.863242 6.0638475 14.882451 6.1670017 14.899483 6.2705564C14.926592 6.4328222 14.947646 6.5958691 14.962646 6.7596974C14.9729 6.8658986 14.967422 6.9989648 15 7.0998631L15 0L7.9277635 0ZM0 7.9379296L0 15L7.0716209 15C6.9713674 14.965839 6.822422 14.970088 6.7147851 14.959102C6.5620604 14.943486 6.4120021 14.923886 6.2605958 14.898252C6.15874 14.881416 6.0572853 14.862461 5.9562306 14.841387C5.8551564 14.820332 5.7545705 14.797177 5.6544728 14.771924C5.5543752 14.74667 5.4548435 14.719346 5.3558788 14.689951C5.2569141 14.660557 5.1586037 14.629121 5.0609474 14.595645C4.9632912 14.562148 4.8663769 14.526641 4.770205 14.489121C4.6740136 14.451602 4.5786524 14.4121 4.4841213 14.370615C4.3895898 14.329131 4.2959571 14.285703 4.2032228 14.240332C4.110508 14.194942 4.0187697 14.147647 3.9280078 14.098447C3.8727734 14.068467 3.81792 14.037803 3.7634473 14.006455C3.7089746 13.975107 3.6549025 13.943086 3.6012304 13.910391C3.5475585 13.877676 3.4943066 13.844296 3.4414747 13.810254C3.3886425 13.776211 3.3362403 13.741513 3.2842677 13.706162C3.2323143 13.670811 3.1808105 13.634814 3.129756 13.598174C3.0786817 13.561533 3.0280859 13.524248 2.9779687 13.486319C2.9278378 13.448408 2.8781924 13.409873 2.8290322 13.370713C2.7798722 13.331553 2.7312109 13.291787 2.6830487 13.251416C2.6348867 13.211045 2.5872374 13.170069 2.5401006 13.128487C2.4929659 13.086924 2.4463594 13.044765 2.4002812 13.002011C2.3542011 12.959277 2.308665 12.915967 2.2636728 12.87208C2.2186787 12.828194 2.1742423 12.78375 2.1303632 12.73875C2.0864844 12.693769 2.0431767 12.648232 2.0004404 12.602139C1.9577041 12.556065 1.9155508 12.509453 1.8739805 12.462305C1.8324121 12.415175 1.7914414 12.367529 1.7510684 12.319366C1.7106934 12.271182 1.6709287 12.222509 1.6317744 12.173349C1.5926201 12.124189 1.5540888 12.074551 1.5161806 12.024433C1.4782705 11.974297 1.4409951 11.923701 1.4043545 11.872646C1.3677138 11.821572 1.3317188 11.770049 1.2963692 11.718076C1.2610196 11.666123 1.2263272 11.61373 1.192292 11.560899C1.1582549 11.508047 1.1248858 11.454785 1.0921845 11.401114C1.0594853 11.347442 1.0274628 11.293369 0.99611717 11.238896C0.96477151 11.184423 0.93411428 11.12957 0.90414548 11.074336C0.87417483 11.019082 0.84490138 10.963467 0.81632519 10.90749C0.78774905 10.851514 0.75987989 10.795185 0.73271775 10.738506C0.70555371 10.681827 0.67910451 10.624825 0.65337014 10.5675C0.62763572 10.510157 0.602624 10.4525 0.57833499 10.394531C0.55404592 10.336562 0.5304873 10.278301 0.5076592 10.219746C0.4848291 10.161191 0.46273729 10.102353 0.44138378 10.043232C0.42003027 9.9841309 0.39942089 9.9247656 0.37955567 9.8651371C0.35969043 9.8055077 0.34057617 9.7456446 0.3222129 9.6855469C0.30384767 9.6254301 0.28623927 9.5650978 0.26938769 9.5045509C0.17944238 9.1763086 0.11138301 8.8435841 0.065209568 8.5063772C0.051395312 8.3983688 0.040449414 8.2900782 0.032371875 8.1815042C0.026486954 8.1108103 0.026651016 8.0195799 0.0048578028 7.9521093C0.0033219433 7.9473338 0.0016192705 7.9426465 0 7.9379296ZM0 0L0 7.0561814C0.038181152 6.9580078 0.036431249 6.7368751 0.049332131 6.6211815C0.064468063 6.4854493 0.086358398 6.3490725 0.10922637 6.2144532C0.1269668 6.1111522 0.14688379 6.0082717 0.16897735 5.9058104C0.19107071 5.8033299 0.2153209 5.7013769 0.24172793 5.5999513C0.26813495 5.4985061 0.29667521 5.397666 0.32734862 5.2974315C0.35802245 5.1971974 0.39080176 5.0976658 0.42568654 4.9988379C0.46056932 4.8999901 0.49752831 4.8019238 0.53656346 4.7046385C0.57559669 4.6073537 0.61666894 4.5109472 0.65978026 4.4154201C0.70289356 4.3198729 0.74800783 4.2252831 0.79512304 4.1316504C0.84223634 4.0380177 0.89130956 3.94542 0.94234276 3.8538575C0.97266501 3.7992675 1.0036651 3.7450683 1.0353428 3.6912599C1.0670205 3.6374316 1.0993662 3.5840137 1.1323799 3.5310059C1.1653916 3.477998 1.1990606 3.4254103 1.2333868 3.3732421C1.2677128 3.3210938 1.3026855 3.2693653 1.3383046 3.2180567C1.3739238 3.1667676 1.4101787 3.1159375 1.4470693 3.0655663C1.4839599 3.0151758 1.5214736 2.9652548 1.5596104 2.9158037C1.5977471 2.8663564 1.6364961 2.8173926 1.6758574 2.7689121C1.7152188 2.7204337 1.7551796 2.6724532 1.7957402 2.6249707C1.8362988 2.5774903 1.8774453 2.5305235 1.9191797 2.4840703C1.960914 2.4376192 2.0032218 2.3916953 2.0461025 2.3462989C2.0889833 2.3009043 2.1324258 2.2560518 2.1764297 2.2117412C2.2204316 2.1674306 2.2649806 2.1236777 2.3100762 2.0804825C2.3551719 2.0372851 2.4007998 1.9946592 2.44696 1.9526045C2.4931221 1.9105479 2.5398018 1.8690752 2.5869989 1.8281865C2.6341963 1.7872959 2.6818974 1.747002 2.7301025 1.7073047C2.7783077 1.6676074 2.8270011 1.6285186 2.8761826 1.5900381C2.9253681 1.5515577 2.9750195 1.5136973 3.0251367 1.476457C3.0752735 1.4392188 3.1258593 1.4026114 3.1768944 1.3666347C3.2279491 1.3306601 3.2794335 1.2953281 3.3313477 1.2606387C3.3832812 1.2259492 3.4356349 1.191915 3.4884081 1.1585361C3.5411816 1.1251553 3.5943651 1.0924385 3.647959 1.0603857C3.7015526 1.028335 3.755537 0.99695897 3.8099122 0.96625781C3.8642871 0.93555468 3.9190431 0.90553612 3.9741797 0.87620217C4.0292969 0.84686816 4.084785 0.81822753 4.1406446 0.79028028C4.1964846 0.76233304 4.252666 0.73508787 4.3091893 0.70854491C4.3657131 0.68200195 4.4225588 0.65616894 4.4797268 0.63104588C4.5368943 0.60592479 4.5943651 0.5815205 4.6521387 0.55783302C4.7099319 0.53414744 4.7679982 0.51118749 4.8263378 0.48895311C4.8846974 0.46671876 4.9433203 0.44521582 5.0022068 0.42444435C5.0611134 0.40367481 5.1202636 0.38364452 5.1796584 0.36435351C5.2390332 0.34506056 5.2986522 0.32651368 5.3585157 0.3087129C5.4183788 0.29091093 5.4784474 0.27385968 5.5387206 0.25755909C5.8925977 0.16271865 6.2491407 0.099672951 6.6117773 0.049847461C6.7430272 0.031815529 6.9451756 0.03713496 7.0624218 0.0021240087C7.0646486 0.0014605048 7.0668459 0.00070800295 7.0690722 0L0 0Z" />
  <path fill="#8C8C8C" transform="translate(6.52991 9.49287)"
    d="M0.67410034 0.0018624422C0.85650265 -0.0090945894 1.0235828 0.027526505 1.1755749 0.13214564C1.185907 0.1392355 1.1960633 0.14656948 1.2060437 0.1541476C1.2160046 0.16174525 1.22578 0.16957729 1.2353699 0.17764369C1.2449597 0.1857101 1.2543445 0.19401088 1.2635242 0.20254603C1.2727039 0.21108119 1.2816687 0.2198312 1.2904187 0.22879604C1.2991492 0.23778041 1.3076648 0.24696986 1.3159655 0.25636441C1.3242663 0.26575893 1.332323 0.27534878 1.3401355 0.28513393C1.347948 0.29493862 1.3555261 0.30491909 1.3628699 0.31507534C1.3701941 0.3252511 1.3772644 0.33559293 1.3840808 0.34610072C1.3908972 0.35660854 1.39745 0.36728236 1.403739 0.37812221C1.4100281 0.38896206 1.4160534 0.39994839 1.4218152 0.41108119C1.4275573 0.422214 1.4330261 0.43348354 1.4382215 0.44488978C1.4434167 0.45629603 1.4483289 0.46781948 1.4529577 0.47946009C1.4575866 0.49112025 1.4619226 0.50287807 1.4659656 0.51473355C1.4700085 0.52658898 1.4737586 0.53854215 1.4772155 0.5505929C1.4806726 0.56264371 1.4838269 0.57476282 1.4866785 0.58695036C1.4895495 0.59915739 1.4921081 0.61142302 1.4943542 0.62374723C1.4965613 0.63618863 1.4984558 0.64867884 1.5000378 0.66121793C1.5016198 0.67375696 1.5028894 0.68632531 1.5038464 0.69892299C1.5048034 0.71152067 1.5054382 0.72413784 1.5057508 0.73677456C1.5060632 0.74939173 1.5060632 0.76201868 1.5057508 0.7746554C1.5054382 0.78729212 1.5048034 0.79990929 1.5038464 0.81250697C1.5028894 0.82510465 1.5016198 0.83767301 1.5000378 0.85021204C1.4984558 0.86275113 1.4965515 0.87524134 1.4943249 0.88768274C1.4921179 0.90010464 1.4895984 0.91247767 1.4867663 0.92480189C1.4839147 0.93710661 1.4807702 0.94934291 1.4773327 0.9615109C1.4738758 0.97365934 1.470116 0.98571986 1.4660535 0.99769253C1.461991 1.0096457 1.4576355 1.0215011 1.4529871 1.0332589C1.4483191 1.0449972 1.443368 1.0566183 1.4381336 1.0681221C1.4328991 1.0796065 1.4273719 1.090964 1.4215515 1.1021944C1.4157312 1.1134055 1.4096375 1.1244699 1.4032702 1.1353878C1.396903 1.1463058 1.3902625 1.157048 1.3833483 1.1676143C1.3764539 1.1782004 1.3692859 1.1886008 1.3618444 1.1988156C1.2367761 1.3729855 1.0511218 1.4796554 0.84103394 1.5138155C0.64591676 1.5272335 0.47136596 1.4917843 0.31131715 1.3743331C0.15200073 1.2574093 0.038621821 1.0785812 0.009149164 0.88235074C-0.022257086 0.67320031 0.027342523 0.46006557 0.15563354 0.29108119C0.28556517 0.11989955 0.4634265 0.029372208 0.67410034 0.0018624422Z" />
  <path fill="#8C8C8C" transform="translate(5.4617 3.73016)"
    d="M1.7506042 0.0081483442C2.0159752 -0.014820405 2.3060143 0.012630766 2.5662584 0.067122951C3.0571568 0.1698378 3.538944 0.41988662 3.817528 0.84990615C3.8287389 0.86732805 3.8395691 0.88498425 3.8500183 0.90287489C3.8604674 0.92076552 3.8705359 0.93887103 3.8802233 0.95719129C3.8898914 0.97553116 3.899159 0.99405652 3.908026 1.0127674C3.9169128 1.031498 3.9253795 1.0504042 3.9334264 1.0694863C3.9414928 1.0885878 3.9491394 1.1078457 3.9563658 1.1272597C3.9636121 1.1466737 3.9704285 1.1662343 3.976815 1.1859413C3.9832017 1.2056483 3.9891589 1.2254921 3.9946861 1.2454726C4.0002332 1.2654335 4.0053406 1.2855116 4.0100083 1.305707C4.0146766 1.3258827 4.0189052 1.3461561 4.0226941 1.3665272C4.0265026 1.3868984 4.0298619 1.4073378 4.0327721 1.4278456C4.0357018 1.448373 4.0381823 1.4689491 4.0402136 1.4895741C4.0422449 1.5101796 4.0438366 1.5308338 4.0449891 1.551537C4.0461216 1.5722206 4.0468149 1.5929238 4.0470691 1.6136464C4.0473228 1.634369 4.0471277 1.655082 4.046483 1.6757851C4.0458384 1.6964881 4.0447545 1.7171718 4.043231 1.7378359C4.0417075 1.7584999 4.0397348 1.7791249 4.037313 1.7997109C3.971688 2.4099061 3.5507507 2.9324453 3.0952427 3.3143301C2.8849792 3.4906092 2.6512194 3.652621 2.5169811 3.8995059C2.4117467 4.09307 2.3959851 4.3097205 2.3916197 4.5254335C2.3900084 4.6066737 2.3925574 4.6894374 2.375067 4.7692127C2.3543541 4.8635778 2.3064537 4.9343886 2.2246861 4.9860096C2.055438 5.0929141 1.7913269 5.1046033 1.600692 5.0616541C1.4952819 5.0378942 1.4062194 4.9875622 1.3491784 4.8925819C1.2117467 4.6637735 1.2612878 4.1460681 1.3204675 3.888871C1.3362292 3.7715664 1.3916003 3.6388221 1.4411412 3.5326209C1.6096569 3.1712732 1.8791002 2.9469471 2.1846373 2.7080019C2.3363073 2.5894082 2.4900866 2.4629629 2.6107898 2.3117909C2.745116 2.1435683 2.8220203 1.9338613 2.7959752 1.7172987C2.7764928 1.5552285 2.7018151 1.4170643 2.5716784 1.3173378C2.334022 1.1352577 1.988905 1.1091835 1.7021471 1.1473573C1.4501355 1.1809022 1.2564538 1.2744765 1.0995104 1.4785877C1.0440221 1.5508046 0.99609244 1.6286464 0.94022334 1.7006288C0.86498892 1.7976015 0.77091664 1.874916 0.64429557 1.888832C0.48761588 1.9060292 0.30987173 1.847582 0.18878776 1.7481776C0.078807294 1.6578847 0.016815104 1.5300331 0.0031627598 1.3893495C-0.022179037 1.1284022 0.10822135 0.86171281 0.27058464 0.66580456C0.64119011 0.21849991 1.1956334 0.059037015 1.7506042 0.0081483442Z" />
</svg>