<?xml version="1.0" encoding="UTF-8"?>
<svg width="100%" height="100%" viewBox="0 0 13 15" version="1.1" xmlns="http://www.w3.org/2000/svg"
  xmlns:xlink="http://www.w3.org/1999/xlink">
  <title>Transactions</title>
  <g id="Framework" stroke="none" stroke-width="1" fill="none" fill-rule="evenodd">
    <g transform="translate(-420, -2634)" fill="var(--appMediumGray)" fill-rule="nonzero" id="Group-A">
      <g transform="translate(170, 208)">
        <g id="Components" transform="translate(0, 61)">
          <g id="Icons" transform="translate(0, 2257)">
            <g id="Bar-1" transform="translate(176, 99)">
              <g id="Regular" transform="translate(64, 0)">
                <path
                  d="M11.2202641,9.00171546 L17.8114724,9.00114326 L19.986733,9.00113019 L20.6520826,9.00086207 C20.8039925,9.0007509 20.9575372,8.99594445 21.1088913,9.01027878 C21.1569776,9.01485417 21.204617,9.02225784 21.2518095,9.0324898 C21.2990021,9.04272394 21.3454317,9.05571333 21.3910984,9.07145799 C21.4367433,9.08720482 21.4812983,9.10559684 21.5247634,9.12663404 C21.5682503,9.14767124 21.6103312,9.17120648 21.6510062,9.19723976 C21.667747,9.2079164 21.6842154,9.21899738 21.7004112,9.23048272 C21.7166071,9.24196806 21.7325196,9.25384576 21.7481487,9.26611582 C21.7637561,9.27838371 21.7790582,9.29102761 21.7940552,9.30404752 C21.8090522,9.31706961 21.8237113,9.33045137 21.8380326,9.3441928 C21.8523756,9.3579364 21.8663699,9.37202332 21.8800154,9.38645356 C21.8936609,9.4008838 21.9069359,9.41563992 21.9198403,9.43072192 C21.9327664,9.4458061 21.9453112,9.46119763 21.9574744,9.47689651 C21.9696377,9.49259757 21.9813977,9.50858636 21.9927544,9.52486289 C22.0041329,9.54114159 22.0151082,9.55769059 22.0256802,9.57450989 C22.0362304,9.591327 22.0463664,9.60839371 22.0560883,9.62570999 C22.0658102,9.64302628 22.0750961,9.66057145 22.0839461,9.67834549 C22.0928179,9.69611736 22.1012319,9.71409739 22.1091881,9.7322856 C22.1171662,9.75047381 22.1246865,9.76884621 22.131749,9.7874028 C22.1388333,9.80595939 22.145449,9.82467837 22.151596,9.84355975 C22.157743,9.86244331 22.1634214,9.88146529 22.1686311,9.90062569 C22.1738408,9.91978826 22.1785819,9.93906636 22.1828543,9.95846 C22.227224,10.1673279 22.2141452,10.3872245 22.2141452,10.599627 L22.2137856,11.3153102 L22.2136548,13.9725855 L22.2137856,20.2984583 L22.213524,22.3957695 C22.2134913,22.7429454 22.2227445,23.0924754 22.2136221,23.4393897 C22.2105486,23.5570332 22.1923037,23.6638541 22.1259289,23.7638086 C22.0499086,23.8783132 21.9268374,23.9650254 21.7912106,23.9904636 C21.695147,24.0084796 21.5837813,24.0009266 21.4934724,23.9618865 C21.3349251,23.893321 21.0469306,23.6728457 20.8897238,23.5652402 L19.6572789,22.7234253 C19.4307873,22.8726213 19.2130259,23.0386563 18.9928121,23.1971056 L18.3226561,23.6777176 C18.1937321,23.7703479 18.0619962,23.8802423 17.9205494,23.9521101 C17.8720598,23.9767309 17.8197448,23.9902674 17.7659256,23.9964144 C17.6725105,24.0071063 17.5677496,23.9938641 17.4836531,23.950933 C17.3196127,23.8671962 17.1709725,23.7071775 17.032501,23.585545 C16.7335204,23.3229233 16.4174393,23.025316 16.1064262,22.7825413 L15.2436199,23.5359437 C15.1005382,23.6611729 14.9553312,23.8080802 14.7979936,23.9137566 C14.739695,23.9528948 14.6784537,23.9796082 14.6090708,23.9919677 C14.5140536,24.008872 14.4020993,23.999586 14.3138504,23.9594342 C14.1509543,23.885343 13.8866651,23.6710147 13.7291968,23.557818 L12.5647287,22.7231964 C12.1493797,22.9961503 11.7418126,23.2833273 11.3314663,23.5638669 C11.1559493,23.6838319 10.9405027,23.8512074 10.7569291,23.9470094 C10.7027275,23.9753249 10.644697,23.9911175 10.5839657,23.9969703 C10.4405636,24.0108011 10.3046327,23.9692433 10.1940582,23.8764167 C10.0775755,23.7786203 10.0204474,23.656203 10.0092879,23.5046855 C9.99051664,23.2499438 10.0059594,22.9550503 10.006234,22.6965484 L10.0064531,21.1403713 L10.0064302,16.2288691 L10.0063648,12.0822458 L10.0062275,10.8085276 C10.006136,10.5752416 9.99160218,10.3324768 10.0145979,10.1006981 C10.0176736,10.0695968 10.0219362,10.0386601 10.0273857,10.0078879 C10.032833,9.97711359 10.0394508,9.94659319 10.0472393,9.91632675 C10.0550255,9.88606248 10.0639594,9.85613935 10.0740409,9.82655736 C10.0841246,9.79697754 10.0953244,9.76782606 10.1076403,9.73910291 C10.1199583,9.71037976 10.1333564,9.68217103 10.1478346,9.65447674 C10.162315,9.62678027 10.177834,9.59967998 10.1943917,9.57317586 C10.2109495,9.54666955 10.2284968,9.52083681 10.2470338,9.49567762 C10.2655729,9.47051625 10.2850472,9.44610255 10.3054566,9.42243652 C10.5489735,9.14284517 10.8579168,9.02699672 11.2202641,9.00171546 Z M13.3327466,11.7976192 C13.1664174,11.8110249 13.0349758,11.8469915 12.9228253,11.9775176 C12.9115122,11.9908362 12.9008966,12.0046887 12.8909785,12.0190754 C12.8810387,12.0334402 12.8718509,12.0482737 12.863415,12.0635759 C12.8549792,12.0788781 12.8473282,12.0945617 12.8404618,12.1106268 C12.8335737,12.1266918 12.8275138,12.1430621 12.8222823,12.1597375 C12.8170508,12.176413 12.8126585,12.1932955 12.8091055,12.2103851 C12.8055524,12.2274964 12.8028713,12.2447495 12.801062,12.2621443 C12.799231,12.2795172 12.7982719,12.2969338 12.798181,12.314394 C12.798181,12.3318759 12.7989149,12.3493143 12.8005716,12.366709 C12.8019884,12.3834063 12.8042227,12.3999945 12.8072744,12.4164737 C12.8103261,12.4329312 12.8141844,12.4492034 12.8188491,12.4652902 C12.8235357,12.4813989 12.829007,12.4972242 12.835263,12.5127662 C12.8414972,12.5283081 12.8485053,12.5435013 12.8562871,12.5583457 C12.8640472,12.5731901 12.8725266,12.5876203 12.8817253,12.6016364 C12.8909241,12.6156307 12.9007876,12.6291454 12.911316,12.6421806 C12.9218662,12.6551939 12.9330268,12.6676515 12.9447977,12.6795531 C12.9565904,12.6914766 12.9689389,12.7027789 12.9818433,12.7134599 C13.0661686,12.7836928 13.1656981,12.8241716 13.2746115,12.8351905 C13.4807329,12.8560184 13.7023199,12.839768 13.9101742,12.839768 L15.1938552,12.8398007 L17.6138523,12.8398334 C18.0420511,12.8398334 18.471002,12.8449669 18.8991354,12.8387217 C19.0603639,12.8245313 19.1913805,12.7764014 19.2977436,12.6509106 C19.3087951,12.6379409 19.3191927,12.6244588 19.3289364,12.6104646 C19.3386583,12.5964485 19.3476609,12.5819964 19.3559441,12.5671084 C19.3642491,12.5522204 19.3717912,12.5369619 19.3785704,12.5213328 C19.3853495,12.5056818 19.3913439,12.4897366 19.3965537,12.4734972 C19.4017634,12.4572795 19.4061557,12.4408329 19.4097305,12.4241575 C19.4133054,12.4074821 19.4160519,12.3906759 19.4179701,12.3737389 C19.4198884,12.3568019 19.4209565,12.3398104 19.4212252,12.3227644 C19.4214142,12.3057184 19.4208039,12.2887051 19.4193434,12.2717245 C19.4180137,12.2546349 19.415823,12.2376543 19.4127713,12.2207827 C19.4097196,12.2039111 19.4058287,12.1872247 19.4010985,12.1707237 C19.3963684,12.1542445 19.3908208,12.1380486 19.3844558,12.1221361 C19.3780908,12.1062018 19.370952,12.090638 19.3630393,12.0754449 C19.3551049,12.0602299 19.3464293,12.0454618 19.3370126,12.0311406 C19.3275959,12.0167975 19.3174816,12.0029776 19.3066698,11.9896809 C19.295858,11.9763623 19.2844141,11.9636214 19.2723381,11.9514582 C19.2602402,11.9392949 19.2475647,11.9277747 19.2343115,11.9168975 C19.1496265,11.8468607 19.054315,11.8130194 18.9455651,11.8023275 C18.7117494,11.7793416 18.4620103,11.7965402 18.2266579,11.7965402 L16.8037207,11.7965075 L14.5108493,11.7963767 C14.1191402,11.7963767 13.7239652,11.784475 13.3327466,11.7976192 Z M13.3073411,14.5924864 C13.1491534,14.6037995 13.0262457,14.6465671 12.9213867,14.7692459 C12.9103351,14.7824119 12.8999484,14.7960901 12.8902265,14.8102805 C12.8805046,14.824471 12.8715021,14.8390974 12.8632189,14.8541598 C12.8549574,14.869244 12.8474481,14.8846878 12.8406907,14.9004913 C12.8339333,14.9163167 12.8279607,14.9324253 12.8227728,14.9488174 C12.8176067,14.9652094 12.8132471,14.9818195 12.809694,14.9986475 C12.8061627,15.0154755 12.8034598,15.0324343 12.8015852,15.0495239 C12.7997105,15.0666135 12.7986751,15.0837576 12.798445,15.1009562 C12.7982828,15.1181547 12.7989367,15.1353206 12.8004408,15.1524538 C12.8017923,15.1695434 12.8039938,15.186524 12.8070456,15.2033956 C12.8100973,15.2202672 12.8139991,15.2369426 12.8187511,15.2534219 C12.8234812,15.2699011 12.8290397,15.286097 12.8354265,15.3020095 C12.8417915,15.317922 12.8489521,15.3334748 12.8569084,15.348668 C12.8648428,15.3638394 12.8735293,15.3785857 12.8829678,15.3929069 C12.8924063,15.4072282 12.9025424,15.4210263 12.9133759,15.4343012 C12.9242095,15.447598 12.9356752,15.4603171 12.9477731,15.4724585 C12.9598928,15.4845782 12.9725901,15.4960657 12.985865,15.5069211 C12.9960664,15.5153569 13.0065731,15.5233894 13.0173848,15.5310187 C13.0281748,15.5386698 13.0392482,15.5458958 13.0506049,15.5526968 C13.0619398,15.5595195 13.0735254,15.5658954 13.0853617,15.5718245 C13.0971762,15.5777753 13.1092087,15.5832684 13.1214591,15.5883037 C13.1336878,15.593339 13.1460908,15.5979166 13.1586682,15.6020364 C13.1712456,15.6061562 13.1839647,15.6097965 13.1968255,15.6129572 C13.2096645,15.6161179 13.2226125,15.6187882 13.2356695,15.6209679 C13.2487046,15.6231695 13.2618161,15.6248698 13.2750039,15.6260687 C13.4642209,15.6452291 13.707813,15.6294691 13.9040599,15.6294364 L15.2190972,15.6294691 L17.6403041,15.6295345 C18.0701051,15.6295345 18.5010504,15.635845 18.930688,15.6279651 C19.089922,15.607693 19.217865,15.5465825 19.3169367,15.4165468 C19.3272471,15.4029231 19.33686,15.3888198 19.3457753,15.374237 C19.3546907,15.3596542 19.362854,15.3446572 19.3702653,15.329246 C19.3776984,15.3138567 19.3843359,15.2981295 19.3901778,15.2820644 C19.3960414,15.2659993 19.4010767,15.2496835 19.4052837,15.2331171 C19.4095125,15.2165725 19.4129021,15.1998425 19.4154525,15.1829273 C19.4180246,15.1660339 19.4197358,15.1490533 19.4205859,15.1319855 C19.4214578,15.1149177 19.4214796,15.0978499 19.4206513,15.0807822 C19.4198012,15.0637144 19.4181118,15.0467229 19.4155833,15.0298077 C19.4130547,15.0128489 19.4096978,14.9960644 19.4055126,14.9794544 C19.4013492,14.9628444 19.3963575,14.9464741 19.3905374,14.9303436 C19.3847392,14.9142132 19.3781671,14.8984096 19.3708212,14.8829331 C19.3634535,14.8674566 19.3553446,14.8523833 19.3464947,14.8377133 C19.3376229,14.8230432 19.3280645,14.8088419 19.3178195,14.7951092 C19.3075526,14.7813983 19.2966428,14.7682105 19.2850899,14.7555459 C19.2735152,14.7429031 19.2613519,14.7308597 19.2486001,14.7194158 C19.2358483,14.7079719 19.2225625,14.6971819 19.2087426,14.6870459 C19.1315124,14.6307091 19.0455522,14.6008241 18.950535,14.5925191 C18.8395616,14.5828081 18.7255148,14.5880723 18.6140837,14.5885627 L18.11575,14.5886281 L16.3872601,14.5884646 L14.353054,14.588432 L13.6960748,14.5883666 C13.5669873,14.5883666 13.4361343,14.5841487 13.3073411,14.5924864 Z M13.3737812,17.3808796 C13.2022205,17.3842474 13.0642395,17.4091951 12.9405798,17.5369747 C12.8415735,17.6392506 12.7942284,17.7793896 12.7989694,17.9208365 C12.8036451,18.0602235 12.867731,18.1898014 12.9706282,18.2829549 C13.0332101,18.3396186 13.1167181,18.3898084 13.2006838,18.4041297 C13.3307194,18.4262982 13.467556,18.4186798 13.5991284,18.4185817 L14.1410144,18.4179605 L16.0760508,18.4178297 C16.2399604,18.4135137 16.3710751,18.3750294 16.4868876,18.2543451 C16.4987892,18.2421382 16.5100588,18.2293537 16.5206962,18.2159916 C16.5313118,18.2026294 16.5412298,18.1887769 16.5504504,18.1744338 C16.5596709,18.160069 16.5681503,18.1452791 16.5758886,18.1300641 C16.5836268,18.1148709 16.5905695,18.0993181 16.5967165,18.0834056 C16.6028853,18.0674931 16.6082367,18.0513081 16.6127707,18.0348507 C16.6173047,18.018415 16.6209994,18.0017832 16.623855,17.9849552 C16.6267105,17.9681271 16.6287159,17.951201 16.6298712,17.9341768 C16.6310047,17.9171527 16.6312881,17.9001176 16.6307213,17.8830716 C16.6301546,17.8655242 16.6287268,17.8480423 16.626438,17.8306257 C16.6241274,17.8132091 16.6209558,17.7959452 16.6169232,17.7788338 C16.6128906,17.7617442 16.6080188,17.7448944 16.6023077,17.7282843 C16.5965966,17.7116525 16.590079,17.6953586 16.5827549,17.6794025 C16.575409,17.6634464 16.5672893,17.6478935 16.5583957,17.632744 C16.5495022,17.6175944 16.5398784,17.6029244 16.5295243,17.5887339 C16.5191703,17.5745434 16.5081297,17.5608979 16.4964024,17.5477974 C16.4846969,17.5347186 16.4723592,17.5222502 16.4593895,17.5103921 C16.3830095,17.4400283 16.30215,17.4043887 16.1997759,17.3891192 C16.0743178,17.3704166 15.941176,17.3786889 15.81441,17.3786562 L15.181365,17.3788197 L14.0152621,17.3787216 C13.8018166,17.3787543 13.5870959,17.3738498 13.3737812,17.3808796 Z"
                  id="Transactions"></path>
              </g>
            </g>
          </g>
        </g>
      </g>
    </g>
  </g>
</svg>