<?xml version="1.0" encoding="UTF-8"?>
<svg width="100%" height="100%" viewBox="0 0 15 15" version="1.1" xmlns="http://www.w3.org/2000/svg"
  xmlns:xlink="http://www.w3.org/1999/xlink">
  <title>Path 2</title>
  <g id="Framework" stroke="none" stroke-width="1" fill="none" fill-rule="evenodd">
    <g transform="translate(-355, -2634)" fill="var(--appMediumGray)" fill-rule="nonzero" id="Group-A">
      <g transform="translate(170, 208)">
        <g id="Components" transform="translate(0, 61)">
          <g id="Icons" transform="translate(0, 2257)">
            <g id="Regular" transform="translate(176, 99)">
              <path
                d="M12.653817,9.00474799 C12.7200944,8.99855536 12.7855808,8.99804993 12.8517264,9.00543802 C13.0323632,9.02561572 13.2115057,9.09492576 13.3522793,9.21105633 C13.5166544,9.34668337 13.6526814,9.53044506 13.7912136,9.69227103 L14.4658108,10.4807881 L15.6727371,11.8884806 C15.8759645,12.1255939 16.0896961,12.3578726 16.2831225,12.6026772 C16.4453441,12.8079703 16.5239277,13.0488633 16.4921514,13.3110284 C16.4903348,13.326499 16.4881373,13.3419257 16.4855588,13.3573084 C16.4829511,13.3726911 16.4799771,13.3880005 16.4766369,13.4032367 C16.4732673,13.4184436 16.4695315,13.4335626 16.4654295,13.4485937 C16.4613274,13.4636541 16.4568591,13.4785826 16.4520246,13.4933793 C16.4471607,13.5082053 16.4419306,13.5228994 16.4363342,13.5374617 C16.4307671,13.552024 16.4248338,13.5664252 16.4185342,13.5806651 C16.4122346,13.5949344 16.4055835,13.6090425 16.3985807,13.6229895 C16.3915779,13.6369072 16.3842235,13.6506491 16.3765175,13.6642152 C16.3688408,13.6777812 16.3608271,13.6911422 16.3524765,13.7042981 C16.3440966,13.7174539 16.3354091,13.7303901 16.3264138,13.7431064 C16.3174186,13.7558521 16.3081011,13.7683633 16.2984613,13.7806402 C16.2888508,13.7928877 16.2789326,13.8049009 16.2687068,13.8166797 C16.2584809,13.8284291 16.2479621,13.8399295 16.2371503,13.8511808 C16.2263677,13.8624322 16.2153068,13.8734052 16.2039676,13.8840998 C16.192599,13.8947945 16.1809961,13.9051961 16.1691587,13.9153047 C16.1572921,13.9254133 16.1451764,13.935229 16.1328116,13.9447516 C15.9384183,14.0944033 15.6860542,14.1700861 15.4418209,14.1349696 C15.2978389,14.1142689 15.1470005,14.0596823 15.0291691,13.9734074 C14.807878,13.8113616 14.4827317,13.3853928 14.2875473,13.1572454 C14.0894621,12.9256699 13.8775764,12.6987971 13.69483,12.4552231 C13.6746128,12.7089497 13.688589,12.9741034 13.6885451,13.2289727 L13.6884572,14.6722213 L13.6884572,19.2429918 L13.6890725,20.563926 C13.6891604,20.7966442 13.7061253,21.0441737 13.6782167,21.2749142 C13.6570325,21.4497935 13.6000286,21.6035765 13.4904159,21.7430756 C13.3284142,21.9492477 13.1040026,22.0743749 12.8445624,22.1052282 C12.8178405,22.1077334 12.7914262,22.1086214 12.7645724,22.1086214 C12.5077693,22.1096672 12.2678871,22.0175029 12.0852725,21.8345807 C11.9412905,21.6903349 11.8543123,21.5143129 11.8256126,21.3129314 C11.7867164,21.0399105 11.811021,20.690108 11.8111529,20.4071543 L11.8119,18.6961589 L11.8111089,12.4618596 C11.6922666,12.5846575 11.5835769,12.7200252 11.4725138,12.8498112 L10.9195718,13.4964559 C10.7849073,13.6539747 10.6529677,13.8344796 10.4862192,13.9590795 C10.4551022,13.9819631 10.42274,14.0028982 10.3891325,14.0218848 C10.3554956,14.0408715 10.3208479,14.0577631 10.2851894,14.0725598 C10.2495015,14.0873565 10.2130665,14.099941 10.1758843,14.1103134 C10.1387021,14.120715 10.1010219,14.1288458 10.0628435,14.1347059 C9.81887391,14.1716244 9.57117294,14.0980072 9.37534242,13.9516958 C9.3629132,13.9425248 9.35071985,13.9330314 9.33876237,13.9232158 C9.32680781,13.9134295 9.31510671,13.9033502 9.30365905,13.8929778 C9.29220847,13.8826055 9.28102598,13.8719402 9.27011159,13.8609818 C9.2591972,13.8500528 9.24856409,13.8388454 9.23821227,13.8273596 C9.22785752,13.8159032 9.2177987,13.804183 9.20803582,13.7921992 C9.19827,13.7802153 9.18881038,13.7679971 9.17965694,13.7555444 C9.17050643,13.7430918 9.16167237,13.7304194 9.15315475,13.7175272 C9.14463713,13.704635 9.13644914,13.6915378 9.12859078,13.6782354 C9.12072949,13.664933 9.11320662,13.6514402 9.10602217,13.6377569 C9.09884065,13.6240736 9.09200487,13.6102146 9.08551484,13.5961797 C9.07902773,13.5821741 9.07289516,13.5679927 9.06711713,13.5536355 C9.0613391,13.5393077 9.05592439,13.5248479 9.050873,13.5102563 C9.04581869,13.4956354 9.04113502,13.480912 9.03682201,13.466086 C9.03250899,13.45126 9.02856956,13.4363168 9.0250037,13.4212564 C9.02143785,13.4062254 9.01825143,13.3911064 9.01544445,13.3758995 C9.01263748,13.3607219 9.01021287,13.345471 9.00817064,13.3301469 C9.0061284,13.3147935 9.00446414,13.2993962 9.00317785,13.2839549 C9.00188864,13.2684843 9.00098032,13.2530137 9.00045292,13.2375431 C8.99990311,13.2220432 8.99977754,13.2065433 9.00000902,13.1910434 C9.00024049,13.1755435 9.00085287,13.1600583 9.00184615,13.1445877 C9.00283943,13.1291171 9.00420923,13.1136904 9.00595553,13.0983077 C9.00770476,13.0828957 9.0098305,13.0675423 9.01233275,13.0522475 C9.01483501,13.0369527 9.01771084,13.0217312 9.02096025,13.0065829 C9.02420966,12.9914346 9.02782972,12.9763742 9.03182043,12.9614017 C9.03580821,12.9463999 9.04016079,12.93153 9.04487815,12.9167919 C9.04959551,12.9020245 9.05467326,12.8873743 9.06011141,12.8728413 C9.06554663,12.8583377 9.07133492,12.8439658 9.07747628,12.8297258 C9.08361764,12.8155152 9.09010474,12.801451 9.09693759,12.7875333 C9.10377043,12.7736156 9.11094024,12.7598737 9.11844699,12.7463077 C9.12595082,12.7327709 9.13378427,12.7194099 9.14194736,12.7062248 C9.15011044,12.6930396 9.15859143,12.6800742 9.16739034,12.6673285 C9.17618631,12.6545535 9.1852914,12.642013 9.19470561,12.6297068 C9.40162486,12.3636741 9.63226861,12.1118813 9.85179288,11.8559132 L11.0444793,10.4649659 L11.7102424,9.68765622 C11.8493899,9.52490289 11.9875265,9.33621434 12.1530443,9.20038074 C12.2949607,9.08388538 12.474235,9.02729903 12.653817,9.00474799 Z M20.1780213,10.8617515 C20.202282,10.860726 20.2265574,10.86014 20.2508474,10.8599935 C20.2664059,10.8599935 20.2819351,10.8603744 20.297435,10.8611362 C20.3129642,10.8619273 20.3284641,10.8630847 20.3439347,10.8646083 C20.3594053,10.8661612 20.374832,10.8680951 20.3902147,10.8704098 C20.4055973,10.8726952 20.4209068,10.8753762 20.436143,10.8784527 C20.4513792,10.8815 20.4665275,10.8849428 20.4815879,10.8887811 C20.4966483,10.8925902 20.5116208,10.8967801 20.5265053,10.901351 C20.5413606,10.9058925 20.5560987,10.910815 20.5707196,10.9161184 C20.5853405,10.9213924 20.5998149,10.9270328 20.6141428,10.9330393 C20.6284706,10.9390459 20.642652,10.9454041 20.6566869,10.9521139 C20.6706925,10.958853 20.6845369,10.9659144 20.6982202,10.9732981 C20.7118742,10.980711 20.7253523,10.9884463 20.7386547,10.996504 C20.7519278,11.0045616 20.7650104,11.0129561 20.7779026,11.0216876 C20.7907654,11.0303898 20.8034085,11.0394144 20.8158319,11.0487612 C20.8282552,11.058108 20.8404442,11.0677625 20.8523988,11.0777246 C20.864324,11.0876574 20.8760149,11.0978832 20.8874713,11.1084021 C20.8988985,11.1189502 20.9100619,11.1297621 20.9209616,11.1408376 C21.0613837,11.2833253 21.1466038,11.4576332 21.1742048,11.6551031 C21.2134966,11.9362109 21.1891919,12.3272391 21.1891919,12.6209607 L21.1887964,14.5012536 L21.1880052,20.5097349 C21.4808039,20.1938183 21.7683285,19.8326765 22.0494802,19.502388 C22.1906934,19.3365186 22.3330053,19.1387411 22.5064342,19.0070213 C22.6165304,18.9233394 22.7598092,18.8679177 22.8952648,18.8434812 C23.1504857,18.797421 23.4008721,18.8567543 23.6113953,19.0068455 C23.6238186,19.0156356 23.6360076,19.0247333 23.6479621,19.0341388 C23.659946,19.0435442 23.6716808,19.0532426 23.6831665,19.063234 C23.6946523,19.0732255 23.7058743,19.0834952 23.7168327,19.0940434 C23.7278203,19.1045915 23.7385296,19.1154033 23.7489605,19.1264789 C23.7593915,19.1375544 23.7695441,19.1488937 23.7794183,19.1604966 C23.7893218,19.1720703 23.798903,19.183893 23.8081619,19.1959647 C23.8174502,19.2080072 23.8264454,19.220284 23.8351476,19.2327953 C23.8438205,19.2453066 23.8521711,19.2580229 23.8601994,19.2709444 C23.868257,19.2838658 23.8759777,19.2969778 23.8833614,19.3102801 C23.890745,19.3235825 23.8978064,19.3370607 23.9045455,19.3507146 C23.9112553,19.3643686 23.9176281,19.3781837 23.923664,19.39216 C23.9296999,19.4061363 23.9353842,19.4202591 23.9407168,19.4345284 C23.9460495,19.4487684 23.9510306,19.4631402 23.95566,19.4776439 C23.9602602,19.4921476 23.9645087,19.5067538 23.9684057,19.5214626 C23.9723026,19.5362007 23.9758333,19.551012 23.9789978,19.5658966 C23.9821622,19.5807812 23.9849458,19.595739 23.9873484,19.6107701 C23.9898682,19.6260649 23.9920218,19.6414037 23.9938091,19.6567864 C23.9955671,19.6721984 23.9969443,19.687625 23.9979405,19.7030663 C23.9989367,19.7185369 23.999552,19.7340221 23.9997864,19.749522 C24.0000208,19.7650219 23.9998946,19.7805072 23.9993469,19.7959778 C23.9988195,19.8114777 23.9978965,19.8269483 23.996578,19.8423896 C23.9952888,19.8578309 23.9936187,19.8732282 23.9915676,19.8885816 C23.9894873,19.903935 23.9870407,19.9192298 23.9842279,19.934466 C23.9813858,19.9497022 23.9781774,19.9648651 23.9746027,19.9799548 C23.9710281,19.9950445 23.9670872,20.0100317 23.96278,20.0249163 C23.9584729,20.0397716 23.9537848,20.0545389 23.9487158,20.0692184 C23.9436762,20.0838686 23.9382703,20.0983723 23.9324981,20.1127295 C23.9267259,20.127116 23.9206021,20.141356 23.9141267,20.1554494 C23.9076514,20.1695136 23.9008244,20.1834166 23.8936458,20.1971585 C23.8864965,20.2109004 23.8789956,20.2244518 23.8711431,20.2378128 C23.8633199,20.2512031 23.8551597,20.2643736 23.8466626,20.2773243 C23.8381655,20.2902751 23.8293608,20.3030208 23.8202483,20.3155613 C23.6380733,20.5631348 23.4162987,20.7948862 23.216016,21.0284834 L22.055853,22.3813256 L21.314495,23.2468001 C21.165107,23.4217233 21.016686,23.6269285 20.8389938,23.7737673 C20.6916276,23.8955104 20.5210115,23.9578762 20.33387,23.986576 C20.295926,23.9893009 20.2579528,23.9898723 20.2199502,23.98829 C19.9563347,23.9786209 19.7157933,23.8516038 19.5398152,23.6595398 C19.3210293,23.4208883 19.1163076,23.1657113 18.9054768,22.9195882 L17.6521825,21.4573969 L17.0136248,20.7126986 C16.8865198,20.5651566 16.7349783,20.4135271 16.632969,20.2476138 C16.5363657,20.0905345 16.4943489,19.9055465 16.503183,19.722009 C16.5038276,19.7062747 16.5048678,19.6905697 16.5063035,19.674894 C16.5077099,19.6592476 16.5095265,19.6436305 16.5117534,19.6280427 C16.5139802,19.6124549 16.5166026,19.5969403 16.5196205,19.581499 C16.5226385,19.5660578 16.5260373,19.5506897 16.5298171,19.5353949 C16.5335968,19.5201294 16.5377721,19.5049665 16.542343,19.4899061 C16.5468845,19.4748457 16.551807,19.4599025 16.5571103,19.4450765 C16.562443,19.4302505 16.5681419,19.4155857 16.5742071,19.401082 C16.580243,19.386549 16.5866598,19.3721772 16.5934575,19.3579665 C16.6002552,19.3437851 16.6073898,19.3297649 16.6148614,19.3159058 C16.6223623,19.302076 16.6302148,19.2884367 16.6384189,19.2749878 C16.6465937,19.2615683 16.6551055,19.2483538 16.6639542,19.2353444 C16.6728322,19.2223351 16.6820178,19.2095601 16.6915112,19.1970195 C16.7010338,19.1844497 16.7108494,19.1721435 16.720958,19.1601011 C16.731096,19.1480586 16.7415269,19.1362799 16.7522508,19.1247648 C16.7629748,19.1132498 16.7739917,19.1020131 16.7853017,19.0910547 C16.7965823,19.0800964 16.8081413,19.0694311 16.8199787,19.0590587 C17.0065048,18.893497 17.2426952,18.8144738 17.4912795,18.8300763 C17.6601376,18.8406684 17.8307097,18.8967932 17.9695056,18.9943635 C18.1827098,19.1442349 18.3710379,19.4109269 18.540775,19.6093637 C18.7958055,19.9097511 19.0529749,20.2082927 19.3122832,20.5049883 C19.3212491,20.2583377 19.314173,20.0089622 19.314173,19.762004 L19.314217,18.3456972 L19.3140851,14.0645169 L19.3134259,12.5136773 C19.313338,12.2461063 19.2941755,11.9640756 19.3228753,11.6986142 C19.3423893,11.5184169 19.4004919,11.3596235 19.5128296,11.216037 C19.6846323,10.99646 19.906275,10.895154 20.1780213,10.8617515 Z"
                id="Path-2"></path>
            </g>
          </g>
        </g>
      </g>
    </g>
  </g>
</svg>