<?xml version="1.0" encoding="UTF-8"?>
<svg width="100%" height="100%" viewBox="0 0 10 10" version="1.1" xmlns="http://www.w3.org/2000/svg"
  xmlns:xlink="http://www.w3.org/1999/xlink">
  <title>Path 2</title>
  <g id="Framework" stroke="none" stroke-width="1" fill="none" fill-rule="evenodd">
    <g transform="translate(-599, -2229)" fill="var(--appSpaceBlack)" fill-rule="nonzero" id="Group-A">
      <g transform="translate(170, 208)">
        <g id="Components" transform="translate(0, 61)">
          <g id="Settings" transform="translate(0, 1803)">
            <g id="4" transform="translate(14, 153)">
              <path
                d="M417.437606,4.00316762 C417.481822,3.99903621 417.525512,3.99869901 417.569641,4.00362797 C417.690152,4.0170895 417.809667,4.0633296 417.903584,4.14080596 C418.013246,4.23128936 418.103997,4.35388574 418.196418,4.46184772 L418.646475,4.98790584 L419.451674,5.92704611 C419.587257,6.08523593 419.729848,6.24020038 419.858892,6.40352147 C419.967118,6.54048248 420.019545,6.70119395 419.998345,6.87609706 C419.997133,6.88641825 419.995667,6.89671012 419.993947,6.90697266 C419.992207,6.91723521 419.990223,6.92744889 419.987995,6.93761369 C419.985747,6.94775895 419.983255,6.95784557 419.980518,6.96787355 C419.977781,6.97792107 419.9748,6.98788062 419.971575,6.99775222 C419.96833,7.00764336 419.964841,7.01744653 419.961107,7.02716174 C419.957393,7.03687695 419.953435,7.04648465 419.949232,7.05598484 C419.945029,7.06550457 419.940592,7.07491679 419.93592,7.0842215 C419.931248,7.09350666 419.926341,7.10267453 419.9212,7.11172512 C419.916079,7.12077571 419.910733,7.12968946 419.905161,7.13846639 C419.899571,7.14724331 419.893775,7.15587362 419.887774,7.16435732 C419.881773,7.17286058 419.875556,7.18120745 419.869125,7.18939794 C419.862714,7.19756888 419.856097,7.20558344 419.849275,7.21344162 C419.842452,7.22128025 419.835435,7.22895272 419.828222,7.23645904 C419.821028,7.24396536 419.813649,7.25128598 419.806084,7.25842089 C419.798499,7.2655558 419.790759,7.27249524 419.782861,7.2792392 C419.774944,7.28598316 419.766861,7.29253164 419.758612,7.29888464 C419.628923,7.39872456 419.460559,7.44921628 419.297619,7.42578836 C419.201561,7.4119779 419.10093,7.37556052 419.022319,7.3180023 C418.874685,7.20989371 418.657764,6.92570914 418.527547,6.77350092 C418.395394,6.61900562 418.254035,6.46764772 418.132116,6.30514763 C418.118628,6.474421 418.127952,6.65131798 418.127923,6.82135371 L418.127864,7.78421511 L418.127864,10.8335988 L418.128275,11.7148583 C418.128334,11.8701159 418.139652,12.035255 418.121033,12.1891932 C418.1069,12.3058637 418.068869,12.4084598 417.995741,12.5015264 C417.887662,12.6390739 417.737946,12.7225524 417.564861,12.7431361 C417.547034,12.7448074 417.529411,12.7453998 417.511496,12.7453998 C417.34017,12.7460976 417.180133,12.6846103 417.058302,12.5625739 C416.962244,12.4663406 416.904217,12.3489077 416.88507,12.2145563 C416.85912,12.0324108 416.875335,11.7990405 416.875423,11.6102683 L416.875922,10.4687799 L416.875394,6.30957519 C416.796108,6.39149963 416.723596,6.48181003 416.649501,6.5683966 L416.280606,6.99980472 C416.190765,7.1048932 416.102742,7.22531685 415.991496,7.30844347 C415.970736,7.32371023 415.949145,7.33767707 415.926724,7.35034398 C415.904283,7.3630109 415.881168,7.37428015 415.857379,7.38415174 C415.83357,7.39402333 415.809262,7.40241907 415.784456,7.40933896 C415.75965,7.4162784 415.734512,7.42170289 415.709041,7.42561243 C415.546277,7.45024254 415.381024,7.40112893 415.250375,7.30351745 C415.242083,7.29739902 415.233949,7.29106556 415.225971,7.28451708 C415.217996,7.27798814 415.210189,7.27126373 415.202552,7.26434384 C415.194913,7.25742396 415.187452,7.25030859 415.180171,7.24299775 C415.172889,7.23570645 415.165795,7.22822946 415.158889,7.22056675 C415.151981,7.2129236 415.14527,7.20510452 415.138757,7.19710951 C415.132242,7.18911449 415.125931,7.1809631 415.119824,7.17265532 C415.113719,7.16434755 415.107826,7.15589317 415.102143,7.14729217 C415.096461,7.13869118 415.090998,7.12995336 415.085755,7.1210787 C415.080511,7.11220404 415.075492,7.10320232 415.070699,7.09407354 C415.065908,7.08494476 415.061347,7.0756987 415.057017,7.06633535 C415.05269,7.05699154 415.048598,7.04753045 415.044743,7.03795208 C415.040889,7.02839325 415.037276,7.01874645 415.033906,7.00901169 C415.030534,6.99925739 415.027409,6.98943467 415.024532,6.97954353 C415.021655,6.96965239 415.019026,6.95968306 415.016647,6.94963553 C415.014268,6.93960756 415.012143,6.92952094 415.01027,6.91937568 C415.008397,6.90924997 415.00678,6.89907539 415.005417,6.88885194 C415.004055,6.87860894 415.002945,6.86833662 415.002086,6.85803498 C415.001226,6.84771379 415.00062,6.8373926 415.000268,6.82707141 C414.999902,6.81673067 414.999818,6.80638994 414.999972,6.7960492 C415.000127,6.78570846 415.000535,6.7753775 415.001198,6.76505631 C415.001861,6.75473512 415.002774,6.74444325 415.003939,6.73418071 C415.005106,6.72389861 415.006525,6.71365561 415.008194,6.70345171 C415.009863,6.69324781 415.011782,6.68309277 415.01395,6.67298661 C415.016118,6.66288045 415.018533,6.65283292 415.021195,6.64284405 C415.023856,6.63283562 415.026759,6.62291516 415.029907,6.61308266 C415.033054,6.60323062 415.036441,6.59345676 415.04007,6.5837611 C415.043696,6.57408499 415.047557,6.56449684 415.051654,6.55499665 C415.055752,6.54551601 415.06008,6.53613311 415.064638,6.52684795 C415.069197,6.51756279 415.07398,6.50839492 415.078988,6.49934433 C415.083994,6.49031329 415.08922,6.48139953 415.094666,6.47260306 C415.100112,6.4638066 415.10577,6.45515674 415.111641,6.44665348 C415.117509,6.43813068 415.123583,6.42976426 415.129864,6.42155423 C415.26791,6.24407082 415.421783,6.0760876 415.568239,5.90531883 L416.363938,4.97735008 L416.808101,4.45876896 C416.900933,4.35018829 416.993091,4.22430496 417.103516,4.13368375 C417.198195,4.05596402 417.317798,4.01821251 417.437606,4.00316762 Z M422.457369,5.24206513 C422.473554,5.24138096 422.48975,5.24099001 422.505955,5.24089227 C422.516334,5.24089227 422.526695,5.24114639 422.537035,5.24165463 C422.547396,5.24218242 422.557736,5.24295455 422.568058,5.24397103 C422.578379,5.24500706 422.588671,5.24629721 422.598933,5.24784148 C422.609196,5.2493662 422.619409,5.25115481 422.629574,5.25320732 C422.639739,5.25524028 422.649845,5.25753714 422.659893,5.26009789 C422.66994,5.26263909 422.679929,5.26543441 422.689859,5.26848386 C422.69977,5.27151375 422.709603,5.27479777 422.719357,5.2783359 C422.729111,5.28185449 422.738768,5.28561742 422.748327,5.2896247 C422.757885,5.29363198 422.767347,5.29787383 422.77671,5.30235026 C422.786054,5.30684623 422.79529,5.31155723 422.804419,5.31648325 C422.813528,5.32142882 422.82252,5.32658942 422.831395,5.33196503 C422.84025,5.33734065 422.848978,5.34294107 422.857579,5.34876629 C422.86616,5.35457196 422.874595,5.36059265 422.882883,5.36682837 C422.891171,5.37306409 422.899303,5.37950506 422.907279,5.38615128 C422.915235,5.39277795 422.923034,5.3996001 422.930677,5.40661773 C422.938301,5.4136549 422.945749,5.42086801 422.95302,5.42825704 C423.046703,5.52331754 423.103557,5.63960685 423.121971,5.77134862 C423.148185,5.95888932 423.13197,6.21976325 423.13197,6.41571924 L423.131706,7.67015424 L423.131178,11.6787048 C423.326518,11.4679414 423.51834,11.2270062 423.70591,11.0066546 C423.80012,10.8959951 423.895064,10.764048 424.010766,10.6761713 C424.084217,10.6203431 424.179805,10.5833686 424.270174,10.5670658 C424.440445,10.5363368 424.607489,10.5759209 424.74794,10.676054 C424.756228,10.6819183 424.76436,10.6879879 424.772335,10.6942627 C424.78033,10.7005375 424.788159,10.7070078 424.795822,10.7136736 C424.803485,10.7203394 424.810971,10.7271908 424.818282,10.734228 C424.825613,10.7412652 424.832757,10.7484783 424.839716,10.7558673 C424.846675,10.7632564 424.853449,10.7708213 424.860036,10.7785622 C424.866643,10.7862836 424.873035,10.7941711 424.879212,10.8022247 C424.885409,10.8102588 424.89141,10.8184493 424.897216,10.8267962 C424.903002,10.835143 424.908573,10.8436268 424.913929,10.8522473 C424.919305,10.8608678 424.924456,10.8696154 424.929382,10.8784901 C424.934308,10.8873647 424.939019,10.8963567 424.943515,10.9054659 C424.947991,10.9145752 424.952243,10.9237919 424.956269,10.9331162 C424.960296,10.9424404 424.964089,10.9518624 424.967646,10.9613821 C424.971204,10.9708823 424.974527,10.9804705 424.977616,10.9901466 C424.980685,10.9998227 424.983519,11.0095672 424.986119,11.0193802 C424.988719,11.0292127 424.991074,11.039094 424.993185,11.0490243 C424.995296,11.0589545 424.997153,11.0689336 424.998756,11.0789616 C425.000438,11.0891655 425.001874,11.0993987 425.003067,11.1096613 C425.00424,11.1199434 425.005158,11.1302352 425.005823,11.1405369 C425.006488,11.1508581 425.006898,11.161189 425.007054,11.1715298 C425.007211,11.1818705 425.007127,11.1922015 425.006761,11.2025227 C425.006409,11.2128634 425.005794,11.2231846 425.004914,11.2334862 C425.004054,11.2437879 425.00294,11.2540602 425.001571,11.2643032 C425.000183,11.2745462 424.998551,11.2847501 424.996675,11.2949149 C424.994778,11.3050797 424.992638,11.3151956 424.990253,11.3252627 C424.987868,11.3353298 424.985239,11.3453284 424.982366,11.3552587 C424.979492,11.3651693 424.976365,11.3750214 424.972983,11.3848148 C424.969621,11.3945886 424.966014,11.4042648 424.962163,11.4138431 C424.958312,11.4234411 424.954227,11.4329412 424.949907,11.4423437 C424.945587,11.4517266 424.941032,11.461002 424.936243,11.4701699 C424.931473,11.4793377 424.926469,11.4883785 424.92123,11.4972923 C424.916011,11.5062256 424.910567,11.5150123 424.904898,11.5236524 C424.899229,11.5322925 424.893355,11.5407957 424.887276,11.5491621 C424.765738,11.7143305 424.617781,11.8689431 424.484163,12.0247872 L423.710162,12.9273341 L423.215566,13.5047343 C423.115902,13.6214341 423.016883,13.7583365 422.898336,13.8562998 C422.800021,13.9375205 422.686194,13.9791278 422.561343,13.9982748 C422.536029,14.0000928 422.510695,14.0004739 422.485342,13.9994184 C422.309471,13.9929676 422.148994,13.9082283 422.03159,13.7800931 C421.885628,13.620877 421.749048,13.450636 421.608392,13.2864353 L420.772259,12.3109363 L420.346246,11.8141118 C420.261448,11.7156793 420.160347,11.6145199 420.092292,11.503831 C420.027843,11.3990358 419.999811,11.2756213 420.005705,11.1531745 C420.006135,11.1426773 420.006829,11.1321998 420.007787,11.1217418 C420.008725,11.1113033 420.009937,11.1008843 420.011423,11.090485 C420.012908,11.0800856 420.014658,11.0697351 420.016671,11.0594334 C420.018685,11.0491318 420.020952,11.038879 420.023474,11.0286751 C420.025996,11.0184908 420.028781,11.0083748 420.031831,10.9983273 C420.034861,10.9882798 420.038145,10.9783105 420.041683,10.9684193 C420.04524,10.9585282 420.049042,10.9487445 420.053089,10.9390684 C420.057116,10.9293728 420.061397,10.9197846 420.065932,10.910304 C420.070467,10.9008429 420.075227,10.8914893 420.080211,10.8822432 C420.085215,10.8730167 420.090454,10.8639173 420.095928,10.8549449 C420.101381,10.845992 420.10706,10.837176 420.112963,10.8284968 C420.118886,10.8198176 420.125015,10.8112948 420.131348,10.8029284 C420.137701,10.7945425 420.14425,10.7863324 420.150993,10.7782983 C420.157757,10.7702642 420.164716,10.762406 420.17187,10.7547238 C420.179025,10.7470415 420.186375,10.739545 420.19392,10.7322341 C420.201446,10.7249233 420.209158,10.7178079 420.217055,10.710888 C420.341496,10.6004337 420.49907,10.5477136 420.664912,10.5581227 C420.777566,10.5651892 420.891363,10.6026328 420.98396,10.6677267 C421.126199,10.7677132 421.251842,10.9456365 421.365082,11.0780233 C421.535225,11.2784264 421.706795,11.477598 421.879793,11.6755381 C421.885774,11.5109855 421.881054,11.3446149 421.881054,11.1798571 L421.881083,10.2349698 L421.880995,7.3787859 L421.880555,6.34414531 C421.880496,6.16563565 421.867712,5.97747919 421.886859,5.80037697 C421.899878,5.68015857 421.938641,5.57421977 422.013587,5.47842623 C422.128205,5.33193571 422.276074,5.26434952 422.457369,5.24206513 Z"
                id="Path-2" transform="translate(420.0035, 9) rotate(90) translate(-420.0035, -9)"></path>
            </g>
          </g>
        </g>
      </g>
    </g>
  </g>
</svg>